<svg xmlns="http://www.w3.org/2000/svg" width="64.61" height="63.534" viewBox="0 0 64.61 63.534"><g transform="translate(-918 -1059.744)"><rect width="64" height="42" transform="translate(918 1062.278)" fill="#b0ddff"/><rect width="22" height="3" transform="translate(939 1102.278)" fill="#b0ddff"/><rect width="9" height="42" transform="translate(919 1062.278)" fill="#e6f3ff"/><g transform="translate(918 1059.744)"><path d="M52,36.306H47.541A1.543,1.543,0,0,1,46,34.765V19.541A1.543,1.543,0,0,1,47.541,18H52a1.543,1.543,0,0,1,1.541,1.541V34.765A1.543,1.543,0,0,1,52,36.306Zm-3.843-2.154h3.231v-14H48.154Z" transform="translate(3.535 1.383)" fill="#2553ff"/><path d="M43,35.692H38.541A1.543,1.543,0,0,1,37,34.151v-6.61A1.543,1.543,0,0,1,38.541,26H43a1.543,1.543,0,0,1,1.541,1.541v6.61A1.543,1.543,0,0,1,43,35.692Zm-3.843-2.154h3.231V28.154H39.154Z" transform="translate(2.843 1.998)" fill="#2553ff"/><path d="M25,35.461H20.541A1.543,1.543,0,0,1,19,33.92V30.541A1.543,1.543,0,0,1,20.541,29H25a1.543,1.543,0,0,1,1.541,1.541V33.92A1.543,1.543,0,0,1,25,35.461Zm-3.843-2.154h3.231V31.154H21.154Z" transform="translate(1.46 2.228)" fill="#2553ff"/><path d="M34,36H29.541A1.543,1.543,0,0,1,28,34.458V23.541A1.543,1.543,0,0,1,29.541,22H34a1.543,1.543,0,0,1,1.541,1.541V34.458A1.543,1.543,0,0,1,34,36Zm-3.843-2.154h3.231V24.154H30.154Z" transform="translate(2.152 1.69)" fill="#2553ff"/><path d="M20.077,27.383a1.077,1.077,0,0,1-.761-1.838L31.161,13.7a1.078,1.078,0,0,1,1.359-.135l8.88,5.919L50.473,8.4A1.077,1.077,0,0,1,52.14,9.758L42.448,21.6a1.077,1.077,0,0,1-1.431.214L32.06,15.847,20.839,27.068a1.078,1.078,0,0,1-.762.316Z" transform="translate(1.46 0.615)" fill="#2553ff"/><path d="M49.461,10.154H44.077a1.077,1.077,0,0,1,0-2.154h5.384a1.077,1.077,0,0,1,0,2.154Z" transform="translate(3.304 0.615)" fill="#2553ff"/><path d="M49.077,15.538A1.077,1.077,0,0,1,48,14.461V9.077a1.077,1.077,0,1,1,2.154,0v5.384A1.077,1.077,0,0,1,49.077,15.538Z" transform="translate(3.688 0.615)" fill="#2553ff"/><path d="M15.692,31.154H7.077a1.077,1.077,0,1,1,0-2.154h8.615a1.077,1.077,0,1,1,0,2.154Z" transform="translate(0.461 2.228)" fill="#2553ff"/><path d="M11.384,35.154H7.077a1.077,1.077,0,1,1,0-2.154h4.307a1.077,1.077,0,1,1,0,2.154Z" transform="translate(0.461 2.536)" fill="#2553ff"/><path d="M15.692,21.154H7.077a1.077,1.077,0,1,1,0-2.154h8.615a1.077,1.077,0,1,1,0,2.154Z" transform="translate(0.461 1.46)" fill="#2553ff"/><path d="M11.384,25.154H7.077a1.077,1.077,0,0,1,0-2.154h4.307a1.077,1.077,0,1,1,0,2.154Z" transform="translate(0.461 1.767)" fill="#2553ff"/><path d="M15.692,11.154H7.077A1.077,1.077,0,1,1,7.077,9h8.615a1.077,1.077,0,1,1,0,2.154Z" transform="translate(0.461 0.692)" fill="#2553ff"/><path d="M11.384,15.154H7.077a1.077,1.077,0,0,1,0-2.154h4.307a1.077,1.077,0,1,1,0,2.154Z" transform="translate(0.461 0.999)" fill="#2553ff"/><path d="M39.306,6.461H22.077A1.077,1.077,0,0,1,21,5.384V1.077A1.077,1.077,0,0,1,22.077,0H39.306a1.077,1.077,0,0,1,1.077,1.077V5.384A1.077,1.077,0,0,1,39.306,6.461ZM23.154,4.307H38.229V2.154H23.154Z" transform="translate(1.614)" fill="#2553ff"/><path d="M41.614,44.461H20.077A1.077,1.077,0,0,1,19,43.384V39.077A1.077,1.077,0,0,1,20.077,38H41.614a1.077,1.077,0,0,1,1.077,1.077v4.307A1.077,1.077,0,0,1,41.614,44.461Zm-20.46-2.154H40.537V40.154H21.154Z" transform="translate(1.46 2.92)" fill="#2553ff"/><path d="M63.534,45.074H43.074A1.077,1.077,0,0,1,42,44V42.92H22.614V44a1.077,1.077,0,0,1-1.077,1.077H1.077A1.077,1.077,0,0,1,0,44V3.077A1.077,1.077,0,0,1,1.077,2H23.69a1.077,1.077,0,0,1,1.077,1.077V4.154H39.843V3.077A1.077,1.077,0,0,1,40.92,2H63.534A1.077,1.077,0,0,1,64.61,3.077V44A1.077,1.077,0,0,1,63.534,45.074ZM44.15,42.92H62.457V4.154H42V5.231A1.077,1.077,0,0,1,40.92,6.307H23.69a1.077,1.077,0,0,1-1.077-1.077V4.154H2.154V42.92H20.46V41.843a1.077,1.077,0,0,1,1.077-1.077H43.074a1.077,1.077,0,0,1,1.077,1.077Z" transform="translate(0 0.154)" fill="#2553ff"/><path d="M30.077,51.692A1.077,1.077,0,0,1,29,50.615V43.077a1.077,1.077,0,1,1,2.154,0v7.538A1.077,1.077,0,0,1,30.077,51.692Z" transform="translate(2.228 3.227)" fill="#2553ff"/><path d="M30.384,59.768a5.384,5.384,0,1,1,5.384-5.384A5.39,5.39,0,0,1,30.384,59.768Zm0-8.615a3.231,3.231,0,1,0,3.231,3.231A3.234,3.234,0,0,0,30.384,51.154Z" transform="translate(1.921 3.765)" fill="#2553ff"/></g></g></svg>