<svg xmlns="http://www.w3.org/2000/svg" width="62.925" height="62.922" viewBox="0 0 62.925 62.922"><g transform="translate(-594.001 -1518.078)"><rect width="60" height="50" transform="translate(595 1519)" fill="#e6f3ff"/><rect width="53" height="50" transform="translate(603 1519)" fill="#b0ddff"/><g transform="translate(594.002 1518.078)"><path d="M3.146,52.435H21.375l-2.1,4.195H15.731a3.146,3.146,0,1,0,0,6.292H47.192a3.146,3.146,0,1,0,0-6.292H43.645l-2.1-4.195H59.776A3.251,3.251,0,0,0,62.922,49.1V3.337A3.251,3.251,0,0,0,59.776,0H3.146A3.251,3.251,0,0,0,0,3.337V49.1a3.251,3.251,0,0,0,3.146,3.337Zm45.094,7.341a1.049,1.049,0,0,1-1.049,1.049H15.731a1.049,1.049,0,1,1,0-2.1H47.192A1.049,1.049,0,0,1,48.241,59.776ZM41.3,56.63H21.622l2.1-4.195H39.2Zm18.476-6.292H3.146A1.171,1.171,0,0,1,2.1,49.1V46.143H60.825V49.1a1.171,1.171,0,0,1-1.049,1.24ZM10.993,11.693a4.475,4.475,0,0,0,3.956-.864,8.744,8.744,0,0,0,3.194.688,1.049,1.049,0,0,0,.21.158,1.041,1.041,0,0,1-.035,1.832,1.049,1.049,0,0,0-.551.734,3.139,3.139,0,0,1-6.162,0,1.049,1.049,0,0,0-.551-.734,1.038,1.038,0,0,1-.062-1.814Zm.543-2.045a3.149,3.149,0,0,1,6.292-.259,4.893,4.893,0,0,1-2.4-.689,1.049,1.049,0,0,0-1.678.273C13.348,9.76,12.27,9.753,11.536,9.648Zm.187,8.3a5.145,5.145,0,0,0,5.919,0,4.167,4.167,0,0,1,3.184,3.031H8.539a4.167,4.167,0,0,1,3.184-3.034ZM7.341,23.072H22.023a1.049,1.049,0,0,1,1.049,1.049v2.1H6.292v-2.1A1.049,1.049,0,0,1,7.341,23.072Zm53.484,5.244V44.046H55.943a7.633,7.633,0,0,0-2.924-3.165,5.166,5.166,0,0,0,.242-.61,3.14,3.14,0,0,0,.21-4.866A5.244,5.244,0,0,0,43,35.4a3.139,3.139,0,0,0,.21,4.865,5.265,5.265,0,0,0,.246.623,7.26,7.26,0,0,0-2.879,3.153H39.13a7.243,7.243,0,0,0-2.89-3.166,5.151,5.151,0,0,0,.242-.609,3.14,3.14,0,0,0,.21-4.866,5.244,5.244,0,0,0-10.474,0,3.139,3.139,0,0,0,.21,4.865,5.146,5.146,0,0,0,.247.624A7.262,7.262,0,0,0,23.8,44.046H22.358a7.247,7.247,0,0,0-2.89-3.166,5.052,5.052,0,0,0,.241-.61,3.139,3.139,0,0,0,.216-4.865,5.244,5.244,0,0,0-10.476,0,3.139,3.139,0,0,0,.21,4.865,5.165,5.165,0,0,0,.246.621,7.262,7.262,0,0,0-2.89,3.156H2.1V28.315ZM44.6,38.676a1.041,1.041,0,0,1-.035-1.832,1.182,1.182,0,0,0,.524-1.188,3.146,3.146,0,1,1,6.292,0v.283a1.049,1.049,0,0,0,.519.9,1.041,1.041,0,0,1-.033,1.832c-.6.309-.476.763-.77,1.408a14.308,14.308,0,0,0-3.919-.234,7.306,7.306,0,0,0-1.8.246C45.079,39.447,45.206,38.988,44.6,38.676Zm2.579,3.272c2.552,0,4.475-.233,6.292,2.1H42.987a5.235,5.235,0,0,1,4.195-2.1ZM27.823,38.676a1.041,1.041,0,0,1-.035-1.832,1.182,1.182,0,0,0,.524-1.188,3.146,3.146,0,0,1,6.292,0v.283a1.049,1.049,0,0,0,.519.9,1.041,1.041,0,0,1-.033,1.832c-.6.308-.477.767-.77,1.407a14.325,14.325,0,0,0-3.915-.233A7.341,7.341,0,0,0,28.6,40.1C28.3,39.448,28.426,38.988,27.823,38.676Zm2.583,3.272c2.523,0,4.526-.23,6.284,2.1H26.218A5.237,5.237,0,0,1,30.406,41.948ZM11.051,38.676a1.041,1.041,0,0,1-.035-1.832,1.181,1.181,0,0,0,.519-1.188,3.146,3.146,0,1,1,6.292,0v.283a1.049,1.049,0,0,0,.524.905,1.041,1.041,0,0,1-.035,1.832c-.6.315-.475.763-.769,1.407a14.334,14.334,0,0,0-3.916-.233,7.324,7.324,0,0,0-1.806.245C11.527,39.447,11.654,38.988,11.051,38.676Zm2.582,3.272c2.523,0,4.527-.231,6.285,2.1H9.431a5.252,5.252,0,0,1,4.2-2.1ZM3.146,2.1h56.63a1.171,1.171,0,0,1,1.049,1.24V26.218H25.169v-2.1a3.14,3.14,0,0,0-2.179-2.978,6.257,6.257,0,0,0-3.787-4.9,5.209,5.209,0,0,0,.513-1.145,3.139,3.139,0,0,0,.21-4.861v-.8a5.244,5.244,0,1,0-10.487,0v.8A3.139,3.139,0,0,0,9.653,15.1a5.209,5.209,0,0,0,.508,1.146,6.257,6.257,0,0,0-3.787,4.894A3.146,3.146,0,0,0,4.195,24.12v2.1H2.1V3.337A1.171,1.171,0,0,1,3.146,2.1Z" transform="translate(0)" fill="#2553ff"/><path d="M30.146,23.925H53.218a3.146,3.146,0,0,0,3.146-3.146V7.146A3.146,3.146,0,0,0,53.218,4H30.146A3.146,3.146,0,0,0,27,7.146V20.779A3.146,3.146,0,0,0,30.146,23.925ZM29.1,7.146A1.049,1.049,0,0,1,30.146,6.1H53.218a1.049,1.049,0,0,1,1.049,1.049V20.779a1.049,1.049,0,0,1-1.049,1.049H30.146A1.049,1.049,0,0,1,29.1,20.779Z" transform="translate(1.315 0.195)" fill="#2553ff"/><path d="M32.049,12.195c.419,0,.369-.035,3.012-1.8l1.489,1.489a1.049,1.049,0,0,0,1.323.131l3.146-2.1a1.049,1.049,0,1,0-1.164-1.745L37.425,9.8,35.936,8.307a1.049,1.049,0,0,0-1.323-.131l-3.146,2.1a1.049,1.049,0,0,0,.582,1.921Z" transform="translate(1.51 0.39)" fill="#2553ff"/><path d="M32.049,19.244A1.049,1.049,0,0,0,33.1,18.195V15.049a1.049,1.049,0,0,0-2.1,0v3.146A1.049,1.049,0,0,0,32.049,19.244Z" transform="translate(1.51 0.682)" fill="#2553ff"/><path d="M36.049,15A1.049,1.049,0,0,0,35,16.049v2.1a1.049,1.049,0,0,0,2.1,0v-2.1A1.049,1.049,0,0,0,36.049,15Z" transform="translate(1.705 0.731)" fill="#2553ff"/><path d="M40.049,13A1.049,1.049,0,0,0,39,14.049v4.195a1.049,1.049,0,0,0,2.1,0V14.049A1.049,1.049,0,0,0,40.049,13Z" transform="translate(1.9 0.633)" fill="#2553ff"/><path d="M44.049,11.1h6.292a1.049,1.049,0,0,0,0-2.1H44.049a1.049,1.049,0,0,0,0,2.1Z" transform="translate(2.094 0.438)" fill="#2553ff"/><path d="M44.049,15.1h3.146a1.049,1.049,0,0,0,0-2.1H44.049a1.049,1.049,0,0,0,0,2.1Z" transform="translate(2.094 0.633)" fill="#2553ff"/><path d="M44.049,19.1h5.244a1.049,1.049,0,0,0,0-2.1H44.049a1.049,1.049,0,0,0,0,2.1Z" transform="translate(2.094 0.828)" fill="#2553ff"/></g></g></svg>