<svg xmlns="http://www.w3.org/2000/svg" width="60.834" height="60.818" viewBox="0 0 60.834 60.818"><g transform="translate(-522 -1052.572)"><circle cx="30.197" cy="30.197" r="30.197" transform="translate(522 1052.931)" fill="#e6f3ff"/><path d="M30.2,0c16.677,0,16.677,60.394,0,60.394A30.2,30.2,0,0,1,30.2,0Z" transform="translate(522 1052.931)" fill="#b0ddff"/><g transform="translate(522 1052.572)"><g transform="translate(0 0)"><path d="M58.2,18.167a30.29,30.29,0,0,0-7.052-9.9.891.891,0,1,0-1.216,1.3A28.417,28.417,0,0,1,52.39,12.18c-1.951.6-3.969,1.11-6.037,1.54-1.623-4.006-4.4-8.2-7.605-10.616a28.451,28.451,0,0,1,8.059,3.932A.89.89,0,1,0,47.83,5.579C27.838-8.491-.071,6.018.006,30.484-.331,46.821,14.063,61.217,30.4,60.878,52.23,61.017,67.134,38.056,58.2,18.167ZM53.55,47.282c-2.112-.669-4.3-1.243-6.552-1.72a44.883,44.883,0,0,0,2.49-14.187H59A28.45,28.45,0,0,1,53.55,47.282ZM1.8,31.374h9.512A44.708,44.708,0,0,0,13.8,45.562c-2.247.477-4.437,1.051-6.548,1.719A28.45,28.45,0,0,1,1.8,31.374Zm5.45-17.689c2.111.668,4.3,1.242,6.548,1.719a44.708,44.708,0,0,0-2.485,14.189H1.8A28.451,28.451,0,0,1,7.252,13.685ZM39.009,21.4H31.291v-4.29a80.782,80.782,0,0,0,13.946-1.354,42.745,42.745,0,0,1,2.468,13.836H41.977V24.369A2.971,2.971,0,0,0,39.009,21.4Zm-9.5-6.071a79.091,79.091,0,0,1-13.277-1.26C18.7,7.991,23.864,2.219,29.51,1.908Zm0,1.781V21.4H21.793a2.971,2.971,0,0,0-2.968,2.968v5.224H13.1a42.748,42.748,0,0,1,2.468-13.836A80.806,80.806,0,0,0,29.51,17.111ZM13.1,31.374h5.729v.787a.891.891,0,0,0,1.781,0V24.369a1.188,1.188,0,0,1,1.187-1.187H39.009A1.188,1.188,0,0,1,40.2,24.369V36.6a1.188,1.188,0,0,1-1.187,1.187H21.792A1.188,1.188,0,0,1,20.605,36.6v-.329a.891.891,0,0,0-1.781,0V36.6a2.971,2.971,0,0,0,2.968,2.968H29.51v4.29a80.783,80.783,0,0,0-13.946,1.354A42.752,42.752,0,0,1,13.1,31.374ZM29.51,45.637V59.059C23.861,58.747,18.7,52.975,16.233,46.9A79.09,79.09,0,0,1,29.51,45.637Zm1.781-6.071h7.718A2.971,2.971,0,0,0,41.977,36.6V31.374h5.729a42.926,42.926,0,0,1-2.473,13.836,80.8,80.8,0,0,0-13.942-1.354ZM53.555,13.684A28.739,28.739,0,0,1,59,29.593H49.487A44.708,44.708,0,0,0,47,15.4c2.249-.477,4.441-1.052,6.553-1.721Zm-11.039-3.6a30.246,30.246,0,0,1,2.053,3.982,79.09,79.09,0,0,1-13.277,1.26V1.908C35.5,2.263,39.46,5.136,42.516,10.088ZM22.038,3.117c-3.2,2.415-5.968,6.6-7.59,10.6-2.064-.43-4.079-.943-6.027-1.537A28.7,28.7,0,0,1,22.038,3.117ZM8.421,48.783c1.948-.594,3.963-1.108,6.027-1.537,1.621,4,4.39,8.189,7.59,10.6A28.694,28.694,0,0,1,8.421,48.783Zm30.34,9.067a20.514,20.514,0,0,0,3.411-3.393.89.89,0,1,0-1.388-1.116C38,56.809,34.732,58.77,31.291,59.059V45.637A79.1,79.1,0,0,1,44.565,46.9a30.85,30.85,0,0,1-1.543,3.126.891.891,0,0,0,1.549.88,32.823,32.823,0,0,0,1.777-3.657c2.066.43,4.082.943,6.031,1.538A28.7,28.7,0,0,1,38.761,57.85Z" transform="translate(0 -0.066)" fill="#2553ff"/><path d="M254.084,223.231c2.68,0,4.551-2.11,4.551-5.131a.891.891,0,0,0-.891-.89h-2.537a.89.89,0,0,0,0,1.781h1.565a2.687,2.687,0,0,1-2.689,2.46c-2.015,0-2.933-1.737-2.933-3.35-.027-2.638,2.332-4.311,4.806-2.779a.89.89,0,0,0,1-1.476,4.8,4.8,0,0,0-7.584,4.254c0,2.973,1.983,5.131,4.714,5.131Z" transform="translate(-219.761 -187.683)" fill="#2553ff"/><path d="M188.1,223.3h.071a3.455,3.455,0,0,0,3.37-3.262,3.417,3.417,0,0,0-.942-2.554,3.62,3.62,0,0,0-3.129-1.045l.268-1.62h2.383a.89.89,0,0,0,0-1.781h-3.138a.89.89,0,0,0-.878.745l-.622,3.752a.9.9,0,0,0,1.284.939l.069-.032a2.208,2.208,0,0,1,2.472.268,1.664,1.664,0,1,1-2.855,1.379.891.891,0,1,0-1.764.246A3.446,3.446,0,0,0,188.1,223.3Z" transform="translate(-162.751 -187.749)" fill="#2553ff"/></g></g></g></svg>