<svg xmlns="http://www.w3.org/2000/svg" width="59.751" height="59.751" viewBox="0 0 59.751 59.751"><g transform="translate(-534.25 -1286.466)"><circle cx="19" cy="19" r="19" transform="translate(545.5 1305.466)" fill="#e6f3ff"/><path d="M19.878,0C31.541,0,41,8.507,41,19S31.541,38,19.878,38,8.214,0,19.878,0Z" transform="translate(542.503 1297.466)" fill="#b0ddff"/><g transform="translate(534.25 1286.466)"><g transform="translate(0 0)"><path d="M56.745,23.848h-3.7a.143.143,0,0,1-.137-.111,23.7,23.7,0,0,0-2.407-5.8.143.143,0,0,1,.018-.175l2.621-2.621a3.01,3.01,0,0,0,0-4.252L48.864,6.614a3.01,3.01,0,0,0-4.252,0L41.992,9.235a.143.143,0,0,1-.175.018,23.706,23.706,0,0,0-5.8-2.407.143.143,0,0,1-.11-.137v-3.7A3.01,3.01,0,0,0,32.9,0H26.854a3.01,3.01,0,0,0-3.006,3.007v3.7a.143.143,0,0,1-.11.137,23.707,23.707,0,0,0-5.8,2.407.143.143,0,0,1-.175-.018L15.139,6.614a3.01,3.01,0,0,0-4.252,0L6.614,10.887a3.006,3.006,0,0,0,0,4.252l2.621,2.621a.143.143,0,0,1,.018.175,23.7,23.7,0,0,0-2.407,5.8.143.143,0,0,1-.137.111h-3.7A3.01,3.01,0,0,0,0,26.854V32.9A3.01,3.01,0,0,0,3.006,35.9h3.7a.143.143,0,0,1,.137.11,23.7,23.7,0,0,0,2.407,5.8.143.143,0,0,1-.018.175l-2.62,2.621a3.006,3.006,0,0,0,0,4.252l4.273,4.273a3.01,3.01,0,0,0,4.252,0l2.621-2.621a.143.143,0,0,1,.175-.018,23.7,23.7,0,0,0,5.8,2.407.143.143,0,0,1,.11.137v3.7a3.01,3.01,0,0,0,3.006,3.007H32.9A3.01,3.01,0,0,0,35.9,56.745v-3.7a.143.143,0,0,1,.11-.137,23.707,23.707,0,0,0,5.8-2.407.143.143,0,0,1,.175.018l2.621,2.621a3.01,3.01,0,0,0,4.252,0l.3-.3A.874.874,0,0,0,47.933,51.6l-.3.3a1.26,1.26,0,0,1-1.78,0l-2.621-2.621a1.894,1.894,0,0,0-2.289-.294,21.954,21.954,0,0,1-5.375,2.229,1.894,1.894,0,0,0-1.409,1.826v3.7A1.26,1.26,0,0,1,32.9,58H26.854A1.26,1.26,0,0,1,25.6,56.745v-3.7a1.894,1.894,0,0,0-1.409-1.826,21.954,21.954,0,0,1-5.375-2.229,1.894,1.894,0,0,0-2.289.294L13.9,51.9a1.26,1.26,0,0,1-1.78,0L7.85,47.628a1.259,1.259,0,0,1,0-1.78l2.621-2.621a1.9,1.9,0,0,0,.294-2.289,21.954,21.954,0,0,1-2.229-5.375,1.894,1.894,0,0,0-1.826-1.409h-3.7A1.26,1.26,0,0,1,1.748,32.9V26.854A1.26,1.26,0,0,1,3.007,25.6h3.7a1.894,1.894,0,0,0,1.826-1.409,21.95,21.95,0,0,1,2.229-5.375,1.894,1.894,0,0,0-.294-2.289L7.85,13.9a1.259,1.259,0,0,1,0-1.78L12.123,7.85a1.26,1.26,0,0,1,1.78,0l2.621,2.621a1.9,1.9,0,0,0,2.289.294,21.955,21.955,0,0,1,5.375-2.229A1.894,1.894,0,0,0,25.6,6.709v-3.7a1.26,1.26,0,0,1,1.259-1.259H32.9a1.26,1.26,0,0,1,1.259,1.259v3.7a1.894,1.894,0,0,0,1.409,1.826,21.954,21.954,0,0,1,5.375,2.229,1.894,1.894,0,0,0,2.289-.294L45.849,7.85a1.26,1.26,0,0,1,1.78,0L51.9,12.123a1.26,1.26,0,0,1,0,1.78l-2.621,2.621a1.9,1.9,0,0,0-.294,2.289,21.954,21.954,0,0,1,2.229,5.375A1.894,1.894,0,0,0,53.041,25.6h3.7A1.26,1.26,0,0,1,58,26.854V32.9a1.26,1.26,0,0,1-1.259,1.259h-3.7a1.894,1.894,0,0,0-1.826,1.409,21.955,21.955,0,0,1-2.229,5.375,1.9,1.9,0,0,0,.294,2.289L51.9,45.848a1.26,1.26,0,0,1,0,1.78l-1.08,1.08a.874.874,0,0,0,1.236,1.236l1.08-1.08a3.01,3.01,0,0,0,0-4.252l-2.621-2.621a.143.143,0,0,1-.018-.175,23.7,23.7,0,0,0,2.407-5.8.143.143,0,0,1,.137-.111h3.7A3.01,3.01,0,0,0,59.751,32.9V26.854A3.01,3.01,0,0,0,56.745,23.848Z" transform="translate(0 0)" fill="#2553ff"/><path d="M95.728,92.05a.874.874,0,0,0-1.046-1.4A19.93,19.93,0,0,0,88.9,97.487a19.541,19.541,0,0,0-2.165,9A19.739,19.739,0,1,0,98.3,88.509a.874.874,0,1,0,.726,1.59,18,18,0,1,1-8.566,8.186,18.175,18.175,0,0,1,5.273-6.235Z" transform="translate(-76.613 -76.613)" fill="#2553ff"/><path d="M193.616,154.473a.874.874,0,0,0,1.2-.293,9.115,9.115,0,1,0-13.909,2.037A5.405,5.405,0,0,1,182.7,160.2v4.518a2.618,2.618,0,0,0,2.615,2.615h3.416a2.618,2.618,0,0,0,2.616-2.615v-4.518a5.385,5.385,0,0,1,.888-2.921.874.874,0,0,0-1.467-.95,7.132,7.132,0,0,0-1.1,3h-1.775v-5.044h.668a.874.874,0,0,0,0-1.748h-3.083a.874.874,0,1,0,0,1.748h.668v5.044h-1.774a7.14,7.14,0,0,0-2.291-4.411,7.364,7.364,0,1,1,11.242-1.648.874.874,0,0,0,.293,1.2Zm-9.171,6.606H189.6v3.644a.869.869,0,0,1-.868.868h-3.416a.869.869,0,0,1-.868-.868Z" transform="translate(-157.145 -123.966)" fill="#2553ff"/></g></g></g></svg>