<svg xmlns="http://www.w3.org/2000/svg" width="57.342" height="60.346" viewBox="0 0 57.342 60.346"><g transform="translate(-533.5 -1290.655)"><rect width="55" height="4" transform="translate(535 1346)" fill="#b0ddff"/><rect width="50" height="20" transform="translate(537 1327)" fill="#b0ddff"/><rect width="10" height="2" transform="translate(540 1324)" fill="#b0ddff"/><rect width="34" height="7" transform="translate(553 1320)" fill="#b0ddff"/><rect width="19" height="8" transform="translate(552 1312)" fill="#b0ddff"/><rect width="10" height="4" transform="translate(575 1315)" fill="#b0ddff"/><rect width="13" height="4" transform="translate(556 1307)" fill="#b0ddff"/><rect width="8" height="23" transform="translate(538 1327)" fill="#e6f3ff"/><rect width="8" height="3" transform="translate(535 1347)" fill="#e6f3ff"/><rect width="8" height="23" transform="translate(538 1324)" fill="#e6f3ff"/><g transform="translate(509.75 1278.751)"><path d="M71.192,363.47h9.057a.735.735,0,1,0,0-1.47H71.192a.735.735,0,1,0,0,1.47Z" transform="translate(-40.766 -306.905)" fill="#2553ff" stroke="#2553ff" stroke-width="0.5"/><path d="M80.984,396.735a.735.735,0,0,0-.735-.735H71.192a.735.735,0,0,0,0,1.47h9.057A.735.735,0,0,0,80.984,396.735Z" transform="translate(-40.766 -336.74)" fill="#2553ff" stroke="#2553ff" stroke-width="0.5"/><path d="M71.192,329.47h9.057a.735.735,0,1,0,0-1.47H71.192a.735.735,0,1,0,0,1.47Z" transform="translate(-40.766 -277.071)" fill="#2553ff" stroke="#2553ff" stroke-width="0.5"/><path d="M356.28,351.47h9.057a.735.735,0,0,0,0-1.47H356.28a.735.735,0,0,0,0,1.47Z" transform="translate(-290.93 -296.375)" fill="#2553ff" stroke="#2553ff" stroke-width="0.5"/><path d="M356.28,385.47h9.057a.735.735,0,1,0,0-1.47H356.28a.735.735,0,1,0,0,1.47Z" transform="translate(-290.93 -326.21)" fill="#2553ff" stroke="#2553ff" stroke-width="0.5"/><path d="M356.28,317.47h9.057a.735.735,0,1,0,0-1.47H356.28a.735.735,0,1,0,0,1.47Z" transform="translate(-290.93 -266.541)" fill="#2553ff" stroke="#2553ff" stroke-width="0.5"/><path d="M356.28,283.47h9.057a.735.735,0,1,0,0-1.47H356.28a.735.735,0,1,0,0,1.47Z" transform="translate(-290.93 -236.706)" fill="#2553ff" stroke="#2553ff" stroke-width="0.5"/><path d="M199.735,206.239a.735.735,0,0,0-.735.735v27.675a.735.735,0,1,0,1.47,0V206.974a.735.735,0,0,0-.735-.735Z" transform="translate(-153.562 -170.226)" fill="#2553ff" stroke="#2553ff" stroke-width="0.5"/><path d="M233.735,235.384a.735.735,0,0,0,.735-.735V206.974a.735.735,0,1,0-1.47,0v27.675a.735.735,0,0,0,.735.735Z" transform="translate(-183.397 -170.226)" fill="#2553ff" stroke="#2553ff" stroke-width="0.5"/><path d="M266.735,235.384a.735.735,0,0,0,.735-.735V206.974a.735.735,0,1,0-1.47,0v27.675A.735.735,0,0,0,266.735,235.384Z" transform="translate(-212.354 -170.226)" fill="#2553ff" stroke="#2553ff" stroke-width="0.5"/><path d="M300.735,235.384a.735.735,0,0,0,.735-.735V206.974a.735.735,0,1,0-1.47,0v27.675A.735.735,0,0,0,300.735,235.384Z" transform="translate(-242.189 -170.226)" fill="#2553ff" stroke="#2553ff" stroke-width="0.5"/><path d="M80.07,66.855h-1.8V40.37a.743.743,0,0,0-.768-.711H75.574V36.076a.714.714,0,0,0-.74-.7h-4.16v-2.39a.735.735,0,0,0-1.47,0v2.39H64.927a.719.719,0,0,0-.746.7v3.583H62.956V32.59a.773.773,0,0,0-.771-.771H60.139V30.746a3.315,3.315,0,0,0-3.312-3.337H53.033V25.814a7.951,7.951,0,0,0,2.239.323,7.852,7.852,0,0,0,5.57-2.3.735.735,0,0,0,0-1.039l-4.53-4.531,1.557-1.557a2.377,2.377,0,1,0-1-1.074l-1.592,1.592-4.53-4.53a.735.735,0,0,0-1.039,0,7.886,7.886,0,0,0,0,11.14,9.182,9.182,0,0,0,1.86,1.379v2.2H48.016A3.315,3.315,0,0,0,44.7,30.746v1.073H42.581a.7.7,0,0,0-.7.7V47.254H40.66V44.9a.726.726,0,0,0-.754-.7H35.638v-1.9a.735.735,0,1,0-1.47,0v1.9H30a.707.707,0,0,0-.732.7v2.358H27.332a.736.736,0,0,0-.76.711v18.89h-1.8a.774.774,0,0,0-.772.772v3.631a.745.745,0,0,0,.742.743H80.1a.745.745,0,0,0,.742-.742V67.627A.774.774,0,0,0,80.07,66.855ZM59,13.745a.891.891,0,1,1-.891.891A.891.891,0,0,1,59,13.745Zm6.649,23.1H74.1v2.818H65.651ZM50.743,22.794a6.417,6.417,0,0,1-.49-8.511l9,9a6.417,6.417,0,0,1-8.512-.49Zm-4.569,7.952a1.843,1.843,0,0,1,1.842-1.867h8.81a1.843,1.843,0,0,1,1.842,1.867v1.073h-12.5ZM30.738,45.662H39.19v1.593H30.738Zm-2.7,3.063H41.886V66.855H38.7v-2.8A.719.719,0,0,0,38,63.3H31.9a.7.7,0,0,0-.677.751v2.8H28.043ZM37.23,64.772v2.083H32.7V64.772ZM79.372,70.53H25.47V68.325h19.6a.735.735,0,1,0,0-1.47H43.356V33.289H61.486v9.555a.735.735,0,0,0,1.47,0V41.129H76.8V66.855H73.614V62.584a.708.708,0,0,0-.685-.751h-6.1a.713.713,0,0,0-.691.751v4.271H62.956V47.744a.735.735,0,1,0-1.47,0V66.855H49.971a.735.735,0,1,0,0,1.47h29.4ZM72.144,63.3v3.553H67.611V63.3Z" fill="#2553ff" stroke="#2553ff" stroke-width="0.5"/></g></g></svg>