<svg xmlns="http://www.w3.org/2000/svg" width="69.932" height="69.932" viewBox="0 0 69.932 69.932"><g transform="translate(-534.5 -1449.403)"><circle cx="22" cy="22" r="22" transform="translate(547.5 1462.334)" fill="#e6f3ff"/><ellipse cx="18.5" cy="22" rx="18.5" ry="22" transform="translate(553.5 1462.334)" fill="#b0ddff"/><g transform="translate(534.5 1449.403)"><g transform="translate(0 0)"><path d="M34.966,69.932a3.077,3.077,0,0,1-3.073-3.073q0-.082,0-.162L14.7,59.572a3.072,3.072,0,1,1,.79-2.055q0,.082,0,.162l17.2,7.124a3.069,3.069,0,0,1,4.567,0l17.2-7.124c0-.054,0-.108,0-.162a3.077,3.077,0,1,1,.79,2.055L38.035,66.7c0,.054,0,.108,0,.162A3.077,3.077,0,0,1,34.966,69.932Zm0-4.1a1.024,1.024,0,1,0,1.024,1.024A1.025,1.025,0,0,0,34.966,65.834Zm22.551-9.341a1.024,1.024,0,1,0,1.024,1.024A1.025,1.025,0,0,0,57.517,56.493Zm-45.1,0a1.024,1.024,0,1,0,1.024,1.024A1.025,1.025,0,0,0,12.414,56.493Zm22.551,1.146A22.673,22.673,0,1,1,47.382,15.992a1.024,1.024,0,0,1-1.123,1.713,20.54,20.54,0,0,0-3.651-1.9,18.232,18.232,0,0,1,2.553,3.321,23.511,23.511,0,0,1,1.329,2.524h4.23a21.213,21.213,0,0,0-1.635-1.718,1.024,1.024,0,1,1,1.4-1.493,22.673,22.673,0,0,1-15.521,39.2Zm1.024-9.356v7.234c2.771-.4,5.375-2.415,7.421-5.776q.428-.7.809-1.458Zm-10.278,0q.381.756.809,1.458c2.046,3.361,4.65,5.376,7.421,5.776V48.283Zm20.777,0a23.524,23.524,0,0,1-1.329,2.524,18.249,18.249,0,0,1-2.544,3.313A20.728,20.728,0,0,0,50.7,48.283H46.489Zm-27.261,0a20.725,20.725,0,0,0,8.086,5.836,18.249,18.249,0,0,1-2.544-3.313,23.512,23.512,0,0,1-1.329-2.524H19.229Zm28.087-2.049h4.917A20.5,20.5,0,0,0,55.565,35.99H49.157A33.394,33.394,0,0,1,47.316,46.234Zm-11.326,0h9.14A30.858,30.858,0,0,0,47.107,35.99H35.99Zm-11.189,0h9.14V35.99H22.824A30.858,30.858,0,0,0,24.8,46.234Zm-7.1,0h4.917A33.39,33.39,0,0,1,20.775,35.99H14.367A20.5,20.5,0,0,0,17.7,46.234ZM49.157,33.941h6.409A20.372,20.372,0,0,0,52.254,23.7H47.316A33.394,33.394,0,0,1,49.157,33.941Zm-13.167,0H47.107A30.851,30.851,0,0,0,45.131,23.7H35.99v2.39a1.024,1.024,0,0,1-2.049,0V23.7H24.8a30.858,30.858,0,0,0-1.977,10.244H33.941V30.185a1.024,1.024,0,0,1,2.049,0Zm-21.624,0h6.408A33.394,33.394,0,0,1,22.616,23.7H17.7A20.5,20.5,0,0,0,14.367,33.941ZM35.99,21.649h8.229q-.381-.756-.809-1.458c-2.046-3.361-4.65-5.376-7.421-5.776Zm-10.278,0h8.229V14.415c-2.771.4-5.375,2.415-7.421,5.776Q26.093,20.893,25.712,21.649Zm-6.483,0h4.213a23.525,23.525,0,0,1,1.329-2.524,18.249,18.249,0,0,1,2.544-3.313,20.726,20.726,0,0,0-8.086,5.836Zm40.5,31.561a1.025,1.025,0,0,1-.946-1.417L64.8,37.249a3.069,3.069,0,0,1,0-4.567l-7.124-17.2c-.054,0-.108,0-.162,0a3.077,3.077,0,1,1,2.055-.79L66.7,31.9c.054,0,.108,0,.162,0a3.073,3.073,0,0,1,0,6.146q-.082,0-.162,0L60.672,52.577a1.025,1.025,0,0,1-.947.633Zm7.133-19.268a1.024,1.024,0,1,0,1.024,1.024,1.025,1.025,0,0,0-1.024-1.024ZM57.517,11.39a1.024,1.024,0,1,0,1.024,1.024A1.025,1.025,0,0,0,57.517,11.39ZM10.206,53.21a1.025,1.025,0,0,1-.947-.633L3.236,38.035c-.054,0-.108,0-.162,0a3.073,3.073,0,0,1,0-6.146q.082,0,.162,0L10.36,14.7A3.072,3.072,0,1,1,14.7,10.36L31.9,3.236c0-.054,0-.108,0-.162a3.073,3.073,0,0,1,6.146,0q0,.082,0,.162L52.6,9.268a1.024,1.024,0,0,1-.784,1.893L37.249,5.128a3.069,3.069,0,0,1-4.567,0l-17.2,7.124c0,.054,0,.108,0,.162a3.077,3.077,0,0,1-3.073,3.073q-.082,0-.162,0l-7.124,17.2a3.069,3.069,0,0,1,0,4.567l6.024,14.544a1.025,1.025,0,0,1-.946,1.417ZM3.073,33.941A1.024,1.024,0,1,0,4.1,34.966a1.025,1.025,0,0,0-1.024-1.024ZM12.414,11.39a1.024,1.024,0,1,0,1.024,1.024A1.025,1.025,0,0,0,12.414,11.39ZM34.966,2.049A1.024,1.024,0,1,0,35.99,3.073a1.025,1.025,0,0,0-1.024-1.024Z" transform="translate(0 0)" fill="#2553ff"/></g></g></g></svg>