<svg xmlns="http://www.w3.org/2000/svg" width="68.635" height="68.635" viewBox="0 0 68.635 68.635">
  <g id="benefits-icon2" transform="translate(-532 -1303.365)">
    <path id="Subtraction_1" data-name="Subtraction 1" d="M-12678-1136h-68a33.8,33.8,0,0,1,2.672-13.235,33.911,33.911,0,0,1,7.286-10.808,33.9,33.9,0,0,1,10.809-7.287A33.783,33.783,0,0,1-12712-1170a33.781,33.781,0,0,1,13.232,2.672,33.887,33.887,0,0,1,10.807,7.287,33.9,33.9,0,0,1,7.286,10.808A33.8,33.8,0,0,1-12678-1136Z" transform="translate(13278 2474)" fill="#e6f3ff"/>
    <path id="Subtraction_2" data-name="Subtraction 2" d="M-12686-1136h-60a37.737,37.737,0,0,1,2.357-13.235,34.486,34.486,0,0,1,6.43-10.808,30,30,0,0,1,9.536-7.287A26.812,26.812,0,0,1-12716-1170a26.81,26.81,0,0,1,11.676,2.672,30,30,0,0,1,9.535,7.287,34.464,34.464,0,0,1,6.429,10.808A37.719,37.719,0,0,1-12686-1136Z" transform="translate(13286 2474)" fill="#b0ddff"/>
    <g id="technology" transform="translate(530 1301.365)">
      <path id="Path_852" data-name="Path 852" d="M17.653,53.576h2.71a3.432,3.432,0,1,0,0-2.288h-2.71a3.432,3.432,0,1,0,0,2.288Zm5.93-2.288a1.144,1.144,0,1,1-1.144,1.144A1.145,1.145,0,0,1,23.583,51.288Zm-10.3,1.144a1.144,1.144,0,1,1,1.144,1.144A1.145,1.145,0,0,1,13.288,52.432Z" transform="translate(1.295 6.764)" fill="#2553ff"/>
      <path id="Path_853" data-name="Path 853" d="M52.506,49.576a3.432,3.432,0,1,0,0-2.288H45.432a1.144,1.144,0,0,0-1.144,1.144v5.93a3.432,3.432,0,1,0,2.288,0V49.576Zm3.221-2.288a1.144,1.144,0,1,1-1.144,1.144A1.145,1.145,0,0,1,55.727,47.288Zm-10.3,11.439a1.144,1.144,0,1,1,1.144-1.144A1.145,1.145,0,0,1,45.432,58.727Z" transform="translate(5.757 6.189)" fill="#2553ff"/>
      <path id="Path_854" data-name="Path 854" d="M36.318,2A34.357,34.357,0,0,0,2,36.318a1.144,1.144,0,0,0,1.144,1.144H19.159V41.1a3.428,3.428,0,0,0-2.077,2.077H11.625l-3.1-3.1a1.141,1.141,0,0,0-.809-.335H3.144v2.288h4.1l3.1,3.1a1.141,1.141,0,0,0,.809.335h5.93a3.428,3.428,0,0,0,2.077,2.077v2.5H12.085a3.432,3.432,0,1,0,0,2.288H20.3a1.144,1.144,0,0,0,1.144-1.144V47.547a3.412,3.412,0,0,0,0-6.443V37.462h4.576V50.045a1.139,1.139,0,0,0,.335.809L30.6,55.094v8.888a3.432,3.432,0,1,0,2.288,0V55.094l1.953-1.953a1.139,1.139,0,0,0,.335-.809V46.4a3.412,3.412,0,0,0,0-6.443v-2.5H46.139l-2.623,2.623a1.139,1.139,0,0,0-.335.809v2.5a3.412,3.412,0,0,0,0,6.443V53l-1.953,1.953a1.139,1.139,0,0,0-.335.809v7.074a3.432,3.432,0,1,0,2.288,0v-6.6l1.953-1.953a1.139,1.139,0,0,0,.335-.809V49.834a3.428,3.428,0,0,0,2.077-2.077h5.93a1.141,1.141,0,0,0,.809-.335l3.1-3.1h5.457A3.423,3.423,0,1,0,67.2,39.96v-2.5h2.288a1.144,1.144,0,0,0,1.144-1.144A34.357,34.357,0,0,0,36.318,2ZM8.864,52.333a1.144,1.144,0,1,1,1.144-1.144A1.145,1.145,0,0,1,8.864,52.333ZM20.3,45.469a1.144,1.144,0,1,1,1.144-1.144A1.145,1.145,0,0,1,20.3,45.469ZM42.037,67.2a1.144,1.144,0,1,1,1.144-1.144A1.145,1.145,0,0,1,42.037,67.2ZM64.054,20.317a53.1,53.1,0,0,1-5.844,1.9A38.388,38.388,0,0,0,54.362,13.7q1.87-.475,3.5-1.054A32.259,32.259,0,0,1,64.054,20.317ZM46.605,35.174c-.029-2.85-.161-5.715-.4-8.507a84.081,84.081,0,0,0,10.429-1.7,45.252,45.252,0,0,1,1.394,10.207ZM41.686,13.265c-1.755.109-3.546.174-5.368.174s-3.614-.065-5.368-.174c1.6-5.778,3.657-8.978,5.368-8.978S40.086,7.487,41.686,13.265Zm-1-8.327A20.237,20.237,0,0,1,50.593,12.2c-2.058.388-4.273.681-6.578.89A27.341,27.341,0,0,0,40.686,4.939Zm1.571,10.586a76.789,76.789,0,0,1,1.477,9.067c-2.43.186-4.911.287-7.416.287s-4.986-.1-7.415-.287a76.788,76.788,0,0,1,1.477-9.067c1.938.13,3.924.2,5.938.2s4-.072,5.939-.2ZM28.62,13.085c-2.305-.209-4.52-.5-6.578-.89a20.225,20.225,0,0,1,9.906-7.257A27.366,27.366,0,0,0,28.62,13.085Zm-.542,2.247a83.319,83.319,0,0,0-1.433,9.06,81.557,81.557,0,0,1-10.014-1.623A35.552,35.552,0,0,1,20.6,14.231a69.756,69.756,0,0,0,7.478,1.1ZM26.426,26.666c-.236,2.792-.368,5.658-.4,8.507H14.6A45.261,45.261,0,0,1,16,24.967,83.921,83.921,0,0,0,26.426,26.666Zm2.264.2c2.5.194,5.053.3,7.628.3s5.127-.1,7.628-.3c.214,2.582.344,5.355.371,8.306h-16C28.346,32.224,28.476,29.45,28.69,26.868Zm17.3-2.477a83.32,83.32,0,0,0-1.433-9.06,70.1,70.1,0,0,0,7.478-1.1,35.593,35.593,0,0,1,3.969,8.537,81.78,81.78,0,0,1-10.014,1.622Zm9.817-13.463c-.882.272-1.817.523-2.793.754a27.393,27.393,0,0,0-4.659-5.041,31.936,31.936,0,0,1,7.453,4.287Zm-36.19.753c-.977-.231-1.91-.482-2.793-.754A32,32,0,0,1,24.278,6.64,27.43,27.43,0,0,0,19.619,11.681Zm-4.846.967q1.632.575,3.5,1.054a38.388,38.388,0,0,0-3.848,8.519,53.178,53.178,0,0,1-5.844-1.9,32.213,32.213,0,0,1,6.192-7.67Zm-7.266,9.7a54.782,54.782,0,0,0,6.28,2.066,47.21,47.21,0,0,0-1.472,10.76H4.307A31.818,31.818,0,0,1,7.507,22.349Zm24.235,46A1.144,1.144,0,1,1,32.886,67.2,1.145,1.145,0,0,1,31.742,68.348ZM34.03,44.325a1.144,1.144,0,1,1,1.144-1.144A1.145,1.145,0,0,1,34.03,44.325ZM32.886,39.96a3.412,3.412,0,0,0,0,6.443v5.457L31.742,53,28.31,49.571V37.462h4.576Zm11.439,7.8a1.144,1.144,0,1,1,1.144-1.144A1.145,1.145,0,0,1,44.325,47.757ZM66.06,44.325A1.144,1.144,0,1,1,67.2,43.181,1.145,1.145,0,0,1,66.06,44.325ZM64.916,39.96a3.428,3.428,0,0,0-2.077,2.077h-5.93a1.141,1.141,0,0,0-.809.335l-3.1,3.1H47.547a3.428,3.428,0,0,0-2.077-2.077V41.367l3.905-3.905H64.916Zm-4.6-4.786a47.211,47.211,0,0,0-1.472-10.76,54.558,54.558,0,0,0,6.28-2.066,31.79,31.79,0,0,1,3.2,12.826Z" fill="#2553ff"/>
    </g>
  </g>
</svg>
