<svg xmlns="http://www.w3.org/2000/svg" width="58.283" height="68.635" viewBox="0 0 58.283 68.635">
  <g id="benefits-icon3" transform="translate(-929.447 -1303.365)">
    <circle id="Ellipse_99" data-name="Ellipse 99" cx="28" cy="28" r="28" transform="translate(931 1315)" fill="#e6f3ff"/>
    <ellipse id="Ellipse_100" data-name="Ellipse 100" cx="23" cy="26" rx="23" ry="26" transform="translate(941 1316)" fill="#b0ddff"/>
    <g id="latency" transform="translate(890.865 1303.365)">
      <g id="Group_1286" data-name="Group 1286" transform="translate(38.582 0)">
        <path id="Path_855" data-name="Path 855" d="M92.475,24.071a29.3,29.3,0,0,0-4.926-5.957l.959-.959,1.565,1.565a3.019,3.019,0,0,0,4.269-4.269L89.789,9.9a3.019,3.019,0,1,0-4.269,4.269l1.565,1.565-1.061,1.061a29.232,29.232,0,0,0-5.047-3.279,1.006,1.006,0,0,0-.916,1.792A27.076,27.076,0,0,1,94.877,39.511c-1.49,36.038-52.848,36.037-54.337,0C40.246,21.481,58.807,7.941,75.88,13.593a1.006,1.006,0,1,0,.6-1.919,29.033,29.033,0,0,0-5.428-1.153V6.442h8.089a3.207,3.207,0,0,0,3.2-3.2V3.2a3.207,3.207,0,0,0-3.2-3.2H66.231a1.006,1.006,0,0,0,0,2.012H79.145A1.192,1.192,0,0,1,80.336,3.2v.035a1.192,1.192,0,0,1-1.191,1.191H56.706a1.192,1.192,0,0,1-1.191-1.191V3.2a1.192,1.192,0,0,1,1.191-1.191h4.883a1.006,1.006,0,0,0,0-2.012H56.706a3.207,3.207,0,0,0-3.2,3.2v.035a3.207,3.207,0,0,0,3.2,3.2h7.655v4.08a28.892,28.892,0,0,0-14.968,6.271l-1.06-1.061L49.9,14.167A3.019,3.019,0,0,0,45.629,9.9l-4.554,4.554a3.019,3.019,0,1,0,4.269,4.269l1.565-1.565.96.96c-12.055,10.758-12.432,30.825-.795,42.031,10.862,11.321,30.406,11.32,41.268,0,9.54-9.24,11.292-24.921,4.132-36.074ZM86.648,12.032a1,1,0,0,1,.295-.712,1.011,1.011,0,0,1,1.423,0l4.554,4.553A1.006,1.006,0,1,1,91.5,17.3l-4.554-4.554a1,1,0,0,1-.295-.711ZM43.921,17.3A1.006,1.006,0,1,1,42.5,15.874l4.554-4.554a1.006,1.006,0,0,1,1.423,1.423ZM66.374,6.442h2.67v3.92c-.887-.041-1.784-.041-2.67,0Z" transform="translate(-38.582 0)" fill="#2553ff"/>
        <path id="Path_856" data-name="Path 856" d="M93.232,157.306c33.372-1.382,33.364-48.935,0-50.312-20.1-.173-32.294,23.19-20.626,39.543a1.006,1.006,0,1,0,1.649-1.153c-10.733-15.045.489-36.538,18.977-36.377a23.169,23.169,0,0,1,23.143,23.143c.049,20.262-24.68,30.784-39.2,16.651a1.006,1.006,0,1,0-1.4,1.448A25.024,25.024,0,0,0,93.232,157.306Z" transform="translate(-64.105 -92.638)" fill="#2553ff"/>
        <path id="Path_857" data-name="Path 857" d="M143.812,165.172a1.006,1.006,0,0,0,2.012,0c-1.108-26.727-39.187-26.713-40.288,0a1.006,1.006,0,0,0,2.012,0C108.547,141.115,142.821,141.128,143.812,165.172Z" transform="translate(-96.554 -125.66)" fill="#2553ff"/>
        <path id="Path_858" data-name="Path 858" d="M196.3,348.18a1.185,1.185,0,0,0-1.188.813l-.011.035-1.319,4.628-1.368-4.638c0-.012-.007-.024-.011-.036a1.179,1.179,0,0,0-2.277.164l-1.342,7.437a1.006,1.006,0,1,0,1.981.357l.717-3.973,1.186,4.021.011.036a1.177,1.177,0,0,0,1.117.8h.006a1.177,1.177,0,0,0,1.115-.815l.011-.035,1.145-4.018.763,3.99a1.006,1.006,0,0,0,1.977-.378l-1.424-7.451A1.179,1.179,0,0,0,196.3,348.18Z" transform="translate(-168.614 -301.465)" fill="#2553ff"/>
        <path id="Path_859" data-name="Path 859" d="M274.3,357.83a3.2,3.2,0,0,0,3.264-2.485c.194-1.085-.3-2.5-2.253-3.224-.929-.343-1.8-.716-2.07-.836a.48.48,0,0,1-.163-.445.717.717,0,0,1,.571-.57,2.49,2.49,0,0,1,2.054.476,1.006,1.006,0,0,0,1.289-1.545,4.506,4.506,0,0,0-3.924-.858,2.6,2.6,0,0,0-.877,4.664.989.989,0,0,0,.14.076c.044.02,1.1.489,2.283.926.252.093,1.066.438.968.982-.365,1.276-2.486.894-3.2.024a1.006,1.006,0,0,0-1.491,1.352A4.587,4.587,0,0,0,274.3,357.83Z" transform="translate(-239.498 -301.467)" fill="#2553ff"/>
        <path id="Path_860" data-name="Path 860" d="M189.276,255.768a3.943,3.943,0,0,0-6.56-2.926l-6.735-4.19a1.006,1.006,0,1,0-1.063,1.709l6.693,4.164a3.934,3.934,0,1,0,7.666,1.244Zm-3.934,1.922a1.922,1.922,0,1,1,1.922-1.922A1.924,1.924,0,0,1,185.342,257.69Z" transform="translate(-156.214 -215.16)" fill="#2553ff"/>
      </g>
    </g>
  </g>
</svg>
