<svg xmlns="http://www.w3.org/2000/svg" xmlns:xlink="http://www.w3.org/1999/xlink" width="67" height="67" viewBox="0 0 67 67">
  <defs>
    <clipPath id="clip-Fixed_Wireless_Access_FWA_">
      <rect width="67" height="67"/>
    </clipPath>
  </defs>
  <g id="Fixed_Wireless_Access_FWA_" data-name="Fixed Wireless Access (FWA)" clip-path="url(#clip-Fixed_Wireless_Access_FWA_)">
    <g id="Group_76110" data-name="Group 76110" transform="translate(-138 -1538.068)">
      <rect id="Rectangle_728" data-name="Rectangle 728" width="48" height="32" transform="translate(147 1571.068)" fill="#e6f3ff"/>
      <rect id="Rectangle_729" data-name="Rectangle 729" width="43" height="32" transform="translate(152 1571.068)" fill="#b0ddff"/>
      <g id="wireless" transform="translate(138 1538.068)">
        <path id="Path_861" data-name="Path 861" d="M153.813,245.963h2.574a.981.981,0,0,0,0-1.963h-2.574a.981.981,0,0,0,0,1.963Zm0,0" transform="translate(-132.833 -212.07)" fill="#2553ff"/>
        <path id="Path_862" data-name="Path 862" d="M199.071,300.643a8.571,8.571,0,1,0-8.571-8.571A8.581,8.581,0,0,0,199.071,300.643Zm0-15.18a6.608,6.608,0,1,1-6.608,6.608A6.616,6.616,0,0,1,199.071,285.463Zm0,0" transform="translate(-165.571 -246.401)" fill="#2553ff"/>
        <path id="Path_863" data-name="Path 863" d="M348.043,395.043a3.271,3.271,0,0,0,0-6.543h-3.272a3.271,3.271,0,0,0,0,6.543Zm-4.58-3.272a1.31,1.31,0,0,1,1.309-1.309h3.272a1.309,1.309,0,1,1,0,2.617h-3.272A1.31,1.31,0,0,1,343.463,391.771Zm0,0" transform="translate(-296.812 -337.661)" fill="#2553ff"/>
        <path id="Path_864" data-name="Path 864" d="M95.5,391.771a3.275,3.275,0,0,0,3.271,3.272h3.271a3.271,3.271,0,0,0,0-6.543H98.771A3.275,3.275,0,0,0,95.5,391.771Zm7.852,0a1.31,1.31,0,0,1-1.309,1.309H98.771a1.309,1.309,0,1,1,0-2.617h3.271A1.31,1.31,0,0,1,103.352,391.771Zm0,0" transform="translate(-83.003 -337.661)" fill="#2553ff"/>
        <path id="Path_865" data-name="Path 865" d="M63.271,37.36h-.327V12.53a.981.981,0,1,0-1.963,0V37.36H59.018V2.944A.982.982,0,0,1,60,1.963a.985.985,0,0,1,.981.981v5.4a.981.981,0,1,0,1.963,0v-5.4a2.944,2.944,0,1,0-5.889,0V32.728a4.5,4.5,0,0,0-2.565-.8H27.742a.981.981,0,1,0,0,1.963H54.49a2.568,2.568,0,0,1,2.565,2.565V56.976a2.568,2.568,0,0,1-2.565,2.565H12.51a2.568,2.568,0,0,1-2.565-2.565V36.458a2.568,2.568,0,0,1,2.565-2.565h4.24a.981.981,0,1,0,0-1.963H12.51a4.5,4.5,0,0,0-2.565.8V2.944a2.944,2.944,0,0,0-5.889,0V37.36H3.729a3.729,3.729,0,1,0,0,7.459h.327v4.515A2.945,2.945,0,0,0,7.982,52.11V62.472A4.533,4.533,0,0,0,12.51,67H54.49a4.533,4.533,0,0,0,4.528-4.528V52.11a2.945,2.945,0,0,0,3.926-2.776V44.819h.327a3.729,3.729,0,0,0,0-7.459ZM6.02,2.944A.982.982,0,0,1,7,1.963a.985.985,0,0,1,.981.981V37.36H6.02ZM1.963,41.09a1.768,1.768,0,0,1,1.767-1.767H7.982v3.533H3.729A1.768,1.768,0,0,1,1.963,41.09ZM7,50.315a.982.982,0,0,1-.981-.981V44.819H7.982v4.515A.982.982,0,0,1,7,50.315ZM54.49,65.037H12.51a2.568,2.568,0,0,1-2.565-2.565V60.705a4.5,4.5,0,0,0,2.565.8H54.49a4.5,4.5,0,0,0,2.565-.8v1.767A2.568,2.568,0,0,1,54.49,65.037Zm6.491-15.7a.981.981,0,0,1-1.963,0V44.819H60.98Zm2.29-6.478H59.018V39.323h4.253a1.767,1.767,0,0,1,0,3.533Zm0,0" transform="translate(0 0)" fill="#2553ff"/>
        <path id="Path_866" data-name="Path 866" d="M230.466,109.195a.981.981,0,0,0-.189-1.375,6.782,6.782,0,0,0-8.206.008.982.982,0,0,0,1.189,1.562,4.819,4.819,0,0,1,5.831-.006A.981.981,0,0,0,230.466,109.195Zm0,0" transform="translate(-192.675 -92.513)" fill="#2553ff"/>
        <path id="Path_867" data-name="Path 867" d="M221.171,82.618a.981.981,0,0,0-.189-1.375,9.5,9.5,0,0,0-11.5.008.982.982,0,0,0,1.189,1.562,7.536,7.536,0,0,1,9.125-.006A.982.982,0,0,0,221.171,82.618Zm0,0" transform="translate(-181.733 -68.93)" fill="#2553ff"/>
        <path id="Path_868" data-name="Path 868" d="M197.981,57.238a.979.979,0,0,0,.594-.2,10.151,10.151,0,0,1,12.291-.007.981.981,0,1,0,1.187-1.563,12.114,12.114,0,0,0-14.666.008.982.982,0,0,0,.6,1.763Zm0,0" transform="translate(-171.22 -46.064)" fill="#2553ff"/>
        <path id="Path_869" data-name="Path 869" d="M236.01,139.44a.982.982,0,0,0,.981-.981v-1.6a3.01,3.01,0,1,0-1.963,0v1.6A.982.982,0,0,0,236.01,139.44Zm0-6.478a1.047,1.047,0,1,1-1.047,1.047A1.048,1.048,0,0,1,236.01,132.963Zm0,0" transform="translate(-202.51 -113.857)" fill="#2553ff"/>
      </g>
    </g>
  </g>
</svg>
