<svg xmlns="http://www.w3.org/2000/svg" width="54.136" height="69.62" viewBox="0 0 54.136 69.62">
  <g id="benefits-icon1" transform="translate(-258.341 -1300.38)">
    <rect id="Rectangle_724" data-name="Rectangle 724" width="24" height="45" transform="translate(260 1302)" fill="#e6f3ff"/>
    <rect id="Rectangle_725" data-name="Rectangle 725" width="20" height="45" transform="translate(263 1302)" fill="#b0ddff"/>
    <g id="mobile-broadband-modem" transform="translate(206.073 1300.38)">
      <g id="Group_1283" data-name="Group 1283" transform="translate(52.268)">
        <g id="Group_1282" data-name="Group 1282" transform="translate(0)">
          <path id="Path_843" data-name="Path 843" d="M99.4,119.2a14.455,14.455,0,0,0-16.678.227,1.111,1.111,0,1,0,1.309,1.8,12.23,12.23,0,0,1,14.111-.192A1.111,1.111,0,1,0,99.4,119.2Z" transform="translate(-77.823 -99.379)" fill="#2553ff"/>
          <path id="Path_844" data-name="Path 844" d="M113.623,151.124a9.266,9.266,0,0,0-10.692.145,1.111,1.111,0,1,0,1.308,1.8,7.041,7.041,0,0,1,8.124-.111,1.111,1.111,0,1,0,1.259-1.831Z" transform="translate(-95.037 -127.353)" fill="#2553ff"/>
          <path id="Path_845" data-name="Path 845" d="M128.244,185.249a4.047,4.047,0,0,0-2.3-.707,4.1,4.1,0,0,0-2.4.771,1.111,1.111,0,1,0,1.308,1.8,1.89,1.89,0,0,1,2.134-.028,1.111,1.111,0,0,0,1.259-1.831Z" transform="translate(-112.596 -157.206)" fill="#2553ff"/>
          <path id="Path_846" data-name="Path 846" d="M328.843,30a1.111,1.111,0,0,0-1.111,1.111v2.666a1.111,1.111,0,0,0,2.222,0V31.111A1.111,1.111,0,0,0,328.843,30Z" transform="translate(-286.928 -25.556)" fill="#2553ff"/>
          <path id="Path_847" data-name="Path 847" d="M358.843,30a1.111,1.111,0,0,0-1.111,1.111v2.666a1.111,1.111,0,0,0,2.222,0V31.111A1.111,1.111,0,0,0,358.843,30Z" transform="translate(-312.484 -25.556)" fill="#2553ff"/>
          <path id="Path_848" data-name="Path 848" d="M105.293,11.554h-1.111V1.111A1.111,1.111,0,0,0,103.071,0H89.739a1.111,1.111,0,0,0-1.111,1.111V11.554H87.517a1.111,1.111,0,0,0-1.111,1.111V26a5.562,5.562,0,0,0,5.184,5.543v7.048A1.111,1.111,0,0,0,92.7,39.7h.37V50.919a12.035,12.035,0,0,1-24.071,0V47.4h8.66a1.111,1.111,0,0,0,1.111-1.111V1.111A1.111,1.111,0,0,0,77.661,0H53.379a1.111,1.111,0,0,0-1.111,1.111V46.29A1.111,1.111,0,0,0,53.379,47.4h8.957v3.518a18.7,18.7,0,1,0,37.4,0V39.7h.37a1.111,1.111,0,0,0,1.111-1.111V31.539A5.562,5.562,0,0,0,106.4,26V12.665A1.111,1.111,0,0,0,105.293,11.554ZM90.85,2.222h11.11v9.332H90.85ZM54.49,45.179V2.222H76.55V45.179Zm43.026,5.74a16.479,16.479,0,1,1-32.958,0V47.4h2.222v3.518a14.257,14.257,0,1,0,28.515,0V39.7h2.222ZM104.182,26a3.337,3.337,0,0,1-3.333,3.333h-3.7a1.111,1.111,0,1,0,0,2.222H99v5.925H93.813V30.44A1.111,1.111,0,0,0,92.7,29.329h-.741A3.337,3.337,0,0,1,88.628,26V13.776h15.553Z" transform="translate(-52.268)" fill="#2553ff"/>
        </g>
      </g>
    </g>
  </g>
</svg>
