<svg xmlns="http://www.w3.org/2000/svg" width="69.932" height="69.932" viewBox="0 0 69.932 69.932">
  <g id="benefits-icon4" transform="translate(-138 -1538.068)">
    <rect id="Rectangle_728" data-name="Rectangle 728" width="51" height="33" transform="translate(147 1573)" fill="#e6f3ff"/>
    <rect id="Rectangle_729" data-name="Rectangle 729" width="45" height="33" transform="translate(153 1573)" fill="#b0ddff"/>
    <g id="wireless" transform="translate(138 1538.068)">
      <path id="Path_861" data-name="Path 861" d="M153.856,246.049h2.686a1.024,1.024,0,0,0,0-2.049h-2.686a1.024,1.024,0,0,0,0,2.049Zm0,0" transform="translate(-131.957 -210.673)" fill="#2553ff"/>
      <path id="Path_862" data-name="Path 862" d="M199.446,301.393a8.946,8.946,0,1,0-8.946-8.946A8.956,8.956,0,0,0,199.446,301.393Zm0-15.844a6.9,6.9,0,1,1-6.9,6.9A6.905,6.905,0,0,1,199.446,285.549Zm0,0" transform="translate(-164.481 -244.778)" fill="#2553ff"/>
      <path id="Path_863" data-name="Path 863" d="M348.329,395.329a3.415,3.415,0,0,0,0-6.829h-3.415a3.415,3.415,0,0,0,0,6.829Zm-4.78-3.415a1.367,1.367,0,0,1,1.366-1.366h3.415a1.366,1.366,0,1,1,0,2.732h-3.415A1.367,1.367,0,0,1,343.549,391.915Zm0,0" transform="translate(-294.856 -335.437)" fill="#2553ff"/>
      <path id="Path_864" data-name="Path 864" d="M95.5,391.915a3.418,3.418,0,0,0,3.415,3.415h3.415a3.415,3.415,0,0,0,0-6.829H98.915A3.418,3.418,0,0,0,95.5,391.915Zm8.2,0a1.367,1.367,0,0,1-1.366,1.366H98.915a1.366,1.366,0,1,1,0-2.732h3.415A1.367,1.367,0,0,1,103.7,391.915Zm0,0" transform="translate(-82.456 -335.437)" fill="#2553ff"/>
      <path id="Path_865" data-name="Path 865" d="M66.039,39H65.7V13.078a1.024,1.024,0,1,0-2.049,0V39H61.6V3.073a1.025,1.025,0,0,1,1.024-1.024,1.028,1.028,0,0,1,1.024,1.024V8.707a1.024,1.024,0,1,0,2.049,0V3.073a3.073,3.073,0,1,0-6.146,0V34.16a4.7,4.7,0,0,0-2.677-.833H28.956a1.024,1.024,0,1,0,0,2.049H56.874a2.68,2.68,0,0,1,2.677,2.677V59.469a2.68,2.68,0,0,1-2.677,2.677H13.058a2.68,2.68,0,0,1-2.677-2.677V38.053a2.68,2.68,0,0,1,2.677-2.677h4.425a1.024,1.024,0,1,0,0-2.049H13.058a4.7,4.7,0,0,0-2.677.833V3.073a3.073,3.073,0,0,0-6.146,0V39H3.893a3.893,3.893,0,1,0,0,7.785h.341v4.712a3.074,3.074,0,0,0,4.1,2.9V65.206a4.731,4.731,0,0,0,4.726,4.726H56.874A4.731,4.731,0,0,0,61.6,65.206V54.39a3.074,3.074,0,0,0,4.1-2.9V46.78h.341a3.893,3.893,0,1,0,0-7.785ZM6.283,3.073A1.025,1.025,0,0,1,7.307,2.049,1.028,1.028,0,0,1,8.332,3.073V39H6.283ZM2.049,42.888a1.846,1.846,0,0,1,1.844-1.844H8.332v3.688H3.893A1.846,1.846,0,0,1,2.049,42.888Zm5.259,9.629a1.025,1.025,0,0,1-1.024-1.024V46.78H8.332v4.712A1.025,1.025,0,0,1,7.307,52.517ZM56.874,67.883H13.058a2.68,2.68,0,0,1-2.677-2.677V63.362a4.7,4.7,0,0,0,2.677.833H56.874a4.7,4.7,0,0,0,2.677-.833v1.844A2.68,2.68,0,0,1,56.874,67.883Zm6.775-16.39a1.024,1.024,0,0,1-2.049,0V46.78h2.049Zm2.39-6.761H61.6V41.044h4.439a1.844,1.844,0,0,1,0,3.688Zm0,0" fill="#2553ff"/>
      <path id="Path_866" data-name="Path 866" d="M230.851,109.315a1.024,1.024,0,0,0-.2-1.435,7.078,7.078,0,0,0-8.565.008,1.025,1.025,0,0,0,1.241,1.63,5.03,5.03,0,0,1,6.086-.006A1.024,1.024,0,0,0,230.851,109.315Zm0,0" transform="translate(-191.406 -91.903)" fill="#2553ff"/>
      <path id="Path_867" data-name="Path 867" d="M221.7,82.763a1.024,1.024,0,0,0-.2-1.435,9.915,9.915,0,0,0-12,.008,1.025,1.025,0,0,0,1.241,1.63,7.866,7.866,0,0,1,9.524-.006A1.025,1.025,0,0,0,221.7,82.763Zm0,0" transform="translate(-180.536 -68.476)" fill="#2553ff"/>
      <path id="Path_868" data-name="Path 868" d="M198.024,57.424a1.022,1.022,0,0,0,.62-.209,10.6,10.6,0,0,1,12.828-.007,1.024,1.024,0,0,0,1.239-1.632,12.644,12.644,0,0,0-15.308.008,1.025,1.025,0,0,0,.621,1.84Zm0,0" transform="translate(-170.092 -45.761)" fill="#2553ff"/>
      <path id="Path_869" data-name="Path 869" d="M236.141,139.81a1.025,1.025,0,0,0,1.024-1.024v-1.674a3.141,3.141,0,1,0-2.049,0v1.674A1.025,1.025,0,0,0,236.141,139.81Zm0-6.761a1.093,1.093,0,1,1-1.093,1.093A1.094,1.094,0,0,1,236.141,133.049Zm0,0" transform="translate(-201.176 -113.107)" fill="#2553ff"/>
    </g>
  </g>
</svg>
