<svg xmlns="http://www.w3.org/2000/svg" xmlns:xlink="http://www.w3.org/1999/xlink" width="36" height="36" viewBox="0 0 36 36">
  <defs>
    <clipPath id="clip-digitalicon-publicsafety">
      <rect width="36" height="36"/>
    </clipPath>
  </defs>
  <g id="digitalicon-publicsafety" clip-path="url(#clip-digitalicon-publicsafety)">
    <g id="Group_1090" data-name="Group 1090" transform="translate(-1232.218 -4521)">
      <path id="Path_739" data-name="Path 739" d="M909.656,496.95l-.139.051-.138-.051c-12.77-4.639-12.576-14.742-12.406-23.655.01-.526.02-1.037.027-1.537l.005-.383.383-.016a18.281,18.281,0,0,0,11.862-4.491l.267-.232.266.232a18.283,18.283,0,0,0,11.864,4.491l.383.016.005.383c.007.5.017,1.01.027,1.536C922.232,482.208,922.425,492.311,909.656,496.95Z" transform="translate(340.895 4057.338)" fill="#b0ddff"/>
      <path id="Path_740" data-name="Path 740" d="M921.484,509.251l-.123.045-.123-.045c-11.349-4.123-11.177-13.1-11.026-21.024.009-.468.017-.921.024-1.366l0-.341.341-.014a16.247,16.247,0,0,0,10.543-3.991l.237-.206.237.206a16.248,16.248,0,0,0,10.544,3.991l.34.014.005.341c.006.444.015.9.024,1.365C932.662,496.149,932.833,505.129,921.484,509.251Z" transform="translate(330.338 4044.844)" fill="#e6f3ff"/>
      <g id="Group_1086" data-name="Group 1086" transform="translate(1236.218 4522.017)">
        <path id="Path_741" data-name="Path 741" d="M917.339,462.859a.812.812,0,0,0-.811-.811c-5.318,0-9.371-1.533-12.756-4.823a.808.808,0,0,0-1.132,0c-3.384,3.291-7.437,4.823-12.755,4.823a.812.812,0,0,0-.812.811c0,.883-.018,1.8-.035,2.693-.164,8.614-.389,20.409,13.9,25.363a.813.813,0,0,0,.533,0c14.29-4.953,14.065-16.75,13.9-25.363l.406-.008-.406.008C917.357,464.707,917.339,463.75,917.339,462.859Zm-13.995,26.379-.139.05-.139-.05c-12.77-4.639-12.576-14.742-12.406-23.656.01-.526.019-1.037.027-1.537l.005-.383.383-.016a18.282,18.282,0,0,0,11.862-4.491l.266-.232.266.232a18.282,18.282,0,0,0,11.864,4.491l.383.016.006.383c.007.5.017,1.01.027,1.536C915.921,474.5,916.114,484.6,903.344,489.238Z" transform="translate(-889.001 -456.993)" fill="#2553ff"/>
        <path id="Path_742" data-name="Path 742" d="M941.032,520.11a.807.807,0,0,0-.574.238l-6.162,6.162-2.794-2.794a.811.811,0,0,0-1.148,1.148l3.368,3.368a.831.831,0,0,0,1.148,0l6.735-6.735a.812.812,0,0,0-.573-1.385Z" transform="translate(-921.776 -507.305)" fill="#2553ff"/>
        <path id="Path_743" data-name="Path 743" d="M1030.852,499.137Z" transform="translate(-1002.073 -490.587)" fill="#2553ff"/>
      </g>
    </g>
  </g>
</svg>
