<svg xmlns="http://www.w3.org/2000/svg" xmlns:xlink="http://www.w3.org/1999/xlink" width="26" height="36" viewBox="0 0 26 36">
  <defs>
    <clipPath id="clip-digitalicon-agriculture">
      <rect width="26" height="36"/>
    </clipPath>
  </defs>
  <g id="digitalicon-agriculture" clip-path="url(#clip-digitalicon-agriculture)">
    <g id="Group_1089" data-name="Group 1089" transform="translate(-1297.827 -4521)">
      <g id="Group_1088" data-name="Group 1088" transform="translate(605.724 4455.649)">
        <path id="Path_755" data-name="Path 755" d="M714.433,83.978a.765.765,0,0,0-.47-.5,6.2,6.2,0,0,0-1.153-.269l-.254-.037.176-.187a7.468,7.468,0,0,0,1.7-7.327.765.765,0,0,0-.47-.5,7.575,7.575,0,0,0-4.72.051l-.233.081.058-.24a7.94,7.94,0,0,0,.219-1.879,7.462,7.462,0,0,0-3.983-6.65.765.765,0,0,0-.688-.024,7.432,7.432,0,0,0-4.031,6.674,7.941,7.941,0,0,0,.22,1.882l.059.24-.233-.082a7.573,7.573,0,0,0-4.73-.055.764.764,0,0,0-.469.5,7.469,7.469,0,0,0,1.7,7.331l.176.187-.255.037a6.212,6.212,0,0,0-1.153.269.763.763,0,0,0-.469.5v0a7.463,7.463,0,0,0,1.886,7.518,7.324,7.324,0,0,0,5.274,2.221,7.848,7.848,0,0,0,1.415-.129l.159-.029v6.014a.76.76,0,1,0,1.521,0V93.557l.159.029a7.868,7.868,0,0,0,1.428.131,7.324,7.324,0,0,0,5.274-2.221A7.463,7.463,0,0,0,714.433,83.978Zm-10.4,7.976-.018.083-.083.019a6.124,6.124,0,0,1-1.316.142,5.839,5.839,0,0,1-4.22-1.777,5.934,5.934,0,0,1-1.631-5.535l.018-.084.084-.018a6.143,6.143,0,0,1,3.143.149c.089.033.173.063.257.091a6.024,6.024,0,0,1,2.131,1.4,5.883,5.883,0,0,1,1.77,3.911v.6A6.143,6.143,0,0,1,704.032,91.954Zm0-8.325-.018.083-.083.019a6.131,6.131,0,0,1-1.317.142,5.918,5.918,0,0,1-1.763-.264c-.133-.051-.26-.1-.386-.137a6.068,6.068,0,0,1-2.069-1.376,5.934,5.934,0,0,1-1.631-5.535l.018-.084.084-.018a5.941,5.941,0,0,1,5.531,1.635l.038.04c.078.088.156.172.236.254a5.771,5.771,0,0,1,1.5,3.617v.6A6.136,6.136,0,0,1,704.032,83.629Zm.979-5.4-.072.046-.072-.046a6.229,6.229,0,0,1-1.119-.925c-.043-.048-.085-.093-.128-.138a6.051,6.051,0,0,1,1.241-9.076l.072-.046.072.046a5.934,5.934,0,0,1,2.762,5.068,5.82,5.82,0,0,1-1.37,3.851l-.008.009c-.137.137-.272.282-.4.432l-.008.008A6.158,6.158,0,0,1,705.011,78.233Zm.681,4.085a5.827,5.827,0,0,1,1.415-3.832l.008-.008c.135-.134.266-.274.389-.416l.007-.008a5.915,5.915,0,0,1,5.49-1.6l.084.019.018.084a5.934,5.934,0,0,1-1.631,5.537,6.066,6.066,0,0,1-2.057,1.371c-.136.044-.266.09-.393.139a5.948,5.948,0,0,1-1.773.266,6.107,6.107,0,0,1-1.313-.141l-.083-.019-.018-.083a6.162,6.162,0,0,1-.142-1.288Zm5.78,8.1a5.84,5.84,0,0,1-4.221,1.777,6.128,6.128,0,0,1-1.314-.141l-.084-.019-.018-.084a5.94,5.94,0,0,1,1.634-5.536,6.066,6.066,0,0,1,2.063-1.374c.135-.044.262-.089.385-.136A6.1,6.1,0,0,1,713,84.781l.084.019.018.084A5.935,5.935,0,0,1,711.472,90.421Z" transform="translate(0)" fill="#2553ff"/>
        <path id="Path_756" data-name="Path 756" d="M719.395,277.555l-.019.083-.083.019a6.127,6.127,0,0,1-1.316.141,5.839,5.839,0,0,1-4.22-1.777,5.934,5.934,0,0,1-1.631-5.535l.018-.084.084-.018a6.145,6.145,0,0,1,3.143.149c.089.033.173.063.256.091a6.023,6.023,0,0,1,2.131,1.4,5.883,5.883,0,0,1,1.77,3.911v.6A6.125,6.125,0,0,1,719.395,277.555Z" transform="translate(-15.373 -185.596)" fill="#b0ddff"/>
        <path id="Path_757" data-name="Path 757" d="M719.395,184.483l-.019.083-.083.019a6.134,6.134,0,0,1-1.317.142,5.919,5.919,0,0,1-1.764-.265c-.133-.051-.26-.1-.386-.137a6.068,6.068,0,0,1-2.069-1.376,5.933,5.933,0,0,1-1.631-5.535l.018-.084.084-.018a5.941,5.941,0,0,1,5.531,1.635l.038.04c.078.088.156.172.236.254a5.771,5.771,0,0,1,1.5,3.617v.6A6.123,6.123,0,0,1,719.395,184.483Z" transform="translate(-15.373 -100.849)" fill="#b0ddff"/>
        <path id="Path_758" data-name="Path 758" d="M776.2,94.873l-.072.046-.072-.046a6.224,6.224,0,0,1-1.119-.925c-.044-.048-.085-.093-.128-.138a6.051,6.051,0,0,1,1.241-9.076l.072-.046.072.046a5.934,5.934,0,0,1,2.762,5.068,5.82,5.82,0,0,1-1.37,3.851l-.008.009c-.137.137-.272.282-.4.432l-.008.008A6.158,6.158,0,0,1,776.2,94.873Z" transform="translate(-71.201 -16.635)" fill="#b0ddff"/>
        <path id="Path_759" data-name="Path 759" d="M813.376,183.127a5.826,5.826,0,0,1,1.415-3.832l.007-.008c.135-.134.266-.274.389-.416l.007-.008a5.915,5.915,0,0,1,5.49-1.6l.084.019.018.084a5.933,5.933,0,0,1-1.63,5.537,6.065,6.065,0,0,1-2.057,1.371c-.137.044-.266.09-.393.139a5.951,5.951,0,0,1-1.772.266,6.109,6.109,0,0,1-1.313-.141l-.083-.019-.018-.083a6.151,6.151,0,0,1-.142-1.288Z" transform="translate(-107.694 -100.805)" fill="#b0ddff"/>
        <path id="Path_760" data-name="Path 760" d="M819.2,275.979a5.84,5.84,0,0,1-4.221,1.777,6.13,6.13,0,0,1-1.314-.141l-.084-.019-.018-.084a5.94,5.94,0,0,1,1.634-5.536,6.067,6.067,0,0,1,2.063-1.374c.135-.044.262-.089.385-.136a6.1,6.1,0,0,1,3.083-.127l.084.018.018.084A5.935,5.935,0,0,1,819.2,275.979Z" transform="translate(-107.743 -185.553)" fill="#b0ddff"/>
        <path id="Path_761" data-name="Path 761" d="M717.6,275.783l-.014.063-.063.014a4.642,4.642,0,0,1-1,.107,4.423,4.423,0,0,1-3.2-1.346,4.5,4.5,0,0,1-1.235-4.193l.014-.064.064-.014a4.655,4.655,0,0,1,2.381.113c.068.025.131.048.194.069a4.563,4.563,0,0,1,1.615,1.057,4.457,4.457,0,0,1,1.341,2.963v.457A4.631,4.631,0,0,1,717.6,275.783Z" transform="translate(-13.545 -183.765)" fill="#e6f3ff"/>
        <path id="Path_764" data-name="Path 764" d="M712.088,275.783l.014.063.063.014a4.642,4.642,0,0,0,1,.107,4.423,4.423,0,0,0,3.2-1.346,4.5,4.5,0,0,0,1.235-4.193l-.014-.064-.064-.014a4.655,4.655,0,0,0-2.381.113c-.068.025-.131.048-.194.069a4.563,4.563,0,0,0-1.615,1.057,4.457,4.457,0,0,0-1.341,2.963v.457A4.631,4.631,0,0,0,712.088,275.783Z" transform="translate(-6.304 -183.766)" fill="#e6f3ff"/>
        <path id="Path_762" data-name="Path 762" d="M717.6,275.783l-.014.063-.063.014a4.642,4.642,0,0,1-1,.107,4.423,4.423,0,0,1-3.2-1.346,4.5,4.5,0,0,1-1.235-4.193l.014-.064.064-.014a4.655,4.655,0,0,1,2.381.113c.068.025.131.048.194.069a4.563,4.563,0,0,1,1.615,1.057,4.457,4.457,0,0,1,1.341,2.963v.457A4.631,4.631,0,0,1,717.6,275.783Z" transform="translate(-13.545 -192.091)" fill="#e6f3ff"/>
        <path id="Path_763" data-name="Path 763" d="M712.088,275.783l.014.063.063.014a4.642,4.642,0,0,0,1,.107,4.423,4.423,0,0,0,3.2-1.346,4.5,4.5,0,0,0,1.235-4.193l-.014-.064-.064-.014a4.655,4.655,0,0,0-2.381.113c-.068.025-.131.048-.194.069a4.563,4.563,0,0,0-1.615,1.057,4.457,4.457,0,0,0-1.341,2.963v.457A4.631,4.631,0,0,0,712.088,275.783Z" transform="translate(-6.304 -192.091)" fill="#e6f3ff"/>
        <path id="Path_765" data-name="Path 765" d="M712.088,275.783l.014.063.063.014a4.642,4.642,0,0,0,1,.107,4.423,4.423,0,0,0,3.2-1.346,4.5,4.5,0,0,0,1.235-4.193l-.014-.064-.064-.014a4.655,4.655,0,0,0-2.381.113c-.068.025-.131.048-.194.069a4.563,4.563,0,0,0-1.615,1.057,4.457,4.457,0,0,0-1.341,2.963v.457A4.631,4.631,0,0,0,712.088,275.783Z" transform="translate(6.341 386.595) rotate(-45)" fill="#e6f3ff"/>
      </g>
    </g>
  </g>
</svg>
