<svg xmlns="http://www.w3.org/2000/svg" xmlns:xlink="http://www.w3.org/1999/xlink" width="37" height="36" viewBox="0 0 37 36"><defs><clipPath id="b"><rect width="37" height="36"/></clipPath></defs><g id="a" clip-path="url(#b)"><g transform="translate(142.477 -6177.104)"><g transform="translate(-140.477 6178.104)"><path d="M1023.709,567.594a4.93,4.93,0,0,0,2.231.537h.072a.516.516,0,0,0,.518-.5.515.515,0,0,0-.495-.536.222.222,0,0,0-.039,0h-.015a3.993,3.993,0,0,1-1.858-.451,5.13,5.13,0,0,0-4.557,0,3.873,3.873,0,0,1-1.8.449h-.135a3.367,3.367,0,0,1-1.679-.444,4.7,4.7,0,0,0-4.4,0,3.672,3.672,0,0,1-3.491,0,4.351,4.351,0,0,0-2.2-.546h-.046a4.936,4.936,0,0,0-2.237.537,3.913,3.913,0,0,1-1.821.45h-.131a3.337,3.337,0,0,1-1.662-.444,4.323,4.323,0,0,0-2.1-.545h-.14a4.935,4.935,0,0,0-2.236.537,3.918,3.918,0,0,1-1.82.45h-.068a.516.516,0,0,0-.022,1.031.178.178,0,0,0,.039,0h.006a5.017,5.017,0,0,0,2.28-.537,3.932,3.932,0,0,1,1.823-.45h.128a3.347,3.347,0,0,1,1.663.444,4.349,4.349,0,0,0,2.192.544h.049a4.929,4.929,0,0,0,2.233-.537,3.936,3.936,0,0,1,1.824-.45h.127a3.343,3.343,0,0,1,1.662.444,4.7,4.7,0,0,0,4.4,0,3.668,3.668,0,0,1,3.492,0,4.376,4.376,0,0,0,2.2.546h.049a4.93,4.93,0,0,0,2.233-.537A4.094,4.094,0,0,1,1023.709,567.594Z" transform="translate(-993.091 -534.738)" fill="#b0ddff"/><path d="M993.586,539.662a.151.151,0,0,0,.039,0h.055a4.918,4.918,0,0,0,2.232-.537,3.924,3.924,0,0,1,1.823-.45l.128,0a3.351,3.351,0,0,1,1.663.444,4.32,4.32,0,0,0,2.192.544,5.031,5.031,0,0,0,2.282-.537,3.922,3.922,0,0,1,1.821-.45l.131,0a3.343,3.343,0,0,1,1.662.444,4.7,4.7,0,0,0,4.4,0,3.672,3.672,0,0,1,3.493,0,4.352,4.352,0,0,0,2.2.546h.046a4.942,4.942,0,0,0,2.237-.537,4.1,4.1,0,0,1,3.728,0,4.936,4.936,0,0,0,2.234.537h.066a.516.516,0,0,0,.52-.5.516.516,0,0,0-.5-.536.134.134,0,0,0-.034,0h-.036a3.939,3.939,0,0,1-1.842-.451,5.131,5.131,0,0,0-4.557,0,3.929,3.929,0,0,1-1.823.448h-.041a3.173,3.173,0,0,1-1.371-.263l-.085-.035V530.98h3.826a.516.516,0,0,0,.516-.516v-3.946a.516.516,0,0,0-.516-.516h-2.477l7.88-6.3v12.738a.517.517,0,0,0,.144.37.51.51,0,0,0,.361.158.522.522,0,0,0,.526-.516V518.633a.527.527,0,0,0-.151-.366l-1.973-1.972a.514.514,0,0,0-.551-.116l-8.088,3.128-.023-.181-1.056-8.449a.517.517,0,0,0-.512-.451H1010.2a.516.516,0,0,0-.512.451l-1.177,9.413h-2.136v-3.43a.519.519,0,0,0-.495-.542h-.014a.52.52,0,0,0-.522.5c0,.013,0,.028,0,.043v3.435h-3.306v-3.43a.516.516,0,0,0-.642-.5l-1.332.333v-3.779a.517.517,0,0,0-.515-.516H995.6a.518.518,0,0,0-.516.516v5.023l-1.582.4a.516.516,0,0,0-.391.5v11.837a.517.517,0,0,0,.516.516h3.628v6.684l-.125.016a5.035,5.035,0,0,0-1.639.5,3.926,3.926,0,0,1-1.823.45h-.066a.516.516,0,0,0-.021,1.031Zm7.454-1.072a3.569,3.569,0,0,1-1.066-.388,4.327,4.327,0,0,0-1.559-.509l-.124-.016v-6.684h2.914l0,7.63Zm10.231-.246-.086.038a3.239,3.239,0,0,1-1.278.264l-.1,0a3.32,3.32,0,0,1-1.745-.443,4.328,4.328,0,0,0-2.106-.545h-.135a4.92,4.92,0,0,0-2.234.537,4.34,4.34,0,0,1-1.181.4l-.168.03v-7.628h9.032Zm3.946-.476-.177-.047a5.081,5.081,0,0,0-2.559,0l-.177.047v-6.875h2.914Zm-19.093-24.633h2.915v3.521l-2.915.729Z" transform="translate(-993.09 -510.225)" fill="#b0ddff"/></g><path d="M1040.982,525.226l1.147,1.143-8.146,6.423-.627-4.543Z" transform="translate(-1151.228 5661.3)" fill="#e6f3ff"/><g transform="translate(-140.477 6178.104)"><path d="M1023.709,567.594a4.93,4.93,0,0,0,2.231.537h.072a.516.516,0,0,0,.518-.5.515.515,0,0,0-.495-.536.222.222,0,0,0-.039,0h-.015a3.993,3.993,0,0,1-1.858-.451,5.13,5.13,0,0,0-4.557,0,3.873,3.873,0,0,1-1.8.449h-.135a3.367,3.367,0,0,1-1.679-.444,4.7,4.7,0,0,0-4.4,0,3.672,3.672,0,0,1-3.491,0,4.351,4.351,0,0,0-2.2-.546h-.046a4.936,4.936,0,0,0-2.237.537,3.913,3.913,0,0,1-1.821.45h-.131a3.337,3.337,0,0,1-1.662-.444,4.323,4.323,0,0,0-2.1-.545h-.14a4.935,4.935,0,0,0-2.236.537,3.918,3.918,0,0,1-1.82.45h-.068a.516.516,0,0,0-.022,1.031.178.178,0,0,0,.039,0h.006a5.017,5.017,0,0,0,2.28-.537,3.932,3.932,0,0,1,1.823-.45h.128a3.347,3.347,0,0,1,1.663.444,4.349,4.349,0,0,0,2.192.544h.049a4.929,4.929,0,0,0,2.233-.537,3.936,3.936,0,0,1,1.824-.45h.127a3.343,3.343,0,0,1,1.662.444,4.7,4.7,0,0,0,4.4,0,3.668,3.668,0,0,1,3.492,0,4.376,4.376,0,0,0,2.2.546h.049a4.93,4.93,0,0,0,2.233-.537A4.094,4.094,0,0,1,1023.709,567.594Z" transform="translate(-993.091 -534.738)" fill="#2e58ff"/><path d="M993.586,539.662a.151.151,0,0,0,.039,0h.055a4.918,4.918,0,0,0,2.232-.537,3.924,3.924,0,0,1,1.823-.45l.128,0a3.351,3.351,0,0,1,1.663.444,4.32,4.32,0,0,0,2.192.544,5.031,5.031,0,0,0,2.282-.537,3.922,3.922,0,0,1,1.821-.45l.131,0a3.343,3.343,0,0,1,1.662.444,4.7,4.7,0,0,0,4.4,0,3.672,3.672,0,0,1,3.493,0,4.352,4.352,0,0,0,2.2.546h.046a4.942,4.942,0,0,0,2.237-.537,4.1,4.1,0,0,1,3.728,0,4.936,4.936,0,0,0,2.234.537h.066a.516.516,0,0,0,.52-.5.516.516,0,0,0-.5-.536.134.134,0,0,0-.034,0h-.036a3.939,3.939,0,0,1-1.842-.451,5.131,5.131,0,0,0-4.557,0,3.929,3.929,0,0,1-1.823.448h-.041a3.173,3.173,0,0,1-1.371-.263l-.085-.035V530.98h3.826a.516.516,0,0,0,.516-.516v-3.946a.516.516,0,0,0-.516-.516h-2.477l7.88-6.3v12.738a.517.517,0,0,0,.144.37.51.51,0,0,0,.361.158.522.522,0,0,0,.526-.516V518.633a.527.527,0,0,0-.151-.366l-1.973-1.972a.514.514,0,0,0-.551-.116l-8.088,3.128-.023-.181-1.056-8.449a.517.517,0,0,0-.512-.451H1010.2a.516.516,0,0,0-.512.451l-1.177,9.413h-2.136v-3.43a.519.519,0,0,0-.495-.542h-.014a.52.52,0,0,0-.522.5c0,.013,0,.028,0,.043v3.435h-3.306v-3.43a.516.516,0,0,0-.642-.5l-1.332.333v-3.779a.517.517,0,0,0-.515-.516H995.6a.518.518,0,0,0-.516.516v5.023l-1.582.4a.516.516,0,0,0-.391.5v11.837a.517.517,0,0,0,.516.516h3.628v6.684l-.125.016a5.035,5.035,0,0,0-1.639.5,3.926,3.926,0,0,1-1.823.45h-.066a.516.516,0,0,0-.021,1.031Zm7.454-1.072a3.569,3.569,0,0,1-1.066-.388,4.327,4.327,0,0,0-1.559-.509l-.124-.016v-6.684h2.914l0,7.63Zm10.231-.246-.086.038a3.239,3.239,0,0,1-1.278.264l-.1,0a3.32,3.32,0,0,1-1.745-.443,4.328,4.328,0,0,0-2.106-.545h-.135a4.92,4.92,0,0,0-2.234.537,4.34,4.34,0,0,1-1.181.4l-.168.03v-7.628h9.032Zm3.946-.476-.177-.047a5.081,5.081,0,0,0-2.559,0l-.177.047v-6.875h2.914Zm8.674-20.6,1.329,1.326-8.7,6.96-.647-5.186Zm-13.234-6.007h3.035l.365,2.914h-3.765Zm-.493,3.946h4.022l.364,2.915H1009.8Zm-.49,3.949h5.008l.016.124c.011.091.187,1.5.277,2.219l.073.571h-5.739Zm-.493,3.947h6l.363,2.914h-6.724Zm-7.138-1.977h6.341l-.611,4.89h-5.731Zm-5.919-7.893h2.915v3.521l-2.915.729Zm-1.976,16.729v-2.916h3.432a.516.516,0,0,0-.006-1.031h-3.424V523.1h3.43a.516.516,0,0,0-.006-1.031h-3.424v-3.027l.107-.027,6.753-1.689v9.2a.516.516,0,0,0,.515.516h18.031v2.916Z" transform="translate(-993.09 -510.225)" fill="#2e58ff"/></g></g></g></svg>