<svg xmlns="http://www.w3.org/2000/svg" xmlns:xlink="http://www.w3.org/1999/xlink" width="38" height="36" viewBox="0 0 38 36"><defs><clipPath id="b"><rect width="38" height="36"/></clipPath></defs><g id="a" clip-path="url(#b)"><g transform="translate(-700.732 -894.079)"><path d="M434.438,525.056a.592.592,0,0,0-.328-.793l-18.293-6.92a.59.59,0,0,0-.417,0l-18.294,6.92a.592.592,0,0,0,0,1.1l6.59,2.527v9.973c0,2.528,5.9,5.008,11.915,5.008s11.916-2.48,11.916-5.008v-9.973l1.411-.541.893.123v8.68a.59.59,0,1,0,1.181.008l0-5.678c0-2.872,0-3.553-.01-3.636l-.056-.238.221-.115,2.941-1.131A.586.586,0,0,0,434.438,525.056Z" transform="translate(304.005 381.774)" fill="#b0ddff"/><path d="M415.113,531.8l-.086-.033-14.281-5.44,14.377-5.439L429.5,526.33Z" transform="translate(302.243 380.2)" fill="#e6f3ff"/><path d="M434.438,525.056a.592.592,0,0,0-.328-.793l-18.293-6.92a.59.59,0,0,0-.417,0l-18.294,6.92a.592.592,0,0,0,0,1.1l6.59,2.527v9.973c0,2.528,5.9,5.008,11.915,5.008s11.916-2.48,11.916-5.008v-9.973l1.411-.541.893.123v8.68a.59.59,0,1,0,1.181.008l0-5.678c0-2.872,0-3.553-.01-3.636l-.056-.238.221-.115,2.941-1.131A.586.586,0,0,0,434.438,525.056Zm-8.1,12.816c0,.527-.926,1.487-2.959,2.354a21.254,21.254,0,0,1-15.544,0c-2.041-.87-2.966-1.831-2.966-2.357v-9.523l10.523,4.038a.585.585,0,0,0,.423,0l10.523-4.038Zm2.452-11.729-13.106-1.806a.591.591,0,0,0-.685.486.591.591,0,0,0,.487.678l11.028,1.522-10.921,4.131-.1-.039-16.527-6.3,16.638-6.294,16.635,6.293Z" transform="translate(304.005 381.774)" fill="#2e58ff"/></g></g></svg>