<svg xmlns="http://www.w3.org/2000/svg" xmlns:xlink="http://www.w3.org/1999/xlink" width="36" height="36" viewBox="0 0 36 36"><defs><clipPath id="b"><rect width="36" height="36"/></clipPath></defs><g id="a" clip-path="url(#b)"><g transform="translate(307.98 -6177.153)"><g transform="translate(-296.156 6184.015)"><path d="M722.328,533.85a6.548,6.548,0,1,0-6.548-6.55A6.548,6.548,0,0,0,722.328,533.85Z" transform="translate(-715.78 -520.754)" fill="#b0ddff"/></g><g transform="translate(-292.608 6187.591)"><path d="M726.278,535.479A4.178,4.178,0,1,0,722.1,531.3,4.178,4.178,0,0,0,726.278,535.479Z" transform="translate(-722.1 -527.123)" fill="#e6f3ff"/></g><g transform="translate(-301.981 6178.153)"><path d="M707.887,530.12l8.48,12.849a1.613,1.613,0,0,0,2.819,0l8.48-12.85a19.905,19.905,0,0,0,1.425-2.673,14.276,14.276,0,0,0,1.048-4.762,12.368,12.368,0,0,0-24.735-.01v.01a14.274,14.274,0,0,0,1.049,4.762A19.971,19.971,0,0,0,707.887,530.12Zm9.889-18.348a10.925,10.925,0,0,1,10.912,10.912,12.953,12.953,0,0,1-.935,4.2,18.319,18.319,0,0,1-1.3,2.443l-8.48,12.849c-.167.254-.221.254-.388,0l-8.48-12.855a18.307,18.307,0,0,1-1.3-2.443,12.944,12.944,0,0,1-.935-4.2,10.925,10.925,0,0,1,10.912-10.908Z" transform="translate(-705.404 -510.312)" fill="#2e58ff"/><path d="M722.328,533.789a6.548,6.548,0,1,0-6.548-6.55A6.548,6.548,0,0,0,722.328,533.789Zm0-11.64a5.088,5.088,0,1,1-5.088,5.088,5.088,5.088,0,0,1,5.088-5.088Z" transform="translate(-709.955 -514.865)" fill="#2e58ff"/></g></g></g></svg>