<svg xmlns="http://www.w3.org/2000/svg" xmlns:xlink="http://www.w3.org/1999/xlink" width="36" height="36" viewBox="0 0 36 36"><defs><clipPath id="b"><rect width="36" height="36"/></clipPath></defs><g id="a" clip-path="url(#b)"><g transform="translate(-615.5 -894)"><g transform="translate(1176 -5283)"><ellipse cx="16.693" cy="16.693" rx="16.693" ry="16.693" transform="translate(-559 6178)" fill="#e8f3fe"/><ellipse cx="13.193" cy="13.193" rx="13.193" ry="13.193" transform="translate(-552.979 6182.258)" fill="#b0ddff"/><path d="M7.029,0l7.029,11.422H0Z" transform="translate(-534.399 6187.664) rotate(90)" fill="#2553ff"/><g transform="translate(-559 6178)" fill="none" stroke="#2f58f5" stroke-width="1.25"><ellipse cx="16.693" cy="16.693" rx="16.693" ry="16.693" stroke="none"/><ellipse cx="16.693" cy="16.693" rx="16.068" ry="16.068" fill="none"/></g></g><g transform="translate(1176 -5283)"><ellipse cx="16.693" cy="16.693" rx="16.693" ry="16.693" transform="translate(-559 6178)" fill="#e8f3fe"/><ellipse cx="13.193" cy="13.193" rx="13.193" ry="13.193" transform="translate(-552.979 6182.258)" fill="#b0ddff"/><path d="M7.029,0l7.029,11.422H0Z" transform="translate(-534.399 6187.664) rotate(90)" fill="#2553ff"/><g transform="translate(-559 6178)" fill="none" stroke="#2f58f5" stroke-width="1.25"><ellipse cx="16.693" cy="16.693" rx="16.693" ry="16.693" stroke="none"/><ellipse cx="16.693" cy="16.693" rx="16.068" ry="16.068" fill="none"/></g></g></g></g></svg>