<svg xmlns="http://www.w3.org/2000/svg" xmlns:xlink="http://www.w3.org/1999/xlink" width="48" height="36" viewBox="0 0 48 36"><defs><clipPath id="b"><rect width="48" height="36"/></clipPath></defs><g id="a" clip-path="url(#b)"><g transform="translate(1 1)"><g transform="translate(15.918 4.983)"><path d="M1471.028,541.324l2.626-9.543a.764.764,0,0,0-.737-.967h-6.274l.084-.112,8.794-11.756-1.412,8.61a.745.745,0,0,0-.01.123.765.765,0,0,0,.764.765h6.246l-.087.113-10.089,13.112Z" transform="translate(-1466.643 -518.946)" fill="#b0ddff"/></g><g transform="translate(20.835 10.043)"><path d="M1478.422,540.843l1.809-6.575a.515.515,0,0,0,.019-.14.527.527,0,0,0-.526-.526H1475.4l.058-.077,4.224-5.564-.731,3.238c-.005.029,1.586.216,1.586.244a.527.527,0,0,0,.526.527h4.3l-.06.078-6.951,9.034Z" transform="translate(-1475.401 -527.96)" fill="#e6f3ff"/></g><g transform="translate(0)"><path d="M1507.174,543.286a.761.761,0,0,0,.541-.224,23.153,23.153,0,0,0,0-32.769.764.764,0,1,0-1.08,1.081,21.661,21.661,0,0,1,0,30.61.767.767,0,0,0-.223.541.763.763,0,0,0,.762.761Z" transform="translate(-1468.168 -510.07)" fill="#2e58ff"/><path d="M1499.813,542.383a.766.766,0,0,0,.542-.224,17.348,17.348,0,0,0,0-24.505h0a.764.764,0,1,0-1.08,1.08,15.8,15.8,0,0,1,0,22.347.763.763,0,0,0,.538,1.3Z" transform="translate(-1464.939 -513.298)" fill="#2e58ff"/><path d="M1445.066,543.063a.784.784,0,0,0,1.081,0,.765.765,0,0,0,0-1.081l-.022-.022a21.652,21.652,0,0,1,.022-30.585.764.764,0,0,0-1.081-1.081,23.192,23.192,0,0,0,0,32.769Z" transform="translate(-1438.288 -510.07)" fill="#2e58ff"/><path d="M1453.756,542.159a.785.785,0,0,0,1.08,0,.765.765,0,0,0,0-1.078l-.011-.011,0,0-.034-.034a15.794,15.794,0,0,1,.046-22.3.764.764,0,0,0-1.081-1.08,17.326,17.326,0,0,0,0,24.506Z" transform="translate(-1442.846 -513.298)" fill="#2e58ff"/><path d="M1467.369,543.017h.045a.775.775,0,0,0,.561-.3l13.5-17.541a.765.765,0,0,0-.064-1.008.76.76,0,0,0-.537-.222h-6.9l.039-.244,1.73-10.562a.765.765,0,0,0-1.366-.58l-11.659,15.591a.762.762,0,0,0,.609,1.221h6.8l-.025.089-3.465,12.586a.786.786,0,0,0-.028.206.763.763,0,0,0,.762.761Zm1.871-4.661,2.625-9.543a.763.763,0,0,0-.736-.967h-6.274l.084-.112,8.793-11.756-1.412,8.61a.765.765,0,0,0,.754.888h6.246l-.087.113L1469.144,538.7Z" transform="translate(-1448.936 -511.03)" fill="#2e58ff"/></g></g></g></svg>