<svg xmlns="http://www.w3.org/2000/svg" xmlns:xlink="http://www.w3.org/1999/xlink" width="33" height="36" viewBox="0 0 33 36"><defs><clipPath id="b"><rect width="33" height="36"/></clipPath></defs><g id="a" clip-path="url(#b)"><g transform="translate(58.07 -6177.034)"><g transform="translate(-56.07 6178.034)"><path d="M1172.908,517.186a.576.576,0,0,0-.815-.815l-1.866,1.87h-3.477l-1.748-3.5,1.748-3.5h3.477l1.866,1.867a.576.576,0,0,0,.815-.815l-2.035-2.035a.578.578,0,0,0-.407-.168H1166.4a.576.576,0,0,0-.513.317l-1.872,3.756h-3.144v-1.461a.575.575,0,0,0-.574-.573h-3.052a3.65,3.65,0,0,0-2.264.793l-10.172,8.138a3.625,3.625,0,0,0-.13,5.555l8.974,7.887-.016.221c-.01.136-.015.25-.015.36v3.63h-1.461a4.656,4.656,0,0,0-4.644,4.643.575.575,0,0,0,.574.574h20.345a.575.575,0,0,0,.574-.574,4.656,4.656,0,0,0-4.643-4.643H1162.9v-3.63a4.644,4.644,0,0,0-1.579-3.489l-8.614-7.571,5.8-4.644h1.781a.576.576,0,0,0,.574-.574v-3.5h3.143l1.877,3.752a.576.576,0,0,0,.513.317h4.07a.587.587,0,0,0,.4-.169Z" transform="translate(-1143.446 -510.1)" fill="#b0ddff"/></g><path d="M1156.175,539.145l-.7.145a3.732,3.732,0,0,0-2.467,1.794l-.216.377-7.876-7.051a1.987,1.987,0,0,1-.181-2.8,1.944,1.944,0,0,1,.24-.231,1.986,1.986,0,0,1,2.56.049Z" transform="translate(-1199.866 5658.795)" fill="#e6f3ff"/><path d="M1174.448,564.8a2.366,2.366,0,0,1,2.221,1.571l.141.4h-12.955l.142-.4a2.368,2.368,0,0,1,2.222-1.571Z" transform="translate(-1208.467 5643.943)" fill="#e6f3ff"/><g transform="translate(-56.07 6178.034)"><path d="M1169.386,554.744a.573.573,0,1,0-.573-.573A.574.574,0,0,0,1169.386,554.744Z" transform="translate(-1154.572 -529.178)" fill="#2e58ff"/><path d="M1172.908,517.186a.576.576,0,0,0-.815-.815l-1.866,1.87h-3.477l-1.748-3.5,1.748-3.5h3.477l1.866,1.867a.576.576,0,0,0,.815-.815l-2.035-2.035a.578.578,0,0,0-.407-.168H1166.4a.576.576,0,0,0-.513.317l-1.872,3.756h-3.144v-1.461a.575.575,0,0,0-.574-.573h-3.052a3.65,3.65,0,0,0-2.264.793l-10.172,8.138a3.625,3.625,0,0,0-.13,5.555l8.974,7.887-.016.221c-.01.136-.015.25-.015.36v3.63h-1.461a4.656,4.656,0,0,0-4.644,4.643.575.575,0,0,0,.574.574h20.345a.575.575,0,0,0,.574-.574,4.656,4.656,0,0,0-4.643-4.643H1162.9v-3.63a4.644,4.644,0,0,0-1.579-3.489l-8.614-7.571,5.8-4.644h1.781a.576.576,0,0,0,.574-.574v-3.5h3.143l1.877,3.752a.576.576,0,0,0,.513.317h4.07a.587.587,0,0,0,.4-.169Zm-8.546,22.684a3.509,3.509,0,0,1,3.3,2.329l.209.593h-19.214l.21-.593a3.512,3.512,0,0,1,3.3-2.329Zm-2.606-4.778,0,3.63h-6.989v-3.63a3.5,3.5,0,1,1,6.991,0Zm-3.579-4.726-.869.182a4.655,4.655,0,0,0-3.08,2.24l-.271.47-8.526-7.5a2.478,2.478,0,0,1,3.271-3.724Zm-6.344-7.1-2.372-2.084a3.607,3.607,0,0,0-1.073-.655l-.715-.28,5.869-4.695.115.761a3.651,3.651,0,0,0,2.267,2.83l.715.28Zm7.886-5.021h-2.479a2.478,2.478,0,0,1,0-4.956h2.479Z" transform="translate(-1143.446 -510.1)" fill="#2e58ff"/></g></g></g></svg>