<svg xmlns="http://www.w3.org/2000/svg" xmlns:xlink="http://www.w3.org/1999/xlink" width="36" height="36" viewBox="0 0 36 36"><defs><clipPath id="b"><rect width="36" height="36"/></clipPath></defs><g id="a" clip-path="url(#b)"><g transform="translate(-5.393)"><g transform="translate(-783 -894.082)"><g transform="translate(796.81 902.534)"><path d="M580.861,536.45h5.31a.589.589,0,0,0,.593-.587v-5.907a.648.648,0,0,0-.6-.593h-5.305v-5.31a.589.589,0,0,0-.587-.593h-5.907a.622.622,0,0,0-.418.171.585.585,0,0,0-.175.416v5.316h-5.31a.685.685,0,0,0-.419.171.588.588,0,0,0-.174.417v5.907a.588.588,0,0,0,.587.593h5.316v5.31a.59.59,0,0,0,.586.592h5.912a.588.588,0,0,0,.589-.587Z" transform="translate(-567.871 -523.46)" fill="#b0ddff"/></g><rect width="3.177" height="17.808" transform="translate(803.389 903.128)" fill="#e6f3ff"/><rect width="9.275" height="6.414" transform="translate(797.29 908.675)" fill="#e6f3ff"/><g transform="translate(789.393 895.082)"><path d="M571.524,510.185h0a16.865,16.865,0,0,0,0,33.729h0a16.865,16.865,0,0,0,0-33.729Zm0,32.545h0a15.68,15.68,0,1,1,15.68-15.68A15.7,15.7,0,0,1,571.524,542.73Z" transform="translate(-554.658 -510.185)" fill="#2e58ff"/><path d="M580.861,536.39h5.31a.59.59,0,0,0,.593-.587v-5.907a.647.647,0,0,0-.6-.593h-5.305v-5.31a.589.589,0,0,0-.587-.593h-5.907a.622.622,0,0,0-.418.171.584.584,0,0,0-.175.416V529.3h-5.31a.685.685,0,0,0-.419.171.588.588,0,0,0-.174.416V535.8a.588.588,0,0,0,.587.593h5.316v5.31a.59.59,0,0,0,.586.592h5.912a.588.588,0,0,0,.589-.587Zm-.592-1.186h0a.59.59,0,0,0-.59.588v5.316H574.96V535.8a.591.591,0,0,0-.587-.593h-5.316v-4.717h5.313a.59.59,0,0,0,.591-.587v-5.316h4.758v5.31a.591.591,0,0,0,.588.593h5.316V535.2Z" transform="translate(-560.453 -515.981)" fill="#2e58ff"/></g></g></g></g></svg>