<svg xmlns="http://www.w3.org/2000/svg" xmlns:xlink="http://www.w3.org/1999/xlink" width="38" height="36" viewBox="0 0 38 36"><defs><clipPath id="b"><rect width="38" height="36"/></clipPath></defs><g id="a" clip-path="url(#b)"><g transform="translate(228.347 -6177.509)"><g transform="translate(-226.347 6178.509)"><path d="M857.017,557.778a3.537,3.537,0,1,0,3.537,3.537A3.541,3.541,0,0,0,857.017,557.778Zm0,5.727a2.191,2.191,0,1,1,2.19-2.191A2.193,2.193,0,0,1,857.017,563.505Z" transform="translate(-845.985 -531.487)" fill="#b0ddff"/><path d="M884.707,564.852a3.537,3.537,0,1,0-3.537-3.537A3.542,3.542,0,0,0,884.707,564.852Zm0-5.728a2.191,2.191,0,1,1-2.19,2.19A2.193,2.193,0,0,1,884.707,559.124Z" transform="translate(-858.13 -531.487)" fill="#b0ddff"/><path d="M874.992,516.948a.561.561,0,0,0-.091-.568.878.878,0,0,0-.553-.28l-26.727-.369-.769-2.348a3.624,3.624,0,0,0-3.382-2.436h-2.74a.678.678,0,0,0-.6.737.678.678,0,0,0,.611.611h2.728a2.281,2.281,0,0,1,2.1,1.529l5.213,15.721-.434.992a3.79,3.79,0,0,0,.357,3.423,3.658,3.658,0,0,0,2.951,1.652h15.91a.678.678,0,1,0,.14-1.348.554.554,0,0,0-.125,0H853.656a2.227,2.227,0,0,1-1.841-1.049,2.381,2.381,0,0,1-.219-2.09l.365-.822.084-.009,17.224-1.8a4.363,4.363,0,0,0,3.76-3.326Z" transform="translate(-840.13 -510.946)" fill="#b0ddff"/></g><path d="M871.352,534.679l-13.806,1.428-3.145-9.542,20.521.3-1.453,5.976A2.346,2.346,0,0,1,871.352,534.679Z" transform="translate(-1072.737 5660.712)" fill="#e6f3ff"/><g transform="translate(-226.347 6178.509)"><path d="M857.017,557.778a3.537,3.537,0,1,0,3.537,3.537A3.541,3.541,0,0,0,857.017,557.778Zm0,5.727a2.191,2.191,0,1,1,2.19-2.191A2.193,2.193,0,0,1,857.017,563.505Z" transform="translate(-845.985 -531.487)" fill="#2e58ff"/><path d="M884.707,564.852a3.537,3.537,0,1,0-3.537-3.537A3.542,3.542,0,0,0,884.707,564.852Zm0-5.728a2.191,2.191,0,1,1-2.19,2.19A2.193,2.193,0,0,1,884.707,559.124Z" transform="translate(-858.13 -531.487)" fill="#2e58ff"/><path d="M874.992,516.948a.561.561,0,0,0-.091-.568.878.878,0,0,0-.553-.28l-26.727-.369-.769-2.348a3.624,3.624,0,0,0-3.382-2.436h-2.74a.678.678,0,0,0-.6.737.678.678,0,0,0,.611.611h2.728a2.281,2.281,0,0,1,2.1,1.529l5.213,15.721-.434.992a3.79,3.79,0,0,0,.357,3.423,3.658,3.658,0,0,0,2.951,1.652h15.91a.678.678,0,1,0,.14-1.348.554.554,0,0,0-.125,0H853.656a2.227,2.227,0,0,1-1.841-1.049,2.381,2.381,0,0,1-.219-2.09l.365-.822.084-.009,17.224-1.8a4.363,4.363,0,0,0,3.76-3.326Zm-5.9,10.2-17.13,1.772-3.9-11.838,25.459.373-1.8,7.414A2.909,2.909,0,0,1,869.091,527.143Z" transform="translate(-840.13 -510.946)" fill="#2e58ff"/></g></g></g></svg>