<svg xmlns="http://www.w3.org/2000/svg" xmlns:xlink="http://www.w3.org/1999/xlink" width="36" height="36" viewBox="0 0 36 36"><defs><clipPath id="b"><rect width="36" height="36"/></clipPath></defs><g id="a" clip-path="url(#b)"><g transform="translate(-23.53 -6177.025)"><g transform="translate(24.53 6178.068)"><path d="M1307.974,536.007h12.446a.48.48,0,0,0,.479-.479v-4.016a.48.48,0,0,0-.479-.479h-2.01l-3.734-3.735v-3.336h5.744a.48.48,0,0,0,.479-.479v-4.016a.481.481,0,0,0-.479-.481l-5.745-.022-16.519-8.749a.476.476,0,0,0-.56.088l-8.693,8.685H1287.5a.48.48,0,0,0-.479.48v4.015a.48.48,0,0,0,.479.48h7.953v19.092h-1.068a.474.474,0,1,0,0,.949h9.2a.474.474,0,1,0,0-.949h-1.155V525.969h1.526a.481.481,0,0,0,.48-.479v-1.528h9.279V527.3l-.02.021-3.713,3.714h-2.009a.481.481,0,0,0-.48.479v4.016A.481.481,0,0,0,1307.974,536.007Zm-12.524-18.546v1.527h-5.188l.12-.12,7.076-7.075v5.187h-1.527A.48.48,0,0,0,1295.45,517.461Zm.959,9.189,4.386,4.385h-4.386Zm0,6.024,4.386,4.384h-4.386Zm0,10.382v-4.361l4.359,4.36Zm5.063-.654-.12-.12-4.265-4.265h4.385Zm0-6.023-4.385-4.384h4.385Zm0-6.022-.12-.12-4.265-4.266h4.385Zm2.217-11.365-.057-.081a4.521,4.521,0,0,0-3.688-1.927h-1.527v-5.555l.1.055,14.149,7.5Zm10.508,9.183.049.049,2.807,2.808h-5.714Z" transform="translate(-1287.018 -510.16)" fill="#b0ddff"/><path d="M1336.418,561.648h-12.446a.481.481,0,0,0-.48.48v4.015a.481.481,0,0,0,.48.48h12.446a.48.48,0,0,0,.479-.48v-4.015A.48.48,0,0,0,1336.418,561.648Z" transform="translate(-1303.016 -532.743)" fill="#b0ddff"/></g><path d="M1336.418,561.713h-12.446a.481.481,0,0,0-.48.479v4.016a.481.481,0,0,0,.48.479h12.446a.48.48,0,0,0,.479-.479v-4.016A.48.48,0,0,0,1336.418,561.713Zm-6.7,4.015h-5.263v-3.055h5.263Zm6.224,0h-5.264v-3.055h5.264Z" transform="translate(-1278.486 5645.296)" fill="#2e58ff"/><rect width="13.337" height="1.972" transform="translate(44.328 6189.105)" fill="#e6f3ff"/><path d="M1309.011,532.59h-5.395v-5.4h2.7a2.7,2.7,0,0,1,2.7,2.7Z" transform="translate(-1269.768 5660.437)" fill="#e6f3ff"/><path d="M1307.974,536.072h12.446a.48.48,0,0,0,.479-.48v-4.015a.48.48,0,0,0-.479-.48h-2.01l-3.734-3.735v-3.335h5.744a.481.481,0,0,0,.479-.479v-4.016a.48.48,0,0,0-.479-.481l-5.745-.022-16.519-8.749a.477.477,0,0,0-.56.088l-8.693,8.686H1287.5a.48.48,0,0,0-.479.48v4.015a.48.48,0,0,0,.479.48h7.953v19.092h-1.068a.475.475,0,1,0,0,.949h9.2a.475.475,0,1,0,0-.949h-1.155V526.034h1.526a.481.481,0,0,0,.48-.48v-1.527h9.279v3.335l-.02.021-3.713,3.714h-2.009a.481.481,0,0,0-.48.48v4.015A.481.481,0,0,0,1307.974,536.072Zm-12.523-13h-7.472v-3.055h7.472Zm0-5.543v1.528h-5.188l.12-.12,7.076-7.075v5.187h-1.527A.48.48,0,0,0,1295.45,517.525Zm.959,9.189,4.386,4.385h-4.386Zm0,6.024,4.386,4.385h-4.386Zm0,10.382v-4.36l4.359,4.36Zm5.063-.654-.12-.12-4.265-4.265h4.385Zm0-6.023-4.385-4.384h4.385Zm0-6.022-.12-.12-4.265-4.265h4.385Zm2.008-5.344h-7.07V518h3.535a3.544,3.544,0,0,1,3.535,3.535Zm.21-6.021-.057-.081a4.519,4.519,0,0,0-3.688-1.927h-1.527v-5.556l.1.055,14.149,7.5Zm.748,4.011v-1.528a4.5,4.5,0,0,0-.187-1.284l-.073-.244h15.762v3.056Zm9.76,5.173.049.049,2.807,2.807h-5.714Zm-5.745,3.816h11.488v3.056h-11.488Z" transform="translate(-1262.488 5667.879)" fill="#2e58ff"/></g></g></svg>