<svg xmlns="http://www.w3.org/2000/svg" xmlns:xlink="http://www.w3.org/1999/xlink" width="94" height="70" viewBox="0 0 94 70"><defs><clipPath id="b"><rect width="94" height="70"/></clipPath></defs><g id="a" clip-path="url(#b)"><g transform="translate(-415.023 -62.648)"><path d="M479.721,103.086v8.476a6.165,6.165,0,0,1-6.165,6.165h-.77a10.4,10.4,0,0,1-20.805,0h-.77a6.166,6.166,0,0,1-6.166-6.164h0v-8.476l2.362-6.38a6.165,6.165,0,0,1,5.781-4.023h18.39a6.164,6.164,0,0,1,5.781,4.023Z" fill="#b0ddff"/><path d="M471.722,96.536H458.967a6.164,6.164,0,0,0-5.781,4.024l-.934,2.526h-7.207l2.362-6.38a6.165,6.165,0,0,1,5.781-4.023h18.39a1.929,1.929,0,0,1,.277,3.848C471.811,96.534,471.766,96.535,471.722,96.536Z" fill="#e6f3ff"/><path d="M472.785,117.727a10.313,10.313,0,0,1-.528,3.273h-19.75a10.342,10.342,0,0,1-.528-3.273Z" fill="#b9dcff"/><path d="M479.721,103.086v8.476a6.165,6.165,0,0,1-6.165,6.165H451.21a6.165,6.165,0,0,1-6.165-6.165v-8.476Z" fill="#b0ddff"/><path d="M452.337,103.086a37.038,37.038,0,0,0-1.586,8.676,2.855,2.855,0,0,1-5.706-.2v-8.476Z" fill="#e6f3ff"/><path d="M432.33,96.718H417.689a1.166,1.166,0,1,0,0,2.331H432.33a1.166,1.166,0,1,0,0-2.331Z" fill="#2e58ff"/><path d="M507.077,96.72H492.436a1.166,1.166,0,1,0,0,2.332h14.641a1.166,1.166,0,1,0,0-2.332Z" fill="#2e58ff"/><path d="M425.007,112.535a1.167,1.167,0,0,0,1.166-1.166v-1.723h12.319a1.166,1.166,0,0,0,0-2.332H426.173v-3.65a1.167,1.167,0,1,0-2.333,0v7.706A1.168,1.168,0,0,0,425.007,112.535Z" fill="#2e58ff"/><path d="M449.762,69.661a1.16,1.16,0,0,0,.342.825,1.194,1.194,0,0,0,1.649,0,15.288,15.288,0,0,1,10.88-4.514h.009a15.292,15.292,0,0,1,10.878,4.5,1.166,1.166,0,1,0,1.662-1.637,17.746,17.746,0,0,0-25.067-.011A1.169,1.169,0,0,0,449.762,69.661Z" fill="#2e58ff"/><path d="M469.461,76.205a1.166,1.166,0,0,0,0-1.65,9.648,9.648,0,0,0-13.629-.008,1.167,1.167,0,1,0,1.642,1.658,7.255,7.255,0,0,1,5.164-2.143h.005A7.257,7.257,0,0,1,467.8,76.2l-.259.271h0l.265-.265A1.171,1.171,0,0,0,469.461,76.205Z" fill="#2e58ff"/><path d="M464.421,83.152a2.515,2.515,0,0,0-1.778-4.293h0a2.515,2.515,0,1,0,1.779,4.293Z" fill="#2e58ff"/><path d="M499.757,112.537a1.167,1.167,0,0,0,1.166-1.166l-.007-7.7a1.166,1.166,0,0,0-2.333,0v3.649h-17.7l0-2.535c0-1.867,0-1.871-.068-2.075-.041-.118-1.075-2.909-1.763-4.766-.34-.916-.6-1.606-.607-1.638a7.4,7.4,0,0,0-6.875-4.782H453.182a7.4,7.4,0,0,0-6.875,4.786l-.165.446c-1.436,3.875-2.185,5.9-2.228,6.034a33.931,33.931,0,0,0-.043,3.834l0,4.945a7.294,7.294,0,0,0,.938,3.581l.14.248-4.881,4.88a1.176,1.176,0,0,0-.342.825v9.732a1.167,1.167,0,0,0,2.333,0v-9.249l4.413-4.413.261.2a7.326,7.326,0,0,0,4.458,1.522h20.361l-.079.44a9.244,9.244,0,0,1-16.069,4.448,1.166,1.166,0,1,0-1.76,1.53,11.566,11.566,0,0,0,20.209-6.122l.038-.3.3-.026a7.267,7.267,0,0,0,3.829-1.5l.262-.2,4.413,4.413v9.261A1.166,1.166,0,0,0,483.865,132h.005a1.167,1.167,0,0,0,1.161-1.171V121.1a1.159,1.159,0,0,0-.341-.825l-4.881-4.88.139-.248a8.14,8.14,0,0,0,.941-4.61l0-.886h17.7v1.725A1.168,1.168,0,0,0,499.757,112.537Zm-21.2-.973a5.013,5.013,0,0,1-5,5l-22.643-.013a5.014,5.014,0,0,1-4.7-4.989v-7.31h25.1a1.167,1.167,0,0,0,0-2.333H446.722l1.779-4.805a5.041,5.041,0,0,1,4.686-3.262h18.39a5.039,5.039,0,0,1,4.687,3.261l2.291,6.252Z" fill="#2e58ff"/></g></g></svg>