<svg xmlns="http://www.w3.org/2000/svg" width="37.943" height="37.942" viewBox="0 0 37.943 37.942"><g transform="translate(-847.029 -5827.029)"><path d="M37.479,35.244l-10.79-10.79a15.047,15.047,0,1,0-2.235,2.235l10.79,10.79a1.581,1.581,0,0,0,2.235-2.235Zm-22.46-8.368A11.857,11.857,0,1,1,26.876,15.019,11.869,11.869,0,0,1,15.019,26.876Z" transform="translate(847.029 5827.029)" fill="#d60031"/><g transform="translate(855 5835)"><path d="M14,.5H0A.5.5,0,0,1-.5,0,.5.5,0,0,1,0-.5H14a.5.5,0,0,1,.5.5A.5.5,0,0,1,14,.5Z" transform="translate(0 7)" fill="#c42938"/><path d="M14,.5H0A.5.5,0,0,1-.5,0,.5.5,0,0,1,0-.5H14a.5.5,0,0,1,.5.5A.5.5,0,0,1,14,.5Z" transform="translate(7) rotate(90)" fill="#c42938"/></g></g></svg>