<svg xmlns="http://www.w3.org/2000/svg" xmlns:xlink="http://www.w3.org/1999/xlink" width="68" height="70" viewBox="0 0 68 70"><defs><clipPath id="b"><rect width="68" height="70"/></clipPath></defs><g id="a" clip-path="url(#b)"><g transform="translate(-674.884 -198.931)"><rect width="12" height="41" transform="translate(724.884 222.498)" fill="#e6f3ff"/><rect width="10" height="34" transform="translate(706.884 229.498)" fill="#e6f3ff"/><rect width="10" height="30" transform="translate(687.884 233.498)" fill="#e6f3ff"/><path d="M714.884,230.5h2v33h-6v-29A4,4,0,0,1,714.884,230.5Z" fill="#b0ddff"/><path d="M733.884,224.5h2v39h-6v-35A4,4,0,0,1,733.884,224.5Z" fill="#b0ddff"/><path d="M695.884,235.5h1v28h-5v-24A4,4,0,0,1,695.884,235.5Z" fill="#b0ddff"/><path d="M739.091,262.778h-1.36V223.331a1.36,1.36,0,0,0-1.36-1.36H725.489a1.36,1.36,0,0,0-1.36,1.36h0v39.444h-5.445v-34a1.36,1.36,0,0,0-1.36-1.36H706.447a1.36,1.36,0,0,0-1.36,1.36h0v34h-5.441v-28.56a1.36,1.36,0,0,0-1.36-1.36H687.405a1.36,1.36,0,0,0-1.36,1.36h0v28.563H680.6V204.291a1.36,1.36,0,0,0-2.72,0v59.847a1.36,1.36,0,0,0,1.36,1.36h59.847a1.36,1.36,0,0,0,0-2.72Zm-50.326-27.2h8.161v27.2h-8.161Zm19.042-5.447h8.161v32.644h-8.161Zm19.042-5.441h8.161v38.084h-8.161Z" fill="#2553ff"/><path d="M686.447,221.575a1.359,1.359,0,0,0,1.922,0h0l14-14v10.318a1.36,1.36,0,0,0,2.72,0v-13.6a1.365,1.365,0,0,0-.843-1.26,1.406,1.406,0,0,0-.52-.1h-13.6a1.36,1.36,0,0,0,0,2.72h10.32l-14,14a1.332,1.332,0,0,0-.071,1.9A.067.067,0,0,0,686.447,221.575Z" fill="#2553ff"/></g></g></svg>