<svg xmlns="http://www.w3.org/2000/svg" width="36.814" height="39.068" viewBox="0 0 36.814 39.068">
  <g id="Group_1216" data-name="Group 1216" transform="translate(-767 -335.32)">
    <g id="Group_1180" data-name="Group 1180" transform="translate(767 335.32)">
      <path id="Path_811" data-name="Path 811" d="M803.6,345.892l-9.953-10.342a.752.752,0,0,0-.541-.23H778.275a3.014,3.014,0,0,0-3.011,3.01v10.514h-6.012A2.255,2.255,0,0,0,767,351.1v11.274a2.255,2.255,0,0,0,2.253,2.252h6.012v6.763a3.011,3.011,0,0,0,3.011,3H800.8a3.01,3.01,0,0,0,3.011-3V346.414a.752.752,0,0,0-.21-.521ZM793.3,337.348l8.171,8.49H793.3Zm-24.043,25.77a.75.75,0,0,1-.75-.749V351.1a.75.75,0,0,1,.75-.749h20.288a.75.75,0,0,1,.75.749v11.274a.75.75,0,0,1-.75.749Zm33.059,8.267a1.506,1.506,0,0,1-1.508,1.5H778.275a1.507,1.507,0,0,1-1.508-1.5v-6.763h12.774a2.255,2.255,0,0,0,2.252-2.252V351.1a2.255,2.255,0,0,0-2.252-2.252H776.767V338.33a1.509,1.509,0,0,1,1.508-1.507h13.518v9.767a.751.751,0,0,0,.751.752h9.767Zm0,0" transform="translate(-767 -335.32)" fill="#0033a1"/>
    </g>
    <path id="Path_812" data-name="Path 812" d="M817.831,528.325a1.691,1.691,0,0,0-.929-.632,7.557,7.557,0,0,0-1.55-.1h-2.091v6.454h1.3v-2.434h.85a7.414,7.414,0,0,0,1.351-.092,1.885,1.885,0,0,0,.676-.306,1.772,1.772,0,0,0,.548-.636,2.106,2.106,0,0,0,.216-1,2,2,0,0,0-.375-1.257Zm-1.116,1.776a.857.857,0,0,1-.407.317,3.374,3.374,0,0,1-1.03.1h-.713v-1.831h.63a6.249,6.249,0,0,1,.938.044.9.9,0,0,1,.524.286.833.833,0,0,1,.207.581.868.868,0,0,1-.148.5Zm0,0" transform="translate(-41.849 -173.937)" fill="#0033a1"/>
    <path id="Path_813" data-name="Path 813" d="M881.461,529.36a2.822,2.822,0,0,0-.616-1.045,2.158,2.158,0,0,0-.973-.594,4.644,4.644,0,0,0-1.229-.123h-2.381v6.454h2.452a3.946,3.946,0,0,0,1.153-.136,2.289,2.289,0,0,0,.916-.515,2.837,2.837,0,0,0,.691-1.14,4.233,4.233,0,0,0,.2-1.373,4.763,4.763,0,0,0-.211-1.525Zm-1.268,2.65a1.362,1.362,0,0,1-.341.623,1.2,1.2,0,0,1-.526.268,3.537,3.537,0,0,1-.788.062h-.973v-4.275h.586a5.873,5.873,0,0,1,1.07.062,1.238,1.238,0,0,1,.6.3,1.477,1.477,0,0,1,.37.625,3.858,3.858,0,0,1,.132,1.149,4.215,4.215,0,0,1-.132,1.182Zm0,0" transform="translate(-98.84 -173.937)" fill="#0033a1"/>
    <path id="Path_814" data-name="Path 814" d="M949.084,528.689V527.6H944.66v6.454h1.3v-2.742h2.694v-1.092h-2.694v-1.528Zm0,0" transform="translate(-160.714 -173.937)" fill="#0033a1"/>
  </g>
</svg>
