<svg xmlns="http://www.w3.org/2000/svg" xmlns:xlink="http://www.w3.org/1999/xlink" width="75" height="70" viewBox="0 0 75 70"><defs><clipPath id="a"><rect width="69" height="69" transform="translate(552.175 195.963)" fill="none"/></clipPath><clipPath id="c"><rect width="75" height="70"/></clipPath></defs><g id="b" clip-path="url(#c)"><g transform="translate(-3725.693 -329.744)"><g transform="translate(3176.518 134.781)"><path d="M567.392,257.666a5.612,5.612,0,1,1,1.453-3.755A5.605,5.605,0,0,1,567.392,257.666Z" fill="#b0ddff"/><path d="M615.708,253.891a5.606,5.606,0,1,1-5.607-5.605h0A5.612,5.612,0,0,1,615.708,253.891Z" fill="#b0ddff"/><path d="M586.675,212.64a17.823,17.823,0,1,1-17.823,17.823h0A17.909,17.909,0,0,1,586.675,212.64Z" fill="#b0ddff"/><path d="M590.1,212.975a2.972,2.972,0,0,1,.02,5.814,17.925,17.925,0,0,0-14.081,17.539,2.974,2.974,0,0,1-5.7,1.222,17.852,17.852,0,0,1,16.335-24.912,17.658,17.658,0,0,1,3.425.335Z" fill="#e6f3ff"/><path d="M568.852,207.034a5.606,5.606,0,1,1-5.607-5.6h0A5.612,5.612,0,0,1,568.852,207.034Z" fill="#b0ddff"/><path d="M610.1,201.429a5.606,5.606,0,1,1-5.605,5.607v0A5.612,5.612,0,0,1,610.1,201.429Z" fill="#b0ddff"/><path d="M563.88,204.77a5.808,5.808,0,0,0-2.888,2.865,1.747,1.747,0,0,1-3.351-.693,5.622,5.622,0,0,1,5.431-5.51,1.753,1.753,0,0,1,.807,3.338Z" fill="#e6f3ff"/><path d="M610.736,204.77a5.808,5.808,0,0,0-2.888,2.865,1.747,1.747,0,0,1-3.351-.693,5.622,5.622,0,0,1,5.431-5.51,1.753,1.753,0,0,1,.807,3.338Z" fill="#e6f3ff"/><path d="M563.88,251.625a5.8,5.8,0,0,0-2.888,2.864,1.747,1.747,0,0,1-3.351-.693,5.624,5.624,0,0,1,5.431-5.51,1.753,1.753,0,0,1,.807,3.338Z" fill="#e6f3ff"/><g clip-path="url(#a)"><path d="M610.736,251.625a5.8,5.8,0,0,0-2.888,2.864,1.747,1.747,0,0,1-3.351-.693,5.624,5.624,0,0,1,5.431-5.51,1.753,1.753,0,0,1,.807,3.338Z" fill="#e6f3ff"/><path d="M584.642,236.764a2.033,2.033,0,1,0,2.033-2.034,2.033,2.033,0,0,0-2.033,2.034Zm5.749-3.717a5.262,5.262,0,0,0-7.433,0,1.15,1.15,0,0,1-1.625-1.626,7.564,7.564,0,0,1,10.684,0,1.15,1.15,0,1,1-1.592,1.66l-.034-.034Zm4.324-4.324a11.365,11.365,0,0,0-16.071-.008l-.008.008a1.15,1.15,0,0,1-1.626-1.626,13.663,13.663,0,0,1,19.321-.011l.011.011a1.15,1.15,0,0,1-1.626,1.626Zm-8.04-14.931a16.673,16.673,0,1,0,15.6,22.565,1.15,1.15,0,0,1,2.151.813,18.984,18.984,0,1,1,1.219-6.7,1.15,1.15,0,0,1-2.3,0,16.691,16.691,0,0,0-16.671-16.68Zm-26.929,34.325a32.194,32.194,0,0,1,0-35.3,6.753,6.753,0,0,0,9.276-9.276,32.21,32.21,0,0,1,30.907-2.421,1.152,1.152,0,0,0,.948-2.1,34.5,34.5,0,0,0-33.381,2.77,6.751,6.751,0,0,0-9.5,9.5,34.489,34.489,0,0,0,0,38.358,6.751,6.751,0,1,0,1.746-1.527Zm3.5-45.536a4.456,4.456,0,1,1-4.456,4.456h0A4.461,4.461,0,0,1,563.246,202.581Zm0,55.768a4.456,4.456,0,1,1,4.456-4.456h0A4.461,4.461,0,0,1,563.246,258.349Zm52.1-47.063a6.752,6.752,0,1,0-1.746,1.527,32.194,32.194,0,0,1,0,35.3,6.753,6.753,0,0,0-9.276,9.276A32.2,32.2,0,0,1,573,259.617a1.15,1.15,0,0,0-1.027,2.058l.049.023a34.5,34.5,0,0,0,33.83-2.563,6.751,6.751,0,0,0,9.5-9.5,34.485,34.485,0,0,0,0-38.358Zm-9.7-4.249a4.456,4.456,0,1,1,4.456,4.456h0A4.461,4.461,0,0,1,605.646,207.037Zm4.456,51.312a4.456,4.456,0,1,1,4.456-4.456h0A4.461,4.461,0,0,1,610.1,258.349Z" fill="#2e58ff"/></g></g></g></g></svg>