<svg xmlns="http://www.w3.org/2000/svg" width="109.509" height="109.509" viewBox="0 0 109.509 109.509"><g transform="translate(-760 -3448)"><g transform="translate(-188.25 -44.627)"><path d="M892.059,380l12.506,12.506-1.856,10.243-13.935-13.935Z" transform="translate(77.815 3118.958)" fill="#b0ddff"/><path d="M946.841,496.1a16.706,16.706,0,1,0-9.421-30.492l-.7.478-9.63-9.63.888-.709a30.3,30.3,0,1,1-4.787,4.788l.71-.888,9.628,9.628-.478.7A16.695,16.695,0,0,0,946.841,496.1Z" transform="translate(58.085 3069.907)" fill="#e6f3ff"/><path d="M992.561,521.924l-8.527-8.526,1.21-.646A12.2,12.2,0,1,1,980.2,517.8l.646-1.21,8.526,8.526a2.256,2.256,0,0,0,3.191-3.19Z" transform="translate(13.961 3025.783)" fill="#b0ddff"/><path d="M858.855,415.01l.612-1.322,3.061,3.063a2.259,2.259,0,0,0,2,.625l9.4-1.7-1.137,1.917a34.8,34.8,0,1,0,12.242-12.241l-1.917,1.137,1.7-9.4a2.258,2.258,0,0,0-.625-2l-3.06-3.061,1.321-.612a48.346,48.346,0,1,1-23.6,23.6Z" transform="translate(102.209 3114.031)" fill="#b0ddff"/><path d="M847.45,424.613l8.814-3.285L870.2,435.263l-10.243,1.856Z" transform="translate(107.136 3089.637)" fill="#b0ddff"/><path d="M891.474,380l10.278,10.277-1.525,8.418-11.452-11.452Z" transform="translate(80.629 3124.012)" fill="#e6f3ff"/><path d="M847.45,423.963l7.069-2.634L865.7,432.5l-8.215,1.489Z" transform="translate(112.831 3092.764)" fill="#e6f3ff"/><circle cx="47" cy="47" r="47" transform="translate(962 3504)" fill="#e6f3ff"/><path d="M882.31,467.7a52.835,52.835,0,1,0-24.255-99.762l-.661.342-9.428-9.427a2.245,2.245,0,0,0-1.591-.662,2.271,2.271,0,0,0-.484.052,2.247,2.247,0,0,0-1.634,1.417l-4.657,12.5-12.5,4.656a2.255,2.255,0,0,0-.807,3.709l9.427,9.428-.342.661A52.818,52.818,0,0,0,882.31,467.7ZM847.259,364.529l12.506,12.506-1.856,10.243-13.935-13.935Zm35.051,67.046a16.706,16.706,0,1,0-9.421-30.492l-.7.478-9.63-9.63.888-.71a30.3,30.3,0,1,1-4.787,4.788l.71-.888L869,404.75l-.478.7a16.695,16.695,0,0,0,13.786,26.128Zm1.6-18.3-8.527-8.525,1.21-.646a12.205,12.205,0,1,1-5.045,5.045l.646-1.21,8.526,8.527a2.256,2.256,0,0,0,3.191-3.191ZM831.97,379.817l8.814-3.285,13.935,13.935-10.243,1.856Zm6.478,14.791.612-1.322,3.061,3.062a2.26,2.26,0,0,0,2,.625l9.4-1.7-1.137,1.917a34.8,34.8,0,1,0,12.242-12.242l-1.917,1.138,1.7-9.4a2.258,2.258,0,0,0-.625-2l-3.06-3.061,1.321-.612a48.346,48.346,0,1,1-23.6,23.6Z" transform="translate(122.613 3134.432)" fill="#2553ff"/></g></g></svg>