<svg xmlns="http://www.w3.org/2000/svg" xmlns:xlink="http://www.w3.org/1999/xlink" width="74" height="70" viewBox="0 0 74 70"><defs><clipPath id="b"><rect width="74" height="70"/></clipPath></defs><g id="a" clip-path="url(#b)"><g transform="translate(-1272.703 -1420.171)"><circle cx="20.428" cy="20.428" r="20.428" transform="translate(1289.587 1435.301)" fill="#e6f3ff"/><g transform="translate(1276.203 1422.171)"><path d="M822.691,100.129h0Z" transform="translate(-789.387 -97.452)" fill="#2553ff"/><path d="M800.793,110.391a33.647,33.647,0,0,0,25.729,54.684c.405.018.7.017,1.032,0a33.648,33.648,0,0,0,25.765-54.684l-.347-.435a33.4,33.4,0,0,0-25.379-12.17c-.193-.011-.371-.017-.541-.017s-.328.006-.487.017A33.42,33.42,0,0,0,800.793,110.391Zm18.492,51.341a31.376,31.376,0,0,1-16.528-10.621h0l-.108-.134a30.942,30.942,0,0,1-6.8-18.056l-.013-.3h9.439l.017.267a21.733,21.733,0,0,0,7.88,15.4l.07.057.024.087c1.5,5.493,3.678,9.93,6.308,12.832l.634.7Zm-7.526-42.754a19.717,19.717,0,0,1,2.828-2.829,1.424,1.424,0,0,1,.3-.233,19.6,19.6,0,0,1,24.38.022,1.344,1.344,0,0,1,.292.235,19.716,19.716,0,0,1-.025,30.536,1.386,1.386,0,0,1-.3.233,19.6,19.6,0,0,1-24.38-.02,1.386,1.386,0,0,1-.292-.235A19.721,19.721,0,0,1,811.758,118.978Zm15.828,43.706-.011.011h-.118c-.1.009-.209.01-.325.01h-.157c-.116,0-.225,0-.342-.012-3.844-.292-7.495-4.492-10.02-11.52l-.245-.682.642.334a21.765,21.765,0,0,0,20.083,0l.642-.334-.244.682C834.991,158.137,831.387,162.323,827.586,162.684Zm30.682-29.773a30.937,30.937,0,0,1-6.8,18.061l-.021.024a31.338,31.338,0,0,1-16.62,10.726l-.915.234.634-.7c2.63-2.9,4.812-7.339,6.309-12.832l.024-.086.07-.058a21.739,21.739,0,0,0,7.88-15.4l.017-.266h9.436Zm-23.45-31.782a31.363,31.363,0,0,1,16.645,10.752,30.948,30.948,0,0,1,6.8,18.058l.012.3h-9.44l-.017-.266a21.741,21.741,0,0,0-7.882-15.4l-.07-.058-.024-.086c-1.5-5.493-3.678-9.928-6.308-12.83l-.634-.7Zm-8.191-.966h.031c.109-.009.232-.006.359-.009.184,0,.311,0,.454.009,3.849.293,7.5,4.493,10.025,11.522l.244.682-.642-.335a21.772,21.772,0,0,0-20.086,0l-.643.335.246-.682C819.142,104.655,822.791,100.456,826.627,100.163Zm-7.344.973.914-.234-.633.7c-2.631,2.9-4.812,7.339-6.306,12.83l-.024.087-.07.058a21.748,21.748,0,0,0-7.883,15.4l-.017.266h-9.435l.011-.3a30.937,30.937,0,0,1,6.8-18.06A31.356,31.356,0,0,1,819.284,101.136Z" transform="translate(-793.345 -97.77)" fill="#2553ff"/><path d="M844.363,144.493h0Z" transform="translate(-786.464 -91.469)" fill="#2553ff"/></g><circle cx="17.023" cy="17.023" r="17.023" transform="translate(1295.261 1439.84)" fill="#b0ddff"/><path d="M831.081,122.907a6.276,6.276,0,0,0-5.193-3.425V117.31h-3.171v2.172c-2.9.35-5.788,1.848-5.788,5.118,0,4.145,3.5,4.766,7.066,5.168,2.322.275,4.394.874,4.394,2.522,0,1.947-2.072,2.724-4.319,2.724-2.072,0-4.294-1.021-4.969-2.622l-2.951,1.248a7.425,7.425,0,0,0,6.566,4.269v2.372h3.171v-2.5c3.1-.227,5.917-2.122,5.917-5.493,0-4.394-3.895-5.043-7.54-5.493-2.1-.25-4.07-.549-4.07-2.2,0-1.748,1.9-2.347,3.972-2.347a5.257,5.257,0,0,1,4.217,1.9Z" transform="translate(485.934 1327.037)" fill="#2553ff"/></g></g></svg>