<svg xmlns="http://www.w3.org/2000/svg" width="122.417" height="109.509" viewBox="0 0 122.417 109.509"><g transform="translate(-169.29 -3448)"><g transform="translate(-603.355 3075.02)"><path d="M819.552,510.374c-12.689-4.552-23.135-12.4-29.412-22.094l-.46-.71.46-.71c6.277-9.7,16.723-17.543,29.412-22.095l4.619-1.657-3.183,3.734a31.926,31.926,0,0,0,0,41.454l3.182,3.734Z" transform="translate(-11.47 -60.683)" fill="#e6f3ff"/><circle cx="27.214" cy="27.214" r="27.214" transform="translate(806.665 399.672)" fill="#b0ddff"/><circle cx="25.214" cy="25.214" r="25.214" transform="translate(810.665 403.672)" fill="#e6f3ff"/><path d="M1029.525,510.374l-4.618,1.657,3.182-3.734a31.928,31.928,0,0,0,0-41.454l-3.182-3.734,4.618,1.657c12.688,4.552,23.133,12.4,29.41,22.095l.46.71-.46.71C1052.658,497.976,1042.213,505.823,1029.525,510.374Z" transform="translate(-169.848 -60.683)" fill="#e6f3ff"/><g transform="translate(772.645 372.98)"><path d="M960,515.449" transform="translate(-898.792 -468.905)" fill="#2553ff"/><path d="M994.988,379.673l.718-3.631a3.7,3.7,0,0,1,4.349-2.913h0a3.7,3.7,0,0,1,2.913,4.349l-.718,3.631a3.7,3.7,0,0,1-4.349,2.913h0A3.7,3.7,0,0,1,994.988,379.673Zm-.718,3.631" transform="translate(-921.866 -373.032)" fill="#2553ff"/><path d="M1081.772,415.516l2.044-3.088a3.7,3.7,0,0,1,5.129-1.044h0a3.7,3.7,0,0,1,1.043,5.129l-2.044,3.088a3.7,3.7,0,0,1-5.129,1.043h0A3.7,3.7,0,0,1,1081.772,415.516Zm-2.042,3.086" transform="translate(-979.406 -398.423)" fill="#2553ff"/><path d="M901.248,373.051h0a3.7,3.7,0,0,1,4.349,2.913l.717,3.631a3.7,3.7,0,0,1-2.912,4.348h0a3.7,3.7,0,0,1-4.349-2.913l-.718-3.631A3.7,3.7,0,0,1,901.248,373.051Zm-3.631.718" transform="translate(-856.789 -372.98)" fill="#2553ff"/><path d="M806.372,411.423h0a3.7,3.7,0,0,1,5.128,1.043l2.044,3.088a3.7,3.7,0,0,1-1.044,5.129h0a3.7,3.7,0,0,1-5.129-1.043l-2.044-3.088A3.7,3.7,0,0,1,806.372,411.423Zm-3.087,2.043" transform="translate(-793.275 -398.449)" fill="#2553ff"/><path d="M898.355,681.018l.718-3.631a3.7,3.7,0,0,1,4.349-2.912h0a3.7,3.7,0,0,1,2.912,4.348l-.718,3.631a3.7,3.7,0,0,1-4.349,2.913h0A3.7,3.7,0,0,1,898.355,681.018Zm-.718,3.63" transform="translate(-856.802 -575.929)" fill="#2553ff"/><path d="M805.355,642.94l2.044-3.087a3.7,3.7,0,0,1,5.129-1.043h0a3.7,3.7,0,0,1,1.044,5.129l-2.044,3.088a3.7,3.7,0,0,1-5.129,1.044h0A3.7,3.7,0,0,1,805.355,642.94Zm-2.043,3.086" transform="translate(-793.293 -551.549)" fill="#2553ff"/><path d="M999.257,674.254h0a3.7,3.7,0,0,1,4.349,2.913l.718,3.631a3.7,3.7,0,0,1-2.913,4.349h0a3.7,3.7,0,0,1-4.349-2.913l-.718-3.631A3.7,3.7,0,0,1,999.257,674.254Z" transform="translate(-923.215 -575.781)" fill="#2553ff"/><path d="M1085.785,638.8h0a3.7,3.7,0,0,1,5.129,1.043l2.044,3.088a3.7,3.7,0,0,1-1.044,5.129h0a3.7,3.7,0,0,1-5.128-1.044l-2.044-3.088A3.7,3.7,0,0,1,1085.785,638.8Z" transform="translate(-982.366 -551.544)" fill="#2553ff"/><path d="M894.376,473.391l.686-1.185-.117-.209c-5.734-10.239-14.509-18.3-26.077-23.941-16.147-7.88-35.854-9.94-54.069-5.653a72.668,72.668,0,0,0-24.173,10.38,55.645,55.645,0,0,0-17.294,18.212l-.686,1.186.117.21c5.735,10.24,14.508,18.294,26.077,23.939a81.842,81.842,0,0,0,70.028,0C880.025,490.884,888.846,482.952,894.376,473.391ZM808.056,495c-12.689-4.552-23.134-12.4-29.412-22.094l-.46-.71.46-.71c6.277-9.7,16.723-17.543,29.412-22.095l4.619-1.657-3.183,3.735a31.926,31.926,0,0,0,0,41.454l3.182,3.734Zm25.8,4.409a27.214,27.214,0,1,1,27.214-27.214A27.245,27.245,0,0,1,833.854,499.406Zm25.8-4.409-4.618,1.657,3.182-3.734a31.927,31.927,0,0,0,0-41.454l-3.182-3.734,4.618,1.657c12.688,4.552,23.133,12.4,29.41,22.095l.46.71-.46.71C882.783,482.6,872.339,490.446,859.651,495Z" transform="translate(-772.645 -418.246)" fill="#2553ff"/></g></g><path d="M17.7-21.7H2.449v10.323h8.463c4.154,0,5.859,1.953,5.859,4.681,0,2.821-2.325,4.929-6.324,4.929-2.7,0-6.386-.651-6.386-4.34H1.953C1.984-1.209,6.324.186,10.478.186,15.872.186,18.91-2.79,18.91-6.7c0-3.813-2.449-6.665-8-6.665H4.495v-6.355H17.7Zm23.9,2.883a11.314,11.314,0,0,0-7.967-3.255c-6.851,0-11.284,4.712-11.253,11.346C22.382-4.867,26.071.31,33.635.31a11.119,11.119,0,0,0,8.308-3.565v-8.4H32.767v2.015h7.1v5.487A9.325,9.325,0,0,1,33.635-1.8c-6.076,0-9.083-4.216-9.083-8.959-.031-4.867,3.162-9.269,9.083-9.269a9.576,9.576,0,0,1,6.665,2.6Z" transform="translate(209 3514)" fill="#2553ff" stroke="#2553ff" stroke-width="2"/></g></svg>