<svg xmlns="http://www.w3.org/2000/svg" xmlns:xlink="http://www.w3.org/1999/xlink" width="57" height="70" viewBox="0 0 57 70"><defs><clipPath id="b"><rect width="57" height="70"/></clipPath></defs><g id="a" clip-path="url(#b)"><g transform="translate(-1177.37 -1406.688)"><g transform="translate(482.858 1324.401)"><path d="M732.924,131.9a6.913,6.913,0,0,0-3.734,5.862V146.2a3.263,3.263,0,0,1-3.262,3.262h-6.795a3.264,3.264,0,0,1-3.261-3.262v-8.435a6.488,6.488,0,0,0-3.663-5.862,23.945,23.945,0,1,1,20.715,0Z" fill="#b0ddff"/><path d="M719.232,149.456a3.263,3.263,0,0,1-3.358-3.165c0-.032,0-.065,0-.1v-8.433a6.541,6.541,0,0,0-1.18-3.753.333.333,0,0,1,.44-.478,6.5,6.5,0,0,1,3.663,5.861v8.434a3.213,3.213,0,0,0,.439,1.631Z" fill="#e8f3ff"/><path d="M731.859,88.26a2.569,2.569,0,0,1-1.021,4.934,23.93,23.93,0,0,0-23.664,28.338,2.568,2.568,0,0,1-4.664,1.879,23.94,23.94,0,0,1,29.351-35.146Z" fill="#e6f3ff"/></g><g transform="translate(482.858 1324.401)"><path d="M717.056,148.708a3.246,3.246,0,0,1-1.184-2.514v-7.951h2.82c.138.761.1.365.1,9.581a1.07,1.07,0,0,1-1.737.883Z" fill="#e6f3ff"/><path d="M747.536,110.317a25,25,0,0,1-14.224,22.567,1.088,1.088,0,0,1-.939-1.962,22.96,22.96,0,0,0,12.989-20.606,1.087,1.087,0,1,1,2.175,0Zm-18.349,26.357a1.087,1.087,0,0,0-1.087,1.087v8.433a2.178,2.178,0,0,1-2.175,2.175H719.13a2.177,2.177,0,0,1-2.174-2.175v-6.862h6.931a1.088,1.088,0,0,0,0-2.175h-6.956a7.605,7.605,0,0,0-4.255-6.239,22.843,22.843,0,0,1,19.792-41.177q.943.455,1.844.993a1.087,1.087,0,1,0,1.119-1.864,25.02,25.02,0,1,0-25.791,42.881q1.021.615,2.1,1.129a5.422,5.422,0,0,1,3.044,4.88v8.434a4.355,4.355,0,0,0,4.349,4.349h6.795a4.355,4.355,0,0,0,4.349-4.349v-8.433a1.087,1.087,0,0,0-1.087-1.087Zm12.9-30.708a2.038,2.038,0,1,1-2.883,0h0a2.035,2.035,0,0,1,2.88,0Zm3.555-2.018a1.087,1.087,0,0,0,0-1.537h0a7.064,7.064,0,0,0-9.989-.006l-.005.006a1.088,1.088,0,0,0,1.538,1.538h0a4.89,4.89,0,0,1,6.915,0l0,0A1.088,1.088,0,0,0,745.642,103.948Zm4.037-5.573a12.768,12.768,0,0,0-18.057-.009l-.009.009a1.087,1.087,0,0,0,1.537,1.538,10.593,10.593,0,0,1,14.982-.009l.009.009a1.088,1.088,0,1,0,1.538-1.538ZM731.9,114.938a4.08,4.08,0,0,1-4.077,4.077h-1.9v12.5a1.087,1.087,0,1,1-2.174,0v-12.5H721.3v13.862a1.087,1.087,0,0,1-2.175,0V119.012h-1.9a4.077,4.077,0,1,1,4.077-4.077v1.9h2.446v-1.9a4.077,4.077,0,0,1,8.154,0Zm-14.677,1.9h1.9v-1.9a1.9,1.9,0,1,0-1.9,1.9Zm12.5-1.9a1.9,1.9,0,0,0-3.8,0v1.9h1.9a1.906,1.906,0,0,0,1.9-1.9Z" fill="#2e58ff"/></g></g></g></svg>