<svg xmlns="http://www.w3.org/2000/svg" xmlns:xlink="http://www.w3.org/1999/xlink" width="255" height="74" viewBox="0 0 255 74">
  <defs>
    <clipPath id="clip-logo-2g">
      <rect width="255" height="74"/>
    </clipPath>
  </defs>
  <g id="logo-2g" clip-path="url(#clip-logo-2g)">
    <g id="Group_1174" data-name="Group 1174" transform="translate(-296.788 -2645.55)">
      <rect id="Rectangle_15" data-name="Rectangle 15" width="17.803" height="38.334" rx="1.832" transform="translate(299.418 2664.616)" fill="#e6f3ff"/>
      <rect id="Rectangle_16" data-name="Rectangle 16" width="17.803" height="14.054" rx="1.832" transform="translate(299.418 2704.72)" fill="#e6f3ff"/>
      <rect id="Rectangle_17" data-name="Rectangle 17" width="14.619" height="11.54" rx="1.832" transform="translate(302.602 2707.234)" fill="#b0ddff"/>
      <rect id="Rectangle_18" data-name="Rectangle 18" width="11.249" height="3.425" rx="0.513" transform="translate(303.545 2674.077)" fill="#b0ddff"/>
      <g id="Group_31" data-name="Group 31" transform="translate(298.788 2646.05)">
        <g id="Group_12" data-name="Group 12" transform="translate(0 17.806)">
          <path id="Path_4" data-name="Path 4" d="M315.624,2718.472H301.137a2.352,2.352,0,0,1-2.349-2.349v-34.982a2.352,2.352,0,0,1,2.349-2.349h14.487a2.352,2.352,0,0,1,2.349,2.349v34.982A2.351,2.351,0,0,1,315.624,2718.472Zm-14.487-38.515a1.186,1.186,0,0,0-1.185,1.184v34.982a1.186,1.186,0,0,0,1.185,1.185h14.487a1.186,1.186,0,0,0,1.185-1.185v-34.982a1.186,1.186,0,0,0-1.185-1.184Z" transform="translate(-298.788 -2678.792)" fill="#2553ff"/>
        </g>
        <g id="Group_13" data-name="Group 13" transform="translate(13.074)">
          <path id="Path_5" data-name="Path 5" d="M323.411,2665.021a.582.582,0,0,1-.582-.583v-17.806a.582.582,0,1,1,1.164,0v17.806A.582.582,0,0,1,323.411,2665.021Z" transform="translate(-322.829 -2646.05)" fill="#2553ff"/>
        </g>
        <g id="Group_14" data-name="Group 14" transform="translate(2.65 26.287)">
          <path id="Path_6" data-name="Path 6" d="M316.036,2699.554H305.171a1.511,1.511,0,0,1-1.51-1.51V2695.9a1.512,1.512,0,0,1,1.51-1.51h10.865a1.512,1.512,0,0,1,1.51,1.51v2.149A1.511,1.511,0,0,1,316.036,2699.554Zm-10.865-4a.35.35,0,0,0-.345.345v2.149a.35.35,0,0,0,.345.346h10.865a.35.35,0,0,0,.346-.346V2695.9a.35.35,0,0,0-.346-.345Z" transform="translate(-303.661 -2694.385)" fill="#2553ff"/>
        </g>
        <g id="Group_15" data-name="Group 15" transform="translate(0 58.019)">
          <path id="Path_7" data-name="Path 7" d="M315.533,2767.44h-14.3a2.443,2.443,0,0,1-2.441-2.44v-9.825a2.443,2.443,0,0,1,2.441-2.44h14.3a2.443,2.443,0,0,1,2.44,2.44V2765A2.443,2.443,0,0,1,315.533,2767.44Zm-14.3-13.541a1.278,1.278,0,0,0-1.276,1.276V2765a1.278,1.278,0,0,0,1.276,1.276h14.3a1.278,1.278,0,0,0,1.276-1.276v-9.825a1.278,1.278,0,0,0-1.276-1.276Z" transform="translate(-298.788 -2752.735)" fill="#2553ff"/>
        </g>
        <g id="Group_16" data-name="Group 16" transform="translate(4.32 56.322)">
          <path id="Path_8" data-name="Path 8" d="M307.313,2752.475a.583.583,0,0,1-.582-.582v-1.7a.582.582,0,0,1,1.164,0v1.7A.582.582,0,0,1,307.313,2752.475Z" transform="translate(-306.731 -2749.614)" fill="#2553ff"/>
        </g>
        <g id="Group_17" data-name="Group 17" transform="translate(13.633 56.322)">
          <path id="Path_9" data-name="Path 9" d="M324.439,2752.475a.582.582,0,0,1-.582-.582v-1.7a.582.582,0,0,1,1.164,0v1.7A.582.582,0,0,1,324.439,2752.475Z" transform="translate(-323.857 -2749.614)" fill="#2553ff"/>
        </g>
        <g id="Group_18" data-name="Group 18" transform="translate(2.025 34.655)">
          <path id="Path_10" data-name="Path 10" d="M305.6,2713.537h-1.756a1.336,1.336,0,0,1-1.335-1.334v-1.1a1.336,1.336,0,0,1,1.335-1.334H305.6a1.336,1.336,0,0,1,1.335,1.334v1.1A1.336,1.336,0,0,1,305.6,2713.537Zm-1.756-2.6a.173.173,0,0,0-.17.17v1.1a.173.173,0,0,0,.17.17H305.6a.173.173,0,0,0,.17-.17v-1.1a.172.172,0,0,0-.17-.17Z" transform="translate(-302.511 -2709.773)" fill="#2553ff"/>
        </g>
        <g id="Group_19" data-name="Group 19" transform="translate(7.38 34.655)">
          <path id="Path_11" data-name="Path 11" d="M315.449,2713.537h-1.756a1.336,1.336,0,0,1-1.335-1.334v-1.1a1.336,1.336,0,0,1,1.335-1.334h1.756a1.336,1.336,0,0,1,1.335,1.334v1.1A1.336,1.336,0,0,1,315.449,2713.537Zm-1.756-2.6a.173.173,0,0,0-.17.17v1.1a.173.173,0,0,0,.17.17h1.756a.173.173,0,0,0,.17-.17v-1.1a.172.172,0,0,0-.17-.17Z" transform="translate(-312.358 -2709.773)" fill="#2553ff"/>
        </g>
        <g id="Group_20" data-name="Group 20" transform="translate(2.025 39.739)">
          <path id="Path_12" data-name="Path 12" d="M305.6,2722.885h-1.756a1.335,1.335,0,0,1-1.335-1.334v-1.1a1.336,1.336,0,0,1,1.335-1.334H305.6a1.336,1.336,0,0,1,1.335,1.334v1.1A1.336,1.336,0,0,1,305.6,2722.885Zm-1.756-2.6a.173.173,0,0,0-.17.17v1.1a.172.172,0,0,0,.17.17H305.6a.172.172,0,0,0,.17-.17v-1.1a.173.173,0,0,0-.17-.17Z" transform="translate(-302.511 -2719.121)" fill="#2553ff"/>
        </g>
        <g id="Group_21" data-name="Group 21" transform="translate(7.38 39.739)">
          <path id="Path_13" data-name="Path 13" d="M315.449,2722.885h-1.756a1.336,1.336,0,0,1-1.335-1.334v-1.1a1.336,1.336,0,0,1,1.335-1.334h1.756a1.336,1.336,0,0,1,1.335,1.334v1.1A1.335,1.335,0,0,1,315.449,2722.885Zm-1.756-2.6a.173.173,0,0,0-.17.17v1.1a.172.172,0,0,0,.17.17h1.756a.172.172,0,0,0,.17-.17v-1.1a.173.173,0,0,0-.17-.17Z" transform="translate(-312.358 -2719.121)" fill="#2553ff"/>
        </g>
        <g id="Group_22" data-name="Group 22" transform="translate(2.025 44.822)">
          <path id="Path_14" data-name="Path 14" d="M305.6,2732.232h-1.756a1.336,1.336,0,0,1-1.335-1.334v-1.1a1.336,1.336,0,0,1,1.335-1.335H305.6a1.337,1.337,0,0,1,1.335,1.335v1.1A1.336,1.336,0,0,1,305.6,2732.232Zm-1.756-2.6a.173.173,0,0,0-.17.17v1.1a.173.173,0,0,0,.17.17H305.6a.172.172,0,0,0,.17-.17v-1.1a.173.173,0,0,0-.17-.17Z" transform="translate(-302.511 -2728.468)" fill="#2553ff"/>
        </g>
        <g id="Group_23" data-name="Group 23" transform="translate(12.745 34.655)">
          <path id="Path_15" data-name="Path 15" d="M325.315,2713.537h-1.756a1.336,1.336,0,0,1-1.335-1.334v-1.1a1.336,1.336,0,0,1,1.335-1.334h1.756a1.336,1.336,0,0,1,1.335,1.334v1.1A1.336,1.336,0,0,1,325.315,2713.537Zm-1.756-2.6a.172.172,0,0,0-.17.17v1.1a.173.173,0,0,0,.17.17h1.756a.173.173,0,0,0,.17-.17v-1.1a.173.173,0,0,0-.17-.17Z" transform="translate(-322.224 -2709.773)" fill="#2553ff"/>
        </g>
        <g id="Group_24" data-name="Group 24" transform="translate(12.745 39.739)">
          <path id="Path_16" data-name="Path 16" d="M325.315,2722.885h-1.756a1.335,1.335,0,0,1-1.335-1.334v-1.1a1.336,1.336,0,0,1,1.335-1.334h1.756a1.336,1.336,0,0,1,1.335,1.334v1.1A1.336,1.336,0,0,1,325.315,2722.885Zm-1.756-2.6a.173.173,0,0,0-.17.17v1.1a.172.172,0,0,0,.17.17h1.756a.172.172,0,0,0,.17-.17v-1.1a.173.173,0,0,0-.17-.17Z" transform="translate(-322.224 -2719.121)" fill="#2553ff"/>
        </g>
        <g id="Group_25" data-name="Group 25" transform="translate(12.745 44.822)">
          <path id="Path_17" data-name="Path 17" d="M325.315,2732.232h-1.756a1.336,1.336,0,0,1-1.335-1.334v-1.1a1.336,1.336,0,0,1,1.335-1.335h1.756a1.336,1.336,0,0,1,1.335,1.335v1.1A1.336,1.336,0,0,1,325.315,2732.232Zm-1.756-2.6a.173.173,0,0,0-.17.17v1.1a.172.172,0,0,0,.17.17h1.756a.173.173,0,0,0,.17-.17v-1.1a.173.173,0,0,0-.17-.17Z" transform="translate(-322.224 -2728.468)" fill="#2553ff"/>
        </g>
        <g id="Group_26" data-name="Group 26" transform="translate(7.38 44.822)">
          <path id="Path_18" data-name="Path 18" d="M315.449,2732.232h-1.756a1.336,1.336,0,0,1-1.335-1.334v-1.1a1.337,1.337,0,0,1,1.335-1.335h1.756a1.336,1.336,0,0,1,1.335,1.335v1.1A1.336,1.336,0,0,1,315.449,2732.232Zm-1.756-2.6a.173.173,0,0,0-.17.17v1.1a.173.173,0,0,0,.17.17h1.756a.172.172,0,0,0,.17-.17v-1.1a.173.173,0,0,0-.17-.17Z" transform="translate(-312.358 -2728.468)" fill="#2553ff"/>
        </g>
        <g id="Group_27" data-name="Group 27" transform="translate(4.999 20.568)">
          <path id="Path_19" data-name="Path 19" d="M312.574,2685.034h-4.012a.582.582,0,0,1,0-1.164h4.012a.582.582,0,0,1,0,1.164Z" transform="translate(-307.98 -2683.87)" fill="#2553ff"/>
        </g>
        <g id="Group_28" data-name="Group 28" transform="translate(6.076 22.605)">
          <path id="Path_20" data-name="Path 20" d="M313.477,2688.78h-2.935a.582.582,0,0,1,0-1.164h2.935a.582.582,0,0,1,0,1.164Z" transform="translate(-309.96 -2687.616)" fill="#2553ff"/>
        </g>
        <g id="Group_29" data-name="Group 29" transform="translate(9.011 20.568)">
          <path id="Path_21" data-name="Path 21" d="M319.95,2685.034h-4.011a.582.582,0,0,1,0-1.164h4.011a.582.582,0,1,1,0,1.164Z" transform="translate(-315.357 -2683.87)" fill="#2553ff"/>
        </g>
        <g id="Group_30" data-name="Group 30" transform="translate(9.011 22.605)">
          <path id="Path_22" data-name="Path 22" d="M318.873,2688.78h-2.935a.582.582,0,0,1,0-1.164h2.935a.582.582,0,0,1,0,1.164Z" transform="translate(-315.357 -2687.616)" fill="#2553ff"/>
        </g>
      </g>
    </g>
  </g>
</svg>
