<svg xmlns="http://www.w3.org/2000/svg" xmlns:xlink="http://www.w3.org/1999/xlink" width="255" height="50" viewBox="0 0 255 50">
  <defs>
    <clipPath id="clip-logo-1g">
      <rect width="255" height="50"/>
    </clipPath>
  </defs>
  <g id="logo-1g" clip-path="url(#clip-logo-1g)">
    <g id="Group_993" data-name="Group 993" transform="translate(-919.251 -2970.055)">
      <rect id="Rectangle_19" data-name="Rectangle 19" width="23.125" height="42.57" rx="10.015" transform="translate(921.781 2976.119)" fill="#e6f3ff"/>
      <rect id="Rectangle_20" data-name="Rectangle 20" width="11.734" height="5.061" rx="1.249" transform="translate(928.216 2986.119)" fill="#b0ddff"/>
      <g id="Group_40" data-name="Group 40" transform="translate(921.251 2970.555)">
        <g id="Group_33" data-name="Group 33" transform="translate(4.015 13.356)">
          <path id="Path_23" data-name="Path 23" d="M941.715,3000.036H929.273a1.683,1.683,0,0,1-1.681-1.681v-5.027a1.683,1.683,0,0,1,1.681-1.681h12.441a1.683,1.683,0,0,1,1.681,1.681v5.027A1.683,1.683,0,0,1,941.715,3000.036Zm-12.441-7.269a.561.561,0,0,0-.56.561v5.027a.561.561,0,0,0,.56.561h12.441a.561.561,0,0,0,.56-.561v-5.027a.561.561,0,0,0-.56-.561Z" transform="translate(-927.592 -2991.647)" fill="#2553ff"/>
        </g>
        <g id="Group_34" data-name="Group 34" transform="translate(0 4.444)">
          <path id="Path_24" data-name="Path 24" d="M936.679,3021.882h-6.671a8.766,8.766,0,0,1-8.756-8.756v-26.8a8.778,8.778,0,0,1,8.122-8.732c.194-.016.408-.023.634-.023h6.671a8.766,8.766,0,0,1,8.756,8.756v26.8A8.766,8.766,0,0,1,936.679,3021.882Zm-6.671-43.189c-.2,0-.38.007-.549.02a7.656,7.656,0,0,0-7.087,7.615v26.8a7.644,7.644,0,0,0,7.636,7.636h6.671a7.644,7.644,0,0,0,7.636-7.636v-26.8a7.644,7.644,0,0,0-7.636-7.635Z" transform="translate(-921.251 -2977.572)" fill="#2553ff"/>
        </g>
        <g id="Group_35" data-name="Group 35" transform="translate(3.567)">
          <path id="Path_25" data-name="Path 25" d="M926.884,2978.066v-5.829a1.683,1.683,0,0,1,1.681-1.682h1.793a1.683,1.683,0,0,1,1.681,1.682v3.866l-.52.038a7.6,7.6,0,0,0-3.758,1.322Zm1.681-6.39a.561.561,0,0,0-.56.561v3.771a8.694,8.694,0,0,1,2.914-.931v-2.839a.561.561,0,0,0-.56-.561Z" transform="translate(-926.884 -2970.555)" fill="#2553ff"/>
        </g>
        <g id="Group_36" data-name="Group 36" transform="translate(0 4.444)">
          <path id="Path_26" data-name="Path 26" d="M933.168,3002.094a14.64,14.64,0,0,1-11.81-6.023l-.107-.147v-9.6a8.778,8.778,0,0,1,8.122-8.732c.194-.016.408-.023.634-.023h6.671a8.766,8.766,0,0,1,8.756,8.756v9.078l-.093.141A14.565,14.565,0,0,1,933.168,3002.094Zm-10.8-6.537a13.469,13.469,0,0,0,21.943-.491v-8.738a7.644,7.644,0,0,0-7.636-7.635h-6.671c-.2,0-.38.007-.549.02a7.656,7.656,0,0,0-7.087,7.615Z" transform="translate(-921.251 -2977.572)" fill="#2553ff"/>
        </g>
        <g id="Group_37" data-name="Group 37" transform="translate(14.888 32.648)">
          <path id="Path_27" data-name="Path 27" d="M953.5,3023.232h-8.176a.561.561,0,0,1,0-1.121H953.5a.561.561,0,0,1,0,1.121Z" transform="translate(-944.761 -3022.111)" fill="#2553ff"/>
        </g>
        <g id="Group_38" data-name="Group 38" transform="translate(11.531 36.421)">
          <path id="Path_28" data-name="Path 28" d="M951.553,3029.19H940.021a.561.561,0,0,1,0-1.121h11.532a.561.561,0,0,1,0,1.121Z" transform="translate(-939.461 -3028.069)" fill="#2553ff"/>
        </g>
        <g id="Group_39" data-name="Group 39" transform="translate(0.26 41.479)">
          <path id="Path_29" data-name="Path 29" d="M930.8,3037.178h-8.575a.561.561,0,0,1,0-1.121H930.8a.561.561,0,0,1,0,1.121Z" transform="translate(-921.662 -3036.057)" fill="#2553ff"/>
        </g>
      </g>
    </g>
  </g>
</svg>
