<svg xmlns="http://www.w3.org/2000/svg" width="42.914" height="48.681" viewBox="0 0 42.914 48.681"><g transform="translate(-807 -1896.1)"><circle cx="14" cy="14" r="14" transform="translate(814 1906.781)" fill="#b0ddff"/><g transform="translate(776.672 1896.1)"><path d="M256.349,205.084a.714.714,0,0,0-.714-.715h-2.814a.715.715,0,0,0,0,1.429h2.061a3.305,3.305,0,0,1-3.307,3.274,3.988,3.988,0,1,1,2.229-7.3.714.714,0,0,0,.8-1.184,5.417,5.417,0,1,0-3.029,9.909C254.386,210.5,256.349,208.274,256.349,205.084Z" transform="translate(-195.309 -180.683)" fill="#2553ff"/><path d="M162.2,203.4a5.751,5.751,0,0,0-1.029.081l.4-2.391h2.874a.715.715,0,1,0,0-1.429h-3.48a.715.715,0,0,0-.7.6l-.689,4.161a.715.715,0,0,0,1.031.752c.007,0,.037-.019.087-.041a3.143,3.143,0,0,1,1.515-.3,2.12,2.12,0,0,1,2.116,2.232,2.119,2.119,0,0,1-4.213.183,2.149,2.149,0,0,1-.021-.3.715.715,0,0,0-1.429,0,3.6,3.6,0,0,0,.034.494A3.548,3.548,0,0,0,162.2,210.5h.072a3.558,3.558,0,0,0,3.47-3.359,3.519,3.519,0,0,0-.97-2.63A3.564,3.564,0,0,0,162.2,203.4Z" transform="translate(-116.126 -180.681)" fill="#2553ff"/><path d="M71.8,32.571h0a2.919,2.919,0,0,0-.542-.244V16.353a2.9,2.9,0,1,0-2.36-5.26h0a2.9,2.9,0,0,0-.493.36L54.62,3.5a2.9,2.9,0,1,0-5.671,0L35.17,11.453a2.9,2.9,0,0,0-.493-.36h0a2.9,2.9,0,1,0-2.36,5.26V32.327a2.931,2.931,0,0,0-.543.244,2.9,2.9,0,1,0,3.4,4.657l13.779,7.956a2.9,2.9,0,1,0,5.671,0L68.4,37.228a2.9,2.9,0,1,0,3.4-4.657Zm-3.526.483-3.794-2.2a14.315,14.315,0,0,0-.006-13.033l3.8-2.2A2.88,2.88,0,0,0,69.6,16.4c.076.02.151.036.227.05V32.229c-.076.014-.152.03-.227.05A2.879,2.879,0,0,0,68.27,33.054ZM69.608,12.33a1.469,1.469,0,1,1-.536,2.007,1.471,1.471,0,0,1,.536-2.007ZM51.785,1.429A1.469,1.469,0,1,1,50.316,2.9,1.471,1.471,0,0,1,51.785,1.429ZM51.07,5.707V10.1A14.263,14.263,0,0,0,39.817,16.59l-3.8-2.2a2.9,2.9,0,0,0-.055-1.742L49.584,4.781a2.9,2.9,0,0,0,1.486.926ZM31.954,12.866a1.47,1.47,0,0,1,2.007-.536h0a1.469,1.469,0,1,1-2.007.536Zm2.007,23.485a1.469,1.469,0,0,1-1.472-2.543h0a1.46,1.46,0,0,1,.733-.2,1.478,1.478,0,0,1,.381.05,1.469,1.469,0,0,1,.357,2.691Zm2-.317a2.9,2.9,0,0,0,.055-1.742l3.8-2.2A14.267,14.267,0,0,0,51.07,38.579v4.394a2.9,2.9,0,0,0-1.486.926ZM51.785,47.252a1.469,1.469,0,1,1,1.469-1.469A1.471,1.471,0,0,1,51.785,47.252Zm.715-4.278V38.579a14.1,14.1,0,0,0,5.39-1.352.714.714,0,0,0-.613-1.291,12.833,12.833,0,0,1-18.255-10.3.714.714,0,1,0-1.422.143,14.188,14.188,0,0,0,1.5,5.07l-3.8,2.2a2.88,2.88,0,0,0-1.327-.775c-.075-.02-.151-.036-.227-.05V16.452c.076-.014.152-.03.227-.05a2.88,2.88,0,0,0,1.327-.774l3.8,2.2a14.187,14.187,0,0,0-1.487,4.95.715.715,0,0,0,.633.788.731.731,0,0,0,.078,0,.715.715,0,0,0,.709-.637A12.835,12.835,0,0,1,57.6,12.9a.715.715,0,0,0,.649-1.273A14.074,14.074,0,0,0,52.5,10.1V5.707a2.9,2.9,0,0,0,1.486-.926L67.61,12.647a2.9,2.9,0,0,0-.055,1.743l-3.8,2.2a14.307,14.307,0,0,0-2.9-3.25.714.714,0,0,0-.909,1.1,12.83,12.83,0,0,1-.359,20.084.714.714,0,1,0,.87,1.134,14.344,14.344,0,0,0,3.3-3.564l3.8,2.2a2.9,2.9,0,0,0,.055,1.743L53.985,43.9a2.9,2.9,0,0,0-1.486-.926Zm19.117-7.159a1.469,1.469,0,1,1-.536-2.007h0a1.471,1.471,0,0,1,.536,2.007Z" transform="translate(0)" fill="#2553ff"/></g></g></svg>