<svg xmlns="http://www.w3.org/2000/svg" width="35.289" height="47.799" viewBox="0 0 35.289 47.799"><g transform="translate(-507 -1896.1)"><circle cx="17" cy="17" r="17" transform="translate(508 1908.9)" fill="#b0ddff"/><g transform="translate(439.999 1896.101)"><path d="M85.58,31.848V28.841a3.826,3.826,0,1,0-1.867,0v3.007a17.646,17.646,0,0,0,.934,35.267,17.462,17.462,0,0,0,10.936-3.8,17.739,17.739,0,0,0,6.18-9.545.934.934,0,0,0-1.811-.454,15.778,15.778,0,1,1,0-7.716.934.934,0,0,0,1.811-.456,17.616,17.616,0,0,0-16.178-13.3ZM82.687,25.13a1.959,1.959,0,1,1,1.959,1.959A1.961,1.961,0,0,1,82.687,25.13Z" transform="translate(0 -19.315)" fill="#2553ff"/><path d="M261.509,252.912a4.537,4.537,0,0,1,2.549.778.934.934,0,1,0,1.045-1.547,6.428,6.428,0,0,0-10.022,5.329,6.266,6.266,0,0,0,6.234,6.427c3.4,0,5.869-2.7,5.869-6.427a.934.934,0,0,0-.934-.934h-3.287a.934.934,0,0,0,0,1.867h2.283a3.954,3.954,0,0,1-3.932,3.627,4.419,4.419,0,0,1-4.367-4.56A4.565,4.565,0,0,1,261.509,252.912Z" transform="translate(-170.522 -227.608)" fill="#2553ff"/><path d="M139.848,254.608h0a.934.934,0,0,0,.933-.931l.008-2.942h.766a.934.934,0,0,0,0-1.867H140.8l.02-7.4c0-.027,0-.053,0-.08a1.872,1.872,0,0,0-1.22-1.7,1.744,1.744,0,0,0-1.917.735c-.736.9-4.442,7.6-5.177,8.931a.934.934,0,0,0,.817,1.385h5.608l-.008,2.937A.933.933,0,0,0,139.848,254.608Zm-4.946-5.74c1.491-2.678,3.379-6.008,4.047-7.021l-.019,7.021Z" transform="translate(-59.279 -217.248)" fill="#2553ff"/><path d="M131.467.2a.934.934,0,0,0-1.311.159,8.857,8.857,0,0,0-1.782,5.457,8.857,8.857,0,0,0,1.782,5.457.943.943,0,0,0,1.311.159.934.934,0,0,0,.159-1.311,7.344,7.344,0,0,1,0-8.612A.934.934,0,0,0,131.467.2Z" transform="translate(-55.643 -0.001)" fill="#2553ff"/><path d="M172.108,25.729a.934.934,0,0,0-1.311.159,5.171,5.171,0,0,0,0,6.147.934.934,0,1,0,1.47-1.152,3.324,3.324,0,0,1,0-3.844A.934.934,0,0,0,172.108,25.729Z" transform="translate(-93.188 -23.147)" fill="#2553ff"/><path d="M346.558,11.432a.943.943,0,0,0,1.311-.159,8.857,8.857,0,0,0,1.782-5.457A8.857,8.857,0,0,0,347.868.358a.934.934,0,1,0-1.47,1.151,7.344,7.344,0,0,1,0,8.612A.934.934,0,0,0,346.558,11.432Z" transform="translate(-253.133)" fill="#2553ff"/><path d="M313.391,32.2a.943.943,0,0,0,1.311-.159,5.171,5.171,0,0,0,0-6.147.934.934,0,0,0-1.47,1.152,3.324,3.324,0,0,1,0,3.844A.933.933,0,0,0,313.391,32.2Z" transform="translate(-223.063 -23.154)" fill="#2553ff"/><path d="M426.816,313.7a.933.933,0,1,0-.361,1.144A.94.94,0,0,0,426.816,313.7Z" transform="translate(-324.596 -283.907)" fill="#2553ff"/></g></g></svg>