<svg xmlns="http://www.w3.org/2000/svg" xmlns:xlink="http://www.w3.org/1999/xlink" width="88.941" height="89" viewBox="0 0 88.941 89"><defs><clipPath id="a"><rect width="49" height="89" fill="#e6f3ff" stroke="#707070" stroke-width="1"/></clipPath></defs><g transform="translate(-918 -956)"><path d="M5240.69-111.916H5268.5v4.477h-1.838l.676,13.092H5270v7.33l4.56.945.61,1.6-.61,2.152,4.04,3.925,2.831,2.824h7.051l1.4-1.892h2.364v14.234l-.691,1.273h-1.673l-2.092-2.736h-3.541v6.5h6.6l2.2,2.314-1.492,2.793h-74.077l-1.819-1.557,1.819-2.552,3.3-1h3.546v-6.5h-3.546l-1.369,2.736h-2.572l-1.183-2.736v-10.88l1.819-1.892h1.936l1.369,1.892h6.29l1.994-1.291,4.983-4.617-1.07-2.993,1.889-1.6h4.3V-93.2l.849-1.146h1.325l1.083-13.092h-2.408Z" transform="translate(-4287 1089)" fill="#b0ddff"/><g transform="translate(918 956)" clip-path="url(#a)"><path d="M5267.458-111.916h-27.512v4.477h1.818l-.669,13.092h-2.637v7.33l-4.511.945-.6,1.6.6,2.152-4,3.925-2.8,2.824h-6.977l-1.385-1.892h-2.339v14.234l.684,1.273h1.656l2.069-2.736h3.5v6.5h-6.525l-2.18,2.314,1.476,2.793h73.292l1.8-1.557-1.8-2.552-3.27-1h-3.508v-6.5h3.508l1.354,2.736h2.545l1.17-2.736v-10.88l-1.8-1.892h-1.915l-1.354,1.892h-6.223l-1.973-1.291-4.931-4.617,1.059-2.993-1.869-1.6h-4.258V-93.2l-.839-1.146h-1.311l-1.072-13.092h2.383Z" transform="translate(-5204.774 133)" fill="#e6f3ff"/></g><g transform="translate(928 958.059)"><path d="M228.907,256.5h-9.251a1.156,1.156,0,1,0,0,2.313h9.251a1.156,1.156,0,1,0,0-2.313Zm0,0" transform="translate(-184.811 -216.953)" fill="#2553ff"/><path d="M226.979,53.441a7.929,7.929,0,0,0-4.84,1.633,1.157,1.157,0,0,0,1.4,1.841,5.678,5.678,0,0,1,6.87-.007,1.156,1.156,0,1,0,1.4-1.842A7.925,7.925,0,0,0,226.979,53.441Zm0,0" transform="translate(-187.503 -45.202)" fill="#2553ff"/><path d="M223.325,30.207a1.156,1.156,0,0,0-.222-1.62,11.193,11.193,0,0,0-13.55.01,1.157,1.157,0,0,0,1.4,1.841,8.88,8.88,0,0,1,10.751-.008A1.156,1.156,0,0,0,223.325,30.207Zm0,0" transform="translate(-176.858 -22.252)" fill="#2553ff"/><path d="M198.856,4.757a11.96,11.96,0,0,1,14.481-.008,1.156,1.156,0,1,0,1.4-1.842,14.273,14.273,0,0,0-17.28.009,1.157,1.157,0,1,0,1.4,1.841Zm0,0" transform="translate(-166.626)" fill="#2553ff"/><path d="M72.2,134.159A3.469,3.469,0,0,0,78.941,133V122.21a3.469,3.469,0,0,0-6.739-1.156H67.435a3.481,3.481,0,0,0-2.707-2.266l-3.785-3.3A3.467,3.467,0,0,0,58.28,109.8H56.353v-5.011a2.7,2.7,0,0,0-2.6-2.693L52.9,91.3h.136a1.775,1.775,0,0,0,1.773-1.773V86.132a1.775,1.775,0,0,0-1.773-1.773H49.353a1.156,1.156,0,0,0,0,2.313H52.5v2.313H26.442V86.672H44.383a1.156,1.156,0,1,0,0-2.313H40.627v-4.7a1.156,1.156,0,0,0-2.313,0v4.7H25.9a1.775,1.775,0,0,0-1.773,1.773v3.392A1.775,1.775,0,0,0,25.9,91.3h.136l-.364,4.588a1.156,1.156,0,0,0,2.305.182l.378-4.771H50.582l.855,10.793H27.5l.1-1.208a1.156,1.156,0,1,0-2.305-.182l-.111,1.4a2.7,2.7,0,0,0-2.6,2.693V109.8H20.66A3.467,3.467,0,0,0,18,115.49l-3.786,3.3a3.481,3.481,0,0,0-2.707,2.266H6.739A3.469,3.469,0,0,0,0,122.21V133a3.469,3.469,0,0,0,6.739,1.156h1.5v4.24H3.469a3.469,3.469,0,1,0,0,6.938h60.7a1.156,1.156,0,1,0,0-2.313H3.469a1.156,1.156,0,1,1,0-2.313h72a1.156,1.156,0,0,1,0,2.313h-6.42a1.156,1.156,0,1,0,0,2.313h6.42a3.469,3.469,0,0,0,0-6.938H70.7v-4.24Zm-15.875-2.313v-2.159H60.7v2.159Zm-13.387,0v-2.159h6.449v2.159Zm-13.387,0v-2.159H36v2.159Zm-11.307,0v-2.159h4.369v2.159Zm-7.7,0V130.69a1,1,0,0,1,.758-.971v2.127Zm10.111-15.11H24.9v2.212a3.487,3.487,0,0,0-2.087,2.1H18.046a3.484,3.484,0,0,0-1.12-1.563l3.208-2.794A3.528,3.528,0,0,0,20.66,116.737Zm37.62,0a3.528,3.528,0,0,0,.526-.04l3.208,2.794a3.484,3.484,0,0,0-1.12,1.563H56.128a3.487,3.487,0,0,0-2.087-2.1v-2.212Zm-1.954,6.63H60.7v4.009H56.327Zm-4.6-4.436a3.485,3.485,0,0,0-2.14,2.123H42.741a3.469,3.469,0,0,0-6.541,0H29.353a3.485,3.485,0,0,0-2.14-2.123v-2.194H51.728Zm-8.788,4.436h6.449v4.009H42.939Zm-13.387,0H36v4.009H29.552Zm-11.307,0h4.369v4.009H18.245ZM13.62,122.21a1.156,1.156,0,0,1,2.312-.007v.007s0,.01,0,.015v10.763c0,.005,0,.01,0,.015v.008A1.156,1.156,0,0,1,13.62,133Zm11.307,0a1.156,1.156,0,0,1,2.313,0V133a1.156,1.156,0,0,1-2.313,0Zm13.387,0a1.156,1.156,0,0,1,2.313,0V133a1.156,1.156,0,0,1-2.313,0Zm13.387,0a1.156,1.156,0,0,1,2.313,0V133a1.156,1.156,0,0,1-2.313,0Zm11.307,10.778V122.225c0-.005,0-.01,0-.015s0,0,0-.008a1.156,1.156,0,0,1,2.312.008V133a1.156,1.156,0,0,1-2.312.007s0,0,0-.007S63.008,132.993,63.008,132.988Zm4.625-3.269a1,1,0,0,1,.758.971v1.156h-.758Zm0-2.332v-4.021H72v8.48H70.7V130.69A3.317,3.317,0,0,0,67.634,127.387Zm7.838-6.333a1.157,1.157,0,0,1,1.156,1.156V133a1.156,1.156,0,0,1-2.313,0V122.21A1.157,1.157,0,0,1,75.472,121.054ZM24.9,104.788a.386.386,0,0,1,.385-.385H53.655a.386.386,0,0,1,.385.385V109.8H24.9Zm-4.24,7.324H58.28a1.156,1.156,0,0,1,0,2.313H20.66a1.156,1.156,0,1,1,0-2.313ZM3.469,134.159A1.157,1.157,0,0,1,2.313,133V122.21a1.156,1.156,0,0,1,2.313,0V133A1.157,1.157,0,0,1,3.469,134.159Zm3.469-2.313v-8.48h4.369v4.021a3.317,3.317,0,0,0-3.07,3.3v1.156ZM68.391,138.4H10.549v-4.24h.956a3.469,3.469,0,0,0,6.541,0h4.766a3.468,3.468,0,0,0,6.54,0H36.2a3.469,3.469,0,0,0,6.541,0h6.847a3.468,3.468,0,0,0,6.54,0h4.766a3.469,3.469,0,0,0,6.541,0h.956Zm0,0" transform="translate(0 -66.397)" fill="#2553ff"/></g></g></svg>