<svg xmlns="http://www.w3.org/2000/svg" width="88.826" height="81.427" viewBox="0 0 88.826 81.427"><g transform="translate(-930 -1211.373)"><path d="M5243.35,159.63h35.213l3.738,2.747v34.859l-3.738,3.751H5243.35l-3-4.766V162.377Z" transform="translate(-4287 1089)" fill="#b0ddff"/><path d="M5254.4,159.63v40.865h-10l-4.041-4.211V162.4l2.407-2.774Z" transform="translate(-4287 1089)" fill="#e6f3ff"/><g transform="translate(930 1189.914)"><path d="M216.989,43.483h-4.553a24.52,24.52,0,0,0-38.217-17.755,1.293,1.293,0,0,0,1.46,2.134,21.933,21.933,0,0,1,34.155,15.62H207.72a1.293,1.293,0,0,0,0,2.586h9.268a12.97,12.97,0,0,1,0,25.939h-3.222a1.293,1.293,0,1,0,0,2.586h3.222a15.555,15.555,0,0,0,0-31.111Z" transform="translate(-143.718)" fill="#2553ff"/><path d="M18.777,108.984H15.555a12.97,12.97,0,0,1,0-25.939H32.1a1.293,1.293,0,1,0,0-2.586H22.539A21.973,21.973,0,0,1,28.015,68.3a1.293,1.293,0,0,0-1.923-1.729,24.566,24.566,0,0,0-6.155,13.893H15.555a15.555,15.555,0,1,0,0,31.111h3.222a1.293,1.293,0,0,0,0-2.586Z" transform="translate(0 -36.976)" fill="#2553ff"/><path d="M203.126,273.649H177.714a1.293,1.293,0,0,0-1.293,1.293v25.412a1.293,1.293,0,0,0,1.293,1.293h25.412a1.293,1.293,0,0,0,1.293-1.293v-4.21a1.293,1.293,0,1,0-2.586,0v2.917H179.007V276.235h22.826v14.4a1.293,1.293,0,0,0,2.586,0V274.942A1.293,1.293,0,0,0,203.126,273.649Z" transform="translate(-146.007 -208.714)" fill="#2553ff"/><path d="M165.3,227.864a1.293,1.293,0,0,0,0-2.586h-.9v-1.746a5.427,5.427,0,0,0-5.421-5.421h-1.746v-.9a1.293,1.293,0,0,0-2.586,0v.9H143.934v-.9a1.293,1.293,0,1,0-2.586,0v.9H130.637v-.9a1.293,1.293,0,1,0-2.586,0v.9H126.3a5.427,5.427,0,0,0-5.421,5.421v1.746h-.9a1.293,1.293,0,1,0,0,2.586h.9v10.711h-.9a1.293,1.293,0,1,0,0,2.586h.9v10.711h-.9a1.293,1.293,0,1,0,0,2.586h.9V256.2a5.427,5.427,0,0,0,5.421,5.421h1.746v.9a1.293,1.293,0,0,0,2.586,0v-.9h10.711v.9a1.293,1.293,0,0,0,2.586,0v-.9h10.711v.9a1.293,1.293,0,0,0,2.586,0v-.9h1.746A5.427,5.427,0,0,0,164.4,256.2v-1.746h.9a1.293,1.293,0,0,0,0-2.586h-.9V241.161h.9a1.293,1.293,0,0,0,0-2.586h-.9V227.864Zm-3.488,28.34a2.838,2.838,0,0,1-2.835,2.835H126.3a2.838,2.838,0,0,1-2.835-2.835V223.532A2.838,2.838,0,0,1,126.3,220.7h32.672a2.838,2.838,0,0,1,2.835,2.835V256.2Z" transform="translate(-98.228 -160.934)" fill="#2553ff"/><path d="M205.725,321.6a1.293,1.293,0,0,0,1.829,0l1.134-1.134a8.6,8.6,0,0,0,11.174-.846c2.7-2.705,3.4-10.625,3.573-13.9a1.735,1.735,0,0,0-1.824-1.825c-1.788.095-7.909.526-11.584,2.1a1.293,1.293,0,1,0,1.021,2.376,29.608,29.608,0,0,1,7.741-1.662l-10.069,10.069a5.994,5.994,0,0,1-.663-5.056,1.293,1.293,0,0,0-2.465-.781,8.569,8.569,0,0,0,1.269,7.7l-1.135,1.135A1.294,1.294,0,0,0,205.725,321.6Zm12.308-3.808a6.019,6.019,0,0,1-7.485.814l10.068-10.068C220.185,312.592,219.307,316.517,218.033,317.792Z" transform="translate(-169.813 -233.74)" fill="#2553ff"/></g></g></svg>