<svg xmlns="http://www.w3.org/2000/svg" xmlns:xlink="http://www.w3.org/1999/xlink" width="77.279" height="78.478" viewBox="0 0 77.279 78.478"><defs><clipPath id="a"><rect width="29" height="63" fill="#e6f3ff" stroke="#707070" stroke-width="1"/></clipPath></defs><g transform="translate(-534 -1214.522)"><path d="M4859.64,187.259l11.375-1.6,10.639-7.786,5.234-9.854.688-9.136-9.2.49-8.439,3.775-5.785,6.2-3.449,7.316-1.065-12.9,1.8-1.909,4.8-6.34,2.975-10.717-2.975-11-6.6-7.413-4.86,5.77-3.208,9.342V152.2l5.717,8.968.936,1.98,1.414,4.872-.484,9.342-1.866-5.067-6.338-7.5-7.988-4.636-9.988-1.271-1.588,1.271,2.685,11.3,7.366,10.334,13.342,5.468Z" transform="translate(-4287 1089)" fill="#b0ddff"/><g transform="translate(543 1215)" clip-path="url(#a)"><path d="M4859.323,187.259l-11.375-1.6-10.639-7.786-5.234-9.854-.688-9.136,9.2.49,8.439,3.775,5.785,6.2,3.449,7.316,1.065-12.9-1.8-1.909-4.8-6.34L4849.75,144.8l2.975-11,6.6-7.413,4.86,5.77,3.208,9.342V152.2l-5.717,8.968-.936,1.98-1.414,4.872.484,9.342,1.866-5.067,6.338-7.5,7.988-4.636,9.988-1.271,1.588,1.271-2.685,11.3-7.366,10.334-13.342,5.468Z" transform="translate(-4828.963 -126)" fill="#e6f3ff"/></g><g transform="translate(530.171 1214.521)"><g transform="translate(3.829 0.001)"><path d="M80.429,54.038a3,3,0,0,0-2.62-1.093c-8.029.855-11.2,5.223-12.8,9.254a14.169,14.169,0,0,0-3.593-5.439,25.77,25.77,0,0,0,6.375-7.6,36.112,36.112,0,0,0,4.183-13.874,3.031,3.031,0,0,0-3.136-3.273c-8.726.388-15.559,3.263-20.307,8.545a26.069,26.069,0,0,0-4.758,7.734V39.219c1.628-1.552,8.54-8.705,9.025-18.7.332-6.837-2.43-13.446-8.207-19.643a2.615,2.615,0,0,0-3.872.088c-2.125,2.269-6.335,8.805-7.281,14.493a23.618,23.618,0,0,0,.5,11.461,29.816,29.816,0,0,0,7.489,12.14v9.232a26.069,26.069,0,0,0-4.758-7.734c-4.748-5.282-11.581-8.157-20.307-8.545a3.031,3.031,0,0,0-3.136,3.273,37.87,37.87,0,0,0,2.042,9.171,27.586,27.586,0,0,0,8.382,12.2A14.125,14.125,0,0,0,19.938,62.2c-.069-.183-.141-.366-.218-.55-1.5-3.566-4.9-7.971-12.584-8.7a3.028,3.028,0,0,0-3.265,3.449c.614,4.044,3.29,13.282,14.9,13.861v7.1a1.174,1.174,0,0,0,2.347,0v-7.1c7.714-.387,11.475-4.6,13.3-8.5a36.013,36.013,0,0,0,7,.843V76.18h-3a1.174,1.174,0,0,0,0,2.347h8.1a1.174,1.174,0,1,0,0-2.347H43.77V62.592a32.926,32.926,0,0,0,10.922-2.019l7.193,7.115a12.168,12.168,0,0,1-6.671-3.251,1.174,1.174,0,0,0-1.645,1.674,15.216,15.216,0,0,0,10.259,4.14v7.1a1.174,1.174,0,1,0,2.347,0v-7.1c11.609-.579,14.286-9.817,14.9-13.861a2.988,2.988,0,0,0-.645-2.356Zm-3.2,1.339L66.391,66.094a15.631,15.631,0,0,1,1-3.536C69.114,58.455,72.422,56.043,77.225,55.377ZM58.912,55.7a22.792,22.792,0,0,1-4.447,2.431,29,29,0,0,1-8.91,2.016l10.5-10.519h8.7A22.65,22.65,0,0,1,58.912,55.7Zm-5.5-16.437c3.814-2.824,8.679-4.451,14.523-4.855L53.415,48.957Zm12.731,8.018H58.4L69.518,36.152A33.2,33.2,0,0,1,66.146,47.285ZM50.288,42.107q.379-.421.78-.819v10.02l-7.212,7.223C44.143,54.658,45.368,47.569,50.288,42.107ZM43.77,35.784V28.161l6.289-4.66A28.051,28.051,0,0,1,43.77,35.784Zm6.685-15.5L43.77,25.24V3.471C48.454,8.855,50.7,14.506,50.454,20.288ZM41.423,3.825V17.978l-4.994-4.733a31.961,31.961,0,0,1,4.994-9.421ZM35.738,15.911c0-.024.01-.048.015-.072l5.67,5.373V35.569c-5.154-6.089-7.068-12.69-5.685-19.659Zm-.832,26.2c4.92,5.462,6.145,12.552,6.432,16.423L28.585,45.759V37.305A21.411,21.411,0,0,1,34.905,42.108Zm-17.65-7.7a31.417,31.417,0,0,1,8.983,1.863v7.134Zm-1.579,1.74,6.573,6.582H17.138a35.129,35.129,0,0,1-1.462-6.582ZM20.728,50.07a27.164,27.164,0,0,1-2.715-4.988h6.579L39.639,60.151c-7.521-.483-14.63-3.747-18.911-10.081Zm4.865,8.006a24.727,24.727,0,0,0,2.428,1.4l-6.677,6.606A13.025,13.025,0,0,1,25.593,58.076Zm-8.068,4.409a15.56,15.56,0,0,1,1.025,3.606L7.72,55.377C12.494,56.039,15.791,58.427,17.525,62.486ZM6.454,57.426,16.827,67.687C9.853,66.5,7.345,61.341,6.454,57.426Zm16.6,10.266L30.323,60.5q.867.337,1.791.627a11.743,11.743,0,0,1-9.058,6.562Zm36.4-9.525A13.08,13.08,0,0,1,63.6,66.085l-6.593-6.522a24.711,24.711,0,0,0,2.452-1.4Zm8.659,9.521L78.491,57.426c-.891,3.915-3.4,9.078-10.373,10.261Z" transform="translate(-3.829 -0.049)" fill="#2553ff"/><path d="M49.208,96.561l3.6.935a1.174,1.174,0,0,0,.589-2.272l-3.6-.935a1.174,1.174,0,1,0-.589,2.272Z" transform="translate(-41.366 -79.504)" fill="#2553ff"/><path d="M76.538,40.965l3.038,2.153A1.174,1.174,0,1,0,80.934,41.2L77.9,39.05a1.174,1.174,0,1,0-1.357,1.915Z" transform="translate(-64.743 -32.758)" fill="#2553ff"/><path d="M126.516,5.061a1.174,1.174,0,1,0,2.157-.925L127.206.713a1.174,1.174,0,1,0-2.157.925Z" transform="translate(-106 -0.002)" fill="#2553ff"/><path d="M415.244,96.654a1.175,1.175,0,0,0,1.431.841l3.6-.935a1.174,1.174,0,0,0-.589-2.272l-3.6.935A1.173,1.173,0,0,0,415.244,96.654Z" transform="translate(-350.835 -79.503)" fill="#2553ff"/><path d="M392.29,43.336a1.169,1.169,0,0,0,.678-.216l3.038-2.153a1.174,1.174,0,0,0-1.357-1.915L391.611,41.2a1.174,1.174,0,0,0,.68,2.131Z" transform="translate(-330.514 -32.759)" fill="#2553ff"/><path d="M352.955,5.676A1.175,1.175,0,0,0,354.5,5.06l1.467-3.423a1.174,1.174,0,1,0-2.157-.925l-1.467,3.423A1.174,1.174,0,0,0,352.955,5.676Z" transform="translate(-297.725 -0.001)" fill="#2553ff"/></g></g></g></svg>