<svg xmlns="http://www.w3.org/2000/svg" width="79.28" height="79.28" viewBox="0 0 79.28 79.28"><g transform="translate(-532 -958.059)"><path d="M4823.588-129.511h72.229l1.8,3.158v38.429l-3.522,3.526h-50.351v11.867L4832-84.4h-9.466l-2.626-3.526v-37.332l2.626-4.255Z" transform="translate(-4287 1089)" fill="#b0ddff"/><path d="M4839.837-129.511v52.57l-7.673-7.879h-10.544l-1.571-2.568v-40.267l2.716-1.857Z" transform="translate(-4287 1089)" fill="#e6f3ff"/><g transform="translate(516 942.059)"><path d="M45.069,60.925H41.105a1.321,1.321,0,0,0-1.321,1.321v8.97L30.16,61.325a1.321,1.321,0,0,0-.947-.4H20.625a1.984,1.984,0,0,1-1.982-1.982V20.625a1.984,1.984,0,0,1,1.982-1.982h4.625V16H20.625A4.63,4.63,0,0,0,16,20.625V58.943a4.63,4.63,0,0,0,4.625,4.625h8.031l11.5,11.822a1.321,1.321,0,0,0,2.268-.921v-10.9h2.643Z" fill="#2553ff"/><path d="M155.388,58.943V20.625A4.63,4.63,0,0,0,150.763,16H88v2.643h62.763a1.984,1.984,0,0,1,1.982,1.982V58.943a1.984,1.984,0,0,1-1.982,1.982h-6.794l-7.611-3.171-1.713-2.994,1.506-1a4.615,4.615,0,0,0,2.059-3.848V45.238c4.271-1.2,6.607-3.113,6.607-5.454,0-1.42-.889-3.438-5.127-4.979-.5-.182-1.028-.35-1.58-.5l-4.037-7.066a1.321,1.321,0,0,0-1.147-.666H125a1.321,1.321,0,0,0-1.147.666L119.812,34.3c-.552.153-1.08.321-1.58.5-4.238,1.541-5.127,3.559-5.127,4.979,0,2.341,2.335,4.259,6.607,5.454v4.671a4.615,4.615,0,0,0,2.059,3.848l1.426.951-1.743,3.046L109.29,62.822a4.612,4.612,0,0,0-2.846,4.269V80.745h2.643V67.091a1.977,1.977,0,0,1,1.22-1.83l11.443-4.768,4.688,7.038H117.4a2.976,2.976,0,0,0-2.973,2.973v3.409a7.932,7.932,0,0,0-3.909,6.832v.774l-3.227,3.227a4.518,4.518,0,0,0-3.877,3.716l-.263,1.514a4.528,4.528,0,0,0,4.461,5.3h42.753a4.529,4.529,0,0,0,4.461-5.3l-.263-1.514a4.518,4.518,0,0,0-3.877-3.716l-3.227-3.227v-.774a7.933,7.933,0,0,0-3.964-6.864V70.5a2.976,2.976,0,0,0-2.973-2.973h-9.149l4.689-7.038,11.443,4.768a1.977,1.977,0,0,1,1.22,1.83V80.745h2.643V67.091a4.612,4.612,0,0,0-1.627-3.523h1.021A4.63,4.63,0,0,0,155.388,58.943ZM107.612,92.637a1.886,1.886,0,0,1-1.857-2.208l.263-1.514a1.883,1.883,0,0,1,1.857-1.563,1.321,1.321,0,0,0,.934-.387L112.774,83a1.321,1.321,0,0,0,.387-.934V80.745a5.3,5.3,0,0,1,3.964-5.118V86.8l-5.833,5.832Zm11.381-3.964h19.992l3.964,3.964H115.029ZM145.2,83l3.964,3.964a1.321,1.321,0,0,0,.934.387,1.883,1.883,0,0,1,1.858,1.563l.263,1.514a1.886,1.886,0,0,1-1.858,2.208h-3.68L140.853,86.8V75.627a5.3,5.3,0,0,1,3.964,5.118v1.321A1.321,1.321,0,0,0,145.2,83Zm-4.352-12.5v2.422a7.956,7.956,0,0,0-1.321-.11,1.321,1.321,0,0,0-1.321,1.321V86.03H119.767V74.138a1.321,1.321,0,0,0-1.321-1.321,7.947,7.947,0,0,0-1.377.12V70.5a.33.33,0,0,1,.33-.33h23.123A.33.33,0,0,1,140.853,70.5ZM125.764,29.213h6.394l2.5,4.369a40.213,40.213,0,0,0-11.388,0Zm-5.149,10.639a1.321,1.321,0,0,0-.9,1.253v1.373c-2.877-.926-3.964-2.07-3.964-2.695s1.047-1.645,3.387-2.5a33.609,33.609,0,0,1,19.652,0c2.34.851,3.387,1.866,3.387,2.5s-1.087,1.769-3.964,2.695V41.105a1.321,1.321,0,0,0-.9-1.253l-2.705-.9a17.947,17.947,0,0,0-11.281,0Zm1.739,10.057v-7.85l1.8-.6a15.289,15.289,0,0,1,9.61,0l1.8.6v7.851a1.978,1.978,0,0,1-.882,1.649l-4.625,3.083a1.977,1.977,0,0,1-2.2,0l-4.625-3.083a1.978,1.978,0,0,1-.882-1.649Zm6.551,16.562-5.054-7.586,1.55-2.709.994.663a4.613,4.613,0,0,0,5.131,0l.914-.609,1.52,2.655Z" transform="translate(-60.108)" fill="#2553ff"/><path d="M57.249,48v2.024a7.923,7.923,0,0,0-8.4-1.388,1.321,1.321,0,0,0-.793,1.058,8.042,8.042,0,0,0-.058.949,7.936,7.936,0,0,0,9.249,7.818v3.455a7.923,7.923,0,0,0-8.4-1.387,1.321,1.321,0,0,0-.793,1.058,8.04,8.04,0,0,0-.058.948,7.936,7.936,0,0,0,9.249,7.818v3.455a7.923,7.923,0,0,0-8.4-1.387,1.321,1.321,0,0,0-.793,1.058,8.04,8.04,0,0,0-.058.948,7.936,7.936,0,0,0,9.249,7.818V85h2.643V82.244a7.921,7.921,0,0,0,9.191-8.768,1.321,1.321,0,0,0-.793-1.057,7.923,7.923,0,0,0-8.4,1.387V70.352a7.921,7.921,0,0,0,9.191-8.768,1.321,1.321,0,0,0-.793-1.057,7.923,7.923,0,0,0-8.4,1.387V58.46a7.921,7.921,0,0,0,9.191-8.768,1.321,1.321,0,0,0-.793-1.057,7.923,7.923,0,0,0-8.4,1.388V48Zm-1.321,7.928a5.292,5.292,0,0,1-5.283-5.12,5.291,5.291,0,0,1,6.6,4.955A5.276,5.276,0,0,1,55.928,55.927Zm0,11.892a5.292,5.292,0,0,1-5.283-5.12,5.291,5.291,0,0,1,6.6,4.955A5.276,5.276,0,0,1,55.928,67.819Zm0,11.892a5.292,5.292,0,0,1-5.283-5.12,5.291,5.291,0,0,1,6.6,4.955A5.276,5.276,0,0,1,55.928,79.711Zm9.249-5.285a5.276,5.276,0,0,1,1.319.165,5.291,5.291,0,0,1-6.6,4.955A5.292,5.292,0,0,1,65.177,74.426Zm0-11.892A5.276,5.276,0,0,1,66.5,62.7a5.291,5.291,0,0,1-6.6,4.955A5.292,5.292,0,0,1,65.177,62.534Zm0-11.892a5.276,5.276,0,0,1,1.319.165,5.291,5.291,0,0,1-6.6,4.955A5.292,5.292,0,0,1,65.177,50.642Z" transform="translate(-26.715 -26.714)" fill="#2553ff"/><path d="M309.872,401.649l1.749,1.982a3.964,3.964,0,0,1,5.243,0l1.749-1.982a6.607,6.607,0,0,0-8.741,0Z" transform="translate(-245.334 -320.574)" fill="#2553ff"/><path d="M290.455,372.953a9.249,9.249,0,0,1,12.235,0l1.749-1.982a11.892,11.892,0,0,0-15.733,0Z" transform="translate(-227.664 -293.859)" fill="#2553ff"/><rect width="14.311" height="2.044" transform="translate(41.555 55.865)" fill="#2553ff"/><rect width="2.643" height="2.147" transform="translate(45.064 41.362)" fill="#2553ff"/><rect width="2.044" height="3.067" transform="translate(50.754 44.621)" fill="#2553ff"/><rect width="3.067" height="2.044" transform="translate(44.621 47.688)" fill="#2553ff"/><path d="M437.285,53.285V49.321A1.321,1.321,0,0,0,435.964,48H432v2.643h2.643v2.643Z" transform="translate(-347.291 -26.715)" fill="#2553ff"/><path d="M432,245.285h3.964a1.321,1.321,0,0,0,1.321-1.321V240h-2.643v2.643H432Z" transform="translate(-347.291 -187.003)" fill="#2553ff"/><path d="M209.259,50.652a6.618,6.618,0,0,1,4.925,2.2l1.969-1.762a9.249,9.249,0,1,0-11.519,14.177l1.323-2.288a6.608,6.608,0,0,1,3.3-12.33Z" transform="translate(-153.619 -26.724)" fill="#2553ff"/></g></g></svg>