<svg xmlns="http://www.w3.org/2000/svg" width="79.028" height="79.243" viewBox="0 0 79.028 79.243"><g transform="translate(-534 -1260.557)"><rect width="46" height="11" transform="translate(551 1328)" fill="#b0ddff"/><rect width="40" height="15" transform="translate(554 1324)" fill="#b0ddff"/><path d="M5,0H8A0,0,0,0,1,8,0V15a0,0,0,0,1,0,0H0a0,0,0,0,1,0,0V5A5,5,0,0,1,5,0Z" transform="translate(551 1324)" fill="#e6f3ff"/><g transform="translate(532.94 1259.558)"><path d="M15.556,55.618V56.9H14.278A1.278,1.278,0,0,0,13,58.175V68.4a1.278,1.278,0,0,0,1.278,1.278H60.29A1.278,1.278,0,0,0,61.568,68.4V58.175A1.278,1.278,0,0,0,60.29,56.9H59.012V55.618a3.834,3.834,0,0,0-3.834-3.834h-3.9a14.051,14.051,0,0,0-27.99,0h-3.9a3.834,3.834,0,0,0-3.834,3.834Zm43.455,11.5H15.556V59.453H59.012Zm-2.556-11.5V56.9H18.112V55.618A1.278,1.278,0,0,1,19.39,54.34H55.177A1.278,1.278,0,0,1,56.455,55.618ZM37.284,41.559A11.516,11.516,0,0,1,48.711,51.784H25.856A11.516,11.516,0,0,1,37.284,41.559Z" transform="translate(3.321 10.565)" fill="#2553ff"/><path d="M0,0H2.556V61.482H0Z" transform="translate(1.06 2.735) rotate(-20.684)" fill="#2553ff"/><path d="M0,0H61.482V2.556H0Z" transform="translate(55.995 59.346) rotate(-69.316)" fill="#2553ff"/><path d="M15.707,31.547l20.45,10.225a1.278,1.278,0,0,0,1.143,0l20.45-10.225a1.278,1.278,0,0,0,.707-1.15V12.5a1.278,1.278,0,0,0-.707-1.144L37.3,1.134a1.278,1.278,0,0,0-1.143,0L15.707,11.359A1.278,1.278,0,0,0,15,12.5V30.4a1.278,1.278,0,0,0,.707,1.15Zm1.849-16.976L35.45,23.518V38.553L17.556,29.607Zm20.45,23.982V23.518L55.9,14.571V29.607ZM36.728,3.707l17.592,8.8L36.728,21.3,19.136,12.5Z" transform="translate(3.877)" fill="#2553ff"/><path d="M22,32h2.556V42.225H22Z" transform="translate(5.823 8.621)" fill="#2553ff"/><path d="M18,29h2.556v7.669H18Z" transform="translate(4.711 7.787)" fill="#2553ff"/><path d="M40,32h2.556V42.225H40Z" transform="translate(10.829 8.621)" fill="#2553ff"/><path d="M44,29h2.556v7.669H44Z" transform="translate(11.942 7.787)" fill="#2553ff"/></g></g></svg>