<svg xmlns="http://www.w3.org/2000/svg" width="81.427" height="81.427" viewBox="0 0 81.427 81.427"><g transform="translate(-932 -1258.373)"><path d="M1846.353,206.161l5.014-7.628,5.5-2.267,3.308-11.7,4.063-5.826,11.355-7.4,10.809-.885,9.634,3.056,8.06,7.083,3.581,7.306,8.639,1.976,6.384,6.39,2.982,7.479-1.635,8.659-3.684,4.686L1915,221.125l-15.052,1.38H1856.87l-5.5-3.02-5.014-7.081Z" transform="translate(-913 1089)" fill="#b0ddff"/><path d="M1846.353,206.161l5.014-7.628,5.5-2.267,3.308-11.7,4.063-5.826V222.9l-12.873-3.41-5.014-7.081Z" transform="translate(-913 1089)" fill="#e6f3ff"/><g transform="translate(932 1258.373)"><path d="M156.387,17.346a27.025,27.025,0,0,0-45.726-7.938,1.193,1.193,0,1,0,1.808,1.556,24.64,24.64,0,0,1,41.859,7.688,1.633,1.633,0,0,0,1.535,1.071h0a16.023,16.023,0,0,1,11.614,27.032,1.193,1.193,0,1,0,1.733,1.64,18.409,18.409,0,0,0-12.825-31.05Z" transform="translate(-92.819)" fill="#2553ff"/><path d="M233.566,438.245v-2.552a1.193,1.193,0,1,0-2.386,0v2.552a4.374,4.374,0,1,0,2.386,0Zm-1.193,6.195a1.988,1.988,0,1,1,1.988-1.988A1.99,1.99,0,0,1,232.374,444.44Z" transform="translate(-191.739 -365.398)" fill="#2553ff"/><path d="M123.962,386.5a1.193,1.193,0,0,0-1.193,1.193v6.441a1.035,1.035,0,0,1-1.034,1.034H119.58a4.374,4.374,0,1,0,0,2.386h2.155a3.423,3.423,0,0,0,3.419-3.419v-6.441A1.193,1.193,0,0,0,123.962,386.5Zm-8.588,11.848a1.988,1.988,0,1,1,1.988-1.988A1.99,1.99,0,0,1,115.374,398.348Z" transform="translate(-93.347 -325.032)" fill="#2553ff"/><path d="M69.1,129.843a4.381,4.381,0,0,0-4.207,3.181H62.74a1.035,1.035,0,0,1-1.034-1.034v-6.125c1.932,0,3.054-.005,3.122-.012a18.2,18.2,0,0,0,6.781-2.03,1.193,1.193,0,1,0-1.114-2.11,15.825,15.825,0,0,1-5.859,1.761c-.266,0-1.762.007-4.122.007h0c-9.466,0-32.822-.035-46.414-.057a11.453,11.453,0,0,1-6.214-1.775,12,12,0,0,1,4.461-21.918,1.624,1.624,0,0,0,1.343-1.556,24.425,24.425,0,0,1,2.948-11.044A1.193,1.193,0,0,0,14.539,86a26.758,26.758,0,0,0-3.211,11.5,14.391,14.391,0,0,0-4.737,26.155,13.834,13.834,0,0,0,7.5,2.156l5.467.009v6.171a1.035,1.035,0,0,1-1.034,1.034H16.373a4.374,4.374,0,1,0,0,2.386h2.155a3.423,3.423,0,0,0,3.419-3.419v-6.167l7.475.011v3.055a1.193,1.193,0,0,0,2.386,0v-3.051l7.634.01v10.674a1.193,1.193,0,1,0,2.386,0V125.851l7.634.009V140.9a3.423,3.423,0,0,0,3.419,3.419h2.155a4.374,4.374,0,1,0,0-2.386H52.88a1.035,1.035,0,0,1-1.034-1.034V125.862c2.891,0,5.428,0,7.473,0h0v6.124a3.423,3.423,0,0,0,3.419,3.419h2.155a4.373,4.373,0,1,0,4.207-5.566ZM12.166,136.2a1.988,1.988,0,1,1,1.988-1.988A1.99,1.99,0,0,1,12.166,136.2Zm47.075,4.93a1.988,1.988,0,1,1-1.988,1.988A1.99,1.99,0,0,1,59.241,141.134Zm9.86-4.93a1.988,1.988,0,1,1,1.988-1.988A1.99,1.99,0,0,1,69.1,136.2Z" transform="translate(0 -71.794)" fill="#2553ff"/></g></g></svg>