<svg xmlns="http://www.w3.org/2000/svg" width="78.941" height="79" viewBox="0 0 78.941 79"><g transform="translate(-532 -958)"><rect width="67" height="43" transform="translate(538 958)" fill="#b0ddff"/><rect width="12" height="43" transform="translate(538 958)" fill="#e6f3ff"/><g transform="translate(532 958.059)"><path d="M9.329,43.514H75.935a1.079,1.079,0,0,0,1.079-1.079V1.077A1.079,1.079,0,0,0,75.935,0H9.329A1.079,1.079,0,0,0,8.25,1.079V42.434A1.079,1.079,0,0,0,9.329,43.514ZM10.409,2.159H74.856v39.2H10.409Z" transform="translate(-3.162)" fill="#2553ff"/><path d="M74.068,8H17.329A1.079,1.079,0,0,0,16.25,9.079V40.567a1.079,1.079,0,0,0,1.079,1.079H74.068a1.079,1.079,0,0,0,1.079-1.079V9.077A1.079,1.079,0,0,0,74.068,8ZM51.4,39.487V35.907H61.617v3.581Zm21.585,0H63.776v-4.66A1.079,1.079,0,0,0,62.7,33.748H50.324a1.079,1.079,0,0,0-1.079,1.079v4.66H18.409V10.159h54.58Z" transform="translate(-6.228 -3.066)" fill="#2553ff"/><path d="M77.861,78.683H62.968a5.4,5.4,0,0,0-5.3-4.432H48.528a5.4,5.4,0,0,0-5.3,4.432H35.718a5.4,5.4,0,0,0-5.3-4.432H21.277a5.4,5.4,0,0,0-5.3,4.432H1.079A1.079,1.079,0,0,0,0,79.763v6.591a1.079,1.079,0,0,0,1.079,1.079H3.855v18.885A1.079,1.079,0,0,0,4.934,107.4H8.942a1.079,1.079,0,0,0,1.071-.947l2.352-19.018h3.519v4.432a1.079,1.079,0,0,0,1.079,1.079H20.3v2.736H16.517a3.816,3.816,0,1,0,0,7.632h.813v3a1.079,1.079,0,0,0,1.079,1.079h4.084a1.079,1.079,0,0,0,1.079-1.079v-3h4.55v3A1.079,1.079,0,0,0,29.2,107.4h4.083a1.08,1.08,0,0,0,1.079-1.079v-3h.809a3.816,3.816,0,1,0,0-7.632H31.4V92.944H34.73a1.079,1.079,0,0,0,1.079-1.079V87.433h7.322v4.432a1.079,1.079,0,0,0,1.079,1.079h3.335v2.738H43.768a3.816,3.816,0,1,0,0,7.632h.809v3a1.079,1.079,0,0,0,1.079,1.081H49.74a1.079,1.079,0,0,0,1.079-1.079v-3h4.552v3a1.079,1.079,0,0,0,1.079,1.079h4.084a1.079,1.079,0,0,0,1.079-1.079v-3h.81a3.816,3.816,0,1,0,0-7.632H58.646V92.946h3.335a1.079,1.079,0,0,0,1.079-1.079V87.433h3.519l2.352,19.018A1.079,1.079,0,0,0,70,107.4h4.006a1.079,1.079,0,0,0,1.079-1.079V87.433h2.775a1.079,1.079,0,0,0,1.079-1.079V79.763a1.079,1.079,0,0,0-1.079-1.079ZM7.985,105.241H6.012V87.433h4.176ZM2.159,85.274V80.842H15.881v4.432Zm19.252,19.966H19.488v-1.925h1.925Zm10.793,0H30.281v-1.925h1.924ZM36.829,99.5a1.66,1.66,0,0,1-1.658,1.657H16.517a1.658,1.658,0,1,1,0-3.315H35.173A1.66,1.66,0,0,1,36.831,99.5Zm-7.592-3.818H22.453V92.944h6.784Zm4.413-4.9H18.04V79.647a3.242,3.242,0,0,1,3.238-3.238h9.135a3.241,3.241,0,0,1,3.238,3.238Zm2.159-5.511V80.842h7.322v4.432ZM48.66,105.241H46.735v-1.925H48.66Zm10.793,0H57.53v-1.925h1.925ZM64.078,99.5a1.66,1.66,0,0,1-1.657,1.657H43.768a1.658,1.658,0,1,1,0-3.315H62.424A1.66,1.66,0,0,1,64.081,99.5Zm-7.59-3.818H49.7V92.944h6.784Zm4.413-4.9H45.29V79.647a3.242,3.242,0,0,1,3.238-3.238h9.136A3.242,3.242,0,0,1,60.9,79.647Zm12.026,14.454H70.953l-2.2-17.806h4.176Zm3.855-19.965H63.059V80.842H76.782Z" transform="translate(0 -28.459)" fill="#2553ff"/></g></g></svg>