<svg xmlns="http://www.w3.org/2000/svg" width="78" height="78" viewBox="0 0 78 78"><g transform="translate(-930 -958)"><rect width="47" height="78" rx="7" transform="translate(946 958)" fill="#e6f3ff"/><rect width="41" height="78" rx="7" transform="translate(952 958)" fill="#b0ddff"/><g transform="translate(930 958)"><path d="M157.57,38.947l-13.863-8.73V6.855A6.863,6.863,0,0,0,136.852,0h-35.5A6.863,6.863,0,0,0,94.5,6.855v3.5a1.143,1.143,0,1,0,2.285,0v-3.5a4.576,4.576,0,0,1,4.57-4.57h35.5a4.576,4.576,0,0,1,4.57,4.57V28.778l-2.76-1.738a1.143,1.143,0,1,0-1.218,1.934l3.978,2.505V48.35l-3.978,2.505a1.143,1.143,0,1,0,1.218,1.934l2.76-1.738V71.145a4.576,4.576,0,0,1-4.57,4.57H124.588a1.143,1.143,0,0,0,0,2.285h12.264a6.863,6.863,0,0,0,6.855-6.855V49.611l13.863-8.731a1.143,1.143,0,0,0,0-1.934Zm-13.863,7.964V32.918l11.11,7Z" transform="translate(-80.104)" fill="#2553ff"/><path d="M39.152,156.666h-17.9a4.576,4.576,0,0,1-4.57-4.57V132l2.76,1.738a1.143,1.143,0,1,0,1.218-1.934L16.682,129.3V112.43l3.978-2.505a1.143,1.143,0,1,0-1.218-1.934l-2.76,1.739V96.643a1.143,1.143,0,0,0-2.285,0v14.525L.534,119.9a1.143,1.143,0,0,0,0,1.934l13.863,8.73V152.1a6.863,6.863,0,0,0,6.855,6.855h17.9a1.143,1.143,0,0,0,0-2.285Zm-35.866-35.8,11.11-7v13.993Z" transform="translate(0 -80.951)" fill="#2553ff"/><path d="M219.76,30h-7.617a1.143,1.143,0,0,0,0,2.285h7.617a1.143,1.143,0,0,0,0-2.285Z" transform="translate(-178.855 -25.43)" fill="#2553ff"/><path d="M286.2,31.8a1.142,1.142,0,1,0,.143-1.441A1.15,1.15,0,0,0,286.2,31.8Z" transform="translate(-242.44 -25.449)" fill="#2553ff"/><path d="M163.516,151.951a1.149,1.149,0,0,0-.516.954V170.12a1.143,1.143,0,0,0,.528.963l13.025,8.31a1.143,1.143,0,0,0,1.224,0l13.178-8.31a1.143,1.143,0,0,0,.533-.966V167a1.143,1.143,0,0,0-2.285,0v2.493l-10.893,6.869V161.845l10.893-6.869v6.689a1.143,1.143,0,0,0,2.285,0v-8.76a1.153,1.153,0,0,0-.533-.966l-13.178-8.31a1.142,1.142,0,0,0-1.224,0l-13.025,8.31Zm13.656-6,11.032,6.957-11.032,6.957-3.54-2.259a1.143,1.143,0,0,0-1.229,1.927l3.624,2.312v14.5l-10.74-6.852v-14.5l2.613,1.667a1.143,1.143,0,0,0,1.229-1.927l-2.86-1.825Z" transform="translate(-138.168 -121.598)" fill="#2553ff"/><path d="M161.041,136.651l-4.806,3.042a1.143,1.143,0,1,0,1.222,1.931l4.806-3.042a1.143,1.143,0,0,0-1.222-1.931Z" transform="translate(-131.983 -115.683)" fill="#2553ff"/><path d="M223.928,98.176l-4.512,2.841a1.143,1.143,0,0,0,1.218,1.934l3.9-2.458,3.9,2.458a1.143,1.143,0,0,0,1.218-1.934l-4.512-2.841a1.143,1.143,0,0,0-1.218,0Z" transform="translate(-185.537 -83.071)" fill="#2553ff"/><path d="M316.218,139.681l-4.768-2.964a1.143,1.143,0,0,0-1.207,1.941l4.768,2.964a1.143,1.143,0,0,0,1.207-1.941Z" transform="translate(-262.522 -115.743)" fill="#2553ff"/><path d="M314.871,352.727l-4.847,2.975a1.143,1.143,0,1,0,1.2,1.947l4.847-2.975a1.143,1.143,0,0,0-1.2-1.947Z" transform="translate(-262.332 -298.848)" fill="#2553ff"/><path d="M228.44,392.524l-3.9,2.458-3.9-2.458a1.143,1.143,0,1,0-1.218,1.934l4.512,2.841a1.143,1.143,0,0,0,1.218,0l4.512-2.841a1.143,1.143,0,1,0-1.218-1.934Z" transform="translate(-185.537 -332.577)" fill="#2553ff"/><path d="M156.181,354.767,161,357.783a1.143,1.143,0,1,0,1.212-1.937l-4.822-3.016a1.143,1.143,0,0,0-1.212,1.937Z" transform="translate(-131.933 -298.931)" fill="#2553ff"/></g></g></svg>