<svg xmlns="http://www.w3.org/2000/svg" width="43.353" height="79.056" viewBox="0 0 43.353 79.056"><g transform="translate(-532 -870.059)"><rect width="29" height="65" transform="translate(539 875)" fill="#e6f3ff"/><rect width="21" height="65" transform="translate(546 875)" fill="#b0ddff"/><g transform="translate(411.998 862.059)"><path d="M208.926,184a8.926,8.926,0,1,0,8.926,8.926A8.926,8.926,0,0,0,208.926,184Zm0,15.3a6.375,6.375,0,1,1,6.375-6.375A6.375,6.375,0,0,1,208.926,199.3Z" transform="translate(-67.248 -147.948)" fill="#2553ff"/><path d="M208.926,56a8.926,8.926,0,1,0,8.926,8.926A8.926,8.926,0,0,0,208.926,56Zm0,15.3a6.375,6.375,0,1,1,6.375-6.375A6.375,6.375,0,0,1,208.926,71.3Z" transform="translate(-67.248 -40.349)" fill="#2553ff"/><path d="M208.926,312a8.926,8.926,0,1,0,8.926,8.926A8.926,8.926,0,0,0,208.926,312Zm0,15.3a6.375,6.375,0,1,1,6.375-6.375A6.375,6.375,0,0,1,208.926,327.3Z" transform="translate(-67.248 -255.546)" fill="#2553ff"/><path d="M159.529,55.179a1.275,1.275,0,0,0,1.258-1.065l2.55-15.3a1.276,1.276,0,0,0-1.258-1.485h-5.1V33.5h2.55a1.275,1.275,0,0,0,1.258-1.065l2.55-15.3a1.276,1.276,0,0,0-1.258-1.485h-5.1V13.1a1.275,1.275,0,0,0-1.275-1.275h-3.872A4.47,4.47,0,0,0,147.416,8H135.94a4.47,4.47,0,0,0-4.417,3.825h-3.872a1.275,1.275,0,0,0-1.275,1.275v2.55h-5.1a1.276,1.276,0,0,0-1.258,1.485l2.55,15.3a1.275,1.275,0,0,0,1.258,1.065h2.55v3.825h-5.1a1.276,1.276,0,0,0-1.258,1.485l2.55,15.3a1.275,1.275,0,0,0,1.258,1.065h2.55v2.55h-5.1a1.276,1.276,0,0,0-1.258,1.485l2.55,15.3a1.275,1.275,0,0,0,1.258,1.065h2.55v1.275a1.275,1.275,0,0,0,1.275,1.275H135.3v7.651a1.275,1.275,0,0,0,1.275,1.275h10.2a1.275,1.275,0,0,0,1.275-1.275V78.13H155.7a1.275,1.275,0,0,0,1.275-1.275V75.58h2.55a1.275,1.275,0,0,0,1.258-1.065l2.55-15.3a1.276,1.276,0,0,0-1.258-1.485h-5.1v-2.55ZM156.979,18.2h3.6l-2.126,12.751h-1.47Zm0,21.677h3.6l-2.126,12.751h-1.47Zm-30.6,33.152h-1.47l-2.126-12.751h3.6Zm0-20.4h-1.47l-2.126-12.751h3.6Zm0-21.677h-1.47L122.781,18.2h3.6Zm9.563-20.4h11.476a1.915,1.915,0,0,1,1.8,1.275H134.137A1.915,1.915,0,0,1,135.94,10.55ZM145.5,84.506h-7.651V78.13H145.5Zm8.926-8.926h-25.5v-61.2h25.5Zm6.146-15.3L158.449,73.03h-1.47V60.279Z" fill="#2553ff"/></g></g></svg>