<svg xmlns="http://www.w3.org/2000/svg" width="79.056" height="79.056" viewBox="0 0 79.056 79.056"><g transform="translate(-532 -1474.612)"><path d="M14975,2722.085h75.755v-29.311s-2.611-7.241-13.882-5.905-9.549,0-9.549,0L15012.4,2697.6l-13.727-9.7-17.99-1.026s-8.395,1.781-6.723,19.073S14975,2722.085,14975,2722.085Z" transform="translate(-14441 -1170)" fill="#b0ddff"/><rect width="77" height="7" transform="translate(533 1546)" fill="#e6f3ff"/><g transform="translate(532 1474.612)"><path d="M77.9,56.823a1.158,1.158,0,0,0,1.158-1.158v-4.7A9.631,9.631,0,0,0,69.9,41.362a10.553,10.553,0,1,0-14.48-15.243q-.054-.1-.114-.2V22.015A15.79,15.79,0,0,0,46.893,8.067c.02-.222.032-.445.032-.67a7.4,7.4,0,1,0-14.794,0c0,.225.012.448.032.671a15.79,15.79,0,0,0-8.41,13.947v3.907q-.06.1-.115.2A10.553,10.553,0,1,0,9.157,41.362,9.631,9.631,0,0,0,0,50.969V62.314a1.158,1.158,0,0,0,2.316,0V50.969a7.312,7.312,0,0,1,7.3-7.3H21.841a7.278,7.278,0,0,1,4.908,1.9l-1.586.274A10.785,10.785,0,0,0,16.2,56.428V76.74H8.894V58.29a1.158,1.158,0,0,0-.339-.819l-.964-.964a1.158,1.158,0,0,0-1.638,1.638l.625.625V76.74H2.316V67.718a1.158,1.158,0,0,0-2.316,0V77.9a1.158,1.158,0,0,0,1.158,1.158H77.9A1.158,1.158,0,0,0,79.056,77.9V61.069a1.158,1.158,0,1,0-2.316,0V76.74H72.478V58.769l.625-.625a1.158,1.158,0,1,0-1.637-1.638l-.964.964a1.158,1.158,0,0,0-.339.819V76.74H62.853V69.433a1.158,1.158,0,1,0-2.316,0V76.74H54.42V71.815a1.158,1.158,0,1,0-2.316,0V76.74H26.955V71.815a1.158,1.158,0,1,0-2.316,0V76.74H18.521V56.433a8.47,8.47,0,0,1,7.036-8.316l1.41-.244v6.255A6.939,6.939,0,0,0,21.2,60.96v3.587a3.345,3.345,0,0,0,3.34,3.342,1.158,1.158,0,0,0,2.252-.378v-1.56a1.157,1.157,0,0,0-2.252-.378,1.027,1.027,0,0,1-1.024-1.026V60.96a4.613,4.613,0,1,1,9.226,0v3.587a1.027,1.027,0,0,1-1.024,1.026,1.157,1.157,0,0,0-2.252.378v1.56a1.158,1.158,0,0,0,2.252.378,3.345,3.345,0,0,0,3.34-3.342V60.96a6.939,6.939,0,0,0-5.771-6.83V47.474l.67-.116,8.875,6.763a1.158,1.158,0,0,0,1.4,0l8.874-6.763.667.115V61.551a3.654,3.654,0,1,0,2.316,0V47.874l1.412.244a8.468,8.468,0,0,1,7.036,8.31v7.6a1.158,1.158,0,1,0,2.316,0V56.422A10.783,10.783,0,0,0,53.9,45.835l-1.587-.274a7.277,7.277,0,0,1,4.907-1.9H69.436a7.312,7.312,0,0,1,7.3,7.3v4.7A1.158,1.158,0,0,0,77.9,56.823Zm-26.967,9.53a1.338,1.338,0,1,1,1.338-1.338A1.339,1.339,0,0,1,50.931,66.353ZM63.326,24.864a8.243,8.243,0,0,1,.012,16.486h-.024a8.243,8.243,0,0,1,.012-16.486Zm-10.319,1.85a2.314,2.314,0,0,1,.659,1.691A2.379,2.379,0,0,1,51.4,30.664V26.009a2.31,2.31,0,0,1,1.6.7ZM39.528,2.316A5.087,5.087,0,0,1,44.6,7.074a15.8,15.8,0,0,0-10.139,0,5.087,5.087,0,0,1,5.07-4.759Zm0,6.239a13.475,13.475,0,0,1,13.46,13.46v1.979a4.644,4.644,0,0,0-1.652-.3h-.367a1.883,1.883,0,0,0-1.881,1.881v1.5c-4.553-.776-8.612-5.771-8.655-5.825a1.158,1.158,0,0,0-.9-.435h0a1.159,1.159,0,0,0-.9.434c-.044.055-4.1,5.049-8.655,5.826v-1.5a1.883,1.883,0,0,0-1.881-1.881h-.367a4.644,4.644,0,0,0-1.652.3V22.015a13.475,13.475,0,0,1,13.46-13.46ZM49.773,44.876q-.088.107-.172.217l-3.493-.6V42.4h1.7a1.964,1.964,0,0,1,1.961,1.961ZM44.9,39.415a7.651,7.651,0,0,1-10.736,0l-1.724-1.7a8.318,8.318,0,0,1-2.467-5.891V29.418c4.233-.551,7.916-3.946,9.559-5.694,1.643,1.748,5.326,5.144,9.56,5.694v2.405s0,0,0,0a8.317,8.317,0,0,1-2.467,5.891ZM29.455,45.094q-.085-.11-.173-.218v-.513A1.964,1.964,0,0,1,31.244,42.4H32.95V44.49ZM25.393,28.4a2.33,2.33,0,0,1,2.261-2.4v4.655A2.379,2.379,0,0,1,25.393,28.4Zm-17.906,4.7a8.243,8.243,0,1,1,8.255,8.243h-.024a8.252,8.252,0,0,1-8.231-8.243Zm18.8,0c0-.125-.005-.25-.009-.374a4.7,4.7,0,0,0,1.441.249,10.656,10.656,0,0,0,3.091,6.385l.73.718h-.3A4.284,4.284,0,0,0,27.2,42.977a9.586,9.586,0,0,0-4.9-1.615,10.544,10.544,0,0,0,3.986-8.255Zm13.24,18.638L33.067,46.82l1.238-.214a1.158,1.158,0,0,0,.961-1.141V42.976a10,10,0,0,0,8.526,0v2.488a1.158,1.158,0,0,0,.961,1.142l1.239.214Zm12.328-8.768a4.284,4.284,0,0,0-4.046-2.891h-.295l.73-.718a10.657,10.657,0,0,0,3.091-6.385,4.7,4.7,0,0,0,1.438-.248c0,.124-.009.248-.009.373a10.543,10.543,0,0,0,3.986,8.255A9.589,9.589,0,0,0,51.857,42.977Z" transform="translate(0)" fill="#2553ff"/></g></g></svg>