<svg xmlns="http://www.w3.org/2000/svg" width="77.814" height="81.427" viewBox="0 0 77.814 81.427"><g transform="translate(-930 -1168.373)"><path d="M15386.825,2401.987h45.49v-30.621s-1.925-17.914-22.771-18.925-22.1,22.094-22.1,22.094Z" transform="translate(-14441 -1170)" fill="#b0ddff"/><path d="M0,0,35.784.376,44.249,8H0Z" transform="translate(947 1232) rotate(-90)" fill="#e6f3ff"/><g transform="translate(918.64 1168.373)"><g transform="translate(11.36)"><g transform="translate(0)"><path d="M247.59,8.833a1.59,1.59,0,0,0,1.59-1.59V1.59a1.59,1.59,0,0,0-3.181,0V7.242A1.59,1.59,0,0,0,247.59,8.833Z" transform="translate(-208.683)" fill="#2553ff"/><path d="M342.41,38.71a1.591,1.591,0,0,0,2.244-.157L348.61,34a1.59,1.59,0,0,0-2.4-2.087l-3.957,4.551A1.59,1.59,0,0,0,342.41,38.71Z" transform="translate(-289.301 -26.38)" fill="#2553ff"/><path d="M414.2,126.26a1.584,1.584,0,0,0,.792-.212l5.232-3.011a1.59,1.59,0,0,0-1.587-2.757l-5.232,3.011a1.591,1.591,0,0,0,.795,2.969Z" transform="translate(-348.796 -100.972)" fill="#2553ff"/><path d="M450.282,235.933H444.24a1.59,1.59,0,0,0,0,3.181h6.042a1.59,1.59,0,1,0,0-3.181Z" transform="translate(-374.059 -198.411)" fill="#2553ff"/><path d="M129.6,38.554a1.59,1.59,0,0,0,2.4-2.087l-3.957-4.551a1.59,1.59,0,0,0-2.4,2.087Z" transform="translate(-107.142 -26.38)" fill="#2553ff"/><path d="M47.285,123.034l5.232,3.011a1.59,1.59,0,0,0,1.587-2.757l-5.232-3.011a1.59,1.59,0,0,0-1.587,2.757Z" transform="translate(-40.901 -100.97)" fill="#2553ff"/><path d="M20.583,237.523a1.59,1.59,0,0,0-1.59-1.59H12.95a1.59,1.59,0,1,0,0,3.181h6.042A1.59,1.59,0,0,0,20.583,237.523Z" transform="translate(-11.36 -198.411)" fill="#2553ff"/><path d="M113.507,135.364v-2a6.2,6.2,0,0,0-5.2-6.11V101.121A23.954,23.954,0,0,0,84.38,77.194h-.07a23.954,23.954,0,0,0-23.927,23.927v26.131a6.2,6.2,0,0,0-5.2,6.11v2a4.641,4.641,0,0,0-3.3,4.438v4.953a1.59,1.59,0,0,0,1.59,1.59H77.155a1.59,1.59,0,1,0,0-3.181H55.063V139.8a1.454,1.454,0,0,1,1.452-1.452h55.659a1.454,1.454,0,0,1,1.452,1.452v3.362H91.534a1.59,1.59,0,1,0,0,3.181h23.683a1.59,1.59,0,0,0,1.59-1.59V139.8a4.642,4.642,0,0,0-3.3-4.438ZM63.563,101.121A20.77,20.77,0,0,1,84.309,80.375h.07a20.77,20.77,0,0,1,20.747,20.747v26.052H88.911V115.344a8.681,8.681,0,0,0,4.015-7.321,8.582,8.582,0,0,0-17.163,0,8.682,8.682,0,0,0,4.015,7.321v11.829H63.563Zm18.482,11.844a5.537,5.537,0,0,1-3.1-4.944,5.4,5.4,0,0,1,10.8,0,5.537,5.537,0,0,1-3.1,4.944,1.59,1.59,0,0,0-.914,1.439v12.768H82.959V114.4a1.59,1.59,0,0,0-.914-1.439ZM61.371,130.354h45.947a3.012,3.012,0,0,1,3.008,3.008v1.807H58.363v-1.807A3.012,3.012,0,0,1,61.371,130.354Z" transform="translate(-45.437 -64.917)" fill="#2553ff"/><path d="M248.889,492.989a1.589,1.589,0,1,0-.585,1.929,1.6,1.6,0,0,0,.585-1.929Z" transform="translate(-208.542 -413.759)" fill="#2553ff"/></g></g></g></g></svg>