<svg xmlns="http://www.w3.org/2000/svg" width="79.443" height="79.443" viewBox="0 0 79.443 79.443"><g transform="translate(-534 -1170.557)"><path d="M15048.276,2355.863a5.7,5.7,0,0,1,5.1,6.323c-.232,5.889,0,31.4,0,31.4s1.372,6.234-7.475,6.368-42.589,0-42.589,0-8.625-6.334-9.354-5.648,0-4.36,0-4.36a3.864,3.864,0,0,0,4.471-2.945c1.113-3.659-2.315-11.986-2.315-11.986h6.083s3.035-4.477-.826-5.212-4.276,0-4.276,0l-.98-4.6,6.083-9.343h19.657l2.966,8.366s6.964,6.251,12.828,4.159c.158-.056,3.406-1.189,3.849-1.389C15046.856,2364.67,15048.276,2355.863,15048.276,2355.863Z" transform="translate(-14441 -1170)" fill="#b0ddff"/><path d="M15048.276,2355.863a5.7,5.7,0,0,1,5.1,6.323c-.232,5.889,0,31.4,0,31.4s-9.108,34.732-7.819,6.48S15048.276,2355.863,15048.276,2355.863Z" transform="translate(-14442 -1170)" fill="#e6f3ff"/><g transform="translate(533 1169.557)"><path d="M15.251,11.941l1.639,4.918h6.049V14.3h-4.2L15.251,3.838,11.168,16.082,9.636,13.015H5v2.563H8.052l3.593,7.183Z" transform="translate(1.125 0.798)" fill="#2553ff"/><path d="M74.036,61.223a6.414,6.414,0,0,0,6.407-6.407V21.5a6.414,6.414,0,0,0-5.184-6.284,14.085,14.085,0,0,0-28.065-.123h-18a14.095,14.095,0,1,0-22.6,11.237,8.939,8.939,0,0,0-3.029,6.7v7.272a12.5,12.5,0,0,0,7.688,11.55v3.6A15.011,15.011,0,0,0,3.563,68.541v11.9H32.849v-.029a10.535,10.535,0,0,0,3.836-.923L47.11,74.752a4.366,4.366,0,0,0,1.1-.716h5.328a3.839,3.839,0,0,0,3.608-2.563H76.6a3.844,3.844,0,0,0,0-7.688H68.911A1.282,1.282,0,0,1,67.63,62.5V61.223Zm0-2.563H29.815A15.1,15.1,0,0,0,21.5,53.836V51.952a5.353,5.353,0,0,0,1.748-.98H77.88v3.844A3.849,3.849,0,0,1,74.036,58.66ZM50.972,63.785h-2.26A8.714,8.714,0,0,0,42,66.958V61.223H52.253v2.692A6.4,6.4,0,0,0,50.972,63.785Zm-16.9,7.2-.653-4.572a14.845,14.845,0,0,0-1.772-5.2H39.44v7.329ZM17.168,34.313l.928-1.854a1.274,1.274,0,0,1,1.147-.709h7.384a1.281,1.281,0,1,1,0,2.563ZM61.223,4.844A11.532,11.532,0,1,1,49.691,16.376,11.545,11.545,0,0,1,61.223,4.844ZM47.193,17.657a14.09,14.09,0,0,0,28.043.211A3.835,3.835,0,0,1,77.88,21.5V48.409H24.93a5.312,5.312,0,0,0,.215-2.053L24.2,36.876h2.429a3.844,3.844,0,1,0,0-7.688H23.935a6.361,6.361,0,0,0-1.044-2.372,13.989,13.989,0,0,0,6.038-9.159ZM3.563,15.095a11.532,11.532,0,1,1,17.4,9.9,6.347,6.347,0,0,0-3.3-.93H12.532a8.913,8.913,0,0,0-3.592.756A11.537,11.537,0,0,1,3.563,15.095ZM6.125,33.033a6.414,6.414,0,0,1,6.407-6.407h5.127a3.846,3.846,0,0,1,3.622,2.561h-2.04A3.824,3.824,0,0,0,15.8,31.313l-1.5,3H6.125Zm0,7.272V36.876H9.637a5.873,5.873,0,0,0-.949,3.2,5.962,5.962,0,0,0,1.735,4.187l.828.828V49A9.937,9.937,0,0,1,6.125,40.3Zm6.109,2.151a3.384,3.384,0,0,1-.984-2.376,3.336,3.336,0,0,1,.984-2.376l.829-.829h8.559l.974,9.738a2.787,2.787,0,0,1-.806,2.258,2.822,2.822,0,0,1-1.98.82H16.376v2.563h2.563v1.3c-.124,0-.246-.018-.37-.018a14.908,14.908,0,0,0-4.755.785V44.035Zm23.39,34.7A8.054,8.054,0,0,1,24.578,72.14L22.73,65.98l-2.455.735,1.848,6.159a10.564,10.564,0,0,0,3.279,5H6.125v-9.34a12.442,12.442,0,0,1,24.759-1.759l.76,5.314-1.7.775L31,75.2l7.587-3.449,1.5,3.375Zm10.426-4.74-3.627,1.649-1.5-3.376,3.56-1.618a1.92,1.92,0,0,1,.809-.163,1.836,1.836,0,0,1,.76,3.508Zm7.484-.946H49.624a4.264,4.264,0,0,0,.067-.725,4.383,4.383,0,0,0-2.839-4.093,6.03,6.03,0,0,1,1.861-.308h2.26a3.849,3.849,0,0,1,3.844,3.844,1.282,1.282,0,0,1-1.281,1.281Zm15.376-5.125H76.6a1.281,1.281,0,0,1,0,2.563H57.249A6.391,6.391,0,0,0,54.816,65.1V61.223H65.067V62.5a3.849,3.849,0,0,0,3.844,3.844Z" fill="#2553ff"/><path d="M57,42h2.563v2.563H57Z" transform="translate(15.755 11.535)" fill="#2553ff"/><path d="M49,42h2.563v2.563H49Z" transform="translate(13.504 11.535)" fill="#2553ff"/><path d="M53,42h2.563v2.563H53Z" transform="translate(14.63 11.535)" fill="#2553ff"/><path d="M42,8h2.563v2.563H42Z" transform="translate(11.535 1.969)" fill="#2553ff"/><path d="M46,8H56.251v2.563H46Z" transform="translate(12.66 1.969)" fill="#2553ff"/><path d="M42,12h2.563v2.563H42Z" transform="translate(11.535 3.095)" fill="#2553ff"/><path d="M46,12H56.251v2.563H46Z" transform="translate(12.66 3.095)" fill="#2553ff"/><path d="M42,16h2.563v2.563H42Z" transform="translate(11.535 4.22)" fill="#2553ff"/><path d="M46,16H56.251v2.563H46Z" transform="translate(12.66 4.22)" fill="#2553ff"/><path d="M38.813,28H26V38.251H38.813Zm-2.563,7.688H28.563V30.563h7.688Z" transform="translate(7.033 7.596)" fill="#2553ff"/><path d="M26,24H38.813v2.563H26Z" transform="translate(7.033 6.471)" fill="#2553ff"/><path d="M26,20H38.813v2.563H26Z" transform="translate(7.033 5.345)" fill="#2553ff"/><path d="M26,16H38.813v2.563H26Z" transform="translate(7.033 4.22)" fill="#2553ff"/><path d="M38,34h2.563v2.563H38Z" transform="translate(10.409 9.284)" fill="#2553ff"/><path d="M42,34H63.783v2.563H42Z" transform="translate(11.535 9.284)" fill="#2553ff"/><path d="M38,30H64.908v2.563H38Z" transform="translate(10.409 8.159)" fill="#2553ff"/><path d="M38,26H64.908v2.563H38Z" transform="translate(10.409 7.033)" fill="#2553ff"/></g></g></svg>