<svg xmlns="http://www.w3.org/2000/svg" width="78.941" height="78.941" viewBox="0 0 78.941 78.941"><g transform="translate(-930 -870.059)"><path d="M15433.1,2049.682a9.937,9.937,0,0,0,7.7,6.714V2083.3s-6.769-9.074-19.018-2.282-11.247,17.589-11.247,17.589H15372.3v-48.354Z" transform="translate(-14441 -1170)" fill="#b0ddff"/><rect width="13" height="48" transform="translate(931 881)" fill="#e6f3ff"/><g transform="translate(929 869.059)"><path d="M72.3,43.692V18.723A8.908,8.908,0,1,0,62.115,9.913H1V60.842H39.262A20.359,20.359,0,1,0,72.3,43.692ZM71.028,3.546a6.366,6.366,0,1,1-6.366,6.366A6.373,6.373,0,0,1,71.028,3.546ZM3.546,12.459H62.491A8.907,8.907,0,0,0,63.9,15.241l-7.787,7.787a3.687,3.687,0,0,0-3.273,0l-2.566-2.566a3.784,3.784,0,0,0,.382-1.637,3.82,3.82,0,1,0-7.639,0,3.757,3.757,0,0,0,.383,1.636l-6.385,6.385a3.784,3.784,0,0,0-1.637-.382,3.82,3.82,0,1,0,3.82,3.82,3.757,3.757,0,0,0-.383-1.636L45.2,22.263a3.692,3.692,0,0,0,3.273,0l2.566,2.566a3.784,3.784,0,0,0-.382,1.637,3.82,3.82,0,0,0,7.639,0,3.757,3.757,0,0,0-.383-1.636L65.7,17.042a8.858,8.858,0,0,0,4.054,1.683v23.23A20.248,20.248,0,0,0,44.29,46.14V40.47H36.651V55.749h2.918a20.426,20.426,0,0,0-.307,2.546H3.546ZM54.476,25.191A1.273,1.273,0,1,1,53.2,26.465,1.275,1.275,0,0,1,54.476,25.191Zm-8.913-6.366A1.273,1.273,0,1,1,46.837,20.1,1.275,1.275,0,0,1,45.563,18.825ZM36.651,30.284a1.273,1.273,0,1,1-1.273-1.273A1.275,1.275,0,0,1,36.651,30.284Zm22.918,39.47A10.186,10.186,0,1,1,69.755,59.569,10.2,10.2,0,0,1,59.569,69.755ZM41.744,49.728A20.218,20.218,0,0,0,40.23,53.2H39.2V43.017h2.546ZM58.3,41.809V46.9A12.706,12.706,0,0,0,47.971,64.794l-4.417,2.55A17.764,17.764,0,0,1,58.3,41.809Zm1.273,35.586a17.816,17.816,0,0,1-14.754-7.837L49.249,67a12.691,12.691,0,0,0,20.639,0l4.435,2.56A17.816,17.816,0,0,1,59.569,77.394Zm16.015-10.05-4.417-2.55A12.706,12.706,0,0,0,60.842,46.9V41.809A17.764,17.764,0,0,1,75.584,67.345Z" fill="#2553ff"/><path d="M48.639,41a7.639,7.639,0,1,0,7.639,7.639A7.647,7.647,0,0,0,48.639,41Zm0,12.732a5.093,5.093,0,1,1,5.093-5.093A5.1,5.1,0,0,1,48.639,53.732Z" transform="translate(10.929 10.929)" fill="#2553ff"/><path d="M5,12H7.546v2.546H5Z" transform="translate(1.093 3.006)" fill="#2553ff"/><path d="M9,12H26.825v2.546H9Z" transform="translate(2.186 3.006)" fill="#2553ff"/><path d="M5,16H7.546v2.546H5Z" transform="translate(1.093 4.099)" fill="#2553ff"/><path d="M9,16H26.825v2.546H9Z" transform="translate(2.186 4.099)" fill="#2553ff"/><path d="M5,20H7.546v2.546H5Z" transform="translate(1.093 5.191)" fill="#2553ff"/><path d="M9,20H26.825v2.546H9Z" transform="translate(2.186 5.191)" fill="#2553ff"/><path d="M5,24H7.546v2.546H5Z" transform="translate(1.093 6.284)" fill="#2553ff"/><path d="M9,24H26.825v2.546H9Z" transform="translate(2.186 6.284)" fill="#2553ff"/><path d="M5,46.732h7.639V34H5ZM7.546,36.546h2.546v7.639H7.546Z" transform="translate(1.093 9.017)" fill="#2553ff"/><path d="M13,46.186h7.639V36H13Zm2.546-7.639h2.546v5.093H15.546Z" transform="translate(3.279 9.563)" fill="#2553ff"/><path d="M21,48.372h7.639V28H21Zm2.546-17.825h2.546V45.825H23.546Z" transform="translate(5.465 7.377)" fill="#2553ff"/></g></g></svg>