<svg xmlns="http://www.w3.org/2000/svg" width="78.438" height="78.443" viewBox="0 0 78.438 78.443"><g transform="translate(-532 -958.059)"><path d="M1455.529,2276.446l3.13-9.79h23.972l2.695,9.79Z" transform="translate(-913 -1241)" fill="#b0ddff"/><path d="M1455.529,2276.446l.926-9.79h7.1l.8,9.79Z" transform="translate(-913 -1241)" fill="#e6f3ff"/><g transform="translate(531.983 958.059)"><path d="M240.193,254.645a5.455,5.455,0,1,0-5.455,5.461A5.464,5.464,0,0,0,240.193,254.645Zm-8.611,0a3.157,3.157,0,1,1,3.157,3.163A3.163,3.163,0,0,1,231.581,254.645Z" transform="translate(-194.141 -211.007)" fill="#2553ff"/><path d="M30.8,110.307a4.439,4.439,0,1,0,4.434,4.439A4.442,4.442,0,0,0,30.8,110.307Zm0,6.58a2.141,2.141,0,1,1,2.136-2.141A2.141,2.141,0,0,1,30.8,116.887Z" transform="translate(-22.31 -93.407)" fill="#2553ff"/><path d="M76.015,10.762A4.532,4.532,0,0,0,69.966,12.7l-2.825,5.506-6.6-2.295L61.529,9l6.1.014c5.787,0,5.958-8.974.1-8.988L57.639,0h-.01a4.509,4.509,0,0,0-4.444,3.86L53,5.171a1.15,1.15,0,0,0,2.277.314l.18-1.306A2.2,2.2,0,0,1,57.629,2.3h.005l10.09.024c2.846.007,2.751,4.392-.091,4.392l-7.1-.017h0a1.149,1.149,0,0,0-1.137.987l-1.26,8.842a1.149,1.149,0,0,0,.76,1.248l8.436,2.934a1.149,1.149,0,0,0,1.4-.561l3.281-6.394c1.294-2.522,5.195-.5,3.9,2.012l-4.606,8.978a2.211,2.211,0,0,1-2.67,1.068L58.8,22.4a1.149,1.149,0,0,0-.974.1L54.14,24.743c-4.49,2.735-9.132-4.294-4.38-7.189L53.452,15.3a1.149,1.149,0,0,0,.539-.817l.424-2.935a1.15,1.15,0,0,0-2.275-.329l-.347,2.4L50.14,14.632h-36.4C9.932,11.876,4.2,12.154,1.494,16.363a8.4,8.4,0,0,0,2.128,11.65L22.033,40.766a59.228,59.228,0,0,0-7.578,3,1.15,1.15,0,0,0,1.112,2.011,7.2,7.2,0,0,1,.912-.426l21.959-8.4a7.131,7.131,0,0,1,5.087,13.323l-21.96,8.4a7.131,7.131,0,0,1-9.308-8.9,1.15,1.15,0,0,0-2.181-.723,9.43,9.43,0,0,0,5.739,11.829v5.278h-2.2A1.149,1.149,0,0,0,12.514,67l-2.5,9.146H6.445a1.149,1.149,0,0,0,0,2.3h38.82a1.149,1.149,0,1,0,0-2.3H41.7L39.2,67a1.149,1.149,0,0,0-1.108-.846h-2.2v-10.5l8.455-3.232a9.433,9.433,0,0,0-2.292-18.179l-9.527-6.6H51.7c2.586.106,4.755-1.622,6.855-2.9l9.33,3.237a4.555,4.555,0,0,0,5.468-2.19l4.606-8.978a4.5,4.5,0,0,0-1.945-6.051Zm-36.7,65.383H12.394L14.5,68.451H37.211Zm-5.722-9.992H18.115V61.4a9.421,9.421,0,0,0,4.273-.58l11.206-4.284Zm4.024-31.345L24.634,39.772,4.931,26.123A6.083,6.083,0,0,1,11.85,16.117l26.59,18.419c-.276.078-.55.167-.822.271ZM17.059,16.93H46.995a6.593,6.593,0,0,0-.006,8.417H29.211Z" transform="translate(0)" fill="#2553ff"/><path d="M332.011,133.233a1.15,1.15,0,0,0,0-2.3A1.15,1.15,0,0,0,332.011,133.233Z" transform="translate(-280.19 -110.875)" fill="#2553ff"/></g></g></svg>