<svg xmlns="http://www.w3.org/2000/svg" width="104.031" height="79.443" viewBox="0 0 104.031 79.443"><g transform="translate(-932 -1237.557)"><path d="M1884.987,2557.016h24.95l6.46-5.515-.56-17.315-1.615-6.712-8.243-6.843h-16.756l-8.484,6.3-2.254,5.551V2550.5Z" transform="translate(-913 -1241)" fill="#b0ddff"/><path d="M1884.75,2527.531v19.406l2.518,3.111h18.655l4.033-2.628v-20.8l-4.832-5.734H1889.8Z" transform="translate(-913 -1241)" fill="#e6f3ff"/><g transform="translate(932 1177.049)"><path d="M226.024,346.89a1.524,1.524,0,0,0-1.524,1.524v1.226a1.524,1.524,0,1,0,3.048,0v-1.226A1.524,1.524,0,0,0,226.024,346.89Z" transform="translate(-178.885 -228.193)" fill="#2553ff"/><path d="M277.587,351.164a1.524,1.524,0,0,0,1.524-1.524v-1.226a1.524,1.524,0,1,0-3.048,0v1.226A1.524,1.524,0,0,0,277.587,351.164Z" transform="translate(-219.971 -228.193)" fill="#2553ff"/><path d="M98.7,86.978a5.342,5.342,0,0,0-5.11,3.809H84.645A23.911,23.911,0,0,0,66.873,74.281V67.933a.568.568,0,0,1,.569-.567h9.62a5.333,5.333,0,1,0,0-3.048H67.442a3.62,3.62,0,0,0-3.617,3.615v5.892c-.675-.057-1.356-.087-2.042-.087a23.644,23.644,0,0,0-14.265,4.737c-.222.166-.441.338-.657.512V67.933a3.619,3.619,0,0,0-3.615-3.615H33.625a5.333,5.333,0,1,0,0,3.048h9.621a.568.568,0,0,1,.567.567V81.927a23.945,23.945,0,0,0-4.8,8.562,1.844,1.844,0,0,1-1.772,1.3H35.482a1.524,1.524,0,1,0,0,3.048h1.762a4.878,4.878,0,0,0,4.682-3.441,20.8,20.8,0,0,1,34.559-8.516,20.665,20.665,0,0,1,6.09,14.7V102.4a3.468,3.468,0,0,0,2.535,3.312A8.16,8.16,0,0,1,84,121.645H81.13a4.538,4.538,0,0,0-4.247-2.948H72.776v-1.063a16.945,16.945,0,0,0-13.747-16.617l-.057-.01a25.8,25.8,0,0,0-5.07-.292V97.633a5.536,5.536,0,1,0-3.048,0v3.082a25.786,25.786,0,0,0-5.069.292l-.064.012A16.945,16.945,0,0,0,31.98,117.634V118.7H27.873A4.538,4.538,0,0,0,23.8,121.25a13.417,13.417,0,0,1,3.349-26.415h1.225a1.524,1.524,0,1,0,0-3.048,18.013,18.013,0,0,0-7.209,1.12V83.615A3.62,3.62,0,0,0,17.547,80h-7.1a5.333,5.333,0,1,0,0,3.048h7.1a.569.569,0,0,1,.567.569V94.478a16.654,16.654,0,0,0-2.628,2.139,16.386,16.386,0,0,0-.769,22.418,16.852,16.852,0,0,0,8.623,5.241v.24a4.538,4.538,0,0,0,4.533,4.532H31.98v.925a9.988,9.988,0,0,0,9.977,9.977h9.429a1.524,1.524,0,1,0,0-3.048H41.957a6.937,6.937,0,0,1-6.929-6.929v-12.34a13.828,13.828,0,0,1,4.111-9.846,10.126,10.126,0,0,0-.42,2.882v18.539a4.008,4.008,0,0,0,4,4H62.034a4.008,4.008,0,0,0,4-4V110.67a10.126,10.126,0,0,0-.42-2.882,13.829,13.829,0,0,1,4.111,9.846v12.34A6.937,6.937,0,0,1,62.8,136.9H58.5a1.524,1.524,0,1,0,0,3.048h4.3a9.988,9.988,0,0,0,9.977-9.977v-.925h4.107a4.539,4.539,0,0,0,4.528-4.356c2.7-.009,2.648.018,2.954-.023a11.206,11.206,0,0,0,1.572-21.894.405.405,0,0,1-.314-.378V97.58a24.144,24.144,0,0,0-.292-3.745h8.257A5.333,5.333,0,1,0,98.7,86.978ZM82.172,63.556a2.285,2.285,0,1,1-2.285,2.292v-.005s0,0,0-.006A2.288,2.288,0,0,1,82.172,63.556ZM28.515,68.127A2.285,2.285,0,1,1,30.8,65.841,2.288,2.288,0,0,1,28.515,68.127ZM49.889,92.311A2.488,2.488,0,1,1,52.378,94.8,2.491,2.491,0,0,1,49.889,92.311Zm-44.556-8.5a2.285,2.285,0,1,1,2.285-2.285A2.288,2.288,0,0,1,5.333,83.808ZM27.873,126a1.487,1.487,0,0,1-1.485-1.485v-1.287a1.486,1.486,0,0,1,1.485-1.485H31.98V126ZM62.989,110.67v18.539a.956.956,0,0,1-.955.955H42.722a.956.956,0,0,1-.955-.955V110.67a7.147,7.147,0,0,1,4.635-6.679,13.88,13.88,0,0,1,2.5-.23h6.956a13.882,13.882,0,0,1,2.5.23,7.146,7.146,0,0,1,4.635,6.679Zm15.378,13.846A1.486,1.486,0,0,1,76.882,126H72.775v-4.256h4.107a1.486,1.486,0,0,1,1.485,1.485ZM98.7,94.6a2.285,2.285,0,1,1,2.285-2.285A2.288,2.288,0,0,1,98.7,94.6Z" transform="translate(0)" fill="#2553ff"/></g></g></svg>