<svg xmlns="http://www.w3.org/2000/svg" width="89.449" height="78.243" viewBox="0 0 89.449 78.243"><g transform="translate(-928 -958.059)"><rect width="39" height="47" rx="4" transform="translate(930 979)" fill="#e6f3ff"/><rect width="33" height="47" rx="4" transform="translate(935 979)" fill="#b0ddff"/><circle cx="10" cy="10" r="10" transform="translate(939 1015)" fill="#fff"/><g transform="translate(928 925.987)"><path d="M55.119,38.649a1.31,1.31,0,0,0,1.31-1.31V33.382a1.31,1.31,0,0,0-2.621,0v3.957A1.31,1.31,0,0,0,55.119,38.649Zm-6.447.243a1.31,1.31,0,0,0,2.283-1.288L49.293,34.66a1.31,1.31,0,0,0-2.283,1.288Zm11.11.5a1.313,1.313,0,0,0,1.785-.5l1.662-2.946a1.31,1.31,0,0,0-2.283-1.288l-1.662,2.946A1.31,1.31,0,0,0,59.782,39.39ZM84.97,75.382l-10.622-3.54A2.183,2.183,0,0,1,73.019,70.6L67.1,56.2a6.528,6.528,0,0,0-6.06-4.06h-.068V49.779a5.853,5.853,0,1,0-11.705,0v2.359H6.551A6.559,6.559,0,0,0,0,58.69v8.648a1.31,1.31,0,0,0,2.621,0V58.69a3.935,3.935,0,0,1,3.931-3.931h32.5v28.3H2.621V73.452a1.31,1.31,0,0,0-2.621,0V94.067a6.559,6.559,0,0,0,6.551,6.551H9.908a11,11,0,0,0,21.851,0H55.637a11,11,0,0,0,21.851,0H82.9a6.559,6.559,0,0,0,6.551-6.551V81.6a6.541,6.541,0,0,0-4.479-6.215ZM20.834,107.694a8.386,8.386,0,1,1,8.386-8.386A8.4,8.4,0,0,1,20.834,107.694ZM39.047,98H31.759A11,11,0,0,0,9.908,98H6.551a3.935,3.935,0,0,1-3.931-3.931V85.681H39.047ZM51.887,49.779a3.232,3.232,0,0,1,6.464,0v2.359H51.887Zm14.675,57.915a8.386,8.386,0,1,1,8.386-8.386A8.4,8.4,0,0,1,66.563,107.694ZM86.828,83.061H66.843a1.31,1.31,0,0,0,0,2.621H86.828v8.386A3.935,3.935,0,0,1,82.9,98H77.488a11,11,0,0,0-21.851,0H41.667V85.681H60.728a1.31,1.31,0,1,0,0-2.621H41.667v-28.3H61.04a3.916,3.916,0,0,1,3.636,2.436L70.6,71.6a4.8,4.8,0,0,0,2.924,2.733l10.622,3.54A3.925,3.925,0,0,1,86.828,81.6Zm-24.6-24.313a2.174,2.174,0,0,0-2.026-1.368H46.472a2.186,2.186,0,0,0-2.184,2.184V71.7a2.186,2.186,0,0,0,2.184,2.184H65.095a2.208,2.208,0,0,0,2.026-3ZM46.908,71.268V60h13l4.536,11.268ZM66.563,95.377a3.931,3.931,0,1,0,3.931,3.931A3.935,3.935,0,0,0,66.563,95.377Zm0,5.241a1.31,1.31,0,1,1,1.31-1.31A1.312,1.312,0,0,1,66.563,100.619ZM22.406,57.379H19.261A2.361,2.361,0,0,0,16.9,59.738v5.241H11.662A2.361,2.361,0,0,0,9.3,67.337v3.145a2.361,2.361,0,0,0,2.359,2.359H16.9v5.241a2.361,2.361,0,0,0,2.359,2.359h3.145a2.361,2.361,0,0,0,2.359-2.359V72.84h5.241a2.361,2.361,0,0,0,2.359-2.359V67.337a2.361,2.361,0,0,0-2.359-2.359H24.764V59.738A2.361,2.361,0,0,0,22.406,57.379ZM29.744,67.6V70.22H23.978a1.836,1.836,0,0,0-1.834,1.834V77.82H19.523V72.054a1.836,1.836,0,0,0-1.834-1.834H11.924V67.6h5.765a1.836,1.836,0,0,0,1.834-1.834V60h2.621v5.765A1.836,1.836,0,0,0,23.978,67.6Zm-8.91,27.778a3.931,3.931,0,1,0,3.931,3.931A3.935,3.935,0,0,0,20.834,95.377Zm0,5.241a1.31,1.31,0,1,1,1.31-1.31A1.312,1.312,0,0,1,20.834,100.619Z" fill="#2553ff"/></g></g></svg>