<svg xmlns="http://www.w3.org/2000/svg" width="79.443" height="79.443" viewBox="0 0 79.443 79.443"><g transform="translate(-534 -1237.557)"><path d="M1465.957,2523.044l18.061,3.068v25.778l-13.842-1.323-4.22-2.977Z" transform="translate(-913 -1241)" fill="#b0ddff"/><path d="M1484.019,2523.044l-18.061,3.068v25.778l13.842-1.323,4.22-2.977Z" transform="translate(-889 -1241)" fill="#b0ddff"/><path d="M1476.988,2523.044l-11.031,2.842v23.877l8.453-1.225,2.577-2.757Z" transform="translate(-891 -1238.873)" fill="#e6f3ff"/><path d="M1465.957,2523.044l12.008,2.9v24.33l-9.2-1.249-2.805-2.81Z" transform="translate(-905.969 -1239.379)" fill="#e6f3ff"/><g transform="translate(533 1236.557)"><path d="M68.911,16.376A11.51,11.51,0,0,0,59.61,34.7l-6.034,5.532.416-1.042a11.519,11.519,0,0,0,.824-4.284V12.532A3.831,3.831,0,0,0,49.542,8.97a3.78,3.78,0,0,0-4.977-2.609V4.844a3.844,3.844,0,1,0-7.688,0V6.361A3.8,3.8,0,0,0,35.6,6.125a3.849,3.849,0,0,0-3.844,3.844v5.838a5.073,5.073,0,0,0-2.563-.712,2.565,2.565,0,0,0-2.563,2.563V34.9a11.5,11.5,0,0,0,.825,4.284l.436,1.088c-.357.053-.686.108-1.015.161L23,36.56a6.359,6.359,0,0,0,1.067-3.526V22.783a6.414,6.414,0,0,0-6.407-6.407H7.407A6.414,6.414,0,0,0,1,22.783V33.033A6.414,6.414,0,0,0,7.407,39.44H17.657a6.366,6.366,0,0,0,3.528-1.067l2.682,2.682c-4.9,1.261-4.928,2.824-4.928,3.511V70.192c0,2.564,5.127,3.85,10.251,4.495v5.756H52.253V74.687c5.124-.646,10.251-1.932,10.251-4.495V44.565c0-.725-.008-2.432-5.8-3.725l4.641-4.254a11.525,11.525,0,1,0,7.57-20.211Zm-51.253,20.5H7.407a3.849,3.849,0,0,1-3.844-3.844V22.783a3.849,3.849,0,0,1,3.844-3.844H17.657A3.849,3.849,0,0,1,21.5,22.783V33.033A3.849,3.849,0,0,1,17.657,36.877Zm34.6,12.183V72.1c-2.124.283-4.683.507-7.688.615V49.654c1.967-.072,4.827-.232,7.688-.593ZM45.847,8.688a1.283,1.283,0,0,1,1.281,1.281V25.345H44.565V9.969A1.283,1.283,0,0,1,45.847,8.688ZM39.44,4.844a1.281,1.281,0,0,1,2.563,0v20.5H39.44V4.844ZM29.189,72.1V49.06c2.861.36,5.721.522,7.688.592V72.716C33.873,72.609,31.314,72.383,29.189,72.1Zm-.322-29.373.322.8v2.943c-4.168-.556-6.654-1.336-7.484-1.9C22.386,44.127,24.411,43.335,28.868,42.728ZM21.5,47.272a23.235,23.235,0,0,0,5.125,1.4V71.693c-2.989-.557-4.7-1.21-5.125-1.662ZM49.691,77.88H31.752V74.963c2.61.234,4.982.323,6.377.355l1.311.029V47.158l-1.252-.029c-2.408-.056-4.551-.187-6.436-.364V43.038l-1.921-4.8a8.949,8.949,0,0,1-.642-3.333V17.657a2.565,2.565,0,0,1,2.563,2.563V31l1.967,1.968A6.364,6.364,0,0,1,35.6,37.5V39.44h2.563V37.5a8.91,8.91,0,0,0-2.628-6.343L34.315,29.94V9.969a1.281,1.281,0,1,1,2.563,0v15.7A5.616,5.616,0,0,0,34.69,27L36.5,28.814a3.075,3.075,0,0,1,2.187-.906h9.19a3.068,3.068,0,0,1,2.187.907L51.878,27a5.619,5.619,0,0,0-2.187-1.336V12.532a1.281,1.281,0,0,1,2.563,0V34.9a8.943,8.943,0,0,1-.642,3.331l-1.921,4.8v3.726c-1.885.178-4.029.309-6.436.364L42,47.158V75.347l1.311-.029c1.394-.032,3.767-.12,6.377-.355Zm10.251-7.848c-.429.452-2.136,1.1-5.125,1.662V48.675a23.305,23.305,0,0,0,5.125-1.4ZM52.253,46.473V43.53l.322-.8c4.458.607,6.482,1.4,7.163,1.845C58.907,45.138,56.422,45.917,52.253,46.473Zm17.939-9.7v-2.46H67.63v2.46a8.975,8.975,0,0,1-7.586-7.586H62.5V26.627h-2.46a8.975,8.975,0,0,1,7.586-7.586V21.5h2.563v-2.46a8.975,8.975,0,0,1,7.586,7.586h-2.46v2.563h2.46A8.975,8.975,0,0,1,70.192,36.775Z" fill="#2553ff"/><path d="M55.563,19H53v4.374l2.938,2.938L57.75,24.5l-2.187-2.187Z" transform="translate(14.63 5.064)" fill="#2553ff"/><path d="M37,43h2.563V55.813H37Z" transform="translate(10.128 11.816)" fill="#2553ff"/><path d="M25,43h2.563V55.813H25Z" transform="translate(6.752 11.816)" fill="#2553ff"/><path d="M15.251,19H12.688v5.125H10.125V21.563H7.563v2.563H5v2.563H17.813V24.125H15.251Z" transform="translate(1.125 5.064)" fill="#2553ff"/></g></g></svg>