<svg xmlns="http://www.w3.org/2000/svg" width="108.549" height="81.427" viewBox="0 0 108.549 81.427"><g transform="translate(-930 -1233.373)"><path d="M3534.176,2499.42h23.378l13.545,6.886h25.746l15.5-6.886H3633.3l4.042,2.018-1.644,4.868h-17.2l-17.058,18.246H3567.2l-17.625-18.246H3533.5l-2.582-4.868Z" transform="translate(-2600 -1241)" fill="#b0ddff"/><g transform="translate(930 1169.334)"><path d="M103.473,87.394H98.906V83.209a3.644,3.644,0,0,0-3.64-3.64H94.206V76.6h9.326a5.017,5.017,0,1,0,0-10.033H94.206v-.945a1.588,1.588,0,1,0-3.176,0v.945H81.7a5.017,5.017,0,0,0,0,10.033H91.03v2.965h-1.06a3.644,3.644,0,0,0-3.64,3.64v4.185H82.16a4.3,4.3,0,0,0-1.976.483l-.7.365L73.321,82.08A7.384,7.384,0,0,0,68.065,79.9H49.952a1.588,1.588,0,1,0,0,3.176H68.065a4.229,4.229,0,0,1,3.01,1.247l5.454,5.454-8.282,4.311a2.05,2.05,0,0,1-.942.23H41.244a2.047,2.047,0,0,1-.942-.23L32.02,89.78l5.454-5.454a4.228,4.228,0,0,1,3.01-1.247h2.7a1.588,1.588,0,1,0,0-3.176h-2.7a7.384,7.384,0,0,0-5.256,2.177l-6.162,6.162-.7-.365a4.3,4.3,0,0,0-1.976-.483h-4.17V83.209a3.644,3.644,0,0,0-3.64-3.64h-1.06V76.6h9.326a5.017,5.017,0,1,0,0-10.033H17.519v-.945a1.588,1.588,0,1,0-3.176,0v.945H5.017a5.017,5.017,0,0,0,0,10.033h9.326V79.57h-1.06a3.644,3.644,0,0,0-3.64,3.64v4.185H5.076a5.052,5.052,0,0,0,0,10.1H15.285l-7.5,11.264a2.93,2.93,0,0,0-.477,1.885l.484,5.278a1.588,1.588,0,0,0,1.58,1.443c.048,0,.1,0,.147-.007a1.588,1.588,0,0,0,1.437-1.726l-.475-5.188L19.1,97.5h.672l4.837,5.422-9.444,9.027a2.934,2.934,0,0,0-.9,2.111v18.649a.87.87,0,0,1-1.737.079l-.954-10.409a1.588,1.588,0,0,0-3.163.29l.954,10.409a4.047,4.047,0,0,0,8.077-.369V114.168l9.286-8.876,7.9,8.856a5.221,5.221,0,0,0,3.892,1.744h9.431v6.082q-.513.293-.995.632H38.46a3.508,3.508,0,0,0-3.5,3.5v1.87H31.98v-.392a3.245,3.245,0,0,0-3.241-3.241H25.893a3.245,3.245,0,0,0-3.241,3.241V138.2a3.245,3.245,0,0,0,3.241,3.241h2.846A3.245,3.245,0,0,0,31.98,138.2v-.392h2.976v1.87a3.508,3.508,0,0,0,3.5,3.5h8.494a12.531,12.531,0,0,0,14.429,0h8.494a3.508,3.508,0,0,0,3.5-3.5v-1.87h2.976v.392A3.245,3.245,0,0,0,79.6,141.44h2.846a3.245,3.245,0,0,0,3.241-3.241v-10.61a3.245,3.245,0,0,0-3.241-3.241H79.6a3.245,3.245,0,0,0-3.241,3.241v.392H73.381v-1.87a3.508,3.508,0,0,0-3.5-3.5H61.383q-.482-.339-.995-.632v-6.082h9.643a5.221,5.221,0,0,0,3.892-1.744l7.9-8.856,9.286,8.876v18.539a4.047,4.047,0,0,0,8.076.369l2.056-22.429a2.932,2.932,0,0,0-.477-1.885L93.264,97.5h10.209a5.052,5.052,0,0,0,0-10.1Zm.06-17.646a1.84,1.84,0,1,1,0,3.68H94.206v-3.68ZM81.7,73.429a1.84,1.84,0,0,1,0-3.68H91.03v3.68ZM26.846,69.748a1.84,1.84,0,1,1,0,3.68H17.519v-3.68ZM5.017,73.429a1.84,1.84,0,1,1,0-3.68h9.326v3.68Zm84.49,9.78a.464.464,0,0,1,.463-.463h5.3a.464.464,0,0,1,.463.463v4.185H89.506V83.209Zm-76.687,0a.464.464,0,0,1,.463-.463h5.3a.464.464,0,0,1,.463.463v4.185H12.819ZM28.8,138.2a.065.065,0,0,1-.065.065H25.893a.065.065,0,0,1-.065-.065v-10.61a.065.065,0,0,1,.065-.065h2.846a.065.065,0,0,1,.065.065Zm3.176-3.568v-3.473h2.976v3.473Zm6.152,5.047V126.11a.328.328,0,0,1,.327-.327h5.348a12.538,12.538,0,0,0,0,14.222H38.46A.328.328,0,0,1,38.133,139.678Zm6.64-6.784a9.4,9.4,0,1,1,9.4,9.4A9.407,9.407,0,0,1,44.772,132.894Zm34.761-5.3a.065.065,0,0,1,.065-.065h2.846a.065.065,0,0,1,.065.065V138.2a.065.065,0,0,1-.065.065H79.6a.065.065,0,0,1-.065-.065Zm-3.176,3.568v3.473H73.381v-3.473ZM70.2,126.11v13.567a.328.328,0,0,1-.328.327H64.53a12.538,12.538,0,0,0,0-14.222h5.347A.328.328,0,0,1,70.2,126.11ZM57.212,120.7a12.551,12.551,0,0,0-6.087,0v-4.8h6.087ZM98.07,110.448l-2.047,22.339a.87.87,0,0,1-1.737-.079V114.059a2.934,2.934,0,0,0-.9-2.111l-9.444-9.027L88.776,97.5h.671Zm5.4-16.126H88.064a1.588,1.588,0,0,0-1.185.531L76.489,106.5H68.537a1.588,1.588,0,0,0,0,3.176h5.118l-2.1,2.357a2.041,2.041,0,0,1-1.522.682H38.518A2.042,2.042,0,0,1,37,112.034l-2.1-2.357H61.769a1.588,1.588,0,1,0,0-3.176H32.06L21.67,94.853a1.588,1.588,0,0,0-1.185-.531H5.077a1.876,1.876,0,1,1,0-3.751H26.389a1.106,1.106,0,0,1,.509.125l11.937,6.214a5.236,5.236,0,0,0,2.409.589H67.3a5.236,5.236,0,0,0,2.408-.589l11.938-6.214a1.107,1.107,0,0,1,.509-.124h21.313a1.876,1.876,0,0,1,0,3.752Z" transform="translate(0 0)" fill="#2553ff"/><path d="M232.653,359.826a6.22,6.22,0,1,0,6.22,6.22A6.227,6.227,0,0,0,232.653,359.826Zm0,9.264a3.044,3.044,0,1,1,3.044-3.044A3.047,3.047,0,0,1,232.653,369.09Z" transform="translate(-178.484 -233.152)" fill="#2553ff"/></g></g></svg>