<svg xmlns="http://www.w3.org/2000/svg" width="89.685" height="81.627" viewBox="0 0 89.685 81.627"><g transform="translate(-534 -1233.373)"><path d="M3139.45,2497.016h82.01v22.813h-85.3v-23.844Z" transform="translate(-2600 -1241)" fill="#b0ddff"/><path d="M3155.306,2495.985v23.369h-19.637v-23.369Z" transform="translate(-2600 -1241)" fill="#e6f3ff"/><g transform="translate(534 1210.373)"><path d="M87.933,43.6H51.445V33.51H66.388a1.752,1.752,0,0,0,1.752-1.752V24.752A1.752,1.752,0,0,0,66.388,23H23.3a1.752,1.752,0,0,0-1.752,1.752v7.007A1.752,1.752,0,0,0,23.3,33.51H38.24V43.6H1.752A1.752,1.752,0,0,0,0,45.355V67.843a1.752,1.752,0,0,0,1.752,1.752H36.96a1.752,1.752,0,1,0,0-3.5H3.5V47.107H86.182V66.091H52.725a1.752,1.752,0,1,0,0,3.5H87.933a1.752,1.752,0,0,0,1.752-1.752V45.355A1.752,1.752,0,0,0,87.933,43.6ZM25.049,26.5H64.636v3.5H25.049ZM41.743,33.51h6.2V43.6h-6.2Z" fill="#2553ff"/><circle cx="1.5" cy="1.5" r="1.5" transform="translate(43 66.627)" fill="#2553ff"/><path d="M57.138,204.811a1.752,1.752,0,1,0,0,3.5H82.2a1.752,1.752,0,1,0,0-3.5Z" transform="translate(-45.684 -149.964)" fill="#2553ff"/><path d="M390.577,197.777v-4.738a1.752,1.752,0,1,0-3.5,0v4.738a1.752,1.752,0,1,0,3.5,0Z" transform="translate(-319.272 -138.809)" fill="#2553ff"/><path d="M440.117,197.777v-4.738a1.752,1.752,0,0,0-3.5,0v4.738a1.752,1.752,0,1,0,3.5,0Z" transform="translate(-360.134 -138.809)" fill="#2553ff"/><path d="M341.038,197.777v-4.738a1.752,1.752,0,0,0-3.5,0v4.738a1.752,1.752,0,1,0,3.5,0Z" transform="translate(-278.41 -138.809)" fill="#2553ff"/><path d="M291.5,197.777v-4.738a1.752,1.752,0,0,0-3.5,0v4.738a1.752,1.752,0,1,0,3.5,0Z" transform="translate(-237.548 -138.809)" fill="#2553ff"/><path d="M182.229,428.463a22.734,22.734,0,0,1-32.188,0,1.752,1.752,0,1,0-2.477,2.477,26.237,26.237,0,0,0,37.143,0,1.752,1.752,0,0,0-2.477-2.477Z" transform="translate(-121.292 -334.017)" fill="#2553ff"/><path d="M175.833,400.193a1.752,1.752,0,0,0,0,2.477,19.242,19.242,0,0,0,27.238,0,1.752,1.752,0,1,0-2.477-2.478,15.739,15.739,0,0,1-22.285,0A1.752,1.752,0,0,0,175.833,400.193Z" transform="translate(-144.61 -310.698)" fill="#2553ff"/><path d="M204.113,371.912a1.752,1.752,0,0,0,0,2.477,12.239,12.239,0,0,0,17.333,0,1.752,1.752,0,0,0-2.478-2.476,8.736,8.736,0,0,1-12.376,0A1.752,1.752,0,0,0,204.113,371.912Z" transform="translate(-167.936 -287.372)" fill="#2553ff"/><path d="M226,314.255A5.255,5.255,0,1,0,231.255,309,5.261,5.261,0,0,0,226,314.255Zm5.255-1.752a1.752,1.752,0,1,1-1.752,1.752A1.754,1.754,0,0,1,231.255,312.5Z" transform="translate(-186.412 -235.902)" fill="#2553ff"/></g></g></svg>