<svg xmlns="http://www.w3.org/2000/svg" width="79.047" height="78.941" viewBox="0 0 79.047 78.941"><g transform="translate(-930 -958.059)"><path d="M3537.674,2214.627l5-8.4,7.3-1.706h41.133l7.218,4.093,2.3,6.008v36.292l-4.01,6.569-8.194,1.486h-39.9l-6.824-3-4.025-5.058Z" transform="translate(-2600 -1241)" fill="#b0ddff"/><path d="M3554.675,2204.525v55.3l-8.966-1.066-3.914-2.392-3.759-5.283v-34.665l1.811-7,5.862-4.894Z" transform="translate(-2600 -1241)" fill="#e6f3ff"/><g transform="translate(929.996 957.714)"><path d="M78.391,23.2A6.453,6.453,0,0,0,72.3,18.391l-.1,0q-.091-1.262-.2-2.522A11.625,11.625,0,0,0,61.213,5.242q-1.627-.11-3.259-.2A5.7,5.7,0,0,0,46.835,4.6c-.6-.014-1.2-.028-1.807-.038a5.7,5.7,0,0,0-11,0c-.6.01-1.2.024-1.807.038a5.7,5.7,0,0,0-11.12.442q-1.631.093-3.259.2A11.625,11.625,0,0,0,7.048,15.867q-.106,1.259-.2,2.522l-.1,0A6.453,6.453,0,0,0,.664,23.2a20.654,20.654,0,0,0,0,10.356,6.45,6.45,0,0,0,5.715,4.788q.151,6.2.669,12.361A11.625,11.625,0,0,0,17.842,61.33q7.514.506,15.085.657V63.3c-2.873.114-5.794.307-8.7.574a10.448,10.448,0,0,0-9.473,9.729c-.1,1.514-.182,3.015-.254,4.462a1.158,1.158,0,0,0,1.157,1.216H63.4a1.158,1.158,0,0,0,1.157-1.216c-.072-1.447-.158-2.949-.254-4.461a10.323,10.323,0,0,0-.438-2.4,1.158,1.158,0,1,0-2.213.684,8.012,8.012,0,0,1,.34,1.861c.069,1.083.132,2.16.189,3.215h-45.3c.057-1.055.12-2.132.189-3.215a8.091,8.091,0,0,1,7.374-7.57c2.92-.268,5.854-.459,8.738-.571a6.6,6.6,0,0,0,12.7,0c2.886.112,5.821.3,8.741.571a8.157,8.157,0,0,1,4.922,2.265,1.158,1.158,0,0,0,1.614-1.661,10.48,10.48,0,0,0-6.324-2.91c-2.906-.267-5.828-.459-8.7-.574V61.987q7.562-.154,15.085-.657A11.625,11.625,0,0,0,72.008,50.7q.52-6.157.669-12.361a6.45,6.45,0,0,0,5.716-4.789,20.668,20.668,0,0,0,0-10.357ZM52.347,2.661a3.387,3.387,0,0,1,3.186,2.25q-3.132-.155-6.272-.248A3.381,3.381,0,0,1,52.347,2.661Zm-12.82,0A3.4,3.4,0,0,1,42.548,4.53q-3.021-.028-6.043,0A3.394,3.394,0,0,1,39.527,2.661Zm-12.82,0a3.381,3.381,0,0,1,3.086,2q-3.139.094-6.272.248a3.386,3.386,0,0,1,3.186-2.25Zm-23.8,30.32a18.363,18.363,0,0,1,0-9.207A4.125,4.125,0,0,1,6.7,20.714c-.309,5.085-.43,10.192-.363,15.294a4.119,4.119,0,0,1-3.428-3.027Zm40.9,30.837a4.285,4.285,0,1,1-8.569,0V62.026q2.142.028,4.285.031t4.285-.031ZM69.7,50.51a9.308,9.308,0,0,1-8.642,8.509,321.382,321.382,0,0,1-43.061,0A9.308,9.308,0,0,1,9.355,50.51a205.144,205.144,0,0,1,0-34.448A9.308,9.308,0,0,1,18,7.553c7.143-.481,14.337-.722,21.53-.722s14.387.241,21.53.722A9.308,9.308,0,0,1,69.7,16.062,205.129,205.129,0,0,1,69.7,50.51ZM76.148,32.98a4.12,4.12,0,0,1-3.428,3.028c.067-5.1-.054-10.209-.363-15.294a4.125,4.125,0,0,1,3.791,3.06,18.364,18.364,0,0,1,0,9.207Z" fill="#2553ff"/><path d="M129.225,63.908a301.587,301.587,0,0,0-39.8,0A6.59,6.59,0,0,0,83.3,69.752a122.463,122.463,0,0,0-.452,22.184,1.158,1.158,0,0,0,2.31-.164,120.117,120.117,0,0,1,.444-21.764,4.276,4.276,0,0,1,3.976-3.79,299.275,299.275,0,0,1,39.49,0,4.276,4.276,0,0,1,3.976,3.79,120.189,120.189,0,0,1,0,26.63,4.276,4.276,0,0,1-3.976,3.79,299.779,299.779,0,0,1-39.49,0,4.275,4.275,0,0,1-3.976-3.784l-.034-.306a1.158,1.158,0,1,0-2.3.242l.035.314a6.59,6.59,0,0,0,6.125,5.844c6.6.437,13.25.656,19.9.656s13.3-.219,19.9-.656a6.59,6.59,0,0,0,6.125-5.844,122.528,122.528,0,0,0,0-27.144,6.59,6.59,0,0,0-6.125-5.844Z" transform="translate(-69.799 -53.193)" fill="#2553ff"/><path d="M141.976,102.309a5.949,5.949,0,1,0-5.949,5.949A5.956,5.956,0,0,0,141.976,102.309Zm-9.582,0a3.633,3.633,0,1,1,3.633,3.633A3.637,3.637,0,0,1,132.394,102.309Z" transform="translate(-109.991 -81.19)" fill="#2553ff"/><path d="M310.774,96.361a5.949,5.949,0,1,0,5.949,5.949,5.956,5.956,0,0,0-5.949-5.949Zm0,9.582a3.633,3.633,0,1,1,3.633-3.633A3.637,3.637,0,0,1,310.774,105.943Z" transform="translate(-257.757 -81.191)" fill="#2553ff"/><path d="M225.688,175.084a1.158,1.158,0,0,0-2.316,0,4.451,4.451,0,0,1-8.9,0,1.158,1.158,0,0,0-2.316,0,6.767,6.767,0,1,0,13.535,0Z" transform="translate(-179.393 -146.78)" fill="#2553ff"/><path d="M357.224,189.469h-4.733a1.158,1.158,0,0,0,0,2.316h4.733a1.158,1.158,0,0,0,0-2.316Z" transform="translate(-297.084 -159.923)" fill="#2553ff"/><path d="M357.224,214.825h-4.733a1.158,1.158,0,1,0,0,2.316h4.733a1.158,1.158,0,1,0,0-2.316Z" transform="translate(-297.084 -181.364)" fill="#2553ff"/><path d="M114.98,190.627a1.158,1.158,0,0,0,1.158,1.158h4.733a1.158,1.158,0,1,0,0-2.316h-4.733A1.158,1.158,0,0,0,114.98,190.627Z" transform="translate(-97.224 -159.923)" fill="#2553ff"/><path d="M116.138,217.141h4.733a1.158,1.158,0,1,0,0-2.316h-4.733a1.158,1.158,0,1,0,0,2.316Z" transform="translate(-97.224 -181.364)" fill="#2553ff"/><path d="M137.372,438.394a1.069,1.069,0,0,0-.992-.665h0a1.069,1.069,0,0,0-.992.666l-.008.021-2.418,6.348a.926.926,0,1,0,1.732.659l.375-.984h2.605l.37.982a.926.926,0,1,0,1.733-.654l-2.4-6.348Zm-1.6,4.193.6-1.583.6,1.583Z" transform="translate(-112.377 -369.852)" fill="#2553ff"/><path d="M187.163,438.655v6.438a.926.926,0,0,0,1.853,0v-6.438a.926.926,0,1,0-1.853,0Z" transform="translate(-158.262 -369.852)" fill="#2553ff"/></g></g></svg>