<svg xmlns="http://www.w3.org/2000/svg" width="80.321" height="81.501" viewBox="0 0 80.321 81.501"><g transform="translate(-527.783 -957.808)"><path d="M3134,2253.5h50.419v-33.675h22.971v59.327h-74.862v-26.592Z" transform="translate(-2600 -1241)" fill="#b0ddff" stroke="#2c58f5" stroke-width="0.5"/><g transform="translate(526.352 957.059)"><path d="M73.255,40.194h14.46V30.9H73.255Zm1.688-7.606H86.027v5.919H74.942Z" transform="translate(-11.177 -4.672)" fill="#2553ff" stroke="#2c58f5" stroke-width="0.5"/><path d="M73.255,56.524h14.46V47.23H73.255Zm1.688-7.606H86.027v5.919H74.942Z" transform="translate(-11.177 -7.224)" fill="#2553ff" stroke="#2c58f5" stroke-width="0.5"/><path d="M73.255,72.854h14.46V63.561H73.255Zm1.688-7.606H86.027v5.918H74.942Z" transform="translate(-11.177 -9.775)" fill="#2553ff" stroke="#2c58f5" stroke-width="0.5"/><path d="M73.255,89.184h14.46V79.891H73.255Zm1.688-7.606H86.027V87.5H74.942Z" transform="translate(-11.177 -12.327)" fill="#2553ff" stroke="#2c58f5" stroke-width="0.5"/><path d="M13.346,84.865H24.656V74.509H13.346ZM15.034,76.2h7.934v6.981H15.034Z" transform="translate(-1.816 -11.486)" fill="#2553ff" stroke="#2c58f5" stroke-width="0.5"/><path d="M42.422,74.509H31.112V84.865H42.422Zm-1.687,8.669H32.8V76.2h7.934Z" transform="translate(-4.592 -11.486)" fill="#2553ff" stroke="#2c58f5" stroke-width="0.5"/><path d="M60.188,74.509H48.878V84.865H60.188ZM58.5,83.178H50.566V76.2H58.5Z" transform="translate(-7.368 -11.486)" fill="#2553ff" stroke="#2c58f5" stroke-width="0.5"/><path d="M2.045,55.622l3.5-.677V84.379H81.5V23.465H57.115V56.782H55.263L53.9,16.228h-7.57L44.971,56.782H43.092L41.731,16.228h-7.57L32.8,56.782H30.614V49.14L1.725,53.965ZM58.8,56.782V25.153H79.814V82.692H58.8Zm-11.911-6.9h2.568V48.191H46.948l.335-10H49.83V36.505H47.34l.335-10h2.553V24.819h-2.5l.232-6.9h4.307l.4,11.907H50.493V31.51h2.234l.389,11.606H50.776V44.8h2.4l.4,11.979H46.66Zm-12.172,0h2.457V48.191h-2.4l.335-10h2.435V36.505H35.169l.335-10h2.442V24.819H35.561l.232-6.9H40.1l.4,11.907H38.211V31.51h2.345l.389,11.606H38.493V44.8H41l.4,11.979H34.488ZM7.235,54.64l21.691-3.518v5.659H7.235Zm0,24.884H8.923V77.837H7.235V63.324H8.923V61.636H7.235V58.47H57.115c0,2.394,0,24.313,0,24.222H7.235Z" transform="translate(0 -2.379)" fill="#2553ff" stroke="#2c58f5" stroke-width="0.5"/><path d="M31.5,27.114a19.662,19.662,0,0,0-5.671-1.376l-.149,1.681a17.977,17.977,0,0,1,5.184,1.259Z" transform="translate(-3.743 -3.865)" fill="#2553ff" stroke="#2c58f5" stroke-width="0.5"/><path d="M8.043,32.959a18.032,18.032,0,0,1,12.12-5.593l-.092-1.685A19.713,19.713,0,0,0,6.82,31.8Z" transform="translate(-0.796 -3.856)" fill="#2553ff" stroke="#2c58f5" stroke-width="0.5"/><path d="M4.56,35.075A19.753,19.753,0,0,0,2.123,39.41l1.563.636a18.049,18.049,0,0,1,2.229-3.964Z" transform="translate(-0.062 -5.324)" fill="#2553ff" stroke="#2c58f5" stroke-width="0.5"/><path d="M27.314,33.094a14.339,14.339,0,0,0-15.42,3.034l1.179,1.207a12.648,12.648,0,0,1,13.6-2.678Z" transform="translate(-1.589 -4.85)" fill="#2553ff" stroke="#2c58f5" stroke-width="0.5"/><path d="M8.044,41.973l1.563.635a12.623,12.623,0,0,1,1.8-3.087l-1.322-1.048A14.3,14.3,0,0,0,8.044,41.973Z" transform="translate(-0.987 -5.855)" fill="#2553ff" stroke="#2c58f5" stroke-width="0.5"/><path d="M27.309,39.1a8.924,8.924,0,0,0-2.228-.586l-.215,1.673a7.244,7.244,0,0,1,1.807.476Z" transform="translate(-3.616 -5.862)" fill="#2553ff" stroke="#2c58f5" stroke-width="0.5"/><path d="M21.125,38.515a8.955,8.955,0,0,0-7.16,5.5l1.563.636a7.265,7.265,0,0,1,5.81-4.458Z" transform="translate(-1.913 -5.862)" fill="#2553ff" stroke="#2c58f5" stroke-width="0.5"/><path d="M23.118,51.9a3.541,3.541,0,1,0-3.264-2.165A3.521,3.521,0,0,0,23.118,51.9ZM22.4,46.655a1.853,1.853,0,0,1,1.44,3.415,1.884,1.884,0,0,1-2.428-.988A1.855,1.855,0,0,1,22.4,46.655Z" transform="translate(-2.789 -6.847)" fill="#2553ff" stroke="#2c58f5" stroke-width="0.5"/><path d="M60.547,9.3a1.643,1.643,0,0,1,1.641-1.641H64.4a3.332,3.332,0,0,0,3.328-3.328,1.643,1.643,0,0,1,1.641-1.641H75.7V1h-6.33a3.332,3.332,0,0,0-3.329,3.329A1.643,1.643,0,0,1,64.4,5.97H62.188A3.332,3.332,0,0,0,58.859,9.3V11.9h1.688V9.3Z" transform="translate(-8.927)" fill="#2553ff" stroke="#2c58f5" stroke-width="0.5"/><path d="M60.308,1h-6.33A3.333,3.333,0,0,0,50.65,4.329,1.643,1.643,0,0,1,49.009,5.97H46.8A3.332,3.332,0,0,0,43.467,9.3V11.9h1.688V9.3A1.643,1.643,0,0,1,46.8,7.657h2.214a3.332,3.332,0,0,0,3.328-3.328,1.643,1.643,0,0,1,1.641-1.641h6.33V1Z" transform="translate(-6.522)" fill="#2553ff" stroke="#2c58f5" stroke-width="0.5"/><path d="M61.256,89.247h2.531v1.688H61.256Z" transform="translate(-9.302 -13.789)" fill="#2553ff" stroke="#2c58f5" stroke-width="0.5"/><path d="M43.256,89.247h2.531v1.688H43.256Z" transform="translate(-6.489 -13.789)" fill="#2553ff" stroke="#2c58f5" stroke-width="0.5"/><path d="M13.256,89.247h2.531v1.688H13.256Z" transform="translate(-1.802 -13.789)" fill="#2553ff" stroke="#2c58f5" stroke-width="0.5"/><path d="M55.256,89.247h2.531v1.688H55.256Z" transform="translate(-8.364 -13.789)" fill="#2553ff" stroke="#2c58f5" stroke-width="0.5"/><path d="M37.256,89.247h2.531v1.688H37.256Z" transform="translate(-5.552 -13.789)" fill="#2553ff" stroke="#2c58f5" stroke-width="0.5"/><path d="M49.256,89.247h2.531v1.688H49.256Z" transform="translate(-7.427 -13.789)" fill="#2553ff" stroke="#2c58f5" stroke-width="0.5"/><path d="M19.256,89.247h2.531v1.688H19.256Z" transform="translate(-2.739 -13.789)" fill="#2553ff" stroke="#2c58f5" stroke-width="0.5"/><path d="M25.256,89.247h2.531v1.688H25.256Z" transform="translate(-3.677 -13.789)" fill="#2553ff" stroke="#2c58f5" stroke-width="0.5"/><path d="M31.256,89.247h2.531v1.688H31.256Z" transform="translate(-4.614 -13.789)" fill="#2553ff" stroke="#2c58f5" stroke-width="0.5"/><path d="M19.256,70.045h2.531v1.688H19.256Z" transform="translate(-2.739 -10.788)" fill="#2553ff" stroke="#2c58f5" stroke-width="0.5"/><path d="M49.256,70.045h2.531v1.688H49.256Z" transform="translate(-7.427 -10.788)" fill="#2553ff" stroke="#2c58f5" stroke-width="0.5"/><path d="M43.256,70.045h2.531v1.688H43.256Z" transform="translate(-6.489 -10.788)" fill="#2553ff" stroke="#2c58f5" stroke-width="0.5"/><path d="M13.256,70.045h2.531v1.688H13.256Z" transform="translate(-1.802 -10.788)" fill="#2553ff" stroke="#2c58f5" stroke-width="0.5"/><path d="M31.256,70.045h2.531v1.688H31.256Z" transform="translate(-4.614 -10.788)" fill="#2553ff" stroke="#2c58f5" stroke-width="0.5"/><path d="M61.256,70.045h2.531v1.688H61.256Z" transform="translate(-9.302 -10.788)" fill="#2553ff" stroke="#2c58f5" stroke-width="0.5"/><path d="M55.256,70.045h2.531v1.688H55.256Z" transform="translate(-8.364 -10.788)" fill="#2553ff" stroke="#2c58f5" stroke-width="0.5"/><path d="M25.256,70.045h2.531v1.688H25.256Z" transform="translate(-3.677 -10.788)" fill="#2553ff" stroke="#2c58f5" stroke-width="0.5"/><path d="M37.256,70.045h2.531v1.688H37.256Z" transform="translate(-5.552 -10.788)" fill="#2553ff" stroke="#2c58f5" stroke-width="0.5"/><path d="M74.342,19.4H86.968v1.688H74.342Z" transform="translate(-11.346 -2.875)" fill="#2553ff" stroke="#2c58f5" stroke-width="0.5"/></g></g></svg>