<svg xmlns="http://www.w3.org/2000/svg" width="71.781" height="81.427" viewBox="0 0 71.781 81.427"><g transform="translate(-930 -1258.373)"><circle cx="23" cy="23" r="23" transform="translate(943 1276)" fill="#b0ddff"/><path d="M-2577,1135a22.858,22.858,0,0,1-8.953-1.807,22.925,22.925,0,0,1-7.311-4.929,22.929,22.929,0,0,1-4.929-7.311A22.858,22.858,0,0,1-2600,1112a22.859,22.859,0,0,1,1.807-8.953,22.925,22.925,0,0,1,4.929-7.311,22.924,22.924,0,0,1,7.311-4.929A22.858,22.858,0,0,1-2577,1089a23.215,23.215,0,0,1,4,.347,23.026,23.026,0,0,0-13.549,7.785,22.922,22.922,0,0,0-4,6.812A22.915,22.915,0,0,0-2592,1112a22.911,22.911,0,0,0,1.451,8.056,22.92,22.92,0,0,0,4,6.812,23.029,23.029,0,0,0,13.549,7.785A23.214,23.214,0,0,1-2577,1135Z" transform="translate(3543 187)" fill="#e6f3ff"/><g transform="translate(899.672 1258.373)"><path d="M263.2,208.728a1.2,1.2,0,0,0-1.2-1.2H257.3a1.2,1.2,0,0,0,0,2.39h3.447c-.449,4.015-3.171,5.476-5.531,5.476a6.671,6.671,0,1,1,3.729-12.2,1.2,1.2,0,1,0,1.338-1.981,9.062,9.062,0,1,0-5.067,16.574C259.921,217.789,263.2,214.063,263.2,208.728Z" transform="translate(-181.505 -167.912)" fill="#2553ff"/><path d="M164.589,205.92a9.621,9.621,0,0,0-1.722.135l.663-4h4.808a1.2,1.2,0,1,0,0-2.39h-5.821a1.2,1.2,0,0,0-1.179,1l-1.153,6.96a1.2,1.2,0,0,0,1.725,1.258c.011-.006.062-.031.146-.069a5.256,5.256,0,0,1,2.534-.5,3.545,3.545,0,0,1,3.539,3.734,3.544,3.544,0,0,1-7.048.306,3.6,3.6,0,0,1-.034-.5,1.2,1.2,0,1,0-2.39,0,6.019,6.019,0,0,0,.057.826,5.934,5.934,0,0,0,5.877,5.107h.121a5.951,5.951,0,0,0,5.8-5.618,5.887,5.887,0,0,0-1.622-4.4,5.961,5.961,0,0,0-4.3-1.849Z" transform="translate(-107.918 -167.911)" fill="#2553ff"/><path d="M99.69,54.481h0a4.882,4.882,0,0,0-.907-.408V27.354a4.848,4.848,0,1,0-3.948-8.8h0a4.844,4.844,0,0,0-.825.6L70.961,5.85a4.847,4.847,0,1,0-9.485,0L38.427,19.158a4.847,4.847,0,0,0-.825-.6h0a4.847,4.847,0,1,0-3.947,8.8V54.072a4.9,4.9,0,0,0-.908.408,4.847,4.847,0,1,0,5.681,7.789L61.476,75.577a4.847,4.847,0,1,0,9.485,0L94.009,62.27a4.847,4.847,0,1,0,5.681-7.789Zm-5.9.807-6.347-3.672a23.945,23.945,0,0,0-.01-21.8l6.356-3.678a4.818,4.818,0,0,0,2.219,1.3c.126.034.253.06.38.084V53.909c-.127.023-.254.051-.38.084A4.816,4.816,0,0,0,93.793,55.288Zm2.238-34.664a2.457,2.457,0,1,1-.9,3.357,2.46,2.46,0,0,1,.9-3.357ZM66.218,2.39a2.457,2.457,0,1,1-2.457,2.457A2.46,2.46,0,0,1,66.218,2.39Zm-1.2,7.155V16.9A23.857,23.857,0,0,0,46.2,27.75l-6.36-3.68a4.853,4.853,0,0,0-.091-2.914L62.538,8a4.854,4.854,0,0,0,2.485,1.548ZM33.047,21.52a2.459,2.459,0,0,1,3.358-.9h0a2.457,2.457,0,1,1-3.357.9ZM36.4,60.8a2.457,2.457,0,1,1-2.461-4.254h0a2.443,2.443,0,0,1,1.226-.331,2.472,2.472,0,0,1,.638.084,2.457,2.457,0,0,1,.6,4.5Zm3.343-.531a4.853,4.853,0,0,0,.091-2.914l6.36-3.68A23.864,23.864,0,0,0,65.024,64.531v7.351a4.854,4.854,0,0,0-2.485,1.548Zm26.47,18.765a2.457,2.457,0,1,1,2.457-2.457A2.46,2.46,0,0,1,66.218,79.037Zm1.2-7.155V64.531A23.583,23.583,0,0,0,76.43,62.27,1.2,1.2,0,0,0,75.4,60.111a21.465,21.465,0,0,1-30.535-17.22,1.2,1.2,0,1,0-2.378.239A23.732,23.732,0,0,0,45,51.61l-6.357,3.678a4.818,4.818,0,0,0-2.219-1.3c-.126-.034-.253-.061-.379-.084V27.518c.127-.023.254-.05.379-.084a4.817,4.817,0,0,0,2.219-1.3L45,29.817A23.731,23.731,0,0,0,42.512,38.1a1.2,1.2,0,0,0,1.058,1.318,1.222,1.222,0,0,0,.131.007,1.2,1.2,0,0,0,1.187-1.066A21.469,21.469,0,0,1,75.945,21.582a1.2,1.2,0,0,0,1.085-2.13A23.541,23.541,0,0,0,67.413,16.9V9.545A4.853,4.853,0,0,0,69.9,8l22.79,13.158a4.853,4.853,0,0,0-.091,2.915l-6.358,3.679a23.931,23.931,0,0,0-4.851-5.436,1.2,1.2,0,0,0-1.521,1.843,21.46,21.46,0,0,1-.6,33.594,1.2,1.2,0,1,0,1.455,1.9,23.993,23.993,0,0,0,5.526-5.961L92.6,57.358a4.854,4.854,0,0,0,.092,2.915L69.9,73.43a4.856,4.856,0,0,0-2.486-1.549ZM99.389,59.907a2.456,2.456,0,1,1-.9-3.357h0a2.46,2.46,0,0,1,.9,3.357Z" fill="#2553ff"/></g></g></svg>