<svg xmlns="http://www.w3.org/2000/svg" width="82.969" height="79.056" viewBox="0 0 82.969 79.056"><g transform="translate(-532 -958.059)"><path d="M3148.2-108.326h50.329l6.261,2.635L3208-99.31v22.52l-3.208,7.057-6.261,2.572h-14.867l-6.69-2.572-3.628-1.986-5.808,3.082-5.448,1.476H3148.2l-7.346-4.558-2.238-6.388v-21.2l2.238-5.166Z" transform="translate(-2600 1089)" fill="#b0ddff"/><path d="M3150.931-108.326v41.592l-4.133-.828-6.167-4.07-2.043-6.653v-20.49l3.039-5.478,5.172-4.073Z" transform="translate(-2600 1089)" fill="#e6f3ff"/><g transform="translate(530 956.23)"><path d="M43.554,9.216a1.383,1.383,0,0,1-.929-2.4L43,6.472a19.875,19.875,0,0,1,25.485-.04l.415.378a1.383,1.383,0,0,1-1.861,2.044l-.371-.337a17.087,17.087,0,0,0-21.848.04l-.326.3A1.383,1.383,0,0,1,43.554,9.216Z" transform="translate(15.379 0)" fill="#2553ff"/><path d="M82.2,28.063H79.356A12.226,12.226,0,0,0,79,26.228c-.011-.032-.012-.066-.025-.1A12.459,12.459,0,0,0,66.992,17H19.977A12.459,12.459,0,0,0,7.993,26.127c-.012.032-.014.066-.025.1a12.226,12.226,0,0,0-.355,1.838H6.148A4.148,4.148,0,0,0,2,32.211V43.273a4.148,4.148,0,0,0,4.148,4.148H7.531V48.8A12.461,12.461,0,0,0,19.977,61.25H31.841a12.531,12.531,0,0,0,6.914-2.087L41.19,57.53a4.107,4.107,0,0,1,4.6,0l2.439,1.646a12.516,12.516,0,0,0,6.9,2.074H66.992A12.461,12.461,0,0,0,79.438,48.8V47.422H82.2a2.766,2.766,0,0,0,2.766-2.766V30.828A2.766,2.766,0,0,0,82.2,28.063ZM10.3,47.422s.046-18.906.111-19.359H76.561c.065.454.111,19.359.111,19.359Zm9.68-27.656H66.992A9.68,9.68,0,0,1,75.725,25.3H11.244a9.68,9.68,0,0,1,8.732-5.531ZM6.148,44.656a1.383,1.383,0,0,1-1.383-1.383V32.211a1.383,1.383,0,0,1,1.383-1.383H7.531V44.656ZM66.992,58.484H55.128a9.749,9.749,0,0,1-5.369-1.618l-2.434-1.632a6.862,6.862,0,0,0-7.679,0L37.22,56.86a9.754,9.754,0,0,1-5.379,1.625H19.977a9.68,9.68,0,0,1-9.569-8.3H76.561a9.68,9.68,0,0,1-9.569,8.3ZM79.438,44.656V30.828H82.2V44.656Z" transform="translate(0 5.807)" fill="#2553ff"/><path d="M21.871,17.706a28.348,28.348,0,0,1,14.817-3.94A28.348,28.348,0,0,1,51.5,17.706a1.384,1.384,0,0,0,1.463-2.351A31.144,31.144,0,0,0,36.688,11a31.144,31.144,0,0,0-16.28,4.357,1.384,1.384,0,1,0,1.463,2.351Z" transform="translate(6.797 3.51)" fill="#2553ff"/><path d="M51.508,50.21a28.32,28.32,0,0,1-14.82,3.94,28.32,28.32,0,0,1-14.82-3.94,1.384,1.384,0,1,0-1.463,2.351,31.113,31.113,0,0,0,16.283,4.354,31.113,31.113,0,0,0,16.283-4.357,1.384,1.384,0,0,0-1.463-2.351Z" transform="translate(6.796 18.439)" fill="#2553ff"/><path d="M42.977,27h-8.3a1.383,1.383,0,0,0-1.3.9l-2.853,7.61L27.679,27.9a1.383,1.383,0,0,0-2.591.968l4.148,11.063a1.383,1.383,0,0,0,2.591,0l3.811-10.166h5.956v2.766H37.446a1.383,1.383,0,0,0-1.106,2.213l4.148,5.531A1.383,1.383,0,1,0,42.7,38.616L40.211,35.3h2.766a1.383,1.383,0,0,0,1.383-1.383V28.383A1.383,1.383,0,0,0,42.977,27Z" transform="translate(8.805 9.636)" fill="#2553ff"/><path d="M48.053,11.866a1.383,1.383,0,0,0,1.77,2.124,6.046,6.046,0,0,1,7.744,0,1.383,1.383,0,1,0,1.77-2.124,8.8,8.8,0,0,0-11.284,0Z" transform="translate(17.449 3.059)" fill="#2553ff"/><path d="M61.68,55.148H58.914V52.383a1.383,1.383,0,0,0-2.766,0v2.766H53.383a1.383,1.383,0,1,0,0,2.766h2.766V60.68a1.383,1.383,0,0,0,2.766,0V57.914H61.68a1.383,1.383,0,0,0,0-2.766Z" transform="translate(19.141 18.823)" fill="#2553ff"/><path d="M3.383,14.914H6.148V17.68a1.383,1.383,0,1,0,2.766,0V14.914H11.68a1.383,1.383,0,1,0,0-2.766H8.914V9.383a1.383,1.383,0,1,0-2.766,0v2.766H3.383a1.383,1.383,0,1,0,0,2.766Z" transform="translate(0 2.362)" fill="#2553ff"/><path d="M54.531,27H50.383a1.383,1.383,0,1,0,0,2.766h2.766v2.766a1.383,1.383,0,1,0,2.766,0V28.383A1.383,1.383,0,0,0,54.531,27Z" transform="translate(17.992 9.636)" fill="#2553ff"/><path d="M46.382,11.594a1.383,1.383,0,0,0,.886-.321,11.537,11.537,0,0,1,14.818,0,1.383,1.383,0,0,0,1.865-2.038h0a14.349,14.349,0,0,0-18.546,0h0a1.383,1.383,0,0,0,.976,2.359Z" transform="translate(16.462 1.534)" fill="#2553ff"/></g></g></svg>