<svg xmlns="http://www.w3.org/2000/svg" width="79.09" height="79.443" viewBox="0 0 79.09 79.443"><g transform="translate(-535.616 -1260.557)"><path d="M3169.237,172.925l6.352,2.569,10.089,9.618v5.476l3.349,1.518v3.771l-1.833,2.064-1.516,7.974-6.048,9.467-7.473,3.415H3164.6l-7.075-5.146-5.922-7.736v-7.974l-2.656-2.064v-2.171l2.656-3.118,2-7.754,7.159-6.712,5.022-1.969,2.8-1.228Z" transform="translate(-2600 1089)" fill="#b0ddff"/><path d="M3163.322,174.668v43.147l-6.049-4.625-4.21-5.651-1.552-7.523v-2.007l-3.176-3.413v-2.507l3.176-1.323,2.147-8.433,5.565-4.489Z" transform="translate(-2600 1089)" fill="#e6f3ff"/><g transform="translate(534.47 1260.557)"><path d="M395.045,390.212a1.54,1.54,0,1,0-1.87,2.446l2.631,2.011a1.539,1.539,0,0,0,2.076-.19l5.029-5.552a1.539,1.539,0,1,0-2.282-2.067l-4.078,4.5Z" transform="translate(-331.165 -326.876)" fill="#2553ff"/><path d="M80.225,55.118a1.539,1.539,0,0,0-1.4-1.5c-3.662-.32-8.169-2.78-11.482-6.267a1.54,1.54,0,0,0-1.116-.479h0a1.54,1.54,0,0,0-1.115.478,23.31,23.31,0,0,1-4.994,3.969,27.794,27.794,0,0,0-11.481-7.678c-.039-.016-.079-.03-.12-.043q-.527-.187-1.066-.356c3.813-3.8,6.378-8.8,6.378-13.283V27.542a5.091,5.091,0,0,0-.217-9.431A18.992,18.992,0,0,0,39.969,1.835,2.313,2.313,0,0,0,37.709,0H32.131A2.311,2.311,0,0,0,29.9,1.725,19.04,19.04,0,0,0,15.873,18.112a5.09,5.09,0,0,0-.214,9.431v2.418c0,4.479,2.565,9.478,6.378,13.284q-.523.164-1.035.345a1.531,1.531,0,0,0-.2.071,27.786,27.786,0,0,0-12.559,9,35.887,35.887,0,0,0-6.7,14.691c-.454,2.054-.8,4.634.6,6.378,1.368,1.7,3.815,1.921,5.795,1.921h10.07a1.539,1.539,0,1,0,0-3.079H7.943c-1.842,0-2.984-.259-3.394-.771-.435-.542-.435-1.815,0-3.784,1.6-7.207,5.512-16.025,14.938-20.478-.29,5.2,2.528,8.6,4.319,10.758a1.54,1.54,0,0,0,2.258.121l8.676-8.438,8.68,8.438a1.54,1.54,0,0,0,1.073.436l.083,0a1.539,1.539,0,0,0,1.1-.555c1.789-2.159,4.6-5.561,4.315-10.751a24.542,24.542,0,0,1,7.228,5.193,13.313,13.313,0,0,1-3.6.886,1.539,1.539,0,0,0-1.4,1.5A25.831,25.831,0,0,0,55.49,69.18c.021.039.86,1.543,2.167,3.387H31.95a1.539,1.539,0,0,0,0,3.079H60.1c1.856,2.051,4.045,3.8,6.121,3.8,5.008,0,10.677-10.16,10.732-10.262a25.914,25.914,0,0,0,3.271-14.063Zm-29.76-37.34H41.989c-1.6-4.183-1.9-7.633-1.959-12.7a15.917,15.917,0,0,1,10.435,12.7ZM32.9,3.079H36.94c.01,5.959.161,9.995,1.774,14.7H31.129C32.739,13.074,32.89,9.037,32.9,3.079ZM29.811,4.961c-.051,5.13-.345,8.6-1.956,12.818H19.018A16.124,16.124,0,0,1,29.811,4.961Zm-12.128,15.9h10.3c.091.074.178.083.252,0H51.8a2.013,2.013,0,0,1,0,4.026H17.683a2.013,2.013,0,1,1,0-4.026Zm1.055,9.1v-2H50.745v2c0,5.869-5.686,13.128-12.169,15.535a9.743,9.743,0,0,1-7.693,0c-6.47-2.416-12.145-9.674-12.145-15.531Zm6.389,25.067a10.474,10.474,0,0,1-2.39-8.775q1.019-.329,2.108-.6a20.694,20.694,0,0,0,4.962,2.721c.559.208,1.1.379,1.622.521Zm19.227,0L38.048,48.9c.519-.141,1.05-.31,1.6-.514a20.679,20.679,0,0,0,4.987-2.726q1.078.262,2.107.6a10.48,10.48,0,0,1-2.387,8.776Zm29.886,12.7c-1.821,3.4-6.084,8.638-8.018,8.638s-6.2-5.24-8.019-8.64a22.238,22.238,0,0,1-2.915-11.232,19.327,19.327,0,0,0,5.09-1.8,1.536,1.536,0,0,0,.175-.091,25.941,25.941,0,0,0,5.668-4.021,23.157,23.157,0,0,0,10.933,5.913,22.311,22.311,0,0,1-2.914,11.234Z" fill="#2553ff"/><path d="M147.513,471.373a1.539,1.539,0,1,0,0,3.079h.009a1.539,1.539,0,0,0-.009-3.079Z" transform="translate(-122.532 -398.806)" fill="#2553ff"/></g></g></svg>