<svg xmlns="http://www.w3.org/2000/svg" width="77.814" height="77.823" viewBox="0 0 77.814 77.823"><g transform="translate(-930 -959.177)"><circle cx="37" cy="37" r="37" transform="translate(932 961)" fill="#b0ddff"/><path d="M-2563,1163a36.769,36.769,0,0,1-14.4-2.908,36.878,36.878,0,0,1-11.761-7.929,36.883,36.883,0,0,1-7.929-11.761A36.772,36.772,0,0,1-2600,1126a36.772,36.772,0,0,1,2.907-14.4,36.881,36.881,0,0,1,7.929-11.761,36.878,36.878,0,0,1,11.761-7.929A36.769,36.769,0,0,1-2563,1089a37.288,37.288,0,0,1,7.5.761,36.69,36.69,0,0,0-11.713,4.613,37.084,37.084,0,0,0-9.351,8.108,36.869,36.869,0,0,0-6.194,10.807A36.893,36.893,0,0,0-2585,1126a36.892,36.892,0,0,0,2.241,12.712,36.869,36.869,0,0,0,6.194,10.807,37.087,37.087,0,0,0,9.351,8.108,36.69,36.69,0,0,0,11.713,4.612A37.274,37.274,0,0,1-2563,1163Z" transform="translate(3532 -128)" fill="#e6f3ff"/><g transform="translate(928 957.18)"><path d="M42.828,62.282H32.453a1.3,1.3,0,0,1-1.3-1.3V54.6c-.3-.117-.612-.243-.922-.381l-4.516,4.516a1.3,1.3,0,0,1-1.834,0L16.544,51.4a1.3,1.3,0,0,1,0-1.834l4.516-4.517c-.139-.31-.259-.616-.381-.921H14.3a1.3,1.3,0,0,1-1.3-1.3V32.453a1.3,1.3,0,0,1,1.3-1.3h6.382c.117-.3.243-.611.381-.921l-4.516-4.517a1.3,1.3,0,0,1,0-1.834l7.34-7.34a1.334,1.334,0,0,1,1.834,0l4.516,4.516c.31-.139.617-.259.922-.381V14.3a1.3,1.3,0,0,1,1.3-1.3H42.828a1.3,1.3,0,0,1,1.3,1.3v6.382c.3.117.612.243.922.381l4.516-4.516a1.3,1.3,0,0,1,1.834,0l7.341,7.341a1.3,1.3,0,0,1,0,1.834l-4.516,4.517c.139.31.259.616.381.921h6.382a1.3,1.3,0,0,1,1.3,1.3V42.828a1.3,1.3,0,0,1-1.3,1.3H54.6c-.117.3-.243.611-.381.921l4.516,4.517a1.3,1.3,0,0,1,0,1.834l-7.34,7.34a1.335,1.335,0,0,1-1.834,0l-4.516-4.516c-.31.139-.617.259-.922.381v6.382A1.3,1.3,0,0,1,42.828,62.282ZM33.75,59.688h7.781v-6a1.3,1.3,0,0,1,.908-1.236,15.981,15.981,0,0,0,2.3-.948,1.3,1.3,0,0,1,1.5.243l4.241,4.245,5.507-5.507-4.245-4.245a1.3,1.3,0,0,1-.243-1.5,15.988,15.988,0,0,0,.948-2.3,1.3,1.3,0,0,1,1.236-.908h6V33.75h-6a1.3,1.3,0,0,1-1.236-.908,15.988,15.988,0,0,0-.948-2.3,1.3,1.3,0,0,1,.243-1.5L55.987,24.8,50.48,19.3,46.235,23.54a1.3,1.3,0,0,1-1.5.243,15.982,15.982,0,0,0-2.3-.948,1.3,1.3,0,0,1-.908-1.236v-6H33.75v6a1.3,1.3,0,0,1-.908,1.236,15.981,15.981,0,0,0-2.3.948,1.3,1.3,0,0,1-1.5-.243L24.8,19.3,19.3,24.8l4.245,4.245a1.3,1.3,0,0,1,.243,1.5,15.987,15.987,0,0,0-.948,2.3,1.3,1.3,0,0,1-1.236.908h-6v7.781h6a1.3,1.3,0,0,1,1.236.908,15.988,15.988,0,0,0,.948,2.3,1.3,1.3,0,0,1-.243,1.5L19.3,50.48,24.8,55.987l4.245-4.245a1.3,1.3,0,0,1,1.5-.243,15.981,15.981,0,0,0,2.3.948,1.3,1.3,0,0,1,.908,1.236Z" transform="translate(3.266 3.267)" fill="#2553ff"/><path d="M34.375,44.75A10.375,10.375,0,1,1,44.75,34.375,10.375,10.375,0,0,1,34.375,44.75Zm0-18.156a7.781,7.781,0,1,0,7.781,7.781,7.781,7.781,0,0,0-7.781-7.781Z" transform="translate(6.532 6.533)" fill="#2553ff"/><path d="M9.3,40.422a1.3,1.3,0,0,1-1.3-1.3A31.162,31.162,0,0,1,39.125,8a1.3,1.3,0,0,1,0,2.594A28.564,28.564,0,0,0,10.594,39.125,1.3,1.3,0,0,1,9.3,40.422Z" transform="translate(1.781 1.782)" fill="#2553ff"/><path d="M32.3,63.422a1.3,1.3,0,1,1,0-2.594A28.564,28.564,0,0,0,60.828,32.3a1.3,1.3,0,0,1,2.594,0A31.162,31.162,0,0,1,32.3,63.422Z" transform="translate(8.61 8.611)" fill="#2553ff"/><path d="M66.334,12.594h4.732a1.3,1.3,0,1,0,0-2.594H63.285a1.3,1.3,0,0,0-1.3,1.3v7.781a1.3,1.3,0,0,0,2.594,0V14.522a35.938,35.938,0,0,1,9.078,24.009A36.313,36.313,0,0,1,16.079,67.971a1.3,1.3,0,1,0-1.519,2.1,38.907,38.907,0,0,0,61.694-31.54,38.5,38.5,0,0,0-9.92-25.938Z" transform="translate(3.559 2.376)" fill="#2553ff"/><path d="M63.713,9.382A38.907,38.907,0,0,0,2,40.908a38.5,38.5,0,0,0,9.92,25.938H7.188a1.3,1.3,0,0,0,0,2.594h7.781a1.3,1.3,0,0,0,1.3-1.3V60.361a1.3,1.3,0,1,0-2.594,0v4.556A35.938,35.938,0,0,1,4.594,40.908a36.313,36.313,0,0,1,57.6-29.425,1.3,1.3,0,1,0,1.523-2.1Z" transform="translate(0 0)" fill="#2553ff"/><path d="M31,17h2.594v2.594H31Z" transform="translate(8.61 4.454)" fill="#2553ff"/><path d="M0,0H2.594V2.594H0Z" transform="translate(26.23 28.07) rotate(-45)" fill="#2553ff"/><path d="M17,31h2.594v2.594H17Z" transform="translate(4.453 8.611)" fill="#2553ff"/><path d="M0,0H2.594V2.594H0Z" transform="translate(26.227 53.744) rotate(-45)" fill="#2553ff"/><path d="M31,45h2.594v2.594H31Z" transform="translate(8.61 12.767)" fill="#2553ff"/><path d="M0,0H2.594V2.594H0Z" transform="translate(51.901 53.746) rotate(-45)" fill="#2553ff"/><path d="M45,31h2.594v2.594H45Z" transform="translate(12.766 8.611)" fill="#2553ff"/><path d="M0,0H2.594V2.594H0Z" transform="translate(51.904 28.071) rotate(-45)" fill="#2553ff"/></g></g></svg>