<svg xmlns="http://www.w3.org/2000/svg" width="98.796" height="78.94" viewBox="0 0 98.796 78.94"><g transform="translate(-930 -958.06)"><path d="M3541.965,4332.426h75.861v28.907l-5.3,16.856-12.99,12.861-14.487,5.218-16.053-1.343-16.616-9.4-8.143-14.435-2.267-9.755Z" transform="translate(-2600 -3361)" fill="#b0ddff"/><path d="M3565.3,4331.634v61.827l-6.966-2.628-9.5-9.975-7.01-15.221v-34Z" transform="translate(-2600 -3361)" fill="#e6f3ff"/><path d="M91.681,51.45H7.117a7.116,7.116,0,0,0,0,14.232H9.929V90.92A39.424,39.424,0,0,0,77.276,118.8,39.189,39.189,0,0,0,88.869,90.92V65.682h2.812a7.116,7.116,0,1,0,0-14.232ZM49.4,127.3A36.424,36.424,0,0,1,13.016,90.92V73.3H85.782V90.92A36.424,36.424,0,0,1,49.4,127.3ZM85.782,70.211H13.016V65.682H85.782Zm5.9-7.616H7.117a4.029,4.029,0,0,1,0-8.057H91.681a4.029,4.029,0,1,1,0,8.057ZM49.4,81.324a20.506,20.506,0,1,0,20.506,20.506A20.53,20.53,0,0,0,49.4,81.324Zm0,37.926a17.419,17.419,0,1,1,17.419-17.419A17.439,17.439,0,0,1,49.4,119.25Zm0-23.759a9.558,9.558,0,1,0,9.558,9.559A9.569,9.569,0,0,0,49.4,95.491Zm0,16.03a6.471,6.471,0,1,1,6.471-6.471A6.478,6.478,0,0,1,49.4,111.521ZM23.406,77.007a6.476,6.476,0,1,0,6.476,6.476A6.483,6.483,0,0,0,23.406,77.007Zm0,9.865a3.389,3.389,0,1,1,3.389-3.389A3.393,3.393,0,0,1,23.406,86.871Z" transform="translate(929.999 906.61)" fill="#2553ff"/></g></svg>