<svg xmlns="http://www.w3.org/2000/svg" width="85" height="81.427" viewBox="0 0 85 81.427"><g transform="translate(-930 -1260.372)"><circle cx="40" cy="40" r="40" transform="translate(935 1261)" fill="#b0ddff"/><path d="M-2560-3281a39.747,39.747,0,0,1-15.57-3.144,39.864,39.864,0,0,1-12.715-8.573,39.866,39.866,0,0,1-8.573-12.714A39.749,39.749,0,0,1-2600-3321a39.747,39.747,0,0,1,3.144-15.57,39.86,39.86,0,0,1,8.573-12.714,39.869,39.869,0,0,1,12.715-8.572A39.752,39.752,0,0,1-2560-3361a40.4,40.4,0,0,1,6.5.526,40.015,40.015,0,0,0-23.875,13.447,39.855,39.855,0,0,0-7.062,11.91A39.849,39.849,0,0,0-2587-3321a39.849,39.849,0,0,0,2.563,14.118,39.852,39.852,0,0,0,7.062,11.91,40.016,40.016,0,0,0,23.875,13.447A40.415,40.415,0,0,1-2560-3281Z" transform="translate(3535 4622)" fill="#e6f3ff"/><path d="M81.535,67.059A1.227,1.227,0,0,0,81.6,66.9a41.092,41.092,0,0,0-2.4-36.686A5.037,5.037,0,0,0,73.209,22.4c-.87-.889-1.783-1.741-2.729-2.546,1.858-5.05-4.342-9.192-8.2-5.419a40.583,40.583,0,0,0-36.34.192A5.029,5.029,0,0,0,17.7,20.2a41,41,0,0,0-3.881,3.879c-1.037,1.187.842,2.815,1.872,1.636A38.517,38.517,0,0,1,19.3,22.109a5.065,5.065,0,0,0,7.417-1.848,54.113,54.113,0,0,1,12.74,5.514,5.118,5.118,0,0,0,.375,3.657,57.191,57.191,0,0,0-8.8,9.551,5.077,5.077,0,0,0-6.008,2.725,77.533,77.533,0,0,0-15.6,1.677,5.068,5.068,0,0,0-1.977-2.017A38.058,38.058,0,0,1,12.006,30.7a1.244,1.244,0,0,0-2.111-1.313,40.536,40.536,0,0,0-4.849,11.34A5.046,5.046,0,0,0,3.76,50.65,41.062,41.062,0,0,0,17.536,81.539a5.031,5.031,0,0,0,8.048,5.545,40.572,40.572,0,0,0,37.422,0,5.029,5.029,0,0,0,8.145-5.629,40.705,40.705,0,0,0,10.385-14.4Zm-1.566-2.78a77.981,77.981,0,0,0-11.227-9.242,5.094,5.094,0,0,0-1.259-5.121,77.679,77.679,0,0,0,7.9-17.944,4.971,4.971,0,0,0,1.772-.321A38.6,38.6,0,0,1,79.969,64.279Zm-57.2,14.052A54.527,54.527,0,0,1,28.1,48.624a5.077,5.077,0,0,0,6.421-3.873A74.422,74.422,0,0,1,59.1,52.243a5.108,5.108,0,0,0,.823,4.25A75.038,75.038,0,0,1,26.469,80.651a5.024,5.024,0,0,0-3.7-2.32ZM61.423,53.5a2.555,2.555,0,1,1,2.536,2.555A2.548,2.548,0,0,1,61.423,53.5Zm16.51-26.571A2.555,2.555,0,1,1,75.4,24.377a2.548,2.548,0,0,1,2.536,2.555Zm-6.624-2.922a5.1,5.1,0,0,0,1.669,7.338,75.2,75.2,0,0,1-7.639,17.31A5.1,5.1,0,0,0,63.2,48.52a57.656,57.656,0,0,0-14.44-19.088,5.112,5.112,0,0,0,.375-3.657A54.11,54.11,0,0,1,61.383,20.4a5.028,5.028,0,0,0,7.642,1.473q1.183,1.018,2.284,2.132ZM41.761,27.124A2.554,2.554,0,1,1,44.3,29.678a2.548,2.548,0,0,1-2.536-2.554ZM65.8,15.46a2.536,2.536,0,1,1-2.536,2.555A2.548,2.548,0,0,1,65.8,15.46ZM22.225,20.568a2.536,2.536,0,1,1,2.536-2.555A2.548,2.548,0,0,1,22.225,20.568Zm5.017-2.745a5.045,5.045,0,0,0-.139-1.005,38.089,38.089,0,0,1,33.89-.25,5.039,5.039,0,0,0-.211,1.421A56.6,56.6,0,0,0,47.9,23.617a5.062,5.062,0,0,0-7.2,0,56.607,56.607,0,0,0-13.452-5.793ZM41.48,31.295a5.04,5.04,0,0,0,5.633,0,55.156,55.156,0,0,1,13.8,18.2,5.077,5.077,0,0,0-.619.563,76.9,76.9,0,0,0-25.936-7.836,5.048,5.048,0,0,0-1.188-1.948,54.684,54.684,0,0,1,8.31-8.983Zm-11.89,9.96a2.536,2.536,0,1,1-2.536,2.555A2.548,2.548,0,0,1,29.59,41.255ZM2.464,45.766A2.554,2.554,0,1,1,5,48.32a2.548,2.548,0,0,1-2.536-2.554Zm3.782,4.883A4.936,4.936,0,0,0,10.022,45.8a140.17,140.17,0,0,1,14.563-1.6,5.031,5.031,0,0,0,1.395,3.111,57.007,57.007,0,0,0-5.673,31.377,5.029,5.029,0,0,0-1.324.813C10.872,72.232,6.246,60.06,6.246,50.649ZM22.225,85.9a2.555,2.555,0,0,1,0-5.109,2.593,2.593,0,0,1,2.536,2.554A2.548,2.548,0,0,1,22.225,85.9ZM44.3,89.19A37.962,37.962,0,0,1,26.966,85a5.17,5.17,0,0,0,.27-1.985A77.515,77.515,0,0,0,61.84,58.071a5.012,5.012,0,0,0,2.384.465,54.888,54.888,0,0,1,1.3,6.232,1.243,1.243,0,0,0,2.459-.364A57.375,57.375,0,0,0,66.6,57.788a5.047,5.047,0,0,0,.825-.642,75.47,75.47,0,0,1,11.519,9.626,38.227,38.227,0,0,1-9.353,12.746,5.011,5.011,0,0,0-1.316-.709,57.774,57.774,0,0,0,.315-6.952A1.243,1.243,0,0,0,66.1,71.9a55.283,55.283,0,0,1-.3,6.683,5.1,5.1,0,0,0-4.041,6.355A37.956,37.956,0,0,1,44.3,89.19Zm22.29-3.078a2.536,2.536,0,1,1,2.536-2.555A2.548,2.548,0,0,1,66.586,86.112Z" transform="translate(929.998 1250.142)" fill="#2553ff"/></g></svg>