<svg xmlns="http://www.w3.org/2000/svg" width="79.499" height="79.498" viewBox="0 0 79.499 79.498"><g transform="translate(-534 -958.06)"><g transform="translate(534 958.06)"><path d="M78.413,22.368H70.376L28.653,7.158V1.087A1.088,1.088,0,0,0,27.566,0H21.2a1.088,1.088,0,0,0-1.087,1.087V6.832H11.88a1.087,1.087,0,0,0-.849.408L4.815,15.008a1.088,1.088,0,0,0-.238.679v6.681H1.087A1.088,1.088,0,0,0,0,23.455v6.366a1.088,1.088,0,0,0,1.087,1.087H14.606V70.482H7.3a1.087,1.087,0,0,0-1.087,1.087v6.843A1.088,1.088,0,0,0,7.3,79.5h34.16a1.088,1.088,0,0,0,1.087-1.087V71.569a1.087,1.087,0,0,0-1.087-1.087h-7.3V30.908H62.808V47.98A1.088,1.088,0,0,0,63.9,49.067h3.338v5.9a1.088,1.088,0,0,0,1.087,1.087h.291a2.116,2.116,0,1,1,0,4.232H66.131A2.124,2.124,0,0,1,64.143,58.9l-1.325-3.609a1.088,1.088,0,1,0-2.041.75L62.1,59.649a4.305,4.305,0,0,0,4.027,2.81h2.481a4.29,4.29,0,0,0,.8-8.505V49.067h3.338a1.088,1.088,0,0,0,1.087-1.087V30.908h4.581A1.088,1.088,0,0,0,79.5,29.821V23.455a1.088,1.088,0,0,0-1.086-1.087Zm-14.385,0H28.653V9.472ZM22.287,2.174h4.192V22.368H22.287ZM6.751,16.068,12.4,9.006h7.71V22.368H6.751ZM22.644,36.779,16.78,41.474v-9.39ZM16.78,46l5.864,4.7L16.78,55.39Zm7.6,6.087,6.951,5.565-6.951,5.566-6.951-5.564Zm1.739-1.392L31.986,46V55.39ZM24.383,49.3l-6.951-5.564,6.951-5.565,6.951,5.565ZM22.644,64.61,16.78,69.3V59.915ZM24.383,66l5.594,4.479H18.789Zm1.739-1.392,5.864-4.7V69.3Zm0-27.831,5.864-4.7v9.392Zm-1.739-1.392-5.594-4.479H29.977ZM40.376,77.326H8.39V72.656H40.376ZM71.659,46.893H64.982V30.908h6.677Zm5.668-18.158H2.174V24.542H77.326Z" fill="#2553ff"/><path d="M22.054,19H20.091a1.087,1.087,0,0,0-.848.408l-3.635,4.543a1.088,1.088,0,0,0-.238.679v1.056a1.087,1.087,0,0,0,1.087,1.087h5.6a1.088,1.088,0,0,0,1.087-1.087v-5.6A1.088,1.088,0,0,0,22.054,19Zm-1.087,5.6H17.873l2.74-3.425h.355Z" transform="translate(-5.823 -7.199)" fill="#2553ff"/></g></g></svg>