<svg xmlns="http://www.w3.org/2000/svg" width="81.427" height="81.427" viewBox="0 0 81.427 81.427"><g transform="translate(-930 -1260.373)"><path d="M3567.823,6659.726l10.385.852,10.918,5.538,7.215,11.414,1.448,11.2-4.159,11.295-4.5,6.032-4.6,9.439,3.1,3.462-2.257,3.154,2.257,3.237-2.257,4.038h-2.1l-2.083,5.447-7.295,4.1-8.828-.794-3.667-1.73-3.263-6.1-2.706-.924-1.594-4.038,1.594-1.867-1.594-3.361,1.594-3.238h1.382l-2.976-8.422-5.044-6.813-5.365-12.918,2.884-13.359,9.119-11.521Z" transform="translate(-2600 -5398)" fill="#b0ddff"/><path d="M3571.614,6659.726v79.023h-7.324l-5.882-7.12v-1.649l-3.05-.7-1.336-1.772.649-2.465.687-1.073-.687-2.662-.649-3.066.649-1.2h1.748v-3.617l-2.4-6.514-7.9-9.241-2.818-13.111,4.591-12.835,9.538-9.305,10.89-2.7Z" transform="translate(-2600 -5398)" fill="#e6f3ff"/><g transform="translate(930 1260.372)"><path d="M128.182,47.375a27.991,27.991,0,1,0-40.41-.028,17.939,17.939,0,0,1,4.843,10.392,4.449,4.449,0,0,0-1.1,7.149A4.454,4.454,0,0,0,94.214,72.5a11.645,11.645,0,0,0,11.322,8.926h4.908A11.645,11.645,0,0,0,121.767,72.5a4.454,4.454,0,0,0,2.695-7.614,4.449,4.449,0,0,0-1.1-7.149,17.846,17.846,0,0,1,4.816-10.364ZM89.61,45.587a25.446,25.446,0,1,1,36.737.025,20.386,20.386,0,0,0-5.484,11.641h-11.6v-14h3.817a14.011,14.011,0,0,0,14-14V25.446a1.272,1.272,0,0,0-1.272-1.272h-5.089a14.014,14.014,0,0,0-12.723,8.168,14.014,14.014,0,0,0-12.723-8.168H90.178a1.272,1.272,0,0,0-1.272,1.272v3.817a14.011,14.011,0,0,0,14,14h3.817v14h-11.6A20.485,20.485,0,0,0,89.61,45.587Zm29.517-13.345a1.272,1.272,0,0,0-1.8-.12l-8.068,7.06V38.169a11.464,11.464,0,0,1,11.451-11.451h3.817v2.545A11.464,11.464,0,0,1,113.08,40.714h-1.7l7.63-6.676A1.272,1.272,0,0,0,119.127,32.242Zm-12.408,6.94-8.068-7.06a1.272,1.272,0,0,0-1.676,1.915l7.63,6.676h-1.7A11.464,11.464,0,0,1,91.451,29.263V26.719h3.817a11.464,11.464,0,0,1,11.451,11.451Zm3.727,39.7h-4.908a9.156,9.156,0,0,1-8.677-6.362h22.263A9.156,9.156,0,0,1,110.445,78.883Zm12.813-10.815a1.911,1.911,0,0,1-1.908,1.908H94.631a1.908,1.908,0,0,1,0-3.817H121.35A1.911,1.911,0,0,1,123.258,68.069ZM94.631,63.616a1.908,1.908,0,0,1,0-3.817H121.35a1.908,1.908,0,0,1,0,3.817Z" transform="translate(-67.277 0)" fill="#2553ff"/><path d="M8.906,169.272A1.272,1.272,0,0,0,7.634,168H1.272a1.272,1.272,0,1,0,0,2.545H7.634A1.272,1.272,0,0,0,8.906,169.272Z" transform="translate(0 -141.281)" fill="#2553ff"/><path d="M39.37,272.169l-5.509,3.181a1.272,1.272,0,0,0,1.272,2.2l5.509-3.181a1.272,1.272,0,1,0-1.272-2.2Z" transform="translate(-27.941 -228.74)" fill="#2553ff"/><path d="M33.861,46.372c5.9,3.4,5.662,3.351,6.144,3.351a1.274,1.274,0,0,0,.637-2.374l-5.509-3.181a1.272,1.272,0,0,0-1.272,2.2Z" transform="translate(-27.94 -37)" fill="#2553ff"/><path d="M463.634,168h-6.362a1.272,1.272,0,0,0,0,2.545h6.362a1.272,1.272,0,1,0,0-2.545Z" transform="translate(-383.479 -141.281)" fill="#2553ff"/><path d="M435.548,275.349l-5.509-3.181a1.272,1.272,0,1,0-1.272,2.2l5.509,3.181a1.272,1.272,0,1,0,1.272-2.2Z" transform="translate(-360.041 -228.739)" fill="#2553ff"/><path d="M429.41,49.724c.485,0,.254.049,6.144-3.351a1.272,1.272,0,1,0-1.272-2.2l-5.509,3.181A1.274,1.274,0,0,0,429.41,49.724Z" transform="translate(-360.047 -37)" fill="#2553ff"/></g></g></svg>