<svg xmlns="http://www.w3.org/2000/svg" width="79.443" height="79.443" viewBox="0 0 79.443 79.443"><g transform="translate(-536 -1262.557)"><path d="M3206.957,6678.792l5.869,8.061,1.12,13.125-4.25,9.789-5.113,4.215,1.616-35.19Z" transform="translate(-2600 -5398)" fill="#b0ddff"/><path d="M3139.159,6661.97h65.722l3.057,1.729v55.473l-3.057,2.186h-65.722l-2.032-2.186V6663.7Z" transform="translate(-2600 -5398)" fill="#b0ddff"/><path d="M3153.508,6661.97v58.937H3139.2l-1.834-1.457V6663.1l1.834-2.045h14.307Z" transform="translate(-2600 -5398)" fill="#e6f3ff"/><g transform="translate(535 1261.557)"><path d="M58.627,24.688H56.064v8.969H53.5V22.125H50.939V33.657H48.376V17H45.813V33.657H43.251V19.563H40.688V33.657H38.125V27.251H35.563v6.407H33V36.22H61.189V33.657H58.627Z" transform="translate(9.003 4.501)" fill="#2553ff"/><path d="M48.22,13A19.22,19.22,0,1,0,67.44,32.22,19.242,19.242,0,0,0,48.22,13Zm0,35.877A16.657,16.657,0,1,1,64.877,32.22,16.677,16.677,0,0,1,48.22,48.877Z" transform="translate(7.877 3.376)" fill="#2553ff"/><path d="M7.563,12.688h2.563a2.565,2.565,0,0,0,2.563-2.563V7.563A2.565,2.565,0,0,0,10.125,5H7.563A2.565,2.565,0,0,0,5,7.563v2.563A2.565,2.565,0,0,0,7.563,12.688Zm0-5.125h2.563v2.563H7.563Z" transform="translate(1.125 1.125)" fill="#2553ff"/><path d="M15.563,12.688h2.563a2.565,2.565,0,0,0,2.563-2.563V7.563A2.565,2.565,0,0,0,18.125,5H15.563A2.565,2.565,0,0,0,13,7.563v2.563A2.565,2.565,0,0,0,15.563,12.688Zm0-5.125h2.563v2.563H15.563Z" transform="translate(3.376 1.125)" fill="#2553ff"/><path d="M23.563,12.688h2.563a2.565,2.565,0,0,0,2.563-2.563V7.563A2.565,2.565,0,0,0,26.125,5H23.563A2.565,2.565,0,0,0,21,7.563v2.563A2.565,2.565,0,0,0,23.563,12.688Zm0-5.125h2.563v2.563H23.563Z" transform="translate(5.627 1.125)" fill="#2553ff"/><path d="M80.443,35.6a24.223,24.223,0,0,0-6.407-16.4V4.844A3.849,3.849,0,0,0,70.192,1H4.844A3.849,3.849,0,0,0,1,4.844V58.66A3.849,3.849,0,0,0,4.844,62.5H49.691V74.036a6.407,6.407,0,1,0,12.813,0V62.5h7.688a3.849,3.849,0,0,0,3.844-3.844V52A24.223,24.223,0,0,0,80.443,35.6ZM56.1,57.379A21.783,21.783,0,1,1,77.88,35.6,21.807,21.807,0,0,1,56.1,57.379ZM4.844,3.563H70.192a1.283,1.283,0,0,1,1.281,1.281v11.9a24.231,24.231,0,0,0-30.264-.365H3.563V4.844A1.283,1.283,0,0,1,4.844,3.563Zm0,56.379A1.283,1.283,0,0,1,3.563,58.66V18.939H38.392a24.278,24.278,0,0,0,11.3,40.119v.884ZM56.1,77.88a3.849,3.849,0,0,1-3.844-3.844V59.607a22.259,22.259,0,0,0,7.688,0V74.036A3.849,3.849,0,0,1,56.1,77.88ZM70.192,59.941H62.5v-.884a24.276,24.276,0,0,0,8.969-4.606V58.66A1.283,1.283,0,0,1,70.192,59.941Z" fill="#2553ff"/><path d="M5,24.688H28.064V17H5Zm2.563-5.125H25.5v2.563H7.563Z" transform="translate(1.125 4.501)" fill="#2553ff"/><path d="M5,25H28.064v2.563H5Z" transform="translate(1.125 6.752)" fill="#2553ff"/><path d="M19,29h5.125v2.563H19Z" transform="translate(5.064 7.877)" fill="#2553ff"/><path d="M5,29H20.376v2.563H5Z" transform="translate(1.125 7.877)" fill="#2553ff"/><path d="M5,33H28.064v2.563H5Z" transform="translate(1.125 9.003)" fill="#2553ff"/><path d="M5,47.251H15.251V37H5Zm2.563-7.688h5.125v5.125H7.563Z" transform="translate(1.125 10.128)" fill="#2553ff"/><path d="M15,47.251H25.251V37H15Zm2.563-7.688h5.125v5.125H17.563Z" transform="translate(3.939 10.128)" fill="#2553ff"/></g></g></svg>