<svg xmlns="http://www.w3.org/2000/svg" width="78.941" height="78.924" viewBox="0 0 78.941 78.924"><g transform="translate(-930 -959.076)"><circle cx="39" cy="39" r="39" transform="translate(930 960)" fill="#b0ddff"/><path d="M-2561-5320a38.759,38.759,0,0,1-15.181-3.065,38.854,38.854,0,0,1-12.4-8.358,38.876,38.876,0,0,1-8.358-12.4A38.761,38.761,0,0,1-2600-5359a38.754,38.754,0,0,1,3.065-15.18,38.876,38.876,0,0,1,8.358-12.4,38.868,38.868,0,0,1,12.4-8.358A38.759,38.759,0,0,1-2561-5398a39.3,39.3,0,0,1,7.5.72,38.656,38.656,0,0,0-12.5,4.788,39.069,39.069,0,0,0-9.987,8.547,38.86,38.86,0,0,0-6.621,11.45A38.875,38.875,0,0,0-2585-5359a38.875,38.875,0,0,0,2.4,13.495,38.855,38.855,0,0,0,6.621,11.45,39.082,39.082,0,0,0,9.987,8.548,38.662,38.662,0,0,0,12.5,4.788A39.353,39.353,0,0,1-2561-5320Z" transform="translate(3530 6358)" fill="#e6f3ff"/><path d="M3555.932,6431.45l23.673-36.751,3.841-1.1,21.732,33.4-15.6,8.123h-31.987Z" transform="translate(-2600 -5398)" fill="#f8f8f8"/><g transform="translate(930.003 959.07)"><g transform="translate(-0.003 0.006)"><path d="M21.643,74.161A1.316,1.316,0,1,0,22.9,71.848,36.832,36.832,0,1,1,72.966,56.809a1.316,1.316,0,1,0,2.32,1.242,39.463,39.463,0,1,0-53.643,16.11Z" transform="translate(-0.997 -0.006)" fill="#2553ff"/><path d="M69,52.216a1.315,1.315,0,0,0,1.725-.7,34.209,34.209,0,1,0-47.895,16.72,1.316,1.316,0,1,0,1.259-2.311A31.549,31.549,0,1,1,68.3,50.494a1.315,1.315,0,0,0,.7,1.722Z" transform="translate(0.264 1.249)" fill="#2553ff"/><path d="M53.148,27.523a3.946,3.946,0,0,0,3.946-3.946V20.946A3.946,3.946,0,0,0,53.148,17h-34.2A3.946,3.946,0,0,0,15,20.946v2.631a3.946,3.946,0,0,0,3.946,3.946Zm1.315-6.577v2.631a1.315,1.315,0,0,1-1.315,1.315H49.2V19.631h3.946A1.315,1.315,0,0,1,54.463,20.946ZM17.631,23.577V20.946a1.315,1.315,0,0,1,1.315-1.315h3.946v5.262H18.946A1.315,1.315,0,0,1,17.631,23.577Zm7.893-3.946h5.262v5.262H25.523Zm7.893,0h5.262v5.262H33.416Zm7.893,0H46.57v5.262H41.309Z" transform="translate(3.42 5.354)" fill="#2553ff"/><path d="M48.035,31.631H52.35a1.315,1.315,0,0,0,0-2.631H48.035a1.315,1.315,0,0,0,0,2.631Z" transform="translate(13.426 9.139)" fill="#2553ff"/><path d="M41.939,30.315A1.315,1.315,0,0,0,40.623,29H11.315a1.315,1.315,0,1,0,0,2.631H40.623A1.315,1.315,0,0,0,41.939,30.315Z" transform="translate(1.843 9.139)" fill="#2553ff"/><path d="M16.631,34A2.631,2.631,0,0,0,14,36.631v7.893a2.631,2.631,0,0,0,2.631,2.631h3.946a2.631,2.631,0,0,0,2.631-2.631V36.631A2.631,2.631,0,0,0,20.577,34Zm0,10.523V36.631h3.946v7.893Z" transform="translate(3.105 10.716)" fill="#2553ff"/><path d="M30.893,38.722a1.315,1.315,0,0,0,1.315-1.315v-.776A2.631,2.631,0,0,0,29.577,34H25.631A2.631,2.631,0,0,0,23,36.631v9.208a1.315,1.315,0,0,0,2.631,0V36.631h3.946v.776A1.315,1.315,0,0,0,30.893,38.722Z" transform="translate(5.944 10.716)" fill="#2553ff"/><path d="M50.423,28.873a4.123,4.123,0,0,0-6.91,0L20.665,64.087a4.032,4.032,0,0,0-.163,4.175,4.109,4.109,0,0,0,3.617,2.147h45.7a4.113,4.113,0,0,0,3.619-2.148,4.029,4.029,0,0,0-.163-4.174ZM71.121,67a1.463,1.463,0,0,1-1.306.773h-45.7a1.463,1.463,0,0,1-1.3-.772,1.421,1.421,0,0,1,.058-1.486L45.72,30.306a1.49,1.49,0,0,1,2.5,0L71.067,65.52A1.418,1.418,0,0,1,71.121,67Z" transform="translate(4.997 8.508)" fill="#2553ff"/><path d="M49.374,48.292l-4.317-2.159,2.368-9.5a1.315,1.315,0,0,0-2.253-1.2L33.333,48.59a1.315,1.315,0,0,0,.395,2.057l4.317,2.159-2.368,9.5a1.315,1.315,0,0,0,2.253,1.2L49.769,50.35a1.315,1.315,0,0,0-.395-2.057Zm-9.866,9.522,1.35-5.393a1.315,1.315,0,0,0-.688-1.5l-3.716-1.857L43.6,41.126l-1.35,5.393a1.315,1.315,0,0,0,.688,1.5l3.716,1.857Z" transform="translate(9.097 11.032)" fill="#2553ff"/></g></g></g></svg>