<svg xmlns="http://www.w3.org/2000/svg" width="101.457" height="78.442" viewBox="0 0 101.457 78.442"><g transform="translate(-532 -958.06)"><path d="M3138.391,6357.67h78.638l5.923,3.636v17.22h-5l-6.876,2.527-2.834,4.187-1.491,7.145-13.182,9-2.972-3.41-5.058-5.587-8.817-2.186-8.623,4.286-4.014,6.9-28-17.523-3-4.079v-18.474Z" transform="translate(-2600 -5398)" fill="#b0ddff"/><path d="M3164.195,6357.67v44.212l-30.47-19.373v-20.468l3.476-4.372Z" transform="translate(-2600 -5398)" fill="#e6f3ff"/><g transform="translate(532 899.988)"><path d="M200.925,264.431a8.089,8.089,0,1,0,8.089,8.089A8.1,8.1,0,0,0,200.925,264.431Zm0,13.206a5.117,5.117,0,1,1,5.117-5.117A5.123,5.123,0,0,1,200.925,277.637Z" transform="translate(-154.624 -165.467)" fill="#2553ff"/><path d="M92.6,79.693V66.214a8.151,8.151,0,0,0-8.142-8.142H19.015a1.486,1.486,0,1,0,0,2.972H84.461a5.175,5.175,0,0,1,5.17,5.17V78.866A14.07,14.07,0,0,0,73.3,92.761c0,.407.021.81.055,1.208L61.022,101.53a15.721,15.721,0,0,0-29.44,0L5.715,85.678a5.779,5.779,0,0,1-2.742-4.9V66.214a5.175,5.175,0,0,1,5.17-5.17h4.931a1.486,1.486,0,1,0,0-2.972H8.142A8.151,8.151,0,0,0,0,66.214V80.781a8.77,8.77,0,0,0,4.162,7.431l26.621,16.314A15.7,15.7,0,0,0,38.008,120.4v6.035H27.349a6.365,6.365,0,0,0-6.358,6.358v2.231a1.486,1.486,0,0,0,1.486,1.486H32.638a1.486,1.486,0,1,0,0-2.972H23.963V132.8a3.389,3.389,0,0,1,3.385-3.385H65.254a3.389,3.389,0,0,1,3.385,3.385v.745H38.58a1.486,1.486,0,1,0,0,2.972H70.125a1.486,1.486,0,0,0,1.486-1.486V132.8a6.365,6.365,0,0,0-6.358-6.358H54.595V120.4a15.7,15.7,0,0,0,7.225-15.877l12.162-7.453A14.076,14.076,0,1,0,92.6,79.693Zm-40.98,46.746H40.98v-4.59a15.71,15.71,0,0,0,10.643,0v4.59ZM46.3,119.8a12.752,12.752,0,1,1,12.752-12.752A12.766,12.766,0,0,1,46.3,119.8ZM87.38,103.865a11.1,11.1,0,1,1,11.1-11.1A11.117,11.117,0,0,1,87.38,103.865Z" fill="#2553ff"/><path d="M443.862,196.745a1.486,1.486,0,0,0-.016,2.1,6.779,6.779,0,0,1,0,9.531,1.486,1.486,0,0,0,2.118,2.086,9.751,9.751,0,0,0,0-13.7,1.486,1.486,0,0,0-2.1-.016Z" transform="translate(-355.552 -110.851)" fill="#2553ff"/><path d="M429.989,207.57a1.486,1.486,0,1,0-2.118,2.086,3.731,3.731,0,0,1,0,5.247,1.486,1.486,0,1,0,2.118,2.086,6.7,6.7,0,0,0,0-9.418Z" transform="translate(-342.743 -119.518)" fill="#2553ff"/><path d="M414.016,218.376a1.486,1.486,0,0,0-2.117,2.086.685.685,0,0,1,0,.964,1.486,1.486,0,0,0,2.118,2.086,3.658,3.658,0,0,0,0-5.136Z" transform="translate(-329.935 -128.183)" fill="#2553ff"/><path d="M158.126,130.325a1.486,1.486,0,0,0-1.486-1.486H110.025a1.486,1.486,0,1,0,0,2.972H156.64A1.486,1.486,0,0,0,158.126,130.325Z" transform="translate(-87.031 -56.744)" fill="#2553ff"/><path d="M110.025,204.208a1.486,1.486,0,1,0,0,2.972H113.1a1.486,1.486,0,1,0,0-2.972Z" transform="translate(-87.031 -117.178)" fill="#2553ff"/><path d="M329.753,207.18h3.074a1.486,1.486,0,0,0,0-2.972h-3.074a1.486,1.486,0,0,0,0,2.972Z" transform="translate(-263.218 -117.178)" fill="#2553ff"/><path d="M227.645,295.788a1.486,1.486,0,0,0-1.486,1.486v.779a1.486,1.486,0,1,0,2.972,0v-.779A1.486,1.486,0,0,0,227.645,295.788Z" transform="translate(-181.344 -190.611)" fill="#2553ff"/><path d="M132.442,108.05V99.275a3.692,3.692,0,0,0-3.688-3.688H69.682a3.692,3.692,0,0,0-3.688,3.688v8.775a3.692,3.692,0,0,0,3.688,3.688h45.472a1.486,1.486,0,0,0,0-2.972H69.682a.716.716,0,0,1-.716-.716V99.275a.716.716,0,0,1,.716-.716h59.072a.716.716,0,0,1,.716.716v8.775a.716.716,0,0,1-.716.716H121.1a1.486,1.486,0,1,0,0,2.972h7.658A3.692,3.692,0,0,0,132.442,108.05Z" transform="translate(-52.917 -30.081)" fill="#2553ff"/></g></g></svg>