<svg xmlns="http://www.w3.org/2000/svg" width="78.941" height="78.941" viewBox="0 0 78.941 78.941"><g transform="translate(-930 -958.06)"><path d="M1847.283,6388.919h64.305l2.464,2.285v39.689l-2.464,3.08h-64.305l-3.614-3.08V6391.2Z" transform="translate(-913 -5398)" fill="#b0ddff"/><path d="M1912.226,6388.919h5.264l3.225,2.106v39.8l-3.225,2.62h-5.264l1.745-2.62v-38.966Z" transform="translate(-913 -5398)" fill="#e6f3ff"/><g transform="translate(930 958.06)"><path d="M27.24,39.175a1.316,1.316,0,0,0-1.246,2.317l4.165,2.242V46.59a1.316,1.316,0,1,0,2.631,0V43.734L36.956,41.5A1.316,1.316,0,1,0,35.71,39.18l-4.235,2.271Z" transform="translate(7.995 12.314)" fill="#2553ff"/><path d="M7.947,4H5.316a1.316,1.316,0,0,0,0,2.631H7.947A1.316,1.316,0,0,0,7.947,4Z" transform="translate(1.263 1.263)" fill="#2553ff"/><path d="M11.316,6.631H21.841a1.316,1.316,0,0,0,0-2.631H11.316a1.316,1.316,0,1,0,0,2.631Z" transform="translate(3.157 1.263)" fill="#2553ff"/><path d="M7.947,8H5.316a1.316,1.316,0,1,0,0,2.631H7.947A1.316,1.316,0,0,0,7.947,8Z" transform="translate(1.263 2.525)" fill="#2553ff"/><path d="M11.316,10.631H21.841a1.316,1.316,0,0,0,0-2.631H11.316a1.316,1.316,0,1,0,0,2.631Z" transform="translate(3.157 2.525)" fill="#2553ff"/><path d="M7.947,12H5.316a1.316,1.316,0,0,0,0,2.631H7.947a1.316,1.316,0,0,0,0-2.631Z" transform="translate(1.263 3.788)" fill="#2553ff"/><path d="M21.841,12H11.316a1.316,1.316,0,1,0,0,2.631H21.841a1.316,1.316,0,0,0,0-2.631Z" transform="translate(3.157 3.788)" fill="#2553ff"/><path d="M73.678,0H52.627a5.263,5.263,0,0,0-5.263,5.263v5.263H42.1a3.947,3.947,0,0,0-3.947,3.947v17.1H17.1V23.682h9.21a5.263,5.263,0,0,0,5.263-5.263V5.263A5.263,5.263,0,0,0,26.314,0H5.263A5.263,5.263,0,0,0,0,5.263V18.419a5.263,5.263,0,0,0,5.263,5.263h9.21v7.894H5.263A5.263,5.263,0,0,0,0,36.839V73.678a5.263,5.263,0,0,0,5.263,5.263H73.678a5.263,5.263,0,0,0,5.263-5.263V36.839a5.263,5.263,0,0,0-5.263-5.263H40.786v-17.1A1.316,1.316,0,0,1,42.1,13.157h5.263v5.263a5.263,5.263,0,0,0,5.263,5.263H73.678a5.263,5.263,0,0,0,5.263-5.263V5.263A5.263,5.263,0,0,0,73.678,0ZM40.786,40.458l11.7,6.3-2.7,1.447a1.316,1.316,0,0,0,1.246,2.318l2.919-1.564V62.974L40.786,70.059V66.189a1.316,1.316,0,0,0-2.631,0v3.869L25,62.974V59.206h1.558a3.947,3.947,0,1,0,0-2.631H25V48.958l2.919,1.564A1.316,1.316,0,0,0,29.163,48.2l-2.7-1.447,11.7-6.3v1.885a3.947,3.947,0,1,0,2.631,0ZM28.945,57.89a1.316,1.316,0,1,1,1.316,1.316A1.316,1.316,0,0,1,28.945,57.89ZM39.47,44.733a1.316,1.316,0,1,1-1.316,1.316A1.316,1.316,0,0,1,39.47,44.733ZM38.155,34.208v3.263L23.059,45.6c-.018.009-.038.013-.055.024a1.316,1.316,0,0,0-.641,1.13v9.822H18.419A1.316,1.316,0,0,1,17.1,55.258V34.208ZM5.263,21.051a2.631,2.631,0,0,1-2.631-2.631V5.263A2.631,2.631,0,0,1,5.263,2.631H26.314a2.631,2.631,0,0,1,2.631,2.631V18.419a2.631,2.631,0,0,1-2.631,2.631ZM2.631,45.138l1.8,1.687a2.642,2.642,0,0,1,.832,1.921V61.771a2.631,2.631,0,0,1-.832,1.92l-1.8,1.687Zm69-10.931h2.047a2.631,2.631,0,0,1,2.631,2.631V73.678a2.631,2.631,0,0,1-2.631,2.631H71.631a5.209,5.209,0,0,0,.732-2.631V36.839A5.209,5.209,0,0,0,71.631,34.208Zm-4.531,0a2.631,2.631,0,0,1,2.631,2.631V73.678A2.631,2.631,0,0,1,67.1,76.309H5.263a2.631,2.631,0,0,1-2.631-2.631V68.985l3.6-3.373a5.28,5.28,0,0,0,1.664-3.84V48.746a5.28,5.28,0,0,0-1.664-3.84l-3.6-3.373V36.839a2.631,2.631,0,0,1,2.631-2.631h9.21V55.258a3.947,3.947,0,0,0,3.947,3.947h3.947v4.554a1.316,1.316,0,0,0,.692,1.159l15.788,8.5a1.316,1.316,0,0,0,1.247,0l15.788-8.5a1.316,1.316,0,0,0,.692-1.159v-17a1.316,1.316,0,0,0-.641-1.13c-.017-.011-.037-.014-.055-.024L40.786,37.471V34.208Zm9.21-15.788a2.631,2.631,0,0,1-2.631,2.631H52.627A2.631,2.631,0,0,1,50,18.419V5.263a2.631,2.631,0,0,1,2.631-2.631H73.678a2.631,2.631,0,0,1,2.631,2.631Z" fill="#2553ff"/><path d="M43.947,4H41.316a1.316,1.316,0,1,0,0,2.631h2.631a1.316,1.316,0,0,0,0-2.631Z" transform="translate(12.627 1.263)" fill="#2553ff"/><path d="M57.841,4H47.316a1.316,1.316,0,0,0,0,2.631H57.841a1.316,1.316,0,1,0,0-2.631Z" transform="translate(14.521 1.263)" fill="#2553ff"/><path d="M43.947,8H41.316a1.316,1.316,0,1,0,0,2.631h2.631a1.316,1.316,0,1,0,0-2.631Z" transform="translate(12.627 2.525)" fill="#2553ff"/><path d="M57.841,8H47.316a1.316,1.316,0,1,0,0,2.631H57.841a1.316,1.316,0,1,0,0-2.631Z" transform="translate(14.521 2.525)" fill="#2553ff"/><path d="M43.947,12H41.316a1.316,1.316,0,1,0,0,2.631h2.631a1.316,1.316,0,0,0,0-2.631Z" transform="translate(12.627 3.788)" fill="#2553ff"/><path d="M57.841,12H47.316a1.316,1.316,0,0,0,0,2.631H57.841a1.316,1.316,0,1,0,0-2.631Z" transform="translate(14.521 3.788)" fill="#2553ff"/><path d="M42.947,54H40.316a1.316,1.316,0,0,0,0,2.631h2.631a1.316,1.316,0,0,0,0-2.631Z" transform="translate(12.311 17.047)" fill="#2553ff"/><path d="M51.578,54H46.316a1.316,1.316,0,1,0,0,2.631h5.263a1.316,1.316,0,0,0,0-2.631Z" transform="translate(14.206 17.047)" fill="#2553ff"/><path d="M45.316,52.631h6.578a1.316,1.316,0,0,0,0-2.631H45.316a1.316,1.316,0,1,0,0,2.631Z" transform="translate(13.89 15.784)" fill="#2553ff"/><path d="M11.947,48H9.316A1.316,1.316,0,0,0,8,49.316v1.316a1.316,1.316,0,0,0,2.631,0h1.316a1.316,1.316,0,0,0,0-2.631Z" transform="translate(2.525 15.153)" fill="#2553ff"/><path d="M11.947,54.316H10.631a1.316,1.316,0,1,0-2.631,0v1.316a1.316,1.316,0,0,0,1.316,1.316h2.631a1.316,1.316,0,1,0,0-2.631Z" transform="translate(2.525 16.731)" fill="#2553ff"/><path d="M18.947,53a1.316,1.316,0,0,0-1.316,1.316H16.316a1.316,1.316,0,1,0,0,2.631h2.631a1.316,1.316,0,0,0,1.316-1.316V54.316A1.316,1.316,0,0,0,18.947,53Z" transform="translate(4.735 16.731)" fill="#2553ff"/></g></g></svg>