<svg xmlns="http://www.w3.org/2000/svg" width="70.08" height="78.442" viewBox="0 0 70.08 78.442"><g transform="translate(-534 -958.06)"><path d="M1447.716,6411.889v-22.836l3.6-2.784h49.661l4.077,2.784v21.234l-10.25-9.776-2.276,2.757v4.321l5.161,5.417v3.727l-46.373-.862Z" transform="translate(-913 -5398)" fill="#b0ddff"/><path d="M1462.776,6386.269v29.956h-11.971l-2.96-3.175.433-24.034,3.593-2.747Z" transform="translate(-913 -5398)" fill="#e6f3ff"/><g transform="translate(498 935.664)"><path d="M51.688,60.981A3.688,3.688,0,1,0,48,57.292,3.693,3.693,0,0,0,51.688,60.981Zm0-4.918a1.229,1.229,0,1,1-1.229,1.229A1.231,1.231,0,0,1,51.688,56.063Z" transform="translate(-8.312 -21.616)" fill="#2553ff"/><path d="M228.36,51.391a1.229,1.229,0,0,0,1.738,0l.975-.975.975.975a1.229,1.229,0,0,0,1.738-1.738l-.975-.975.975-.975a1.229,1.229,0,1,0-1.738-1.738l-.975.975-.975-.975A1.229,1.229,0,1,0,228.36,47.7l.975.975-.975.975A1.229,1.229,0,0,0,228.36,51.391Z" transform="translate(-132.985 -16.075)" fill="#2553ff"/><circle cx="1.229" cy="1.229" r="1.229" transform="translate(76.572 28.3)" fill="#2553ff"/><circle cx="1.229" cy="1.229" r="1.229" transform="translate(76.572 92.232)" fill="#2553ff"/><path d="M105.786,135.141,94.972,122.447a5.442,5.442,0,0,0-5.546-4.843H41.589A5.428,5.428,0,0,0,36,122.841v21.493a5.427,5.427,0,0,0,5.589,5.237H86.165a19.42,19.42,0,0,0,6.39,10.408v5.4a1.229,1.229,0,0,0,2.459,0v-5.972a1.229,1.229,0,0,0-.45-.951c-6.642-5.443-6.387-12.288-6.374-12.573a1.227,1.227,0,0,0-.311-.887L83.6,140.2a3.807,3.807,0,0,1-1-2.762,3.9,3.9,0,0,1,1.282-2.722l.232-.211,9.992,10.973a1.229,1.229,0,0,0,1.818-1.655l-.909-1v-7.5l1.229,1.229v3.179a1.229,1.229,0,0,0,2.459,0v-3.688a1.229,1.229,0,0,0-.36-.869l-3.328-3.328v-5.56l8.606,10.1v29.162a1.229,1.229,0,1,0,2.459,0V135.938a1.227,1.227,0,0,0-.294-.8Zm-67.327,4.421V127.612a1.943,1.943,0,0,1,1.229,1.791v8.37A1.943,1.943,0,0,1,38.459,139.563ZM85.1,131.942a1.229,1.229,0,0,0-1.737-.081L82.226,132.9a6.342,6.342,0,0,0-2.083,4.428,6.239,6.239,0,0,0,1.631,4.522l3.956,4.429c0,.218.018.5.044.833H41.589a2.973,2.973,0,0,1-3.13-2.778v-2.214a4.419,4.419,0,0,0,3.688-4.347V129.4a4.419,4.419,0,0,0-3.688-4.347V122.84a2.973,2.973,0,0,1,3.13-2.778H89.426a2.973,2.973,0,0,1,3.13,2.778v17.285Z" transform="translate(0 -65.944)" fill="#2553ff"/><path d="M69.229,136.063h9.836a1.229,1.229,0,1,0,0-2.459H69.229a1.229,1.229,0,1,0,0,2.459Z" transform="translate(-22.164 -77.027)" fill="#2553ff"/><path d="M83.983,145.6H69.229a1.229,1.229,0,1,0,0,2.459H83.983a1.229,1.229,0,1,0,0-2.459Z" transform="translate(-22.164 -85.338)" fill="#2553ff"/><path d="M69.229,160.063h6.147a1.229,1.229,0,1,0,0-2.459H69.229a1.229,1.229,0,1,0,0,2.459Z" transform="translate(-22.164 -93.65)" fill="#2553ff"/><path d="M37.229,49.2h66.391a1.229,1.229,0,0,0,0-2.459H90.134a26.96,26.96,0,0,0,3.53-1.374,1.23,1.23,0,0,0,.617-1.488c-.061-.183-1.546-4.484-6.024-4.484-2.926,0-3.984-.855-3.988-.855h0a1.265,1.265,0,0,0-1.738,0,4.746,4.746,0,0,1-2.756,1.069,9.631,9.631,0,0,1-6.64-1.721L55.848,22.7a1.23,1.23,0,0,0-1.813.209c-4.952,6.932-3.227,11.083-1.9,12.847l2.2,10.984h-17.1a1.23,1.23,0,0,0,0,2.459Zm22.663-2.459.863-8.579.055.013c1.554.389,2.637,1.876,3.891,3.6a19.965,19.965,0,0,0,3.427,3.909,12.756,12.756,0,0,0,1.517,1.058Zm-4.617-21.27L71.564,39.783a1.167,1.167,0,0,0,.107.084,12.07,12.07,0,0,0,8.409,2.184,7.952,7.952,0,0,0,3.394-1.127,10.469,10.469,0,0,0,4.783.931,3.765,3.765,0,0,1,3.173,1.8,36.7,36.7,0,0,1-16.191,2.365,10.149,10.149,0,0,1-5.56-2.248,17.783,17.783,0,0,1-2.989-3.446c-1.407-1.934-2.862-3.933-5.283-4.538a40.375,40.375,0,0,0-7.078-1.231c-.719-.788-2.527-3.569.948-9.087Zm-.368,11.6c.751.077,1.906.238,3.431.544l-.917,9.121h-.58Z" fill="#2553ff"/><path d="M140.606,162.522a1.229,1.229,0,1,0,0-2.459h-2.459v-1.229a1.229,1.229,0,1,0-2.459,0v1.229h-2.459A1.23,1.23,0,0,0,132,161.292v3.688a1.23,1.23,0,0,0,1.229,1.229h2.459v1.229h-2.459a1.229,1.229,0,0,0,0,2.459h2.459v1.229a1.229,1.229,0,1,0,2.459,0V169.9h2.459a1.23,1.23,0,0,0,1.229-1.229v-3.688a1.23,1.23,0,0,0-1.229-1.229h-2.459v-1.229Zm-1.229,3.688v1.229h-1.229V166.21Zm-3.688-2.459h-1.229v-1.229h1.229Z" transform="translate(-66.493 -93.65)" fill="#2553ff"/><path d="M80.295,173.6H69.229A1.23,1.23,0,0,0,68,174.833v6.147a1.23,1.23,0,0,0,1.229,1.229H80.295a1.23,1.23,0,0,0,1.229-1.229v-6.147A1.23,1.23,0,0,0,80.295,173.6Zm-1.229,6.147H70.459v-3.688h8.606Z" transform="translate(-22.164 -104.732)" fill="#2553ff"/></g></g></svg>