<svg xmlns="http://www.w3.org/2000/svg" width="79.443" height="81.88" viewBox="0 0 79.443 81.88"><g transform="translate(-534 -1258.121)"><path d="M1489.777,6698.5l5.283.877,3.755-5.078,4.766,3.054,4.336-3.054,3.016,4.643,5.667-.442,1.077,5.838,4.807,1.518-1.634,5.3,3.489,4.01-3.489,4.007,2.026,5.824-5.818,1.187-.91,6.4-4.689-1.109-3.543,4.968-4.954-3.068-4.711,3.068-2.522-4.968-5.953.618-.74-5.077-5.386-2.017,1.82-5.428-3.972-4.4,3.972-4.01-1.82-4.839,5-2.739Z" transform="translate(-913 -5398)" fill="#b0ddff" stroke="#707070" stroke-width="1"/><path d="M1493.648,6731.876h-3.4s.136-3.51-1.513-5.229-5.083-1.645-5.083-1.645l1.82-5.428-3.972-4.4,3.972-4.01-1.82-4.839a30.361,30.361,0,0,0,5.083-3.074c.932-.707,1.513-4.506,1.513-4.506h3.4Z" transform="translate(-913 -5398)" fill="#e6f3ff"/><g transform="translate(526.382 1258.121)"><g transform="translate(16.895)"><path d="M98.428,27.634V15a15,15,0,1,0-30,0V27.634a4.09,4.09,0,1,0,2.571,0V15a12.427,12.427,0,0,1,24.854,0V27.634a4.09,4.09,0,1,0,2.571,0ZM71.236,31.516A1.519,1.519,0,1,1,69.716,30,1.521,1.521,0,0,1,71.236,31.516Zm25.906,1.52a1.519,1.519,0,1,1,1.519-1.519A1.521,1.521,0,0,1,97.142,33.035Z" transform="translate(-65.626)" fill="#2553ff"/></g><g transform="translate(24.413 23.997)"><rect width="20.569" height="2.571" fill="#2553ff"/></g><g transform="translate(51.839 23.997)"><path d="M290.483,150.057h-6.349v2.571h3.936l.578,9.081,2.566-.164Z" transform="translate(-284.134 -150.057)" fill="#2553ff"/></g><g transform="translate(7.618 23.997)"><g transform="translate(0)"><path d="M10.355,204.908l3.268-52.28h3.935v-2.571h-6.35L7.618,207.479H50.125v-2.571Z" transform="translate(-7.618 -150.057)" fill="#2553ff"/></g></g><g transform="translate(40.631 36.601)"><path d="M260.482,251.509l-4.2-4.342,1.9-5.735-5.673-2.082-.772-5.991-6.014.576-3.3-5.065-5.165,3.137L232.1,228.87l-3.3,5.065-6.014-.576-.772,5.991-5.673,2.082,1.9,5.735-4.2,4.342,4.2,4.342-1.9,5.735,5.673,2.082.772,5.991,6.014-.576,3.3,5.065,5.165-3.137,5.165,3.137,3.3-5.065,6.014.576.772-5.991,5.673-2.082-1.9-5.735Zm-10.317,10.283-.653,5.07-5.087-.487-2.787,4.281L237.267,268l-4.37,2.654-2.787-4.281-5.087.487-.653-5.071-4.8-1.761,1.61-4.848-3.553-3.674,3.553-3.674-1.61-4.848,4.8-1.761.653-5.07,5.087.487,2.787-4.281,4.37,2.654,4.37-2.654,2.787,4.281,5.087-.487.653,5.071,4.8,1.761-1.61,4.848,3.553,3.674-3.553,3.674,1.61,4.848Z" transform="translate(-214.052 -228.87)" fill="#2553ff"/></g><g transform="translate(53.934 49.334)"><rect width="25.452" height="2.571" transform="translate(0 17.997) rotate(-45)" fill="#2553ff"/></g><g transform="translate(54.847 49.709)"><path d="M306.8,310.833a3.857,3.857,0,1,0,3.857,3.857A3.861,3.861,0,0,0,306.8,310.833Zm0,5.142a1.286,1.286,0,1,1,1.286-1.286A1.287,1.287,0,0,1,306.8,315.975Z" transform="translate(-302.946 -310.833)" fill="#2553ff"/></g><g transform="translate(65.132 61.707)"><path d="M371.114,385.862a3.857,3.857,0,1,0,3.857,3.857A3.861,3.861,0,0,0,371.114,385.862Zm0,5.142a1.286,1.286,0,1,1,1.286-1.286A1.287,1.287,0,0,1,371.114,391Z" transform="translate(-367.257 -385.862)" fill="#2553ff"/></g><g transform="translate(30.421 53.137)"><rect width="2.571" height="2.571" fill="#2553ff"/></g><g transform="translate(35.563 53.137)"><g transform="translate(0)"><rect width="2.571" height="2.571" fill="#2553ff"/></g></g><g transform="translate(25.279 53.137)"><rect width="2.571" height="2.571" fill="#2553ff"/></g></g></g></svg>