<svg xmlns="http://www.w3.org/2000/svg" width="79.444" height="79.444" viewBox="0 0 79.444 79.444"><g transform="translate(-534 -1235.557)"><path d="M1448.565,4673.76l11.243-29.733,13.277-7.427,12.032,18.873h2.787l11.856-18.042h2.837l11.211,6.6,11.657,30.7-19.757-10.93-19.126,10.93-19.557-10.93-18.461,10.93Z" transform="translate(-913 -3361)" fill="#b0ddff"/><path d="M1467.489,4663.935l5.611-27.857,11.754,18.834,2.033,1.17,1.687-1.17,11.708-18.834,5.742,27.857-19.137,10.592Z" transform="translate(-913 -3361)" fill="#e6f3ff"/><g transform="translate(534 1235.556)"><path d="M79.368,77.868,67.731,47.212a1.164,1.164,0,0,0-.517-.6l-12.4-6.983,3.619-5.738a22.111,22.111,0,1,0-37.429,0l3.618,5.738-12.4,6.983a1.163,1.163,0,0,0-.517.6L.076,77.868a1.164,1.164,0,0,0,1.659,1.427l18.708-10.54,18.708,10.54a1.164,1.164,0,0,0,1.142,0L59,68.755l18.708,10.54a1.164,1.164,0,0,0,1.659-1.427ZM40.886,60.315a3.481,3.481,0,0,0,1.788-1.43l9.966-15.8,5.046,23.741-16.8,9.464ZM22.977,32.649a19.782,19.782,0,1,1,33.492,0c-.155.246-15.489,24.562-15.756,24.982l-.007.011a1.162,1.162,0,0,1-1.969,0c-.155-.247-15.52-24.611-15.754-24.985l-.005-.009ZM13.74,48.432l10.848-6.111L22.7,51.212a1.164,1.164,0,1,0,2.276.484l1.83-8.612,9.965,15.8a3.5,3.5,0,0,0,1.788,1.427V76.289l-16.8-9.464,2.248-10.576a1.164,1.164,0,1,0-2.277-.484l-2.316,10.9L3.392,75.689ZM60.03,66.663,54.857,42.32,65.7,48.432,76.052,75.689Z" transform="translate(0)" fill="#2553ff"/><path d="M199.1,72.8a12.8,12.8,0,1,0-12.8,12.8A12.816,12.816,0,0,0,199.1,72.8Zm-23.274,0A10.474,10.474,0,1,1,186.3,83.274,10.485,10.485,0,0,1,175.828,72.8Z" transform="translate(-146.58 -50.689)" fill="#2553ff"/><path d="M219.793,98.146a8.146,8.146,0,1,0-8.146,8.146A8.155,8.155,0,0,0,219.793,98.146Zm-13.965,0a5.819,5.819,0,1,1,5.819,5.819A5.825,5.825,0,0,1,205.828,98.146Z" transform="translate(-171.925 -76.034)" fill="#2553ff"/></g></g></svg>