<svg xmlns="http://www.w3.org/2000/svg" width="77.667" height="79.056" viewBox="0 0 77.667 79.056"><g transform="translate(-532 -958.06)"><path d="M1452.43,4373.423l.447-13.972,5.28-6.9,7.588-1.208h39.539l7.212,3.22,3.629,6.578v11.8l-3.629,6.953-7.806,3.05h-11.78l-3.021-3.05-3.712-5.981-3.548-.487-2.206,3.042-3.34,5.1-6.186,1.374h-4.074v-2.413H1456.8l-2.7-2.81Z" transform="translate(-913 -3361)" fill="#b0ddff"/><path d="M1473.453,4351.345v31.208h-6.424v-2.122h-11.421l-1.344-3.184-1.979-4.483.763-14.4,3.3-4.371,7.381-2.65Z" transform="translate(-913 -3361)" fill="#e6f3ff"/><g transform="translate(527.501 958.06)"><g transform="translate(4.499 0)"><path d="M286.482,22.485h26.505a1.876,1.876,0,0,0,1.874-1.874v-9.7a1.158,1.158,0,0,0-2.316,0v7.48L308.5,12.01a1.621,1.621,0,0,0-2.738,0L303.165,16.1,297.142,6.6a1.621,1.621,0,0,0-2.738,0l-7.48,11.788V2.316h25.62V5.4a1.158,1.158,0,1,0,2.316,0V1.874A1.876,1.876,0,0,0,312.987,0H286.482a1.876,1.876,0,0,0-1.874,1.874V20.611A1.876,1.876,0,0,0,286.482,22.485Zm9.291-13.716,6.023,9.493a1.614,1.614,0,0,0,1.369.753h0a1.614,1.614,0,0,0,1.369-.753l2.592-4.086,3.8,5.993h-22.39Z" transform="translate(-241.358 0)" fill="#2553ff"/><path d="M395.375,24.782a3.407,3.407,0,1,0,3.407-3.407A3.411,3.411,0,0,0,395.375,24.782Zm4.5,0a1.091,1.091,0,1,1-1.091-1.091A1.092,1.092,0,0,1,399.872,24.782Z" transform="translate(-335.021 -18.075)" fill="#2553ff"/><path d="M75.284,175.669H74.39a12.6,12.6,0,0,0-10.552-5.723h-.17a7.872,7.872,0,0,0-7.591-5.952H31.306a7.872,7.872,0,0,0-7.591,5.952h-.17a12.6,12.6,0,0,0-10.552,5.723H12.1a6.889,6.889,0,0,0-6.881,6.881v8.242a6.889,6.889,0,0,0,6.881,6.881h.891a12.673,12.673,0,0,0,.978,1.3H6.49A1.993,1.993,0,0,0,4.5,200.968v14.768a1.993,1.993,0,0,0,1.991,1.991H25.866a1.993,1.993,0,0,0,1.991-1.991v-4.6a1.158,1.158,0,0,0-2.316,0v4.272H6.815V201.293H25.541v4.442a1.158,1.158,0,0,0,2.316,0V203.4H33.25a6.9,6.9,0,0,0,5.959-3.441l2.511-4.35a2.276,2.276,0,0,1,3.942,0l2.511,4.35a6.9,6.9,0,0,0,5.959,3.441h9.7a12.6,12.6,0,0,0,10.552-5.723h.894a6.889,6.889,0,0,0,6.881-6.881V182.55a6.889,6.889,0,0,0-6.881-6.882ZM11.792,195.345a4.57,4.57,0,0,1-4.259-4.554V182.55A4.57,4.57,0,0,1,11.8,178a12.535,12.535,0,0,0-.855,4.554v8.242A12.538,12.538,0,0,0,11.792,195.345Zm62.334-4.554A10.3,10.3,0,0,1,63.837,201.08h-9.7A4.578,4.578,0,0,1,50.18,198.8l-2.511-4.35a4.545,4.545,0,0,0-3.977-2.3h0a4.546,4.546,0,0,0-3.977,2.3L37.2,198.8a4.578,4.578,0,0,1-3.954,2.283H27.858v-.112a1.993,1.993,0,0,0-1.991-1.991H17.324a10.272,10.272,0,0,1-4.068-8.185V182.55a10.3,10.3,0,0,1,10.289-10.289h25.6a1.158,1.158,0,1,0,0-2.316H26.132a5.542,5.542,0,0,1,5.174-3.636h24.77a5.542,5.542,0,0,1,5.174,3.636h-6.7a1.158,1.158,0,1,0,0,2.316h9.285A10.3,10.3,0,0,1,74.126,182.55v8.242Zm5.723,0a4.57,4.57,0,0,1-4.262,4.554,12.535,12.535,0,0,0,.855-4.554V182.55A12.535,12.535,0,0,0,75.587,178a4.57,4.57,0,0,1,4.262,4.554Z" transform="translate(-4.499 -138.672)" fill="#2553ff"/><path d="M87.408,275.193a1.158,1.158,0,0,0-1.158,1.158v8.7a1.158,1.158,0,1,0,2.316,0v-8.7A1.158,1.158,0,0,0,87.408,275.193Z" transform="translate(-73.627 -232.702)" fill="#2553ff"/><path d="M416.56,275.193a1.158,1.158,0,0,0-1.158,1.158v8.7a1.158,1.158,0,1,0,2.316,0v-8.7A1.158,1.158,0,0,0,416.56,275.193Z" transform="translate(-351.956 -232.702)" fill="#2553ff"/><path d="M51.145,417.058a1.768,1.768,0,0,0-2.652,1.531V425.7a1.769,1.769,0,0,0,2.653,1.531l6.154-3.553a1.768,1.768,0,0,0,0-3.063Zm-.336,7.689v-5.208l4.511,2.6Z" transform="translate(-41.7 -352.462)" fill="#2553ff"/><path d="M220.117,31.384h4.331a1.66,1.66,0,0,0,1.658-1.658V25.395a1.66,1.66,0,0,0-1.658-1.658h-4.331a1.66,1.66,0,0,0-1.658,1.658v4.331A1.66,1.66,0,0,0,220.117,31.384Zm.658-5.331h3.015v3.015h-3.015Z" transform="translate(-185.422 -20.072)" fill="#2553ff"/><path d="M449.345,161.336v4.331A1.66,1.66,0,0,0,451,167.325h4.331a1.66,1.66,0,0,0,1.658-1.658v-4.331a1.66,1.66,0,0,0-1.658-1.658H451A1.66,1.66,0,0,0,449.345,161.336Zm2.316.658h3.015v3.015h-3.015Z" transform="translate(-380.658 -135.023)" fill="#2553ff"/><path d="M174.28,434.259h-4.331a1.66,1.66,0,0,0-1.658,1.658v4.331a1.66,1.66,0,0,0,1.658,1.658h4.331a1.66,1.66,0,0,0,1.658-1.658v-4.331A1.66,1.66,0,0,0,174.28,434.259Zm-.658,5.331h-3.015v-3.015h3.015Z" transform="translate(-143.001 -367.207)" fill="#2553ff"/><circle cx="1.249" cy="1.249" r="1.249" transform="translate(16.18 38.222) rotate(-45)" fill="#2553ff"/><circle cx="1.249" cy="1.249" r="1.249" transform="translate(20.177 38.222) rotate(-45)" fill="#2553ff"/></g></g></g></svg>