<?xml version="1.0" encoding="utf-8"?>
<!-- Generator: Adobe Illustrator 26.0.1, SVG Export Plug-In . SVG Version: 6.00 Build 0)  -->
<svg version="1.1" id="Layer_1" xmlns="http://www.w3.org/2000/svg" xmlns:xlink="http://www.w3.org/1999/xlink" x="0px" y="0px"
	 viewBox="0 0 769.5 130.8" style="enable-background:new 0 0 769.5 130.8;" xml:space="preserve">
<style type="text/css">
	.st0{fill:#1D1D1D;}
	.st1{fill:#D60031;}
	.st2{fill:none;stroke:#1D1D1D;stroke-width:0.5;}
	.st3{fill:url(#SVGID_1_);}
</style>
<g transform="translate(2427.25 -1895.689)">
	<path class="st0" d="M-2184.6,1967.7v-1.7h-4.5v-1.7l2.6-7.1h2.4l-2.8,6.9h2.3v-3h2.2v3h1v1.9h-1v1.7H-2184.6z M-2179.2,1958.2
		c0.8-0.9,1.9-1.4,3.1-1.3c1.2-0.1,2.3,0.4,3.1,1.3c0.8,1.3,1.2,2.7,1,4.2c0.1,1.5-0.2,2.9-1,4.2c-0.8,0.9-1.9,1.3-3.1,1.3
		c-1.2,0.1-2.3-0.4-3.1-1.3c-0.8-1.2-1.2-2.7-1-4.2C-2180.4,1961-2180,1959.5-2179.2,1958.2z M-2174.3,1962.4
		c0.1-0.9-0.1-1.9-0.4-2.8c-0.3-0.5-0.8-0.8-1.4-0.8c-0.6,0-1.1,0.3-1.4,0.8c-0.3,0.9-0.5,1.8-0.4,2.8c-0.1,0.9,0.1,1.9,0.4,2.8
		c0.3,0.5,0.8,0.8,1.4,0.8c0.6,0,1.1-0.3,1.4-0.8C-2174.4,1964.3-2174.3,1963.4-2174.3,1962.4L-2174.3,1962.4z M-2169.5,1967.8
		l3.8-11.3l1.2,0.4l-3.8,11.3L-2169.5,1967.8z M-2171.3,1959.3c0-1.6,0.6-2.3,1.9-2.3s1.9,0.8,1.9,2.3c0,1.6-0.6,2.3-1.9,2.3
		C-2170.6,1961.6-2171.3,1960.8-2171.3,1959.3z M-2169.6,1958.5c-0.1,0.3-0.1,0.5-0.1,0.8c0,0.3,0,0.5,0.1,0.8
		c0,0.2,0.2,0.3,0.3,0.2c0.1,0,0.2-0.1,0.2-0.2c0.1-0.3,0.1-0.5,0.1-0.8c0-0.3,0-0.5-0.1-0.8c0-0.1-0.1-0.2-0.3-0.2
		C-2169.5,1958.2-2169.6,1958.3-2169.6,1958.5z M-2166.6,1965.6c0-1.6,0.6-2.3,1.9-2.3s1.9,0.8,1.9,2.3s-0.6,2.3-1.9,2.3
		S-2166.6,1967.1-2166.6,1965.6L-2166.6,1965.6z M-2165,1964.7c-0.1,0.3-0.1,0.5-0.1,0.8c0,0.3,0,0.5,0.1,0.8c0,0.2,0.2,0.3,0.3,0.2
		c0.1,0,0.2-0.1,0.2-0.2c0.1-0.3,0.1-0.5,0.1-0.8c0-0.3,0-0.5-0.1-0.8c0-0.1-0.1-0.2-0.3-0.2
		C-2164.8,1964.5-2165,1964.6-2165,1964.7L-2165,1964.7z M-2187.4,1988.7h-1.2v-8h1.2v0.6c0.8-0.4,1.6-0.7,2.5-0.7
		c0.8-0.1,1.6,0.2,2.2,0.9c0.4,1,0.6,2,0.6,3.1v4.2h-1.2v-4.2c0.1-0.8-0.1-1.6-0.3-2.3c-0.3-0.5-0.9-0.7-1.4-0.6
		c-0.4,0-0.7,0.1-1.1,0.2c-0.3,0.1-0.6,0.2-0.9,0.3l-0.3,0.1L-2187.4,1988.7z M-2174.2,1983.1v4.1c0,0.4,0.3,0.6,0.9,0.7l0,0.9
		c-0.7,0.1-1.4-0.2-1.9-0.6c-0.9,0.4-1.9,0.6-2.9,0.6c-0.6,0-1.2-0.2-1.7-0.6c-0.4-0.5-0.6-1.1-0.6-1.8c-0.1-0.6,0.2-1.3,0.6-1.7
		c0.5-0.4,1.2-0.7,1.9-0.7l2.5-0.2v-0.7c0-0.4-0.1-0.8-0.4-1.2c-0.3-0.2-0.6-0.4-1-0.4c-0.9,0-1.8,0.1-2.7,0.2l-0.5,0l0-0.9
		c1-0.2,2.1-0.3,3.1-0.4c0.7-0.1,1.4,0.2,2,0.6C-2174.4,1981.7-2174.1,1982.4-2174.2,1983.1z M-2179.1,1986.4c0,1,0.4,1.5,1.2,1.5
		c0.7,0,1.5-0.1,2.1-0.4l0.4-0.1v-2.6l-2.4,0.2c-0.4,0-0.8,0.2-1,0.4C-2179,1985.6-2179.2,1986-2179.1,1986.4z M-2167.5,1981.7h-2.5
		v3.8c0,0.6,0,1.2,0.2,1.8c0.1,0.3,0.5,0.4,1,0.4l1.4-0.1l0.1,1c-0.5,0.1-1.1,0.2-1.6,0.2c-0.6,0.1-1.3-0.2-1.7-0.6
		c-0.4-0.7-0.6-1.5-0.5-2.3v-4.2h-1.1v-1h1.1v-2.4h1.2v2.4h2.5V1981.7z M-2165.9,1988.7v-8h1.2v8H-2165.9z M-2165.9,1978.9v-1.4h1.2
		v1.4H-2165.9z M-2162.6,1984.7c-0.1-1.1,0.2-2.2,0.8-3.2c0.7-0.7,1.7-1.1,2.6-1c1-0.1,2,0.3,2.6,1c0.6,0.9,0.9,2.1,0.8,3.2
		c0.1,1.1-0.2,2.2-0.7,3.2c-0.7,0.7-1.7,1.1-2.7,1c-1,0.1-2-0.2-2.7-1C-2162.4,1986.9-2162.7,1985.8-2162.6,1984.7z M-2161.4,1984.7
		c-0.1,0.8,0.1,1.7,0.4,2.4c0.4,0.5,1.1,0.8,1.8,0.7c0.7,0.1,1.3-0.2,1.8-0.7c0.3-0.8,0.5-1.6,0.4-2.5c0.1-0.8-0.1-1.7-0.5-2.4
		c-0.4-0.5-1.1-0.7-1.7-0.7c-0.7-0.1-1.3,0.2-1.7,0.7C-2161.3,1983-2161.4,1983.8-2161.4,1984.7z M-2152.4,1988.7h-1.2v-8h1.2v0.6
		c0.8-0.4,1.6-0.7,2.5-0.7c0.8-0.1,1.6,0.2,2.2,0.9c0.4,1,0.6,2,0.6,3.1v4.2h-1.2v-4.2c0.1-0.8-0.1-1.6-0.3-2.3
		c-0.3-0.5-0.9-0.7-1.4-0.6c-0.4,0-0.7,0.1-1.1,0.2c-0.3,0.1-0.6,0.2-0.9,0.3l-0.3,0.1L-2152.4,1988.7z M-2145.6,1980.7h1.2l1.6,7
		h0.3l1.9-6.8h1.2l1.9,6.8h0.3l1.6-7h1.2l-1.9,8h-2l-1.7-6.3l-1.7,6.3h-2L-2145.6,1980.7z M-2132.6,1988.7v-8h1.2v8H-2132.6z
		 M-2132.6,1978.9v-1.4h1.2v1.4H-2132.6z M-2122.8,1977.2v11.5h-1.2v-0.5c-0.7,0.4-1.6,0.7-2.4,0.7c-0.4,0-0.8,0-1.1-0.2
		c-0.3-0.1-0.6-0.3-0.9-0.6c-0.7-0.9-1-2.1-0.9-3.2c-0.1-1.2,0.2-2.3,0.8-3.4c0.6-0.7,1.6-1.1,2.6-1c0.7,0,1.3,0.1,2,0.2v-3.5
		H-2122.8z M-2127.5,1987.2c0.1,0.2,0.3,0.3,0.5,0.4c0.2,0.1,0.5,0.1,0.7,0.1c0.3,0,0.7-0.1,1-0.2c0.3-0.1,0.6-0.2,0.9-0.3l0.3-0.1
		v-5.4c-0.6-0.1-1.3-0.2-1.9-0.2c-0.7-0.1-1.3,0.2-1.7,0.8c-0.4,0.7-0.5,1.6-0.5,2.4C-2128.1,1985.6-2127.9,1986.5-2127.5,1987.2
		L-2127.5,1987.2z M-2114.9,1987.7l0.5,0l0,0.9c-1,0.2-2.1,0.2-3.1,0.3c-0.9,0.1-1.8-0.3-2.4-1c-0.6-0.9-0.8-2-0.7-3.1
		c0-2.8,1.1-4.2,3.3-4.2c0.9-0.1,1.8,0.3,2.4,0.9c0.6,0.8,0.9,1.8,0.8,2.8l-0.1,0.9h-5.3c-0.1,0.7,0.1,1.4,0.5,2
		c0.4,0.5,1,0.7,1.7,0.6C-2116.5,1987.8-2115.7,1987.8-2114.9,1987.7L-2114.9,1987.7z M-2115.3,1984.2c0.1-0.7-0.1-1.5-0.5-2.1
		c-0.4-0.4-1-0.7-1.5-0.6c-0.6,0-1.2,0.2-1.6,0.6c-0.4,0.6-0.6,1.3-0.6,2H-2115.3z M-2185.6,2001.5c0.6,0,1.2,0.1,1.8,0.2l0.4,0l0,1
		c-0.6-0.1-1.3-0.1-1.9-0.1c-0.7-0.1-1.4,0.2-1.8,0.6c-0.4,0.7-0.6,1.6-0.5,2.4c-0.1,0.8,0.1,1.7,0.4,2.4c0.5,0.5,1.2,0.8,1.9,0.7
		l1.9-0.1l0,1c-0.7,0.1-1.5,0.2-2.2,0.2c-1,0.1-1.9-0.2-2.6-1c-0.6-1-0.8-2.1-0.7-3.2c-0.1-1.1,0.2-2.2,0.8-3.2
		C-2187.5,2001.8-2186.6,2001.4-2185.6,2001.5L-2185.6,2001.5z M-2181.9,2005.7c-0.1-1.1,0.2-2.2,0.8-3.2c0.7-0.7,1.7-1.1,2.6-1
		c1-0.1,2,0.3,2.6,1c0.6,0.9,0.9,2.1,0.8,3.2c0.1,1.1-0.2,2.2-0.7,3.2c-0.7,0.7-1.7,1.1-2.7,1c-1,0.1-2-0.2-2.7-1
		C-2181.7,2007.9-2182,2006.8-2181.9,2005.7L-2181.9,2005.7z M-2180.7,2005.7c-0.1,0.8,0.1,1.7,0.4,2.5c0.4,0.5,1.1,0.8,1.8,0.7
		c0.7,0.1,1.3-0.2,1.8-0.7c0.3-0.8,0.5-1.6,0.4-2.5c0.1-0.8-0.1-1.7-0.5-2.4c-0.4-0.5-1.1-0.7-1.7-0.7c-0.7-0.1-1.3,0.2-1.7,0.7
		C-2180.6,2004-2180.8,2004.8-2180.7,2005.7L-2180.7,2005.7z M-2173.9,2001.7h1.3l1.9,7h0.6l1.9-7h1.2l-2.3,8h-2.4L-2173.9,2001.7z
		 M-2159.9,2008.7l0.5,0l0,0.9c-1,0.2-2.1,0.2-3.1,0.3c-0.9,0.1-1.8-0.3-2.4-1c-0.6-0.9-0.8-2-0.7-3.1c0-2.8,1.1-4.2,3.3-4.2
		c0.9-0.1,1.8,0.3,2.4,0.9c0.6,0.8,0.9,1.8,0.8,2.8l-0.1,0.9h-5.3c-0.1,0.7,0.1,1.4,0.5,2c0.4,0.5,1,0.7,1.7,0.6
		C-2161.6,2008.8-2160.8,2008.8-2159.9,2008.7L-2159.9,2008.7z M-2160.4,2005.2c0.1-0.7-0.1-1.5-0.5-2.1c-0.4-0.4-1-0.7-1.5-0.6
		c-0.6,0-1.2,0.2-1.6,0.6c-0.4,0.6-0.6,1.3-0.6,2H-2160.4z M-2157.1,2009.7v-8h1.2v1.1c0.9-0.6,1.9-1,2.9-1.3v1.2
		c-0.5,0.1-0.9,0.2-1.4,0.4c-0.4,0.1-0.8,0.3-1.1,0.5l-0.4,0.2v5.9H-2157.1z M-2145.8,2004.1v4.1c0,0.4,0.3,0.6,0.9,0.7l0,0.9
		c-0.7,0.1-1.4-0.2-1.9-0.6c-0.9,0.4-1.9,0.6-2.9,0.6c-0.6,0-1.2-0.2-1.7-0.6c-0.4-0.5-0.6-1.1-0.6-1.8c-0.1-0.6,0.2-1.3,0.6-1.7
		c0.5-0.4,1.2-0.7,1.9-0.7l2.5-0.2v-0.7c0-0.4-0.1-0.8-0.4-1.2c-0.3-0.2-0.6-0.4-1-0.4c-0.9,0-1.8,0.1-2.7,0.2l-0.5,0l0-0.9
		c1-0.2,2.1-0.3,3.1-0.4c1.2-0.2,2.4,0.6,2.6,1.8C-2145.8,2003.6-2145.8,2003.8-2145.8,2004.1z M-2150.7,2007.4c0,1,0.4,1.5,1.2,1.5
		c0.7,0,1.5-0.1,2.1-0.4l0.4-0.1v-2.6l-2.4,0.2c-0.4,0-0.8,0.2-1,0.4C-2150.6,2006.6-2150.8,2007-2150.7,2007.4z M-2140.2,2013.4
		c-0.9,0.1-1.9-0.1-2.7-0.5c-0.6-0.5-0.8-1.2-0.8-1.9c0-0.4,0.1-0.7,0.3-1.1c0.3-0.4,0.6-0.7,1-0.9c-0.3-0.3-0.5-0.7-0.4-1.1
		c0.1-0.4,0.2-0.7,0.4-1l0.1-0.3c-0.9-0.5-1.4-1.4-1.3-2.4c0-1.8,1-2.7,3-2.7c0.5,0,1,0.1,1.4,0.2l0.2,0l2.4-0.1v1l-1.5,0
		c0.4,0.4,0.6,1,0.5,1.6c0.1,0.8-0.2,1.5-0.7,2.1c-0.7,0.5-1.5,0.7-2.3,0.6c-0.3,0-0.5,0-0.8-0.1c-0.1,0.3-0.2,0.6-0.3,0.9
		c0,0.3,0.1,0.5,0.3,0.6c0.6,0.1,1.2,0.2,1.8,0.1c0.8-0.1,1.5,0.1,2.2,0.5c0.5,0.5,0.8,1.2,0.7,1.9
		C-2136.6,2012.6-2137.8,2013.4-2140.2,2013.4z M-2142.4,2010.9c-0.1,0.4,0.1,0.9,0.5,1.2c0.5,0.3,1.1,0.4,1.7,0.3
		c0.6,0,1.3-0.1,1.8-0.4c0.4-0.3,0.6-0.7,0.6-1.2c0-0.5-0.1-0.9-0.4-1.1c-0.5-0.2-1-0.3-1.6-0.2l-1.7-0.1c-0.3,0.2-0.5,0.4-0.7,0.7
		C-2142.4,2010.4-2142.4,2010.7-2142.4,2010.9z M-2142.3,2004.3c0,0.5,0.1,1,0.4,1.3c0.4,0.3,0.9,0.4,1.4,0.4c0.5,0,1-0.1,1.4-0.4
		c0.6-0.8,0.6-1.9,0-2.7c-0.9-0.5-1.9-0.5-2.8,0C-2142.2,2003.3-2142.4,2003.8-2142.3,2004.3z M-2129.4,2008.7l0.5,0l0,0.9
		c-1,0.2-2.1,0.2-3.1,0.3c-0.9,0.1-1.8-0.3-2.4-1c-0.6-0.9-0.8-2-0.7-3.1c0-2.8,1.1-4.2,3.3-4.2c0.9-0.1,1.8,0.3,2.4,0.9
		c0.6,0.8,0.9,1.8,0.8,2.8l-0.1,0.9h-5.3c-0.1,0.7,0.1,1.4,0.5,2c0.4,0.5,1,0.7,1.7,0.6C-2131.1,2008.8-2130.3,2008.8-2129.4,2008.7
		z M-2129.9,2005.2c0.1-0.7-0.1-1.5-0.5-2.1c-0.4-0.4-1-0.7-1.5-0.6c-0.6,0-1.2,0.2-1.6,0.6c-0.4,0.6-0.6,1.3-0.6,2H-2129.9z"/>
	<path class="st0" d="M-2398.9,1957.1v1.9h-4.7l-0.3,2.3c0.6-0.2,1.2-0.4,1.9-0.4c2.3,0,3.4,1.1,3.4,3.2c0.1,1-0.3,2-0.9,2.8
		c-0.7,0.7-1.7,1-2.7,1c-0.6,0-1.1-0.1-1.7-0.1c-0.5-0.1-1-0.2-1.5-0.3l-0.6-0.1l0.2-1.6c1.1,0.2,2.1,0.3,3.2,0.3
		c0.4,0,0.9-0.1,1.2-0.4c0.3-0.3,0.4-0.8,0.4-1.2c0-0.4-0.1-0.8-0.4-1.1c-0.3-0.2-0.6-0.4-1-0.4c-0.6,0-1.3,0.1-1.9,0.2l-0.2,0.1
		l-1.3-0.3l0.3-5.7H-2398.9z M-2391.9,1963.8v-1.9h3.2v5.6c-1.2,0.2-2.5,0.3-3.7,0.4c-1.7,0-2.9-0.5-3.5-1.4c-0.7-1.3-1.1-2.8-1-4.3
		c-0.1-1.5,0.2-3,1-4.3c0.8-1,2.1-1.4,3.4-1.3c1.1,0,2.2,0.1,3.2,0.3l0.6,0.1l-0.1,1.7c-1-0.1-2.1-0.2-3.1-0.2
		c-0.6,0-1.2,0.1-1.7,0.3c-0.4,0.2-0.6,0.6-0.7,1.1c-0.2,0.9-0.3,1.8-0.2,2.7c-0.1,0.9,0.1,1.8,0.5,2.6c0.5,0.6,1.2,0.9,1.9,0.8
		l1.3-0.1v-2.1H-2391.9z M-2380,1959.5c0.7,0,1.4,0.1,2.1,0.3l0.4,0.1l-0.1,1.7c-0.8-0.1-1.5-0.1-1.9-0.1c-0.5-0.1-1.1,0.1-1.5,0.5
		c-0.3,0.5-0.4,1.2-0.4,1.8c-0.1,0.6,0.1,1.2,0.4,1.8c0.4,0.4,0.9,0.6,1.5,0.5l1.9-0.1l0.1,1.7c-0.9,0.2-1.7,0.3-2.6,0.3
		c-1,0.1-1.9-0.3-2.6-1c-0.6-1-0.9-2.1-0.8-3.2c-0.1-1.1,0.2-2.2,0.8-3.2C-2381.9,1959.8-2381,1959.4-2380,1959.5z M-2375.4,1960.6
		c0.7-0.8,1.8-1.2,2.8-1.1c1.1-0.1,2.1,0.3,2.8,1.1c0.6,0.9,0.9,2,0.8,3.1c0,2.8-1.2,4.2-3.7,4.2c-2.5,0-3.7-1.4-3.7-4.2
		C-2376.3,1962.6-2376,1961.5-2375.4,1960.6L-2375.4,1960.6z M-2373.7,1965.5c0.3,0.4,0.7,0.6,1.2,0.6c0.5,0,0.9-0.2,1.2-0.6
		c0.3-0.6,0.4-1.2,0.3-1.8c0-0.6-0.1-1.2-0.3-1.8c-0.5-0.6-1.5-0.7-2.1-0.2c-0.1,0.1-0.2,0.1-0.2,0.2c-0.3,0.6-0.4,1.2-0.3,1.8
		C-2374.1,1964.3-2374,1964.9-2373.7,1965.5L-2373.7,1965.5z M-2368,1959.7h2.2l1.3,6.2h0.4l1.3-6.2h2.2l-1.9,8h-3.6L-2368,1959.7z
		 M-2357.4,1964.6c0,0.4,0.1,0.8,0.4,1.1c0.3,0.2,0.7,0.4,1.1,0.3c1,0,1.9,0,2.7-0.1l0.4,0l0,1.6c-1.1,0.3-2.2,0.4-3.3,0.4
		c-1,0.1-1.9-0.3-2.6-1c-0.6-0.9-0.9-2-0.8-3.1c0-2.9,1.2-4.3,3.5-4.3c2.3,0,3.5,1.2,3.5,3.6l-0.2,1.5H-2357.4z M-2354.7,1963
		c0-0.5-0.1-0.9-0.3-1.3c-0.6-0.5-1.5-0.5-2.1,0c-0.2,0.4-0.4,0.9-0.3,1.3H-2354.7z M-2350.9,1967.7v-8h2.1v0.8
		c0.8-0.5,1.7-0.8,2.6-1v2.2c-0.9,0.2-1.6,0.4-2.2,0.6l-0.3,0.1v5.4H-2350.9z M-2338.6,1962.2v3.3c0,0.2,0,0.4,0.1,0.5
		c0.1,0.1,0.2,0.2,0.4,0.2l-0.1,1.6c-0.4,0-0.9,0-1.3-0.1c-0.4-0.1-0.7-0.2-1-0.4c-0.7,0.4-1.5,0.6-2.4,0.6c-1.7,0-2.5-0.9-2.5-2.6
		c-0.1-0.7,0.2-1.4,0.7-1.8c0.6-0.4,1.4-0.6,2.1-0.6l1.7-0.1v-0.5c0-0.2-0.1-0.5-0.2-0.7c-0.2-0.1-0.5-0.2-0.7-0.2l-3,0.1l-0.1-1.5
		c1.1-0.3,2.2-0.5,3.3-0.5c0.8-0.1,1.6,0.2,2.2,0.6C-2338.8,1960.7-2338.6,1961.4-2338.6,1962.2z M-2342.2,1964.3
		c-0.5,0-0.9,0.4-0.9,0.8c0,0,0,0.1,0,0.1c0,0.6,0.3,0.9,0.8,0.9c0.4,0,0.9-0.1,1.3-0.2l0.2-0.1v-1.7L-2342.2,1964.3z
		 M-2329.2,1968.7c0,0.8-0.4,1.6-1.1,2c-0.9,0.5-1.9,0.7-2.9,0.7c-0.9,0-1.9-0.1-2.8-0.5c-0.7-0.3-1-1-1-1.7
		c0.1-0.8,0.5-1.5,1.2-1.9c-0.4-0.3-0.6-0.7-0.6-1.2c0.1-0.4,0.2-0.7,0.5-1.1l0.1-0.2c-0.7-0.5-1.1-1.4-1.1-2.3
		c-0.1-0.8,0.3-1.7,0.9-2.2c0.7-0.5,1.6-0.7,2.4-0.7c0.5,0,0.9,0.1,1.4,0.2l0.3,0l2.6-0.1v1.7l-1.2-0.1c0.2,0.3,0.3,0.7,0.4,1.1
		c0.1,0.8-0.2,1.6-0.8,2.2c-0.8,0.5-1.7,0.7-2.6,0.6c-0.2,0-0.4,0-0.7-0.1c-0.1,0.2-0.1,0.4-0.2,0.7c0,0.2,0.1,0.3,0.3,0.4
		c0.4,0.1,0.9,0.1,1.3,0.1c0.9-0.1,1.9,0.1,2.8,0.5C-2329.4,1967.3-2329.1,1968-2329.2,1968.7L-2329.2,1968.7z M-2334.7,1968.9
		c0,0.5,0.6,0.7,1.7,0.7s1.7-0.3,1.7-0.8c0-0.2-0.1-0.4-0.3-0.6c-0.4-0.1-0.8-0.2-1.2-0.1l-1.4-0.1
		C-2334.6,1968.2-2334.7,1968.6-2334.7,1968.9L-2334.7,1968.9z M-2334.6,1962.4c0,0.8,0.4,1.2,1.2,1.2c0.8,0,1.2-0.4,1.2-1.2
		c0-0.8-0.4-1.2-1.2-1.2c-0.6-0.1-1.1,0.3-1.2,0.9C-2334.6,1962.2-2334.6,1962.3-2334.6,1962.4L-2334.6,1962.4z M-2326,1964.6
		c0,0.4,0.1,0.8,0.4,1.1c0.3,0.2,0.7,0.4,1.1,0.3c1,0,1.9,0,2.7-0.1l0.4,0l0,1.6c-1.1,0.3-2.2,0.4-3.3,0.4c-1,0.1-1.9-0.3-2.6-1
		c-0.6-0.9-0.9-2-0.8-3.1c0-2.9,1.2-4.3,3.5-4.3c2.3,0,3.5,1.2,3.5,3.6l-0.2,1.5H-2326z M-2323.2,1963c0-0.5-0.1-0.9-0.3-1.3
		c-0.6-0.5-1.5-0.5-2.1,0c-0.2,0.4-0.4,0.9-0.3,1.3H-2323.2z M-2315.6,1967.7v-8h1.2v8H-2315.6z M-2315.6,1957.9v-1.4h1.2v1.4
		H-2315.6z M-2310.7,1967.7h-1.2v-8h1.2v0.6c0.8-0.4,1.6-0.7,2.5-0.7c0.8-0.1,1.6,0.2,2.2,0.9c0.4,1,0.6,2,0.6,3.1v4.2h-1.2v-4.2
		c0.1-0.8-0.1-1.6-0.3-2.3c-0.3-0.5-0.9-0.7-1.4-0.6c-0.4,0-0.7,0.1-1.1,0.2c-0.3,0.1-0.6,0.2-0.9,0.3l-0.3,0.1L-2310.7,1967.7z
		 M-2295.2,1964h-2.8v3.7h-1.2v-11.1h4c1-0.1,1.9,0.2,2.7,0.9c0.6,0.7,0.9,1.7,0.9,2.7C-2291.7,1962.7-2292.9,1964-2295.2,1964z
		 M-2298.1,1962.9h2.8c1.5,0,2.3-0.9,2.3-2.7c0.1-0.7-0.1-1.3-0.5-1.9c-0.5-0.4-1.1-0.7-1.7-0.6h-2.8V1962.9z M-2284.9,1959.7h1.2v8
		h-1.2v-0.6c-0.7,0.5-1.5,0.7-2.4,0.7c-0.8,0.1-1.6-0.2-2.2-0.8c-0.4-1-0.6-2.1-0.5-3.1v-4.2h1.2v4.2c-0.1,0.8,0,1.6,0.3,2.3
		c0.2,0.4,0.7,0.6,1.4,0.6c0.4,0,0.7-0.1,1.1-0.2c0.3-0.1,0.6-0.2,0.8-0.3l0.3-0.1L-2284.9,1959.7z M-2277,1960.7h-2.5v3.8
		c0,0.6,0,1.2,0.2,1.8c0.1,0.3,0.5,0.4,1,0.4l1.4-0.1l0.1,1c-0.5,0.1-1.1,0.2-1.6,0.2c-0.6,0.1-1.3-0.2-1.7-0.6
		c-0.4-0.7-0.6-1.5-0.5-2.3v-4.2h-1.1v-1h1.1v-2.4h1.2v2.4h2.5V1960.7z M-2275.4,1967.7v-8h1.2v1.1c0.9-0.6,1.9-1,2.9-1.3v1.2
		c-0.5,0.1-0.9,0.2-1.4,0.4c-0.4,0.1-0.8,0.3-1.1,0.5l-0.4,0.2v5.9H-2275.4z M-2264.1,1962.1v4.1c0,0.4,0.3,0.6,0.9,0.7l0,0.9
		c-0.7,0.1-1.4-0.2-1.9-0.6c-0.9,0.4-1.9,0.6-2.9,0.6c-0.6,0-1.2-0.2-1.7-0.6c-0.4-0.5-0.6-1.1-0.6-1.8c-0.1-0.6,0.2-1.3,0.6-1.7
		c0.5-0.4,1.2-0.7,1.9-0.7l2.5-0.2v-0.7c0-0.4-0.1-0.8-0.4-1.2c-0.3-0.2-0.6-0.4-1-0.4c-0.9,0-1.8,0.1-2.7,0.2l-0.5,0l0-0.9
		c1-0.2,2.1-0.3,3.1-0.4c0.7-0.1,1.4,0.2,2,0.6C-2264.2,1960.7-2264,1961.4-2264.1,1962.1L-2264.1,1962.1z M-2269,1965.4
		c0,1,0.4,1.5,1.2,1.5c0.7,0,1.5-0.1,2.1-0.4l0.4-0.1v-2.6l-2.4,0.2c-0.4,0-0.8,0.2-1,0.4C-2268.9,1964.6-2269,1965-2269,1965.4z
		 M-2261.5,1967.5v-7.8h1.2v7.8c0.1,0.8-0.1,1.5-0.5,2.2c-0.6,0.7-1.3,1.2-2.1,1.6l-0.5-0.9c0.6-0.3,1.2-0.7,1.6-1.2
		C-2261.6,1968.6-2261.5,1968-2261.5,1967.5z M-2261.5,1957.9v-1.4h1.2v1.4H-2261.5z M-2252.2,1962.1v4.1c0,0.4,0.3,0.6,0.9,0.7
		l0,0.9c-0.7,0.1-1.4-0.2-1.9-0.6c-0.9,0.4-1.9,0.6-2.9,0.6c-0.6,0-1.2-0.2-1.7-0.6c-0.4-0.5-0.6-1.1-0.6-1.8
		c-0.1-0.6,0.2-1.3,0.6-1.7c0.5-0.4,1.2-0.7,1.9-0.7l2.5-0.2v-0.7c0-0.4-0.1-0.8-0.4-1.2c-0.3-0.2-0.6-0.4-1-0.4
		c-0.9,0-1.8,0.1-2.7,0.2l-0.5,0l0-0.9c1-0.2,2.1-0.3,3.1-0.4c0.7-0.1,1.4,0.2,2,0.6C-2252.4,1960.7-2252.2,1961.4-2252.2,1962.1
		L-2252.2,1962.1z M-2257.1,1965.4c0,1,0.4,1.5,1.2,1.5c0.7,0,1.5-0.1,2.1-0.4l0.4-0.1v-2.6l-2.4,0.2c-0.4,0-0.8,0.2-1,0.4
		C-2257.1,1964.6-2257.2,1965-2257.1,1965.4z M-2250.5,1959.7h1.2l2,7h0.5l2-7h1.2l-3.3,11.6h-1.2l1-3.6h-1.2L-2250.5,1959.7z
		 M-2236.4,1962.1v4.1c0,0.4,0.3,0.6,0.9,0.7l0,0.9c-0.7,0.1-1.4-0.2-1.9-0.6c-0.9,0.4-1.9,0.6-2.9,0.6c-0.6,0-1.2-0.2-1.7-0.6
		c-0.4-0.5-0.6-1.1-0.6-1.8c-0.1-0.6,0.2-1.3,0.6-1.7c0.5-0.4,1.2-0.7,1.9-0.7l2.5-0.2v-0.7c0-0.4-0.1-0.8-0.4-1.2
		c-0.3-0.2-0.6-0.4-1-0.4c-0.9,0-1.8,0.1-2.7,0.2l-0.5,0l0-0.9c1-0.2,2.1-0.3,3.1-0.4c0.7-0.1,1.4,0.2,2,0.6
		C-2236.5,1960.7-2236.3,1961.4-2236.4,1962.1z M-2241.3,1965.4c0,1,0.4,1.5,1.2,1.5c0.7,0,1.5-0.1,2.1-0.4l0.4-0.1v-2.6l-2.4,0.2
		c-0.4,0-0.8,0.2-1,0.4C-2241.2,1964.6-2241.3,1965-2241.3,1965.4z M-2234.5,1969.7l0.7-3.7h1.3l-1.1,3.7H-2234.5z M-2398.7,1988.5
		c-1,0.2-2,0.3-3,0.3c-0.7,0-1.4-0.1-2.1-0.4c-0.5-0.2-1-0.6-1.2-1.1c-0.3-0.5-0.5-1.1-0.6-1.7c-0.1-0.8-0.2-1.6-0.2-2.5
		c0-0.8,0-1.7,0.2-2.5c0.1-0.6,0.3-1.2,0.6-1.8c0.3-0.5,0.7-0.9,1.2-1.1c0.7-0.3,1.4-0.4,2.1-0.4c1,0,2,0.1,3,0.4l0,1
		c-0.9-0.2-1.9-0.3-2.9-0.3c-0.9-0.1-1.8,0.3-2.3,1c-0.5,1.1-0.7,2.4-0.6,3.6c0,0.7,0,1.4,0.1,2c0.1,0.5,0.2,0.9,0.4,1.4
		c0.2,0.4,0.5,0.7,0.9,0.9c0.5,0.2,1.1,0.3,1.7,0.3c0.9,0,1.8-0.1,2.7-0.3L-2398.7,1988.5z M-2397.7,1980.7h1.2l2,7h0.5l2-7h1.2
		l-3.3,11.6h-1.2l1-3.6h-1.2L-2397.7,1980.7z M-2385.6,1980.5c0.9-0.1,1.7,0.3,2.3,0.9c0.5,1,0.7,2.1,0.6,3.2
		c0.1,1.1-0.2,2.3-0.8,3.2c-0.8,0.7-1.9,1.1-3,0.9c-0.4,0-1.2,0-2.2-0.1l-0.4,0v-11.5h1.2v3.9
		C-2387.2,1980.7-2386.4,1980.5-2385.6,1980.5z M-2386.4,1987.8c0.8,0.1,1.5-0.2,2.1-0.7c0.4-0.7,0.6-1.6,0.5-2.4
		c0.1-0.8-0.1-1.6-0.4-2.4c-0.3-0.5-0.9-0.7-1.4-0.7c-0.6,0-1.3,0.1-1.9,0.4l-0.3,0.1v5.6
		C-2387.2,1987.8-2386.7,1987.8-2386.4,1987.8z M-2375.1,1987.7l0.5,0l0,0.9c-1,0.2-2.1,0.2-3.1,0.3c-0.9,0.1-1.8-0.3-2.4-1
		c-0.6-0.9-0.8-2-0.7-3.1c0-2.8,1.1-4.2,3.3-4.2c0.9-0.1,1.8,0.3,2.4,0.9c0.6,0.8,0.9,1.8,0.8,2.8l-0.1,0.9h-5.3
		c-0.1,0.7,0.1,1.4,0.5,2c0.4,0.5,1,0.7,1.7,0.6C-2376.7,1987.8-2375.9,1987.8-2375.1,1987.7z M-2375.5,1984.2
		c0.1-0.7-0.1-1.5-0.5-2.1c-0.4-0.4-1-0.7-1.5-0.6c-0.6,0-1.2,0.2-1.6,0.6c-0.4,0.6-0.6,1.3-0.6,2H-2375.5z M-2372.3,1988.7v-8h1.2
		v1.1c0.9-0.6,1.9-1,2.9-1.3v1.2c-0.5,0.1-0.9,0.2-1.4,0.4c-0.4,0.1-0.8,0.3-1.1,0.5l-0.4,0.2v5.9H-2372.3z M-2366.6,1988.5v-7.8
		h1.2v7.8c0.1,0.8-0.1,1.5-0.5,2.2c-0.6,0.7-1.3,1.2-2.1,1.6l-0.5-0.9c0.6-0.3,1.2-0.7,1.6-1.2
		C-2366.6,1989.6-2366.5,1989-2366.6,1988.5z M-2366.6,1978.9v-1.4h1.2v1.4H-2366.6z M-2357.3,1983.1v4.1c0,0.4,0.3,0.6,0.9,0.7
		l0,0.9c-0.7,0.1-1.4-0.2-1.9-0.6c-0.9,0.4-1.9,0.6-2.9,0.6c-0.6,0-1.2-0.2-1.7-0.6c-0.4-0.5-0.6-1.1-0.6-1.8
		c-0.1-0.6,0.2-1.3,0.6-1.7c0.5-0.4,1.2-0.7,1.9-0.7l2.5-0.2v-0.7c0-0.4-0.1-0.8-0.4-1.2c-0.3-0.2-0.6-0.4-1-0.4
		c-0.9,0-1.8,0.1-2.7,0.2l-0.5,0l0-0.9c1-0.2,2.1-0.3,3.1-0.4c1.2-0.2,2.4,0.6,2.6,1.8C-2357.2,1982.6-2357.2,1982.8-2357.3,1983.1z
		 M-2362.2,1986.4c0,1,0.4,1.5,1.2,1.5c0.7,0,1.5-0.1,2.1-0.4l0.4-0.1v-2.6l-2.4,0.2c-0.4,0-0.8,0.2-1,0.4
		C-2362.1,1985.6-2362.2,1986-2362.2,1986.4z M-2355.6,1980.7h1.2l2,7h0.5l2-7h1.2l-3.3,11.6h-1.2l1-3.6h-1.2L-2355.6,1980.7z
		 M-2341.4,1983.1v4.1c0,0.4,0.3,0.6,0.9,0.7l0,0.9c-0.7,0.1-1.4-0.2-1.9-0.6c-0.9,0.4-1.9,0.6-2.9,0.6c-0.6,0-1.2-0.2-1.7-0.6
		c-0.4-0.5-0.6-1.1-0.6-1.8c-0.1-0.6,0.2-1.3,0.6-1.7c0.5-0.4,1.2-0.7,1.9-0.7l2.5-0.2v-0.7c0-0.4-0.1-0.8-0.4-1.2
		c-0.3-0.2-0.6-0.4-1-0.4c-0.9,0-1.8,0.1-2.7,0.2l-0.5,0l0-0.9c1-0.2,2.1-0.3,3.1-0.4c1.2-0.2,2.4,0.6,2.6,1.8
		C-2341.4,1982.6-2341.4,1982.8-2341.4,1983.1z M-2346.4,1986.4c0,1,0.4,1.5,1.2,1.5c0.7,0,1.5-0.1,2.1-0.4l0.4-0.1v-2.6l-2.4,0.2
		c-0.4,0-0.8,0.2-1,0.4C-2346.3,1985.6-2346.4,1986-2346.4,1986.4z M-2339.5,1990.7l0.7-3.7h1.3l-1.1,3.7H-2339.5z M-2325.8,1983.1
		v4.1c0,0.4,0.3,0.6,0.9,0.7l0,0.9c-0.7,0.1-1.4-0.2-1.9-0.6c-0.9,0.4-1.9,0.6-2.9,0.6c-0.6,0-1.2-0.2-1.7-0.6
		c-0.4-0.5-0.6-1.1-0.6-1.8c-0.1-0.6,0.2-1.3,0.6-1.7c0.5-0.4,1.2-0.7,1.9-0.7l2.5-0.2v-0.7c0-0.4-0.1-0.8-0.4-1.2
		c-0.3-0.2-0.6-0.4-1-0.4c-0.9,0-1.8,0.1-2.7,0.2l-0.5,0l0-0.9c1-0.2,2.1-0.3,3.1-0.4c1.2-0.2,2.4,0.6,2.6,1.8
		C-2325.8,1982.6-2325.8,1982.8-2325.8,1983.1L-2325.8,1983.1z M-2330.8,1986.4c0,1,0.4,1.5,1.2,1.5c0.7,0,1.5-0.1,2.1-0.4l0.4-0.1
		v-2.6l-2.4,0.2c-0.4,0-0.8,0.2-1,0.4C-2330.7,1985.6-2330.8,1986-2330.8,1986.4z M-2322.1,1988.7h-1.2v-8h1.2v0.6
		c0.8-0.4,1.6-0.7,2.5-0.7c0.8-0.1,1.6,0.2,2.2,0.9c0.4,1,0.6,2,0.6,3.1v4.2h-1.2v-4.2c0.1-0.8-0.1-1.6-0.3-2.3
		c-0.3-0.5-0.9-0.7-1.4-0.6c-0.4,0-0.7,0.1-1.1,0.2c-0.3,0.1-0.6,0.2-0.9,0.3l-0.3,0.1L-2322.1,1988.7z M-2308.4,1977.2v11.5h-1.2
		v-0.5c-0.7,0.4-1.6,0.7-2.4,0.7c-0.4,0-0.8,0-1.1-0.2c-0.3-0.1-0.6-0.3-0.9-0.6c-0.7-0.9-1-2.1-0.9-3.2c-0.1-1.2,0.2-2.3,0.8-3.4
		c0.6-0.7,1.6-1.1,2.6-1c0.7,0,1.3,0.1,2,0.2v-3.5H-2308.4z M-2313.1,1987.2c0.1,0.2,0.3,0.3,0.5,0.4c0.2,0.1,0.5,0.1,0.7,0.1
		c0.3,0,0.7-0.1,1-0.2c0.3-0.1,0.6-0.2,0.9-0.3l0.3-0.1v-5.4c-0.6-0.1-1.3-0.2-1.9-0.2c-0.7-0.1-1.3,0.2-1.7,0.8
		c-0.4,0.7-0.5,1.6-0.5,2.4C-2313.8,1985.6-2313.6,1986.5-2313.1,1987.2L-2313.1,1987.2z M-2300.8,1988.7h-1.2v-11.1h1.2v5.2
		l1.8-0.1l2.8-5.1h1.4l-3.2,5.6l3.3,5.5h-1.5l-2.9-4.9l-1.8,0.1L-2300.8,1988.7z M-2288.2,1980.7h1.2v8h-1.2v-0.6
		c-0.7,0.5-1.5,0.7-2.4,0.7c-0.8,0.1-1.6-0.2-2.2-0.8c-0.4-1-0.6-2.1-0.5-3.1v-4.2h1.2v4.2c-0.1,0.8,0,1.6,0.3,2.3
		c0.2,0.4,0.7,0.6,1.4,0.6c0.4,0,0.7-0.1,1.1-0.2c0.3-0.1,0.6-0.2,0.8-0.3l0.3-0.1L-2288.2,1980.7z M-2278.9,1983.1v4.1
		c0,0.4,0.3,0.6,0.9,0.7l0,0.9c-0.7,0.1-1.4-0.2-1.9-0.6c-0.9,0.4-1.9,0.6-2.9,0.6c-0.6,0-1.2-0.2-1.7-0.6c-0.4-0.5-0.6-1.1-0.6-1.8
		c-0.1-0.6,0.2-1.3,0.6-1.7c0.5-0.4,1.2-0.7,1.9-0.7l2.5-0.2v-0.7c0-0.4-0.1-0.8-0.4-1.2c-0.3-0.2-0.6-0.4-1-0.4
		c-0.9,0-1.8,0.1-2.7,0.2l-0.5,0l0-0.9c1-0.2,2.1-0.3,3.1-0.4c1.2-0.2,2.4,0.6,2.6,1.8C-2278.8,1982.6-2278.8,1982.8-2278.9,1983.1
		L-2278.9,1983.1z M-2283.8,1986.4c0,1,0.4,1.5,1.2,1.5c0.7,0,1.5-0.1,2.1-0.4l0.4-0.1v-2.6l-2.4,0.2c-0.4,0-0.8,0.2-1,0.4
		C-2283.7,1985.6-2283.8,1986-2283.8,1986.4L-2283.8,1986.4z M-2276.3,1988.7v-11.5h1.2v11.5H-2276.3z M-2266.9,1983.1v4.1
		c0,0.4,0.3,0.6,0.9,0.7l0,0.9c-0.7,0.1-1.4-0.2-1.9-0.6c-0.9,0.4-1.9,0.6-2.9,0.6c-0.6,0-1.2-0.2-1.7-0.6c-0.4-0.5-0.6-1.1-0.6-1.8
		c-0.1-0.6,0.2-1.3,0.6-1.7c0.5-0.4,1.2-0.7,1.9-0.7l2.5-0.2v-0.7c0-0.4-0.1-0.8-0.4-1.2c-0.3-0.2-0.6-0.4-1-0.4
		c-0.9,0-1.8,0.1-2.7,0.2l-0.5,0l0-0.9c1-0.2,2.1-0.3,3.1-0.4c1.2-0.2,2.4,0.6,2.6,1.8C-2266.8,1982.6-2266.8,1982.8-2266.9,1983.1
		L-2266.9,1983.1z M-2271.8,1986.4c0,1,0.4,1.5,1.2,1.5c0.7,0,1.5-0.1,2.1-0.4l0.4-0.1v-2.6l-2.4,0.2c-0.4,0-0.8,0.2-1,0.4
		C-2271.7,1985.6-2271.8,1986-2271.8,1986.4z M-2399.3,2009.7h-6.1v-11.1h1.2v10h4.9V2009.7z M-2392.9,2001.7h1.2v8h-1.2v-0.6
		c-0.7,0.5-1.5,0.7-2.4,0.7c-0.8,0.1-1.6-0.2-2.2-0.8c-0.4-1-0.6-2.1-0.5-3.1v-4.2h1.2v4.2c-0.1,0.8,0,1.6,0.3,2.3
		c0.2,0.4,0.7,0.6,1.4,0.6c0.4,0,0.7-0.1,1.1-0.2c0.3-0.1,0.6-0.2,0.8-0.3l0.3-0.1L-2392.9,2001.7z M-2388,2009.7h-1.2v-8h1.2v0.6
		c0.7-0.4,1.5-0.7,2.3-0.7c0.8-0.1,1.6,0.2,2.1,0.8c0.4-0.2,0.9-0.4,1.4-0.6c0.5-0.2,1-0.2,1.5-0.2c0.8-0.1,1.6,0.2,2.2,0.9
		c0.4,1,0.6,2,0.6,3.1v4.2h-1.2v-4.2c0.1-0.8-0.1-1.6-0.3-2.3c-0.3-0.5-0.8-0.7-1.4-0.6c-0.4,0-0.7,0.1-1.1,0.2
		c-0.3,0.1-0.6,0.2-0.9,0.3l-0.3,0.1c0.2,0.8,0.3,1.6,0.2,2.3v4.2h-1.2v-4.1c0.1-0.8-0.1-1.6-0.3-2.3c-0.3-0.5-0.8-0.7-1.4-0.6
		c-0.4,0-0.7,0.1-1,0.2c-0.3,0.1-0.6,0.2-0.8,0.3l-0.3,0.1V2009.7z M-2375.7,2013.2v-11.6h1.2v0.6c0.7-0.5,1.5-0.7,2.4-0.7
		c0.9-0.1,1.7,0.3,2.2,1c0.5,1,0.8,2.1,0.7,3.2c0.1,1.1-0.2,2.3-0.8,3.2c-0.7,0.7-1.7,1.1-2.7,1c-0.6,0-1.2-0.1-1.8-0.2v3.6H-2375.7
		z M-2372.2,2002.6c-0.3,0-0.7,0.1-1,0.2c-0.3,0.1-0.6,0.2-0.9,0.3l-0.3,0.2v5.4c0.6,0.1,1.1,0.2,1.7,0.2c0.7,0.1,1.4-0.2,1.8-0.7
		c0.4-0.7,0.6-1.6,0.5-2.4c0.1-0.8-0.1-1.6-0.5-2.4C-2371.2,2002.8-2371.7,2002.6-2372.2,2002.6z M-2362.1,2001.7h1.2v8h-1.2v-0.6
		c-0.7,0.5-1.5,0.7-2.4,0.7c-0.8,0.1-1.6-0.2-2.2-0.8c-0.4-1-0.6-2.1-0.5-3.1v-4.2h1.2v4.2c-0.1,0.8,0,1.6,0.3,2.3
		c0.2,0.4,0.7,0.6,1.4,0.6c0.4,0,0.7-0.1,1.1-0.2c0.3-0.1,0.6-0.2,0.8-0.3l0.3-0.1L-2362.1,2001.7z M-2358.4,2009.7v-8h1.2v1.1
		c0.9-0.6,1.9-1,2.9-1.3v1.2c-0.5,0.1-0.9,0.2-1.4,0.4c-0.4,0.1-0.8,0.3-1.1,0.5l-0.4,0.2v5.9H-2358.4z"/>
	<path class="st0" d="M-1970.6,1959v-2h6.8v2.5l-3.8,8.3l-2.1-0.6l3.6-7.7v-0.5L-1970.6,1959z M-1961.2,1958.2
		c0.8-0.9,1.9-1.4,3.1-1.3c1.2-0.1,2.3,0.4,3.1,1.3c0.8,1.3,1.2,2.7,1,4.2c0.1,1.5-0.2,2.9-1,4.2c-0.8,0.9-1.9,1.3-3.1,1.3
		c-1.2,0.1-2.3-0.4-3.1-1.3c-0.8-1.2-1.2-2.7-1-4.2C-1962.3,1960.9-1962,1959.4-1961.2,1958.2L-1961.2,1958.2z M-1956.3,1962.3
		c0.1-0.9-0.1-1.9-0.4-2.8c-0.3-0.5-0.8-0.8-1.4-0.8c-0.6,0-1.1,0.3-1.4,0.8c-0.3,0.9-0.5,1.8-0.4,2.8c-0.1,0.9,0.1,1.9,0.4,2.8
		c0.3,0.5,0.8,0.8,1.4,0.8c0.6,0,1.1-0.3,1.4-0.8C-1956.4,1964.2-1956.2,1963.3-1956.3,1962.3z M-1951.5,1967.7l3.8-11.3l1.2,0.4
		l-3.8,11.3L-1951.5,1967.7z M-1953.2,1959.2c0-1.6,0.6-2.3,1.9-2.3c1.3,0,1.9,0.8,1.9,2.3c0,1.6-0.6,2.3-1.9,2.3
		S-1953.2,1960.7-1953.2,1959.2z M-1951.6,1958.4c-0.1,0.3-0.1,0.5-0.1,0.8c0,0.3,0,0.5,0.1,0.8c0,0.1,0.1,0.2,0.3,0.2
		c0.1,0,0.3-0.1,0.3-0.2c0.1-0.3,0.1-0.5,0.1-0.8c0-0.3,0-0.5-0.1-0.8c0-0.1-0.1-0.2-0.3-0.2
		C-1951.5,1958.1-1951.6,1958.2-1951.6,1958.4z M-1948.6,1965.5c0-1.6,0.6-2.3,1.9-2.3c1.3,0,1.9,0.8,1.9,2.3s-0.6,2.3-1.9,2.3
		C-1947.9,1967.8-1948.6,1967-1948.6,1965.5L-1948.6,1965.5z M-1946.9,1964.7c-0.1,0.3-0.1,0.5-0.1,0.8c0,0.3,0,0.5,0.1,0.8
		c0,0.1,0.1,0.2,0.3,0.2c0.1,0,0.3-0.1,0.3-0.2c0.1-0.3,0.1-0.5,0.1-0.8c0-0.3,0-0.5-0.1-0.8c0-0.1-0.1-0.2-0.3-0.2
		C-1946.8,1964.4-1946.9,1964.5-1946.9,1964.7L-1946.9,1964.7z M-1969.4,1988.7h-1.2v-8h1.2v0.6c0.8-0.4,1.6-0.7,2.5-0.7
		c0.8-0.1,1.6,0.2,2.2,0.9c0.4,1,0.6,2,0.6,3.1v4.2h-1.2v-4.2c0.1-0.8-0.1-1.6-0.3-2.3c-0.3-0.5-0.9-0.7-1.4-0.6
		c-0.4,0-0.7,0.1-1.1,0.2c-0.3,0.1-0.6,0.2-0.9,0.3l-0.3,0.1L-1969.4,1988.7z M-1956.2,1983.1v4.1c0,0.4,0.3,0.6,0.9,0.7l0,0.9
		c-0.7,0.1-1.4-0.2-1.9-0.6c-0.9,0.4-1.9,0.6-2.9,0.6c-0.6,0-1.2-0.2-1.7-0.6c-0.4-0.5-0.6-1.1-0.6-1.8c-0.1-0.6,0.2-1.3,0.6-1.7
		c0.5-0.4,1.2-0.7,1.9-0.7l2.5-0.2v-0.7c0-0.4-0.1-0.8-0.4-1.2c-0.3-0.2-0.6-0.4-1-0.4c-0.9,0-1.8,0.1-2.7,0.2l-0.5,0l0-0.9
		c1-0.2,2.1-0.3,3.1-0.4c0.7-0.1,1.4,0.2,2,0.6C-1956.4,1981.7-1956.1,1982.4-1956.2,1983.1z M-1961.1,1986.4c0,1,0.4,1.5,1.2,1.5
		c0.7,0,1.5-0.1,2.1-0.4l0.4-0.1v-2.6l-2.4,0.2c-0.4,0-0.8,0.2-1,0.4C-1961,1985.6-1961.2,1986-1961.1,1986.4z M-1949.5,1981.7h-2.5
		v3.8c0,0.6,0,1.2,0.2,1.8c0.1,0.3,0.5,0.4,1,0.4l1.4-0.1l0.1,1c-0.5,0.1-1.1,0.2-1.6,0.2c-0.6,0.1-1.3-0.2-1.7-0.6
		c-0.4-0.7-0.6-1.5-0.5-2.3v-4.2h-1.1v-1h1.1v-2.4h1.2v2.4h2.5V1981.7z M-1947.9,1988.7v-8h1.2v8H-1947.9z M-1947.9,1978.9v-1.4h1.2
		v1.4H-1947.9z M-1944.6,1984.7c-0.1-1.1,0.2-2.2,0.8-3.2c0.7-0.7,1.7-1.1,2.6-1c1-0.1,2,0.3,2.6,1c0.6,0.9,0.9,2.1,0.8,3.2
		c0.1,1.1-0.2,2.2-0.7,3.2c-0.7,0.7-1.7,1.1-2.7,1c-1,0.1-2-0.2-2.7-1C-1944.4,1986.9-1944.7,1985.8-1944.6,1984.7z M-1943.3,1984.7
		c-0.1,0.8,0.1,1.7,0.4,2.4c0.4,0.5,1.1,0.8,1.8,0.7c0.7,0.1,1.3-0.2,1.8-0.7c0.3-0.8,0.5-1.6,0.4-2.5c0.1-0.8-0.1-1.7-0.5-2.4
		c-0.4-0.5-1.1-0.7-1.7-0.7c-0.7-0.1-1.3,0.2-1.7,0.7C-1943.3,1983-1943.4,1983.8-1943.3,1984.7z M-1934.4,1988.7h-1.2v-8h1.2v0.6
		c0.8-0.4,1.6-0.7,2.5-0.7c0.8-0.1,1.6,0.2,2.2,0.9c0.4,1,0.6,2,0.6,3.1v4.2h-1.2v-4.2c0.1-0.8-0.1-1.6-0.3-2.3
		c-0.3-0.5-0.9-0.7-1.4-0.6c-0.4,0-0.7,0.1-1.1,0.2c-0.3,0.1-0.6,0.2-0.9,0.3l-0.3,0.1L-1934.4,1988.7z M-1927.6,1980.7h1.2l1.6,7
		h0.3l1.9-6.8h1.2l1.9,6.8h0.3l1.6-7h1.2l-1.9,8h-2l-1.7-6.3l-1.7,6.3h-2L-1927.6,1980.7z M-1914.6,1988.7v-8h1.2v8H-1914.6z
		 M-1914.6,1978.9v-1.4h1.2v1.4H-1914.6z M-1904.8,1977.2v11.5h-1.2v-0.5c-0.7,0.4-1.6,0.7-2.4,0.7c-0.4,0-0.8,0-1.1-0.2
		c-0.3-0.1-0.6-0.3-0.9-0.6c-0.7-0.9-1-2.1-0.9-3.2c-0.1-1.2,0.2-2.3,0.8-3.4c0.6-0.7,1.6-1.1,2.6-1c0.7,0,1.3,0.1,2,0.2v-3.5
		H-1904.8z M-1909.5,1987.2c0.1,0.2,0.3,0.3,0.5,0.4c0.2,0.1,0.5,0.1,0.7,0.1c0.3,0,0.7-0.1,1-0.2c0.3-0.1,0.6-0.2,0.9-0.3l0.3-0.1
		v-5.4c-0.6-0.1-1.3-0.2-1.9-0.2c-0.7-0.1-1.3,0.2-1.7,0.8c-0.4,0.7-0.5,1.6-0.5,2.4C-1910.1,1985.6-1910,1986.5-1909.5,1987.2
		L-1909.5,1987.2z M-1896.9,1987.7l0.5,0l0,0.9c-1,0.2-2.1,0.2-3.1,0.3c-0.9,0.1-1.8-0.3-2.4-1c-0.6-0.9-0.8-2-0.7-3.1
		c0-2.8,1.1-4.2,3.3-4.2c0.9-0.1,1.8,0.3,2.4,0.9c0.6,0.8,0.9,1.8,0.8,2.8l-0.1,0.9h-5.3c-0.1,0.7,0.1,1.4,0.5,2
		c0.4,0.5,1,0.7,1.7,0.6C-1898.5,1987.8-1897.7,1987.8-1896.9,1987.7L-1896.9,1987.7z M-1897.3,1984.2c0.1-0.7-0.1-1.5-0.5-2.1
		c-0.4-0.4-1-0.7-1.5-0.6c-0.6,0-1.2,0.2-1.6,0.6c-0.4,0.6-0.6,1.3-0.6,2H-1897.3z M-1967.6,2001.5c0.6,0,1.2,0.1,1.8,0.2l0.4,0l0,1
		c-0.6-0.1-1.3-0.1-1.9-0.1c-0.7-0.1-1.4,0.2-1.8,0.6c-0.4,0.7-0.6,1.6-0.5,2.4c-0.1,0.8,0.1,1.7,0.4,2.4c0.5,0.5,1.2,0.8,1.9,0.7
		l1.9-0.1l0,1c-0.7,0.1-1.5,0.2-2.2,0.2c-1,0.1-1.9-0.2-2.6-1c-0.6-1-0.8-2.1-0.7-3.2c-0.1-1.1,0.2-2.2,0.8-3.2
		C-1969.5,2001.8-1968.6,2001.4-1967.6,2001.5L-1967.6,2001.5z M-1963.9,2005.7c-0.1-1.1,0.2-2.2,0.8-3.2c0.7-0.7,1.7-1.1,2.6-1
		c1-0.1,2,0.3,2.6,1c0.6,0.9,0.9,2.1,0.8,3.2c0.1,1.1-0.2,2.2-0.7,3.2c-0.7,0.7-1.7,1.1-2.7,1c-1,0.1-2-0.2-2.7-1
		C-1963.7,2007.9-1964,2006.8-1963.9,2005.7L-1963.9,2005.7z M-1962.7,2005.7c-0.1,0.8,0.1,1.7,0.4,2.5c0.4,0.5,1.1,0.8,1.8,0.7
		c0.7,0.1,1.3-0.2,1.8-0.7c0.3-0.8,0.5-1.6,0.4-2.5c0.1-0.8-0.1-1.7-0.5-2.4c-0.4-0.5-1.1-0.7-1.7-0.7c-0.7-0.1-1.3,0.2-1.7,0.7
		C-1962.6,2004-1962.8,2004.8-1962.7,2005.7L-1962.7,2005.7z M-1955.8,2001.7h1.3l1.9,7h0.6l1.9-7h1.2l-2.3,8h-2.4L-1955.8,2001.7z
		 M-1941.9,2008.7l0.5,0l0,0.9c-1,0.2-2.1,0.2-3.1,0.3c-0.9,0.1-1.8-0.3-2.4-1c-0.6-0.9-0.8-2-0.7-3.1c0-2.8,1.1-4.2,3.3-4.2
		c0.9-0.1,1.8,0.3,2.4,0.9c0.6,0.8,0.9,1.8,0.8,2.8l-0.1,0.9h-5.3c-0.1,0.7,0.1,1.4,0.5,2c0.4,0.5,1,0.7,1.7,0.6
		C-1943.6,2008.8-1942.8,2008.8-1941.9,2008.7L-1941.9,2008.7z M-1942.4,2005.2c0.1-0.7-0.1-1.5-0.5-2.1c-0.4-0.4-1-0.7-1.5-0.6
		c-0.6,0-1.2,0.2-1.6,0.6c-0.4,0.6-0.6,1.3-0.6,2H-1942.4z M-1939.1,2009.7v-8h1.2v1.1c0.9-0.6,1.9-1,2.9-1.3v1.2
		c-0.5,0.1-0.9,0.2-1.4,0.4c-0.4,0.1-0.8,0.3-1.1,0.5l-0.4,0.2v5.9H-1939.1z M-1927.8,2004.1v4.1c0,0.4,0.3,0.6,0.9,0.7l0,0.9
		c-0.7,0.1-1.4-0.2-1.9-0.6c-0.9,0.4-1.9,0.6-2.9,0.6c-0.6,0-1.2-0.2-1.7-0.6c-0.4-0.5-0.6-1.1-0.6-1.8c-0.1-0.6,0.2-1.3,0.6-1.7
		c0.5-0.4,1.2-0.7,1.9-0.7l2.5-0.2v-0.7c0-0.4-0.1-0.8-0.4-1.2c-0.3-0.2-0.6-0.4-1-0.4c-0.9,0-1.8,0.1-2.7,0.2l-0.5,0l0-0.9
		c1-0.2,2.1-0.3,3.1-0.4c1.2-0.2,2.4,0.6,2.6,1.8C-1927.8,2003.6-1927.8,2003.8-1927.8,2004.1z M-1932.7,2007.4c0,1,0.4,1.5,1.2,1.5
		c0.7,0,1.5-0.1,2.1-0.4l0.4-0.1v-2.6l-2.4,0.2c-0.4,0-0.8,0.2-1,0.4C-1932.6,2006.6-1932.8,2007-1932.7,2007.4z M-1922.2,2013.4
		c-0.9,0.1-1.9-0.1-2.7-0.5c-0.6-0.5-0.8-1.2-0.8-1.9c0-0.4,0.1-0.7,0.3-1.1c0.3-0.4,0.6-0.7,1-0.9c-0.3-0.3-0.5-0.7-0.4-1.1
		c0.1-0.4,0.2-0.7,0.4-1l0.1-0.3c-0.9-0.5-1.4-1.4-1.3-2.4c0-1.8,1-2.7,3-2.7c0.5,0,1,0.1,1.4,0.2l0.2,0l2.4-0.1v1l-1.5,0
		c0.4,0.4,0.6,1,0.5,1.6c0.1,0.8-0.2,1.5-0.7,2.1c-0.7,0.5-1.5,0.7-2.3,0.6c-0.3,0-0.5,0-0.8-0.1c-0.1,0.3-0.2,0.6-0.3,0.9
		c0,0.3,0.1,0.5,0.3,0.6c0.6,0.1,1.2,0.2,1.8,0.1c0.8-0.1,1.5,0.1,2.2,0.5c0.5,0.5,0.8,1.2,0.7,1.9
		C-1918.6,2012.6-1919.8,2013.4-1922.2,2013.4z M-1924.4,2010.9c-0.1,0.4,0.1,0.9,0.5,1.2c0.5,0.3,1.1,0.4,1.7,0.3
		c0.6,0,1.3-0.1,1.8-0.4c0.4-0.3,0.6-0.7,0.6-1.2c0-0.5-0.1-0.9-0.4-1.1c-0.5-0.2-1-0.3-1.6-0.2l-1.7-0.1c-0.3,0.2-0.5,0.4-0.7,0.7
		C-1924.4,2010.4-1924.4,2010.7-1924.4,2010.9z M-1924.3,2004.3c0,0.5,0.1,1,0.4,1.3c0.4,0.3,0.9,0.4,1.4,0.4c0.5,0,1-0.1,1.4-0.4
		c0.6-0.8,0.6-1.9,0-2.7c-0.9-0.5-1.9-0.5-2.8,0C-1924.2,2003.3-1924.4,2003.8-1924.3,2004.3z M-1911.4,2008.7l0.5,0l0,0.9
		c-1,0.2-2.1,0.2-3.1,0.3c-0.9,0.1-1.8-0.3-2.4-1c-0.6-0.9-0.8-2-0.7-3.1c0-2.8,1.1-4.2,3.3-4.2c0.9-0.1,1.8,0.3,2.4,0.9
		c0.6,0.8,0.9,1.8,0.8,2.8l-0.1,0.9h-5.3c-0.1,0.7,0.1,1.4,0.5,2c0.4,0.5,1,0.7,1.7,0.6C-1913.1,2008.8-1912.3,2008.8-1911.4,2008.7
		z M-1911.9,2005.2c0.1-0.7-0.1-1.5-0.5-2.1c-0.4-0.4-1-0.7-1.5-0.6c-0.6,0-1.2,0.2-1.6,0.6c-0.4,0.6-0.6,1.3-0.6,2H-1911.9z"/>
	<path class="st0" d="M-1752.1,1957.7c0.8-0.5,1.8-0.8,2.8-0.8c1,0,2,0.2,2.8,0.8c0.7,0.5,1.1,1.3,1.1,2.1c0,0.5-0.1,0.9-0.2,1.4
		c-0.2,0.4-0.5,0.8-0.9,1c0.4,0.3,0.7,0.7,1,1.1c0.2,0.5,0.3,1,0.3,1.5c0.1,0.9-0.4,1.8-1.1,2.3c-0.9,0.5-1.9,0.8-2.9,0.7
		c-2.7,0-4-1-4-2.9c0-0.5,0.1-1.1,0.3-1.6c0.3-0.4,0.6-0.8,1-1.2c-0.4-0.3-0.7-0.6-0.9-1.1c-0.2-0.4-0.3-0.9-0.2-1.4
		C-1753.2,1959-1752.8,1958.2-1752.1,1957.7z M-1750.9,1964.5c0,0.9,0.6,1.4,1.7,1.4s1.7-0.5,1.7-1.4c0-0.6-0.4-1.1-0.9-1.2h-1.4
		C-1750.5,1963.4-1750.9,1963.9-1750.9,1964.5z M-1749.3,1958.9c-0.4,0-0.8,0.1-1.1,0.3c-0.3,0.2-0.4,0.6-0.4,1c0,0.5,0.3,1,0.8,1.2
		h1.4c0.5-0.3,0.8-0.7,0.8-1.2C-1747.8,1959.3-1748.3,1958.9-1749.3,1958.9z M-1743.2,1958.2c0.8-0.9,1.9-1.4,3.1-1.3
		c1.2-0.1,2.3,0.4,3.1,1.3c0.8,1.3,1.2,2.7,1,4.2c0.1,1.5-0.2,2.9-1,4.2c-0.8,0.9-1.9,1.3-3.1,1.3c-1.2,0.1-2.3-0.4-3.1-1.3
		c-0.8-1.2-1.2-2.7-1-4.2C-1744.4,1961-1744,1959.5-1743.2,1958.2z M-1738.3,1962.4c0.1-0.9-0.1-1.9-0.4-2.8
		c-0.3-0.5-0.8-0.8-1.4-0.8c-0.6,0-1.1,0.3-1.4,0.8c-0.3,0.9-0.5,1.8-0.4,2.8c-0.1,0.9,0.1,1.9,0.4,2.8c0.3,0.5,0.8,0.8,1.4,0.8
		c0.6,0,1.1-0.3,1.4-0.8C-1738.4,1964.3-1738.3,1963.4-1738.3,1962.4L-1738.3,1962.4z M-1733.5,1967.8l3.8-11.3l1.2,0.4l-3.8,11.3
		L-1733.5,1967.8z M-1735.3,1959.3c0-1.6,0.6-2.3,1.9-2.3s1.9,0.8,1.9,2.3c0,1.6-0.6,2.3-1.9,2.3S-1735.3,1960.8-1735.3,1959.3z
		 M-1733.7,1958.5c-0.1,0.3-0.1,0.5-0.1,0.8c0,0.3,0,0.5,0.1,0.8c0,0.1,0.1,0.2,0.3,0.2c0.1,0,0.3-0.1,0.3-0.2
		c0.1-0.3,0.1-0.5,0.1-0.8c0-0.3,0-0.5-0.1-0.8c0-0.1-0.1-0.2-0.3-0.2C-1733.5,1958.2-1733.6,1958.3-1733.7,1958.5z M-1730.6,1965.6
		c0-1.6,0.6-2.3,1.9-2.3c1.3,0,1.9,0.8,1.9,2.3s-0.6,2.3-1.9,2.3C-1730,1967.9-1730.6,1967.1-1730.6,1965.6L-1730.6,1965.6z
		 M-1729,1964.7c-0.1,0.3-0.1,0.5-0.1,0.8c0,0.3,0,0.5,0.1,0.8c0,0.1,0.1,0.2,0.3,0.2c0.1,0,0.3-0.1,0.3-0.2
		c0.1-0.3,0.1-0.5,0.1-0.8c0-0.3,0-0.5-0.1-0.8c0-0.1-0.1-0.2-0.3-0.2C-1728.8,1964.5-1729,1964.6-1729,1964.7L-1729,1964.7z
		 M-1751.4,1988.7h-1.2v-8h1.2v0.6c0.8-0.4,1.6-0.7,2.5-0.7c0.8-0.1,1.6,0.2,2.2,0.9c0.4,1,0.6,2,0.6,3.1v4.2h-1.2v-4.2
		c0.1-0.8-0.1-1.6-0.3-2.3c-0.3-0.5-0.9-0.7-1.4-0.6c-0.4,0-0.7,0.1-1.1,0.2c-0.3,0.1-0.6,0.2-0.9,0.3l-0.3,0.1L-1751.4,1988.7z
		 M-1738.2,1983.1v4.1c0,0.4,0.3,0.6,0.9,0.7l0,0.9c-0.7,0.1-1.4-0.2-1.9-0.6c-0.9,0.4-1.9,0.6-2.9,0.6c-0.6,0-1.2-0.2-1.7-0.6
		c-0.4-0.5-0.6-1.1-0.6-1.8c-0.1-0.6,0.2-1.3,0.6-1.7c0.5-0.4,1.2-0.7,1.9-0.7l2.5-0.2v-0.7c0-0.4-0.1-0.8-0.4-1.2
		c-0.3-0.2-0.6-0.4-1-0.4c-0.9,0-1.8,0.1-2.7,0.2l-0.5,0l0-0.9c1-0.2,2.1-0.3,3.1-0.4c0.7-0.1,1.4,0.2,2,0.6
		C-1738.4,1981.7-1738.1,1982.4-1738.2,1983.1z M-1743.1,1986.4c0,1,0.4,1.5,1.2,1.5c0.7,0,1.5-0.1,2.1-0.4l0.4-0.1v-2.6l-2.4,0.2
		c-0.4,0-0.8,0.2-1,0.4C-1743,1985.6-1743.2,1986-1743.1,1986.4z M-1731.5,1981.7h-2.5v3.8c0,0.6,0,1.2,0.2,1.8
		c0.1,0.3,0.5,0.4,1,0.4l1.4-0.1l0.1,1c-0.5,0.1-1.1,0.2-1.6,0.2c-0.6,0.1-1.3-0.2-1.7-0.6c-0.4-0.7-0.6-1.5-0.5-2.3v-4.2h-1.1v-1
		h1.1v-2.4h1.2v2.4h2.5V1981.7z M-1729.9,1988.7v-8h1.2v8H-1729.9z M-1729.9,1978.9v-1.4h1.2v1.4H-1729.9z M-1726.6,1984.7
		c-0.1-1.1,0.2-2.2,0.8-3.2c0.7-0.7,1.7-1.1,2.6-1c1-0.1,2,0.3,2.6,1c0.6,0.9,0.9,2.1,0.8,3.2c0.1,1.1-0.2,2.2-0.7,3.2
		c-0.7,0.7-1.7,1.1-2.7,1c-1,0.1-2-0.2-2.7-1C-1726.4,1986.9-1726.7,1985.8-1726.6,1984.7z M-1725.3,1984.7
		c-0.1,0.8,0.1,1.7,0.4,2.4c0.4,0.5,1.1,0.8,1.8,0.7c0.7,0.1,1.3-0.2,1.8-0.7c0.3-0.8,0.5-1.6,0.4-2.5c0.1-0.8-0.1-1.7-0.5-2.4
		c-0.4-0.5-1.1-0.7-1.7-0.7c-0.7-0.1-1.3,0.2-1.7,0.7C-1725.3,1983-1725.4,1983.8-1725.3,1984.7z M-1716.4,1988.7h-1.2v-8h1.2v0.6
		c0.8-0.4,1.6-0.7,2.5-0.7c0.8-0.1,1.6,0.2,2.2,0.9c0.4,1,0.6,2,0.6,3.1v4.2h-1.2v-4.2c0.1-0.8-0.1-1.6-0.3-2.3
		c-0.3-0.5-0.9-0.7-1.4-0.6c-0.4,0-0.7,0.1-1.1,0.2c-0.3,0.1-0.6,0.2-0.9,0.3l-0.3,0.1L-1716.4,1988.7z M-1709.6,1980.7h1.2l1.6,7
		h0.3l1.9-6.8h1.2l1.9,6.8h0.3l1.6-7h1.2l-1.9,8h-2l-1.7-6.3l-1.7,6.3h-2L-1709.6,1980.7z M-1696.6,1988.7v-8h1.2v8H-1696.6z
		 M-1696.6,1978.9v-1.4h1.2v1.4H-1696.6z M-1686.8,1977.2v11.5h-1.2v-0.5c-0.7,0.4-1.6,0.7-2.4,0.7c-0.4,0-0.8,0-1.1-0.2
		c-0.3-0.1-0.6-0.3-0.9-0.6c-0.7-0.9-1-2.1-0.9-3.2c-0.1-1.2,0.2-2.3,0.8-3.4c0.6-0.7,1.6-1.1,2.6-1c0.7,0,1.3,0.1,2,0.2v-3.5
		H-1686.8z M-1691.5,1987.2c0.1,0.2,0.3,0.3,0.5,0.4c0.2,0.1,0.5,0.1,0.7,0.1c0.3,0,0.7-0.1,1-0.2c0.3-0.1,0.6-0.2,0.9-0.3l0.3-0.1
		v-5.4c-0.6-0.1-1.3-0.2-1.9-0.2c-0.7-0.1-1.3,0.2-1.7,0.8c-0.4,0.7-0.5,1.6-0.5,2.4C-1692.1,1985.6-1692,1986.5-1691.5,1987.2
		L-1691.5,1987.2z M-1678.9,1987.7l0.5,0l0,0.9c-1,0.2-2.1,0.2-3.1,0.3c-0.9,0.1-1.8-0.3-2.4-1c-0.6-0.9-0.8-2-0.7-3.1
		c0-2.8,1.1-4.2,3.3-4.2c0.9-0.1,1.8,0.3,2.4,0.9c0.6,0.8,0.9,1.8,0.8,2.8l-0.1,0.9h-5.3c-0.1,0.7,0.1,1.4,0.5,2
		c0.4,0.5,1,0.7,1.7,0.6C-1680.5,1987.8-1679.7,1987.8-1678.9,1987.7L-1678.9,1987.7z M-1679.3,1984.2c0.1-0.7-0.1-1.5-0.5-2.1
		c-0.4-0.4-1-0.7-1.5-0.6c-0.6,0-1.2,0.2-1.6,0.6c-0.4,0.6-0.6,1.3-0.6,2H-1679.3z M-1749.6,2001.5c0.6,0,1.2,0.1,1.8,0.2l0.4,0l0,1
		c-0.6-0.1-1.3-0.1-1.9-0.1c-0.7-0.1-1.4,0.2-1.8,0.6c-0.4,0.7-0.6,1.6-0.5,2.4c-0.1,0.8,0.1,1.7,0.4,2.4c0.5,0.5,1.2,0.8,1.9,0.7
		l1.9-0.1l0,1c-0.7,0.1-1.5,0.2-2.2,0.2c-1,0.1-1.9-0.2-2.6-1c-0.6-1-0.8-2.1-0.7-3.2c-0.1-1.1,0.2-2.2,0.8-3.2
		C-1751.5,2001.8-1750.6,2001.4-1749.6,2001.5L-1749.6,2001.5z M-1745.9,2005.7c-0.1-1.1,0.2-2.2,0.8-3.2c0.7-0.7,1.7-1.1,2.6-1
		c1-0.1,2,0.3,2.6,1c0.6,0.9,0.9,2.1,0.8,3.2c0.1,1.1-0.2,2.2-0.7,3.2c-0.7,0.7-1.7,1.1-2.7,1c-1,0.1-2-0.2-2.7-1
		C-1745.7,2007.9-1746,2006.8-1745.9,2005.7L-1745.9,2005.7z M-1744.7,2005.7c-0.1,0.8,0.1,1.7,0.4,2.5c0.4,0.5,1.1,0.8,1.8,0.7
		c0.7,0.1,1.3-0.2,1.8-0.7c0.3-0.8,0.5-1.6,0.4-2.5c0.1-0.8-0.1-1.7-0.5-2.4c-0.4-0.5-1.1-0.7-1.7-0.7c-0.7-0.1-1.3,0.2-1.7,0.7
		C-1744.6,2004-1744.8,2004.8-1744.7,2005.7L-1744.7,2005.7z M-1737.8,2001.7h1.3l1.9,7h0.6l1.9-7h1.2l-2.3,8h-2.4L-1737.8,2001.7z
		 M-1723.9,2008.7l0.5,0l0,0.9c-1,0.2-2.1,0.2-3.1,0.3c-0.9,0.1-1.8-0.3-2.4-1c-0.6-0.9-0.8-2-0.7-3.1c0-2.8,1.1-4.2,3.3-4.2
		c0.9-0.1,1.8,0.3,2.4,0.9c0.6,0.8,0.9,1.8,0.8,2.8l-0.1,0.9h-5.3c-0.1,0.7,0.1,1.4,0.5,2c0.4,0.5,1,0.7,1.7,0.6
		C-1725.6,2008.8-1724.8,2008.8-1723.9,2008.7L-1723.9,2008.7z M-1724.4,2005.2c0.1-0.7-0.1-1.5-0.5-2.1c-0.4-0.4-1-0.7-1.5-0.6
		c-0.6,0-1.2,0.2-1.6,0.6c-0.4,0.6-0.6,1.3-0.6,2H-1724.4z M-1721.1,2009.7v-8h1.2v1.1c0.9-0.6,1.9-1,2.9-1.3v1.2
		c-0.5,0.1-0.9,0.2-1.4,0.4c-0.4,0.1-0.8,0.3-1.1,0.5l-0.4,0.2v5.9H-1721.1z M-1709.8,2004.1v4.1c0,0.4,0.3,0.6,0.9,0.7l0,0.9
		c-0.7,0.1-1.4-0.2-1.9-0.6c-0.9,0.4-1.9,0.6-2.9,0.6c-0.6,0-1.2-0.2-1.7-0.6c-0.4-0.5-0.6-1.1-0.6-1.8c-0.1-0.6,0.2-1.3,0.6-1.7
		c0.5-0.4,1.2-0.7,1.9-0.7l2.5-0.2v-0.7c0-0.4-0.1-0.8-0.4-1.2c-0.3-0.2-0.6-0.4-1-0.4c-0.9,0-1.8,0.1-2.7,0.2l-0.5,0l0-0.9
		c1-0.2,2.1-0.3,3.1-0.4c1.2-0.2,2.4,0.6,2.6,1.8C-1709.8,2003.6-1709.8,2003.8-1709.8,2004.1z M-1714.7,2007.4c0,1,0.4,1.5,1.2,1.5
		c0.7,0,1.5-0.1,2.1-0.4l0.4-0.1v-2.6l-2.4,0.2c-0.4,0-0.8,0.2-1,0.4C-1714.6,2006.6-1714.8,2007-1714.7,2007.4z M-1704.2,2013.4
		c-0.9,0.1-1.9-0.1-2.7-0.5c-0.6-0.5-0.8-1.2-0.8-1.9c0-0.4,0.1-0.7,0.3-1.1c0.3-0.4,0.6-0.7,1-0.9c-0.3-0.3-0.5-0.7-0.4-1.1
		c0.1-0.4,0.2-0.7,0.4-1l0.1-0.3c-0.9-0.5-1.4-1.4-1.3-2.4c0-1.8,1-2.7,3-2.7c0.5,0,1,0.1,1.4,0.2l0.2,0l2.4-0.1v1l-1.5,0
		c0.4,0.4,0.6,1,0.5,1.6c0.1,0.8-0.2,1.5-0.7,2.1c-0.7,0.5-1.5,0.7-2.3,0.6c-0.3,0-0.5,0-0.8-0.1c-0.1,0.3-0.2,0.6-0.3,0.9
		c0,0.3,0.1,0.5,0.3,0.6c0.6,0.1,1.2,0.2,1.8,0.1c0.8-0.1,1.5,0.1,2.2,0.5c0.5,0.5,0.8,1.2,0.7,1.9
		C-1700.6,2012.6-1701.8,2013.4-1704.2,2013.4z M-1706.4,2010.9c-0.1,0.4,0.1,0.9,0.5,1.2c0.5,0.3,1.1,0.4,1.7,0.3
		c0.6,0,1.3-0.1,1.8-0.4c0.4-0.3,0.6-0.7,0.6-1.2c0-0.5-0.1-0.9-0.4-1.1c-0.5-0.2-1-0.3-1.6-0.2l-1.7-0.1c-0.3,0.2-0.5,0.4-0.7,0.7
		C-1706.4,2010.4-1706.4,2010.7-1706.4,2010.9z M-1706.3,2004.3c0,0.5,0.1,1,0.4,1.3c0.4,0.3,0.9,0.4,1.4,0.4c0.5,0,1-0.1,1.4-0.4
		c0.6-0.8,0.6-1.9,0-2.7c-0.9-0.5-1.9-0.5-2.8,0C-1706.2,2003.3-1706.4,2003.8-1706.3,2004.3z M-1693.4,2008.7l0.5,0l0,0.9
		c-1,0.2-2.1,0.2-3.1,0.3c-0.9,0.1-1.8-0.3-2.4-1c-0.6-0.9-0.8-2-0.7-3.1c0-2.8,1.1-4.2,3.3-4.2c0.9-0.1,1.8,0.3,2.4,0.9
		c0.6,0.8,0.9,1.8,0.8,2.8l-0.1,0.9h-5.3c-0.1,0.7,0.1,1.4,0.5,2c0.4,0.5,1,0.7,1.7,0.6C-1695.1,2008.8-1694.3,2008.8-1693.4,2008.7
		z M-1693.9,2005.2c0.1-0.7-0.1-1.5-0.5-2.1c-0.4-0.4-1-0.7-1.5-0.6c-0.6,0-1.2,0.2-1.6,0.6c-0.4,0.6-0.6,1.3-0.6,2H-1693.9z"/>
	<path class="st1" d="M-2393.9,1914.7h-11.1v-3l3.7-3.7c1-1,1.9-2,2.7-3.1c0.5-0.7,0.8-1.5,0.8-2.3c0.1-0.6-0.2-1.3-0.6-1.7
		c-0.5-0.4-1.2-0.5-1.8-0.5c-1.3,0-2.5,0.1-3.8,0.3l-0.6,0.1l-0.2-2.8c1.7-0.5,3.5-0.8,5.3-0.8c3.6,0,5.5,1.6,5.5,4.9
		c0,1.2-0.3,2.3-0.8,3.3c-0.8,1.3-1.9,2.4-3,3.4l-3,2.7h7.1V1914.7z M-2389.6,1899.3c1.2-1.5,3.1-2.3,5-2.1c1.9-0.1,3.8,0.7,5,2.1
		c1.1,1.4,1.7,3.7,1.7,6.9s-0.6,5.4-1.7,6.8c-1.3,1.4-3.1,2.2-5,2c-1.9,0.1-3.7-0.6-5-2c-1.1-1.4-1.7-3.6-1.7-6.8
		S-2390.8,1900.8-2389.6,1899.3z M-2381.7,1906.1c0.1-1.5-0.1-3.1-0.7-4.5c-0.4-0.8-1.3-1.4-2.3-1.3c-1-0.1-1.9,0.4-2.3,1.3
		c-0.6,1.4-0.8,3-0.7,4.5c-0.1,1.5,0.1,3.1,0.7,4.5c0.4,0.8,1.3,1.3,2.3,1.3c0.9,0.1,1.8-0.4,2.3-1.3
		C-2381.8,1909.2-2381.6,1907.7-2381.7,1906.1z M-2364.3,1914.7h-11.1v-3l3.7-3.7c1-1,1.9-2,2.7-3.1c0.5-0.7,0.8-1.5,0.8-2.3
		c0.1-0.6-0.2-1.3-0.6-1.7c-0.5-0.4-1.2-0.5-1.8-0.5c-1.3,0-2.5,0.1-3.8,0.3l-0.6,0.1l-0.2-2.8c1.7-0.5,3.5-0.8,5.3-0.8
		c3.6,0,5.5,1.6,5.5,4.9c0,1.2-0.3,2.3-0.8,3.3c-0.8,1.3-1.9,2.4-3,3.4l-3,2.7h7.1L-2364.3,1914.7z M-2351.4,1897.5v17.2h-3.6v-13.1
		l-3.7,2.4l-1.6-2.7l5.7-3.8H-2351.4z"/>
	<path class="st1" d="M-2176.9,1914.7h-11.1v-3l3.7-3.7c1-1,1.9-2,2.7-3.1c0.5-0.7,0.8-1.5,0.8-2.3c0.1-0.6-0.2-1.3-0.6-1.7
		c-0.5-0.4-1.2-0.5-1.8-0.5c-1.3,0-2.5,0.1-3.8,0.3l-0.6,0.1l-0.2-2.8c1.7-0.5,3.5-0.8,5.3-0.8c3.6,0,5.5,1.6,5.5,4.9
		c0,1.2-0.3,2.3-0.8,3.3c-0.8,1.3-1.9,2.4-3,3.4l-3,2.7h7.1V1914.7z M-2172.6,1899.3c1.2-1.5,3.1-2.3,5-2.1c1.9-0.1,3.8,0.7,5,2.1
		c1.1,1.4,1.7,3.7,1.7,6.9s-0.6,5.4-1.7,6.8c-1.3,1.4-3.1,2.2-5,2c-1.9,0.1-3.7-0.6-5-2c-1.1-1.4-1.7-3.6-1.7-6.8
		S-2173.8,1900.8-2172.6,1899.3z M-2164.7,1906.1c0.1-1.5-0.1-3.1-0.7-4.5c-0.4-0.8-1.3-1.4-2.3-1.3c-1-0.1-1.9,0.4-2.3,1.3
		c-0.6,1.4-0.8,3-0.7,4.5c-0.1,1.5,0.1,3.1,0.7,4.5c0.4,0.8,1.3,1.3,2.3,1.3c0.9,0.1,1.8-0.4,2.3-1.3
		C-2164.8,1909.2-2164.6,1907.7-2164.7,1906.1z M-2147.3,1914.7h-11.1v-3l3.7-3.7c1-1,1.9-2,2.7-3.1c0.5-0.7,0.8-1.5,0.8-2.3
		c0.1-0.6-0.2-1.3-0.6-1.7c-0.5-0.4-1.2-0.5-1.8-0.5c-1.3,0-2.5,0.1-3.8,0.3l-0.6,0.1l-0.2-2.8c1.7-0.5,3.5-0.8,5.3-0.8
		c3.6,0,5.5,1.6,5.5,4.9c0,1.2-0.3,2.3-0.8,3.3c-0.8,1.3-1.9,2.4-3,3.4l-3,2.7h7.1L-2147.3,1914.7z M-2132.5,1914.7h-11.1v-3
		l3.7-3.7c1-1,1.9-2,2.7-3.1c0.5-0.7,0.8-1.5,0.8-2.3c0.1-0.6-0.2-1.3-0.6-1.7c-0.5-0.4-1.2-0.5-1.8-0.5c-1.3,0-2.5,0.1-3.8,0.3
		l-0.6,0.1l-0.2-2.8c1.7-0.5,3.5-0.8,5.3-0.8c3.6,0,5.5,1.6,5.5,4.9c0,1.2-0.3,2.3-0.8,3.3c-0.8,1.3-1.9,2.4-3,3.4l-3,2.7h7.1
		L-2132.5,1914.7z"/>
	<path class="st1" d="M-1958.9,1914.7h-11.1v-3l3.7-3.7c1-1,1.9-2,2.7-3.1c0.5-0.7,0.8-1.5,0.8-2.3c0.1-0.6-0.2-1.3-0.6-1.7
		c-0.5-0.4-1.2-0.5-1.8-0.5c-1.3,0-2.5,0.1-3.8,0.3l-0.6,0.1l-0.2-2.8c1.7-0.5,3.5-0.8,5.3-0.8c3.6,0,5.5,1.6,5.5,4.9
		c0,1.2-0.3,2.3-0.8,3.3c-0.8,1.3-1.9,2.4-3,3.4l-3,2.7h7.1V1914.7z M-1954.6,1899.3c1.2-1.5,3.1-2.3,5-2.1c1.9-0.1,3.8,0.7,5,2.1
		c1.1,1.4,1.7,3.7,1.7,6.9s-0.6,5.4-1.7,6.8c-1.3,1.4-3.1,2.2-5,2c-1.9,0.1-3.7-0.6-5-2c-1.1-1.4-1.7-3.6-1.7-6.8
		S-1955.8,1900.8-1954.6,1899.3z M-1946.7,1906.1c0.1-1.5-0.1-3.1-0.7-4.5c-0.4-0.8-1.3-1.4-2.3-1.3c-1-0.1-1.9,0.4-2.3,1.3
		c-0.6,1.4-0.8,3-0.7,4.5c-0.1,1.5,0.1,3.1,0.7,4.5c0.4,0.8,1.3,1.3,2.3,1.3c0.9,0.1,1.8-0.4,2.3-1.3
		C-1946.8,1909.2-1946.6,1907.7-1946.7,1906.1z M-1929.3,1914.7h-11.1v-3l3.7-3.7c1-1,1.9-2,2.7-3.1c0.5-0.7,0.8-1.5,0.8-2.3
		c0.1-0.6-0.2-1.3-0.6-1.7c-0.5-0.4-1.2-0.5-1.8-0.5c-1.3,0-2.5,0.1-3.8,0.3l-0.6,0.1l-0.2-2.8c1.7-0.5,3.5-0.8,5.3-0.8
		c3.6,0,5.5,1.6,5.5,4.9c0,1.2-0.3,2.3-0.8,3.3c-0.8,1.3-1.9,2.4-3,3.4l-3,2.7h7.1L-1929.3,1914.7z M-1925.7,1898.2
		c1.7-0.6,3.5-1,5.3-0.9c1.5-0.1,3,0.3,4.3,1.1c1,0.9,1.5,2.3,1.4,3.6c0.1,1.5-0.7,3-2,3.8c0.7,0.3,1.3,0.8,1.8,1.4
		c0.4,0.7,0.6,1.5,0.5,2.3c0.1,1.5-0.4,3-1.4,4.1c-1.3,1-2.9,1.5-4.5,1.4c-1.6,0-3.2-0.2-4.8-0.7l-0.8-0.2l0.2-2.7
		c1.6,0.3,3.2,0.5,4.9,0.5c1.8,0,2.7-0.8,2.7-2.3c0-0.6-0.2-1.2-0.7-1.5c-0.5-0.4-1.2-0.6-1.8-0.6h-3.5v-3h3.5
		c0.6,0,1.1-0.3,1.5-0.7c0.4-0.4,0.7-1,0.7-1.6c0-1.2-0.9-1.8-2.6-1.8c-1.3,0-2.6,0.1-3.8,0.4l-0.7,0.1L-1925.7,1898.2z"/>
	<path class="st1" d="M-1740.9,1914.7h-11.1v-3l3.7-3.7c1-1,1.9-2,2.7-3.1c0.5-0.7,0.8-1.5,0.8-2.3c0.1-0.6-0.2-1.3-0.6-1.7
		c-0.5-0.4-1.2-0.5-1.8-0.5c-1.3,0-2.5,0.1-3.8,0.3l-0.6,0.1l-0.2-2.8c1.7-0.5,3.5-0.8,5.3-0.8c3.6,0,5.5,1.6,5.5,4.9
		c0,1.2-0.3,2.3-0.8,3.3c-0.8,1.3-1.9,2.4-3,3.4l-3,2.7h7.1V1914.7z M-1736.6,1899.3c1.2-1.5,3.1-2.3,5-2.1c1.9-0.1,3.8,0.7,5,2.1
		c1.1,1.4,1.7,3.7,1.7,6.9s-0.6,5.4-1.7,6.8c-1.3,1.4-3.1,2.2-5,2c-1.9,0.1-3.7-0.6-5-2c-1.1-1.4-1.7-3.6-1.7-6.8
		S-1737.8,1900.8-1736.6,1899.3z M-1728.7,1906.1c0.1-1.5-0.1-3.1-0.7-4.5c-0.4-0.8-1.3-1.4-2.3-1.3c-1-0.1-1.9,0.4-2.3,1.3
		c-0.6,1.4-0.8,3-0.7,4.5c-0.1,1.5,0.1,3.1,0.7,4.5c0.4,0.8,1.3,1.3,2.3,1.3c0.9,0.1,1.8-0.4,2.3-1.3
		C-1728.8,1909.2-1728.6,1907.7-1728.7,1906.1z M-1711.3,1914.7h-11.1v-3l3.7-3.7c1-1,1.9-2,2.7-3.1c0.5-0.7,0.8-1.5,0.8-2.3
		c0.1-0.6-0.2-1.3-0.6-1.7c-0.5-0.4-1.2-0.5-1.8-0.5c-1.3,0-2.5,0.1-3.8,0.3l-0.6,0.1l-0.2-2.8c1.7-0.5,3.5-0.8,5.3-0.8
		c3.6,0,5.5,1.6,5.5,4.9c0,1.2-0.3,2.3-0.8,3.3c-0.8,1.3-1.9,2.4-3,3.4l-3,2.7h7.1V1914.7z M-1701,1914.7v-2.8h-7.3v-2.7l4.2-11.6h4
		l-4.6,11.2h3.7v-4.8h3.6v4.8h1.6v3.1h-1.6v2.8H-1701z"/>
	<line class="st2" x1="-2209.8" y1="1895.7" x2="-2209.8" y2="2026.4"/>
	<line class="st2" x1="-1991.8" y1="1895.7" x2="-1991.8" y2="2026.4"/>
	<line class="st2" x1="-1773.8" y1="1895.7" x2="-1773.8" y2="2026.4"/>
	
		<linearGradient id="SVGID_1_" gradientUnits="userSpaceOnUse" x1="-2340.3352" y1="2321.7454" x2="-2339.363" y2="2321.7454" gradientTransform="matrix(769 0 0 -6 1797312.5 15864.1621)">
		<stop  offset="0" style="stop-color:#0F369B"/>
		<stop  offset="1" style="stop-color:#C42938"/>
	</linearGradient>
	<path class="st3" d="M-2423.8,1930.7h763c1.7,0,3,1.3,3,3l0,0c0,1.7-1.3,3-3,3h-763c-1.7,0-3-1.3-3-3l0,0
		C-2426.8,1932-2425.4,1930.7-2423.8,1930.7z"/>
	<line class="st2" x1="-2427" y1="1895.7" x2="-2427" y2="2026.4"/>
</g>
</svg>
