<?xml version="1.0" encoding="utf-8"?>
<!-- Generator: Adobe Illustrator 26.0.1, SVG Export Plug-In . SVG Version: 6.00 Build 0)  -->
<svg version="1.1" id="Layer_1" xmlns="http://www.w3.org/2000/svg" xmlns:xlink="http://www.w3.org/1999/xlink" x="0px" y="0px"
	 viewBox="0 0 219.9 530" style="enable-background:new 0 0 219.9 530;" xml:space="preserve">
<style type="text/css">
	.st0{fill:url(#SVGID_1_);}
	.st1{fill:#1D1D1D;}
	.st2{fill:#D60031;}
	.st3{fill:none;stroke:#1D1D1D;stroke-width:0.5;}
</style>
<g transform="translate(2432.398 -2192.189)">
	
		<linearGradient id="SVGID_1_" gradientUnits="userSpaceOnUse" x1="-2619.0757" y1="2908.7454" x2="-2618.1035" y2="2908.7454" gradientTransform="matrix(3.245314e-14 530 6 -3.673941e-16 -19881.8711 1390317.125)">
		<stop  offset="0" style="stop-color:#0F369B"/>
		<stop  offset="1" style="stop-color:#C42938"/>
	</linearGradient>
	<path class="st0" d="M-2426.4,2195.2v524c0,1.7-1.3,3-3,3l0,0c-1.7,0-3-1.3-3-3v-524c0-1.7,1.3-3,3-3l0,0
		C-2427.7,2192.2-2426.4,2193.5-2426.4,2195.2z"/>
	<g transform="translate(-95 -223.218)">
		<path class="st1" d="M-2302.9,2464.1v1.9h-4.7l-0.3,2.3c0.6-0.2,1.2-0.4,1.9-0.4c2.3,0,3.4,1.1,3.4,3.2c0.1,1-0.3,2-0.9,2.8
			c-0.7,0.7-1.7,1-2.7,1c-0.6,0-1.1-0.1-1.7-0.1c-0.5-0.1-1-0.2-1.5-0.3l-0.6-0.1l0.2-1.6c1.1,0.2,2.1,0.3,3.2,0.3
			c0.4,0,0.9-0.1,1.2-0.4c0.3-0.3,0.4-0.8,0.4-1.2c0-0.4-0.1-0.8-0.4-1.1c-0.3-0.2-0.6-0.4-1-0.4c-0.6,0-1.3,0.1-1.9,0.2l-0.2,0.1
			l-1.3-0.3l0.3-5.7H-2302.9z M-2295.9,2470.8v-1.9h3.2v5.6c-1.2,0.2-2.5,0.3-3.7,0.4c-1.7,0-2.9-0.5-3.5-1.4
			c-0.7-1.3-1.1-2.8-1-4.3c-0.1-1.5,0.2-3,1-4.3c0.8-1,2.1-1.4,3.4-1.3c1.1,0,2.2,0.1,3.2,0.3l0.6,0.1l-0.1,1.7
			c-1-0.1-2.1-0.2-3.1-0.2c-0.6,0-1.2,0.1-1.7,0.3c-0.4,0.2-0.6,0.6-0.7,1.1c-0.2,0.9-0.3,1.8-0.2,2.7c-0.1,0.9,0.1,1.8,0.5,2.6
			c0.5,0.6,1.2,0.9,1.9,0.8l1.3-0.1v-2.1H-2295.9z M-2284,2466.5c0.7,0,1.4,0.1,2.1,0.3l0.4,0.1l-0.1,1.7c-0.8-0.1-1.5-0.1-1.9-0.1
			c-0.5-0.1-1.1,0.1-1.5,0.5c-0.3,0.5-0.4,1.2-0.4,1.8c-0.1,0.6,0.1,1.2,0.4,1.8c0.4,0.4,0.9,0.6,1.5,0.5l1.9-0.1l0.1,1.7
			c-0.9,0.2-1.7,0.3-2.6,0.3c-1,0.1-1.9-0.3-2.6-1c-0.6-1-0.9-2.1-0.8-3.2c-0.1-1.1,0.2-2.2,0.8-3.2
			C-2285.9,2466.8-2285,2466.4-2284,2466.5z M-2279.4,2467.6c0.7-0.8,1.8-1.2,2.8-1.1c1.1-0.1,2.1,0.3,2.8,1.1
			c0.6,0.9,0.9,2,0.8,3.1c0,2.8-1.2,4.2-3.7,4.2c-2.5,0-3.7-1.4-3.7-4.2C-2280.3,2469.6-2280,2468.5-2279.4,2467.6L-2279.4,2467.6z
			 M-2277.7,2472.5c0.3,0.4,0.7,0.6,1.2,0.6c0.5,0,0.9-0.2,1.2-0.6c0.3-0.6,0.4-1.2,0.3-1.8c0-0.6-0.1-1.2-0.3-1.8
			c-0.5-0.6-1.5-0.7-2.1-0.2c-0.1,0.1-0.2,0.1-0.2,0.2c-0.3,0.6-0.4,1.2-0.3,1.8C-2278.1,2471.3-2278,2471.9-2277.7,2472.5
			L-2277.7,2472.5z M-2272,2466.7h2.2l1.3,6.2h0.4l1.3-6.2h2.2l-1.9,8h-3.6L-2272,2466.7z M-2261.4,2471.6c0,0.4,0.1,0.8,0.4,1.1
			c0.3,0.2,0.7,0.4,1.1,0.3c1,0,1.9,0,2.7-0.1l0.4,0l0,1.6c-1.1,0.3-2.2,0.4-3.3,0.4c-1,0.1-1.9-0.3-2.6-1c-0.6-0.9-0.9-2-0.8-3.1
			c0-2.9,1.2-4.3,3.5-4.3c2.3,0,3.5,1.2,3.5,3.6l-0.2,1.5H-2261.4z M-2258.7,2470c0-0.5-0.1-0.9-0.3-1.3c-0.6-0.5-1.5-0.5-2.1,0
			c-0.2,0.4-0.4,0.9-0.3,1.3H-2258.7z M-2254.9,2474.7v-8h2.1v0.8c0.8-0.5,1.7-0.8,2.6-1v2.2c-0.9,0.2-1.6,0.4-2.2,0.6l-0.3,0.1v5.4
			H-2254.9z M-2242.6,2469.2v3.3c0,0.2,0,0.4,0.1,0.5c0.1,0.1,0.2,0.2,0.4,0.2l-0.1,1.6c-0.4,0-0.9,0-1.3-0.1
			c-0.4-0.1-0.7-0.2-1-0.4c-0.7,0.4-1.5,0.6-2.4,0.6c-1.7,0-2.5-0.9-2.5-2.6c-0.1-0.7,0.2-1.4,0.7-1.8c0.6-0.4,1.4-0.6,2.1-0.6
			l1.7-0.1v-0.5c0-0.2-0.1-0.5-0.2-0.7c-0.2-0.1-0.5-0.2-0.7-0.2l-3,0.1l-0.1-1.5c1.1-0.3,2.2-0.5,3.3-0.5c0.8-0.1,1.6,0.2,2.2,0.6
			C-2242.8,2467.7-2242.6,2468.4-2242.6,2469.2z M-2246.2,2471.3c-0.5,0-0.9,0.4-0.9,0.8c0,0,0,0.1,0,0.1c0,0.6,0.3,0.9,0.8,0.9
			c0.4,0,0.9-0.1,1.3-0.2l0.2-0.1v-1.7L-2246.2,2471.3z M-2233.2,2475.7c0,0.8-0.4,1.6-1.1,2c-0.9,0.5-1.9,0.7-2.9,0.7
			c-0.9,0-1.9-0.1-2.8-0.5c-0.7-0.3-1-1-1-1.7c0.1-0.8,0.5-1.5,1.2-1.9c-0.4-0.3-0.6-0.7-0.6-1.2c0.1-0.4,0.2-0.7,0.5-1.1l0.1-0.2
			c-0.7-0.5-1.1-1.4-1.1-2.3c-0.1-0.8,0.3-1.7,0.9-2.2c0.7-0.5,1.6-0.7,2.4-0.7c0.5,0,0.9,0.1,1.4,0.2l0.3,0l2.6-0.1v1.7l-1.2-0.1
			c0.2,0.3,0.3,0.7,0.4,1.1c0.1,0.8-0.2,1.6-0.8,2.2c-0.8,0.5-1.7,0.7-2.6,0.6c-0.2,0-0.4,0-0.7-0.1c-0.1,0.2-0.1,0.4-0.2,0.7
			c0,0.2,0.1,0.3,0.3,0.4c0.4,0.1,0.9,0.1,1.3,0.1c0.9-0.1,1.9,0.1,2.8,0.5C-2233.4,2474.3-2233.1,2475-2233.2,2475.7
			L-2233.2,2475.7z M-2238.7,2475.9c0,0.5,0.6,0.7,1.7,0.7s1.7-0.3,1.7-0.8c0-0.2-0.1-0.4-0.3-0.6c-0.4-0.1-0.8-0.2-1.2-0.1
			l-1.4-0.1C-2238.6,2475.2-2238.7,2475.6-2238.7,2475.9L-2238.7,2475.9z M-2238.6,2469.4c0,0.8,0.4,1.2,1.2,1.2
			c0.8,0,1.2-0.4,1.2-1.2c0-0.8-0.4-1.2-1.2-1.2c-0.6-0.1-1.1,0.3-1.2,0.9C-2238.6,2469.2-2238.6,2469.3-2238.6,2469.4
			L-2238.6,2469.4z M-2230,2471.6c0,0.4,0.1,0.8,0.4,1.1c0.3,0.2,0.7,0.4,1.1,0.3c1,0,1.9,0,2.7-0.1l0.4,0l0,1.6
			c-1.1,0.3-2.2,0.4-3.3,0.4c-1,0.1-1.9-0.3-2.6-1c-0.6-0.9-0.9-2-0.8-3.1c0-2.9,1.2-4.3,3.5-4.3c2.3,0,3.5,1.2,3.5,3.6l-0.2,1.5
			H-2230z M-2227.2,2470c0-0.5-0.1-0.9-0.3-1.3c-0.6-0.5-1.5-0.5-2.1,0c-0.2,0.4-0.4,0.9-0.3,1.3H-2227.2z M-2219.6,2474.7v-8h1.2v8
			H-2219.6z M-2219.6,2464.9v-1.4h1.2v1.4H-2219.6z M-2214.7,2474.7h-1.2v-8h1.2v0.6c0.8-0.4,1.6-0.7,2.5-0.7
			c0.8-0.1,1.6,0.2,2.2,0.9c0.4,1,0.6,2,0.6,3.1v4.2h-1.2v-4.2c0.1-0.8-0.1-1.6-0.3-2.3c-0.3-0.5-0.9-0.7-1.4-0.6
			c-0.4,0-0.7,0.1-1.1,0.2c-0.3,0.1-0.6,0.2-0.9,0.3l-0.3,0.1L-2214.7,2474.7z M-2199.2,2471h-2.8v3.7h-1.2v-11.1h4
			c1-0.1,1.9,0.2,2.7,0.9c0.6,0.7,0.9,1.7,0.9,2.7C-2195.7,2469.7-2196.9,2471-2199.2,2471z M-2202.1,2469.9h2.8
			c1.5,0,2.3-0.9,2.3-2.7c0.1-0.7-0.1-1.3-0.5-1.9c-0.5-0.4-1.1-0.7-1.7-0.6h-2.8V2469.9z M-2188.9,2466.7h1.2v8h-1.2v-0.6
			c-0.7,0.5-1.5,0.7-2.4,0.7c-0.8,0.1-1.6-0.2-2.2-0.8c-0.4-1-0.6-2.1-0.5-3.1v-4.2h1.2v4.2c-0.1,0.8,0,1.6,0.3,2.3
			c0.2,0.4,0.7,0.6,1.4,0.6c0.4,0,0.7-0.1,1.1-0.2c0.3-0.1,0.6-0.2,0.8-0.3l0.3-0.1L-2188.9,2466.7z M-2181,2467.7h-2.5v3.8
			c0,0.6,0,1.2,0.2,1.8c0.1,0.3,0.5,0.4,1,0.4l1.4-0.1l0.1,1c-0.5,0.1-1.1,0.2-1.6,0.2c-0.6,0.1-1.3-0.2-1.7-0.6
			c-0.4-0.7-0.6-1.5-0.5-2.3v-4.2h-1.1v-1h1.1v-2.4h1.2v2.4h2.5V2467.7z M-2179.4,2474.7v-8h1.2v1.1c0.9-0.6,1.9-1,2.9-1.3v1.2
			c-0.5,0.1-0.9,0.2-1.4,0.4c-0.4,0.1-0.8,0.3-1.1,0.5l-0.4,0.2v5.9H-2179.4z M-2168.1,2469.1v4.1c0,0.4,0.3,0.6,0.9,0.7l0,0.9
			c-0.7,0.1-1.4-0.2-1.9-0.6c-0.9,0.4-1.9,0.6-2.9,0.6c-0.6,0-1.2-0.2-1.7-0.6c-0.4-0.5-0.6-1.1-0.6-1.8c-0.1-0.6,0.2-1.3,0.6-1.7
			c0.5-0.4,1.2-0.7,1.9-0.7l2.5-0.2v-0.7c0-0.4-0.1-0.8-0.4-1.2c-0.3-0.2-0.6-0.4-1-0.4c-0.9,0-1.8,0.1-2.7,0.2l-0.5,0l0-0.9
			c1-0.2,2.1-0.3,3.1-0.4c0.7-0.1,1.4,0.2,2,0.6C-2168.2,2467.7-2168,2468.4-2168.1,2469.1L-2168.1,2469.1z M-2173,2472.4
			c0,1,0.4,1.5,1.2,1.5c0.7,0,1.5-0.1,2.1-0.4l0.4-0.1v-2.6l-2.4,0.2c-0.4,0-0.8,0.2-1,0.4C-2172.9,2471.6-2173,2472-2173,2472.4z
			 M-2165.5,2474.5v-7.8h1.2v7.8c0.1,0.8-0.1,1.5-0.5,2.2c-0.6,0.7-1.3,1.2-2.1,1.6l-0.5-0.9c0.6-0.3,1.2-0.7,1.6-1.2
			C-2165.6,2475.6-2165.5,2475-2165.5,2474.5z M-2165.5,2464.9v-1.4h1.2v1.4H-2165.5z M-2156.2,2469.1v4.1c0,0.4,0.3,0.6,0.9,0.7
			l0,0.9c-0.7,0.1-1.4-0.2-1.9-0.6c-0.9,0.4-1.9,0.6-2.9,0.6c-0.6,0-1.2-0.2-1.7-0.6c-0.4-0.5-0.6-1.1-0.6-1.8
			c-0.1-0.6,0.2-1.3,0.6-1.7c0.5-0.4,1.2-0.7,1.9-0.7l2.5-0.2v-0.7c0-0.4-0.1-0.8-0.4-1.2c-0.3-0.2-0.6-0.4-1-0.4
			c-0.9,0-1.8,0.1-2.7,0.2l-0.5,0l0-0.9c1-0.2,2.1-0.3,3.1-0.4c0.7-0.1,1.4,0.2,2,0.6C-2156.4,2467.7-2156.2,2468.4-2156.2,2469.1
			L-2156.2,2469.1z M-2161.1,2472.4c0,1,0.4,1.5,1.2,1.5c0.7,0,1.5-0.1,2.1-0.4l0.4-0.1v-2.6l-2.4,0.2c-0.4,0-0.8,0.2-1,0.4
			C-2161.1,2471.6-2161.2,2472-2161.1,2472.4z M-2154.5,2466.7h1.2l2,7h0.5l2-7h1.2l-3.3,11.6h-1.2l1-3.6h-1.2L-2154.5,2466.7z
			 M-2140.4,2469.1v4.1c0,0.4,0.3,0.6,0.9,0.7l0,0.9c-0.7,0.1-1.4-0.2-1.9-0.6c-0.9,0.4-1.9,0.6-2.9,0.6c-0.6,0-1.2-0.2-1.7-0.6
			c-0.4-0.5-0.6-1.1-0.6-1.8c-0.1-0.6,0.2-1.3,0.6-1.7c0.5-0.4,1.2-0.7,1.9-0.7l2.5-0.2v-0.7c0-0.4-0.1-0.8-0.4-1.2
			c-0.3-0.2-0.6-0.4-1-0.4c-0.9,0-1.8,0.1-2.7,0.2l-0.5,0l0-0.9c1-0.2,2.1-0.3,3.1-0.4c0.7-0.1,1.4,0.2,2,0.6
			C-2140.5,2467.7-2140.3,2468.4-2140.4,2469.1z M-2145.3,2472.4c0,1,0.4,1.5,1.2,1.5c0.7,0,1.5-0.1,2.1-0.4l0.4-0.1v-2.6l-2.4,0.2
			c-0.4,0-0.8,0.2-1,0.4C-2145.2,2471.6-2145.3,2472-2145.3,2472.4z M-2138.5,2476.7l0.7-3.7h1.3l-1.1,3.7H-2138.5z M-2302.7,2495.5
			c-1,0.2-2,0.3-3,0.3c-0.7,0-1.4-0.1-2.1-0.4c-0.5-0.2-1-0.6-1.2-1.1c-0.3-0.5-0.5-1.1-0.6-1.7c-0.1-0.8-0.2-1.6-0.2-2.5
			c0-0.8,0-1.7,0.2-2.5c0.1-0.6,0.3-1.2,0.6-1.8c0.3-0.5,0.7-0.9,1.2-1.1c0.7-0.3,1.4-0.4,2.1-0.4c1,0,2,0.1,3,0.4l0,1
			c-0.9-0.2-1.9-0.3-2.9-0.3c-0.9-0.1-1.8,0.3-2.3,1c-0.5,1.1-0.7,2.4-0.6,3.6c0,0.7,0,1.4,0.1,2c0.1,0.5,0.2,0.9,0.4,1.4
			c0.2,0.4,0.5,0.7,0.9,0.9c0.5,0.2,1.1,0.3,1.7,0.3c0.9,0,1.8-0.1,2.7-0.3L-2302.7,2495.5z M-2301.7,2487.7h1.2l2,7h0.5l2-7h1.2
			l-3.3,11.6h-1.2l1-3.6h-1.2L-2301.7,2487.7z M-2289.6,2487.5c0.9-0.1,1.7,0.3,2.3,0.9c0.5,1,0.7,2.1,0.6,3.2
			c0.1,1.1-0.2,2.3-0.8,3.2c-0.8,0.7-1.9,1.1-3,0.9c-0.4,0-1.2,0-2.2-0.1l-0.4,0v-11.5h1.2v3.9
			C-2291.2,2487.7-2290.4,2487.5-2289.6,2487.5z M-2290.4,2494.8c0.8,0.1,1.5-0.2,2.1-0.7c0.4-0.7,0.6-1.6,0.5-2.4
			c0.1-0.8-0.1-1.6-0.4-2.4c-0.3-0.5-0.9-0.7-1.4-0.7c-0.6,0-1.3,0.1-1.9,0.4l-0.3,0.1v5.6
			C-2291.2,2494.8-2290.7,2494.8-2290.4,2494.8z M-2279.1,2494.7l0.5,0l0,0.9c-1,0.2-2.1,0.2-3.1,0.3c-0.9,0.1-1.8-0.3-2.4-1
			c-0.6-0.9-0.8-2-0.7-3.1c0-2.8,1.1-4.2,3.3-4.2c0.9-0.1,1.8,0.3,2.4,0.9c0.6,0.8,0.9,1.8,0.8,2.8l-0.1,0.9h-5.3
			c-0.1,0.7,0.1,1.4,0.5,2c0.4,0.5,1,0.7,1.7,0.6C-2280.7,2494.8-2279.9,2494.8-2279.1,2494.7z M-2279.5,2491.2
			c0.1-0.7-0.1-1.5-0.5-2.1c-0.4-0.4-1-0.7-1.5-0.6c-0.6,0-1.2,0.2-1.6,0.6c-0.4,0.6-0.6,1.3-0.6,2H-2279.5z M-2276.3,2495.7v-8h1.2
			v1.1c0.9-0.6,1.9-1,2.9-1.3v1.2c-0.5,0.1-0.9,0.2-1.4,0.4c-0.4,0.1-0.8,0.3-1.1,0.5l-0.4,0.2v5.9H-2276.3z M-2270.6,2495.5v-7.8
			h1.2v7.8c0.1,0.8-0.1,1.5-0.5,2.2c-0.6,0.7-1.3,1.2-2.1,1.6l-0.5-0.9c0.6-0.3,1.2-0.7,1.6-1.2
			C-2270.6,2496.6-2270.5,2496-2270.6,2495.5z M-2270.6,2485.9v-1.4h1.2v1.4H-2270.6z M-2261.3,2490.1v4.1c0,0.4,0.3,0.6,0.9,0.7
			l0,0.9c-0.7,0.1-1.4-0.2-1.9-0.6c-0.9,0.4-1.9,0.6-2.9,0.6c-0.6,0-1.2-0.2-1.7-0.6c-0.4-0.5-0.6-1.1-0.6-1.8
			c-0.1-0.6,0.2-1.3,0.6-1.7c0.5-0.4,1.2-0.7,1.9-0.7l2.5-0.2v-0.7c0-0.4-0.1-0.8-0.4-1.2c-0.3-0.2-0.6-0.4-1-0.4
			c-0.9,0-1.8,0.1-2.7,0.2l-0.5,0l0-0.9c1-0.2,2.1-0.3,3.1-0.4c1.2-0.2,2.4,0.6,2.6,1.8C-2261.2,2489.6-2261.2,2489.8-2261.3,2490.1
			z M-2266.2,2493.4c0,1,0.4,1.5,1.2,1.5c0.7,0,1.5-0.1,2.1-0.4l0.4-0.1v-2.6l-2.4,0.2c-0.4,0-0.8,0.2-1,0.4
			C-2266.1,2492.6-2266.2,2493-2266.2,2493.4z M-2259.6,2487.7h1.2l2,7h0.5l2-7h1.2l-3.3,11.6h-1.2l1-3.6h-1.2L-2259.6,2487.7z
			 M-2245.4,2490.1v4.1c0,0.4,0.3,0.6,0.9,0.7l0,0.9c-0.7,0.1-1.4-0.2-1.9-0.6c-0.9,0.4-1.9,0.6-2.9,0.6c-0.6,0-1.2-0.2-1.7-0.6
			c-0.4-0.5-0.6-1.1-0.6-1.8c-0.1-0.6,0.2-1.3,0.6-1.7c0.5-0.4,1.2-0.7,1.9-0.7l2.5-0.2v-0.7c0-0.4-0.1-0.8-0.4-1.2
			c-0.3-0.2-0.6-0.4-1-0.4c-0.9,0-1.8,0.1-2.7,0.2l-0.5,0l0-0.9c1-0.2,2.1-0.3,3.1-0.4c1.2-0.2,2.4,0.6,2.6,1.8
			C-2245.4,2489.6-2245.4,2489.8-2245.4,2490.1z M-2250.4,2493.4c0,1,0.4,1.5,1.2,1.5c0.7,0,1.5-0.1,2.1-0.4l0.4-0.1v-2.6l-2.4,0.2
			c-0.4,0-0.8,0.2-1,0.4C-2250.3,2492.6-2250.4,2493-2250.4,2493.4z M-2243.5,2497.7l0.7-3.7h1.3l-1.1,3.7H-2243.5z M-2229.8,2490.1
			v4.1c0,0.4,0.3,0.6,0.9,0.7l0,0.9c-0.7,0.1-1.4-0.2-1.9-0.6c-0.9,0.4-1.9,0.6-2.9,0.6c-0.6,0-1.2-0.2-1.7-0.6
			c-0.4-0.5-0.6-1.1-0.6-1.8c-0.1-0.6,0.2-1.3,0.6-1.7c0.5-0.4,1.2-0.7,1.9-0.7l2.5-0.2v-0.7c0-0.4-0.1-0.8-0.4-1.2
			c-0.3-0.2-0.6-0.4-1-0.4c-0.9,0-1.8,0.1-2.7,0.2l-0.5,0l0-0.9c1-0.2,2.1-0.3,3.1-0.4c1.2-0.2,2.4,0.6,2.6,1.8
			C-2229.8,2489.6-2229.8,2489.8-2229.8,2490.1L-2229.8,2490.1z M-2234.8,2493.4c0,1,0.4,1.5,1.2,1.5c0.7,0,1.5-0.1,2.1-0.4l0.4-0.1
			v-2.6l-2.4,0.2c-0.4,0-0.8,0.2-1,0.4C-2234.7,2492.6-2234.8,2493-2234.8,2493.4z M-2226.1,2495.7h-1.2v-8h1.2v0.6
			c0.8-0.4,1.6-0.7,2.5-0.7c0.8-0.1,1.6,0.2,2.2,0.9c0.4,1,0.6,2,0.6,3.1v4.2h-1.2v-4.2c0.1-0.8-0.1-1.6-0.3-2.3
			c-0.3-0.5-0.9-0.7-1.4-0.6c-0.4,0-0.7,0.1-1.1,0.2c-0.3,0.1-0.6,0.2-0.9,0.3l-0.3,0.1L-2226.1,2495.7z M-2212.4,2484.2v11.5h-1.2
			v-0.5c-0.7,0.4-1.6,0.7-2.4,0.7c-0.4,0-0.8,0-1.1-0.2c-0.3-0.1-0.6-0.3-0.9-0.6c-0.7-0.9-1-2.1-0.9-3.2c-0.1-1.2,0.2-2.3,0.8-3.4
			c0.6-0.7,1.6-1.1,2.6-1c0.7,0,1.3,0.1,2,0.2v-3.5H-2212.4z M-2217.1,2494.2c0.1,0.2,0.3,0.3,0.5,0.4c0.2,0.1,0.5,0.1,0.7,0.1
			c0.3,0,0.7-0.1,1-0.2c0.3-0.1,0.6-0.2,0.9-0.3l0.3-0.1v-5.4c-0.6-0.1-1.3-0.2-1.9-0.2c-0.7-0.1-1.3,0.2-1.7,0.8
			c-0.4,0.7-0.5,1.6-0.5,2.4C-2217.8,2492.6-2217.6,2493.5-2217.1,2494.2L-2217.1,2494.2z M-2204.8,2495.7h-1.2v-11.1h1.2v5.2
			l1.8-0.1l2.8-5.1h1.4l-3.2,5.6l3.3,5.5h-1.5l-2.9-4.9l-1.8,0.1L-2204.8,2495.7z M-2192.2,2487.7h1.2v8h-1.2v-0.6
			c-0.7,0.5-1.5,0.7-2.4,0.7c-0.8,0.1-1.6-0.2-2.2-0.8c-0.4-1-0.6-2.1-0.5-3.1v-4.2h1.2v4.2c-0.1,0.8,0,1.6,0.3,2.3
			c0.2,0.4,0.7,0.6,1.4,0.6c0.4,0,0.7-0.1,1.1-0.2c0.3-0.1,0.6-0.2,0.8-0.3l0.3-0.1L-2192.2,2487.7z M-2182.9,2490.1v4.1
			c0,0.4,0.3,0.6,0.9,0.7l0,0.9c-0.7,0.1-1.4-0.2-1.9-0.6c-0.9,0.4-1.9,0.6-2.9,0.6c-0.6,0-1.2-0.2-1.7-0.6
			c-0.4-0.5-0.6-1.1-0.6-1.8c-0.1-0.6,0.2-1.3,0.6-1.7c0.5-0.4,1.2-0.7,1.9-0.7l2.5-0.2v-0.7c0-0.4-0.1-0.8-0.4-1.2
			c-0.3-0.2-0.6-0.4-1-0.4c-0.9,0-1.8,0.1-2.7,0.2l-0.5,0l0-0.9c1-0.2,2.1-0.3,3.1-0.4c1.2-0.2,2.4,0.6,2.6,1.8
			C-2182.8,2489.6-2182.8,2489.8-2182.9,2490.1L-2182.9,2490.1z M-2187.8,2493.4c0,1,0.4,1.5,1.2,1.5c0.7,0,1.5-0.1,2.1-0.4l0.4-0.1
			v-2.6l-2.4,0.2c-0.4,0-0.8,0.2-1,0.4C-2187.7,2492.6-2187.8,2493-2187.8,2493.4L-2187.8,2493.4z M-2180.3,2495.7v-11.5h1.2v11.5
			H-2180.3z M-2170.9,2490.1v4.1c0,0.4,0.3,0.6,0.9,0.7l0,0.9c-0.7,0.1-1.4-0.2-1.9-0.6c-0.9,0.4-1.9,0.6-2.9,0.6
			c-0.6,0-1.2-0.2-1.7-0.6c-0.4-0.5-0.6-1.1-0.6-1.8c-0.1-0.6,0.2-1.3,0.6-1.7c0.5-0.4,1.2-0.7,1.9-0.7l2.5-0.2v-0.7
			c0-0.4-0.1-0.8-0.4-1.2c-0.3-0.2-0.6-0.4-1-0.4c-0.9,0-1.8,0.1-2.7,0.2l-0.5,0l0-0.9c1-0.2,2.1-0.3,3.1-0.4
			c1.2-0.2,2.4,0.6,2.6,1.8C-2170.8,2489.6-2170.8,2489.8-2170.9,2490.1L-2170.9,2490.1z M-2175.8,2493.4c0,1,0.4,1.5,1.2,1.5
			c0.7,0,1.5-0.1,2.1-0.4l0.4-0.1v-2.6l-2.4,0.2c-0.4,0-0.8,0.2-1,0.4C-2175.7,2492.6-2175.8,2493-2175.8,2493.4z M-2303.3,2516.7
			h-6.1v-11.1h1.2v10h4.9V2516.7z M-2296.9,2508.7h1.2v8h-1.2v-0.6c-0.7,0.5-1.5,0.7-2.4,0.7c-0.8,0.1-1.6-0.2-2.2-0.8
			c-0.4-1-0.6-2.1-0.5-3.1v-4.2h1.2v4.2c-0.1,0.8,0,1.6,0.3,2.3c0.2,0.4,0.7,0.6,1.4,0.6c0.4,0,0.7-0.1,1.1-0.2
			c0.3-0.1,0.6-0.2,0.8-0.3l0.3-0.1L-2296.9,2508.7z M-2292,2516.7h-1.2v-8h1.2v0.6c0.7-0.4,1.5-0.7,2.3-0.7
			c0.8-0.1,1.6,0.2,2.1,0.8c0.4-0.2,0.9-0.4,1.4-0.6c0.5-0.2,1-0.2,1.5-0.2c0.8-0.1,1.6,0.2,2.2,0.9c0.4,1,0.6,2,0.6,3.1v4.2h-1.2
			v-4.2c0.1-0.8-0.1-1.6-0.3-2.3c-0.3-0.5-0.8-0.7-1.4-0.6c-0.4,0-0.7,0.1-1.1,0.2c-0.3,0.1-0.6,0.2-0.9,0.3l-0.3,0.1
			c0.2,0.8,0.3,1.6,0.2,2.3v4.2h-1.2v-4.1c0.1-0.8-0.1-1.6-0.3-2.3c-0.3-0.5-0.8-0.7-1.4-0.6c-0.4,0-0.7,0.1-1,0.2
			c-0.3,0.1-0.6,0.2-0.8,0.3l-0.3,0.1V2516.7z M-2279.7,2520.2v-11.6h1.2v0.6c0.7-0.5,1.5-0.7,2.4-0.7c0.9-0.1,1.7,0.3,2.2,1
			c0.5,1,0.8,2.1,0.7,3.2c0.1,1.1-0.2,2.2-0.8,3.2c-0.7,0.7-1.7,1.1-2.7,1c-0.6,0-1.2-0.1-1.8-0.2v3.6H-2279.7z M-2276.2,2509.6
			c-0.3,0-0.7,0.1-1,0.2c-0.3,0.1-0.6,0.2-0.9,0.3l-0.3,0.2v5.4c0.6,0.1,1.1,0.2,1.7,0.2c0.7,0.1,1.4-0.2,1.8-0.7
			c0.4-0.7,0.6-1.6,0.5-2.4c0.1-0.8-0.1-1.6-0.5-2.4C-2275.2,2509.8-2275.7,2509.6-2276.2,2509.6z M-2266.1,2508.7h1.2v8h-1.2v-0.6
			c-0.7,0.5-1.5,0.7-2.4,0.7c-0.8,0.1-1.6-0.2-2.2-0.8c-0.4-1-0.6-2.1-0.5-3.1v-4.2h1.2v4.2c-0.1,0.8,0,1.6,0.3,2.3
			c0.2,0.4,0.7,0.6,1.4,0.6c0.4,0,0.7-0.1,1.1-0.2c0.3-0.1,0.6-0.2,0.8-0.3l0.3-0.1L-2266.1,2508.7z M-2262.4,2516.7v-8h1.2v1.1
			c0.9-0.6,1.9-1,2.9-1.3v1.2c-0.5,0.1-0.9,0.2-1.4,0.4c-0.4,0.1-0.8,0.3-1.1,0.5l-0.4,0.2v5.9H-2262.4z"/>
		<path class="st2" d="M-2297.9,2447.7h-11.1v-3l3.7-3.7c1-1,1.9-2,2.7-3.1c0.5-0.7,0.8-1.5,0.8-2.3c0.1-0.6-0.2-1.3-0.6-1.7
			c-0.5-0.4-1.2-0.5-1.8-0.5c-1.3,0-2.5,0.1-3.8,0.3l-0.6,0.1l-0.2-2.8c1.7-0.5,3.5-0.8,5.3-0.8c3.6,0,5.5,1.6,5.5,4.9
			c0,1.2-0.3,2.3-0.8,3.3c-0.8,1.3-1.9,2.4-3,3.4l-3,2.7h7.1V2447.7z M-2293.6,2432.3c1.2-1.5,3.1-2.3,5-2.1c1.9-0.1,3.8,0.7,5,2.1
			c1.1,1.4,1.7,3.7,1.7,6.9s-0.6,5.4-1.7,6.8c-1.3,1.4-3.1,2.2-5,2c-1.9,0.1-3.7-0.6-5-2c-1.1-1.4-1.7-3.6-1.7-6.8
			S-2294.8,2433.8-2293.6,2432.3z M-2285.7,2439.1c0.1-1.5-0.1-3.1-0.7-4.5c-0.4-0.8-1.3-1.4-2.3-1.3c-1-0.1-1.9,0.4-2.3,1.3
			c-0.6,1.4-0.8,3-0.7,4.5c-0.1,1.5,0.1,3.1,0.7,4.5c0.4,0.8,1.3,1.3,2.3,1.3c0.9,0.1,1.8-0.4,2.3-1.3
			C-2285.8,2442.2-2285.6,2440.7-2285.7,2439.1z M-2268.3,2447.7h-11.1v-3l3.7-3.7c1-1,1.9-2,2.7-3.1c0.5-0.7,0.8-1.5,0.8-2.3
			c0.1-0.6-0.2-1.3-0.6-1.7c-0.5-0.4-1.2-0.5-1.8-0.5c-1.3,0-2.5,0.1-3.8,0.3l-0.6,0.1l-0.2-2.8c1.7-0.5,3.5-0.8,5.3-0.8
			c3.6,0,5.5,1.6,5.5,4.9c0,1.2-0.3,2.3-0.8,3.3c-0.8,1.3-1.9,2.4-3,3.4l-3,2.7h7.1L-2268.3,2447.7z M-2255.4,2430.5v17.2h-3.6
			v-13.1l-3.7,2.4l-1.6-2.7l5.7-3.8H-2255.4z"/>
	</g>
	<g transform="translate(-311.84 -67.218)">
		<path class="st1" d="M-2088.6,2474.7v-1.7h-4.5v-1.7l2.6-7.1h2.4l-2.8,6.9h2.3v-3h2.2v3h1v1.9h-1v1.7H-2088.6z M-2083.2,2465.2
			c0.8-0.9,1.9-1.4,3.1-1.3c1.2-0.1,2.3,0.4,3.1,1.3c0.8,1.3,1.2,2.7,1,4.2c0.1,1.5-0.2,2.9-1,4.2c-0.8,0.9-1.9,1.3-3.1,1.3
			c-1.2,0.1-2.3-0.4-3.1-1.3c-0.8-1.2-1.2-2.7-1-4.2C-2084.4,2468-2084,2466.5-2083.2,2465.2z M-2078.3,2469.4
			c0.1-0.9-0.1-1.9-0.4-2.8c-0.3-0.5-0.8-0.8-1.4-0.8c-0.6,0-1.1,0.3-1.4,0.8c-0.3,0.9-0.5,1.8-0.4,2.8c-0.1,0.9,0.1,1.9,0.4,2.8
			c0.3,0.5,0.8,0.8,1.4,0.8c0.6,0,1.1-0.3,1.4-0.8C-2078.4,2471.3-2078.3,2470.4-2078.3,2469.4L-2078.3,2469.4z M-2073.5,2474.8
			l3.8-11.3l1.2,0.4l-3.8,11.3L-2073.5,2474.8z M-2075.3,2466.3c0-1.6,0.6-2.3,1.9-2.3s1.9,0.8,1.9,2.3c0,1.6-0.6,2.3-1.9,2.3
			C-2074.6,2468.6-2075.3,2467.8-2075.3,2466.3z M-2073.6,2465.5c-0.1,0.3-0.1,0.5-0.1,0.8c0,0.3,0,0.5,0.1,0.8
			c0,0.2,0.2,0.3,0.3,0.2c0.1,0,0.2-0.1,0.2-0.2c0.1-0.3,0.1-0.5,0.1-0.8c0-0.3,0-0.5-0.1-0.8c0-0.1-0.1-0.2-0.3-0.2
			C-2073.5,2465.2-2073.6,2465.3-2073.6,2465.5z M-2070.6,2472.6c0-1.6,0.6-2.3,1.9-2.3s1.9,0.8,1.9,2.3s-0.6,2.3-1.9,2.3
			S-2070.6,2474.1-2070.6,2472.6L-2070.6,2472.6z M-2069,2471.7c-0.1,0.3-0.1,0.5-0.1,0.8c0,0.3,0,0.5,0.1,0.8
			c0,0.2,0.2,0.3,0.3,0.2c0.1,0,0.2-0.1,0.2-0.2c0.1-0.3,0.1-0.5,0.1-0.8c0-0.3,0-0.5-0.1-0.8c0-0.1-0.1-0.2-0.3-0.2
			C-2068.8,2471.5-2069,2471.6-2069,2471.7L-2069,2471.7z M-2091.4,2495.7h-1.2v-8h1.2v0.6c0.8-0.4,1.6-0.7,2.5-0.7
			c0.8-0.1,1.6,0.2,2.2,0.9c0.4,1,0.6,2,0.6,3.1v4.2h-1.2v-4.2c0.1-0.8-0.1-1.6-0.3-2.3c-0.3-0.5-0.9-0.7-1.4-0.6
			c-0.4,0-0.7,0.1-1.1,0.2c-0.3,0.1-0.6,0.2-0.9,0.3l-0.3,0.1L-2091.4,2495.7z M-2078.2,2490.1v4.1c0,0.4,0.3,0.6,0.9,0.7l0,0.9
			c-0.7,0.1-1.4-0.2-1.9-0.6c-0.9,0.4-1.9,0.6-2.9,0.6c-0.6,0-1.2-0.2-1.7-0.6c-0.4-0.5-0.6-1.1-0.6-1.8c-0.1-0.6,0.2-1.3,0.6-1.7
			c0.5-0.4,1.2-0.7,1.9-0.7l2.5-0.2v-0.7c0-0.4-0.1-0.8-0.4-1.2c-0.3-0.2-0.6-0.4-1-0.4c-0.9,0-1.8,0.1-2.7,0.2l-0.5,0l0-0.9
			c1-0.2,2.1-0.3,3.1-0.4c0.7-0.1,1.4,0.2,2,0.6C-2078.4,2488.7-2078.1,2489.4-2078.2,2490.1z M-2083.1,2493.4c0,1,0.4,1.5,1.2,1.5
			c0.7,0,1.5-0.1,2.1-0.4l0.4-0.1v-2.6l-2.4,0.2c-0.4,0-0.8,0.2-1,0.4C-2083,2492.6-2083.2,2493-2083.1,2493.4z M-2071.5,2488.7
			h-2.5v3.8c0,0.6,0,1.2,0.2,1.8c0.1,0.3,0.5,0.4,1,0.4l1.4-0.1l0.1,1c-0.5,0.1-1.1,0.2-1.6,0.2c-0.6,0.1-1.3-0.2-1.7-0.6
			c-0.4-0.7-0.6-1.5-0.5-2.3v-4.2h-1.1v-1h1.1v-2.4h1.2v2.4h2.5L-2071.5,2488.7z M-2069.9,2495.7v-8h1.2v8H-2069.9z M-2069.9,2485.9
			v-1.4h1.2v1.4H-2069.9z M-2066.6,2491.7c-0.1-1.1,0.2-2.2,0.8-3.2c0.7-0.7,1.7-1.1,2.6-1c1-0.1,2,0.3,2.6,1
			c0.6,0.9,0.9,2.1,0.8,3.2c0.1,1.1-0.2,2.2-0.7,3.2c-0.7,0.7-1.7,1.1-2.7,1c-1,0.1-2-0.2-2.7-1
			C-2066.4,2493.9-2066.7,2492.8-2066.6,2491.7z M-2065.4,2491.7c-0.1,0.8,0.1,1.7,0.4,2.4c0.4,0.5,1.1,0.8,1.8,0.7
			c0.7,0.1,1.3-0.2,1.8-0.7c0.3-0.8,0.5-1.6,0.4-2.5c0.1-0.8-0.1-1.7-0.5-2.4c-0.4-0.5-1.1-0.7-1.7-0.7c-0.7-0.1-1.3,0.2-1.7,0.7
			C-2065.3,2490-2065.4,2490.8-2065.4,2491.7z M-2056.4,2495.7h-1.2v-8h1.2v0.6c0.8-0.4,1.6-0.7,2.5-0.7c0.8-0.1,1.6,0.2,2.2,0.9
			c0.4,1,0.6,2,0.6,3.1v4.2h-1.2v-4.2c0.1-0.8-0.1-1.6-0.3-2.3c-0.3-0.5-0.9-0.7-1.4-0.6c-0.4,0-0.7,0.1-1.1,0.2
			c-0.3,0.1-0.6,0.2-0.9,0.3l-0.3,0.1L-2056.4,2495.7z M-2049.6,2487.7h1.2l1.6,7h0.3l1.9-6.8h1.2l1.9,6.8h0.3l1.6-7h1.2l-1.9,8h-2
			l-1.7-6.3l-1.7,6.3h-2L-2049.6,2487.7z M-2036.6,2495.7v-8h1.2v8H-2036.6z M-2036.6,2485.9v-1.4h1.2v1.4H-2036.6z M-2026.8,2484.2
			v11.5h-1.2v-0.5c-0.7,0.4-1.6,0.7-2.4,0.7c-0.4,0-0.8,0-1.1-0.2c-0.3-0.1-0.6-0.3-0.9-0.6c-0.7-0.9-1-2.1-0.9-3.2
			c-0.1-1.2,0.2-2.3,0.8-3.4c0.6-0.7,1.6-1.1,2.6-1c0.7,0,1.3,0.1,2,0.2v-3.5H-2026.8z M-2031.5,2494.2c0.1,0.2,0.3,0.3,0.5,0.4
			c0.2,0.1,0.5,0.1,0.7,0.1c0.3,0,0.7-0.1,1-0.2c0.3-0.1,0.6-0.2,0.9-0.3l0.3-0.1v-5.4c-0.6-0.1-1.3-0.2-1.9-0.2
			c-0.7-0.1-1.3,0.2-1.7,0.8c-0.4,0.7-0.5,1.6-0.5,2.4C-2032.1,2492.6-2032,2493.5-2031.5,2494.2L-2031.5,2494.2z M-2018.9,2494.7
			l0.5,0l0,0.9c-1,0.2-2.1,0.2-3.1,0.3c-0.9,0.1-1.8-0.3-2.4-1c-0.6-0.9-0.8-2-0.7-3.1c0-2.8,1.1-4.2,3.3-4.2
			c0.9-0.1,1.8,0.3,2.4,0.9c0.6,0.8,0.9,1.8,0.8,2.8l-0.1,0.9h-5.3c-0.1,0.7,0.1,1.4,0.5,2c0.4,0.5,1,0.7,1.7,0.6
			C-2020.5,2494.8-2019.7,2494.8-2018.9,2494.7L-2018.9,2494.7z M-2019.3,2491.2c0.1-0.7-0.1-1.5-0.5-2.1c-0.4-0.4-1-0.7-1.5-0.6
			c-0.6,0-1.2,0.2-1.6,0.6c-0.4,0.6-0.6,1.3-0.6,2H-2019.3z M-2009.4,2487.5c0.6,0,1.2,0.1,1.8,0.2l0.4,0l0,1
			c-0.6-0.1-1.3-0.1-1.9-0.1c-0.7-0.1-1.4,0.2-1.8,0.6c-0.4,0.7-0.6,1.6-0.5,2.4c-0.1,0.8,0.1,1.7,0.5,2.4c0.5,0.5,1.2,0.8,1.9,0.7
			l1.9-0.1l0,1c-0.7,0.1-1.5,0.2-2.2,0.2c-1,0.1-1.9-0.2-2.6-1c-0.6-1-0.8-2.1-0.7-3.2c-0.1-1.1,0.2-2.2,0.8-3.2
			C-2011.3,2487.8-2010.3,2487.4-2009.4,2487.5L-2009.4,2487.5z M-2005.7,2491.7c-0.1-1.1,0.2-2.2,0.8-3.2c1.5-1.3,3.8-1.3,5.3,0
			c0.6,0.9,0.9,2.1,0.8,3.2c0.1,1.1-0.2,2.2-0.7,3.2c-1.5,1.3-3.8,1.3-5.4,0C-2005.5,2493.9-2005.8,2492.8-2005.7,2491.7
			L-2005.7,2491.7z M-2004.5,2491.7c-0.1,0.8,0.1,1.7,0.4,2.4c1,0.9,2.5,0.9,3.5,0c0.3-0.8,0.5-1.6,0.4-2.5c0.1-0.8-0.1-1.7-0.5-2.4
			c-0.4-0.5-1.1-0.7-1.7-0.7c-0.7-0.1-1.3,0.2-1.7,0.7C-2004.4,2490-2004.5,2490.8-2004.5,2491.7L-2004.5,2491.7z M-1997.6,2487.7
			h1.3l1.9,7h0.6l1.9-7h1.2l-2.3,8h-2.4L-1997.6,2487.7z M-1983.7,2494.7l0.5,0l0,0.9c-1,0.2-2.1,0.2-3.1,0.3
			c-0.9,0.1-1.8-0.3-2.4-1c-0.6-0.9-0.8-2-0.7-3.1c0-2.8,1.1-4.2,3.3-4.2c0.9-0.1,1.8,0.3,2.4,0.9c0.6,0.8,0.9,1.8,0.8,2.8l-0.1,0.9
			h-5.3c-0.1,0.7,0.1,1.4,0.5,2c0.4,0.5,1,0.7,1.7,0.6C-1985.4,2494.8-1984.6,2494.8-1983.7,2494.7L-1983.7,2494.7z M-1984.2,2491.2
			c0.1-0.7-0.1-1.5-0.5-2.1c-0.4-0.4-1-0.7-1.5-0.6c-0.6,0-1.2,0.2-1.6,0.6c-0.4,0.6-0.6,1.3-0.6,2H-1984.2z M-1980.9,2495.7v-8h1.2
			v1.1c0.9-0.6,1.9-1,2.9-1.3v1.2c-0.5,0.1-0.9,0.2-1.4,0.4c-0.4,0.1-0.8,0.3-1.1,0.5l-0.4,0.2v5.9H-1980.9z M-1969.6,2490.1v4.1
			c0,0.4,0.3,0.6,0.9,0.7l0,0.9c-0.7,0.1-1.4-0.2-1.9-0.6c-0.9,0.4-1.9,0.6-2.9,0.6c-0.6,0-1.2-0.2-1.7-0.6
			c-0.4-0.5-0.6-1.1-0.6-1.8c-0.1-0.6,0.2-1.3,0.6-1.7c0.5-0.4,1.2-0.7,1.9-0.7l2.5-0.2v-0.7c0-0.4-0.1-0.8-0.4-1.2
			c-0.3-0.2-0.6-0.4-1-0.4c-0.9,0-1.8,0.1-2.7,0.2l-0.5,0l0-0.9c1-0.2,2.1-0.3,3.1-0.4c1.2-0.2,2.4,0.6,2.6,1.8
			C-1969.6,2489.6-1969.6,2489.8-1969.6,2490.1L-1969.6,2490.1z M-1974.5,2493.4c0,1,0.4,1.5,1.2,1.5c0.7,0,1.5-0.1,2.1-0.4l0.4-0.1
			v-2.6l-2.4,0.2c-0.4,0-0.8,0.2-1,0.4C-1974.4,2492.6-1974.5,2493-1974.5,2493.4z M-1964,2499.4c-0.9,0.1-1.9-0.1-2.7-0.5
			c-0.6-0.5-0.8-1.2-0.8-1.9c0-0.4,0.1-0.7,0.3-1.1c0.3-0.4,0.6-0.7,1-0.9c-0.3-0.3-0.5-0.7-0.4-1.1c0.1-0.4,0.2-0.7,0.4-1l0.1-0.3
			c-0.9-0.5-1.4-1.4-1.3-2.4c0-1.8,1-2.7,3-2.7c0.5,0,1,0,1.4,0.2l0.2,0l2.4-0.1v1l-1.5,0c0.4,0.4,0.6,1,0.5,1.6
			c0.1,0.8-0.2,1.5-0.7,2.1c-0.7,0.5-1.5,0.7-2.3,0.6c-0.3,0-0.5,0-0.8-0.1c-0.1,0.3-0.2,0.6-0.3,0.9c0,0.3,0.1,0.5,0.3,0.6
			c0.6,0.1,1.2,0.2,1.8,0.1c0.8-0.1,1.5,0.1,2.2,0.5c0.5,0.5,0.8,1.2,0.7,1.9C-1960.4,2498.6-1961.6,2499.4-1964,2499.4z
			 M-1966.2,2496.9c-0.1,0.4,0.1,0.9,0.5,1.2c0.5,0.3,1.1,0.4,1.7,0.3c0.6,0,1.3-0.1,1.8-0.4c0.4-0.3,0.6-0.7,0.6-1.2
			c0-0.5-0.1-0.9-0.4-1.1c-0.5-0.2-1-0.3-1.6-0.2l-1.7-0.1c-0.3,0.2-0.5,0.4-0.7,0.7C-1966.2,2496.4-1966.2,2496.7-1966.2,2496.9z
			 M-1966.1,2490.3c0,0.5,0.1,1,0.4,1.3c0.4,0.3,0.9,0.4,1.4,0.4c0.5,0,1-0.1,1.4-0.4c0.3-0.4,0.5-0.9,0.4-1.4c0-0.5-0.1-1-0.4-1.4
			c-0.9-0.5-1.9-0.5-2.8,0C-1966,2489.3-1966.2,2489.8-1966.1,2490.3z M-1953.2,2494.7l0.5,0l0,0.9c-1,0.2-2.1,0.2-3.1,0.3
			c-0.9,0.1-1.8-0.3-2.4-1c-0.6-0.9-0.8-2-0.7-3.1c0-2.8,1.1-4.2,3.3-4.2c0.9-0.1,1.8,0.3,2.4,0.9c0.6,0.8,0.9,1.8,0.8,2.8l-0.1,0.9
			h-5.3c-0.1,0.7,0.1,1.4,0.5,2c0.4,0.5,1,0.7,1.7,0.6C-1954.9,2494.8-1954.1,2494.8-1953.2,2494.7L-1953.2,2494.7z M-1953.7,2491.2
			c0.1-0.7-0.1-1.5-0.5-2.1c-0.4-0.4-1-0.7-1.5-0.6c-0.6,0-1.2,0.2-1.6,0.6c-0.4,0.6-0.6,1.3-0.6,2H-1953.7z"/>
		<path class="st2" d="M-2080.9,2447.7h-11.1v-3l3.7-3.7c1-1,1.9-2,2.7-3.1c0.5-0.7,0.8-1.5,0.8-2.3c0.1-0.6-0.2-1.3-0.6-1.7
			c-0.5-0.4-1.2-0.5-1.8-0.5c-1.3,0-2.5,0.1-3.8,0.3l-0.6,0.1l-0.2-2.8c1.7-0.5,3.5-0.8,5.3-0.8c3.6,0,5.5,1.6,5.5,4.9
			c0,1.2-0.3,2.3-0.8,3.3c-0.8,1.3-1.9,2.4-3,3.4l-3,2.7h7.1V2447.7z M-2076.6,2432.3c1.2-1.5,3.1-2.3,5-2.1c1.9-0.1,3.8,0.7,5,2.1
			c1.1,1.4,1.7,3.7,1.7,6.9s-0.6,5.4-1.7,6.8c-1.3,1.4-3.1,2.2-5,2c-1.9,0.1-3.7-0.6-5-2c-1.1-1.4-1.7-3.6-1.7-6.8
			S-2077.8,2433.8-2076.6,2432.3z M-2068.7,2439.1c0.1-1.5-0.1-3.1-0.7-4.5c-0.4-0.8-1.3-1.4-2.3-1.3c-1-0.1-1.9,0.4-2.3,1.3
			c-0.6,1.4-0.8,3-0.7,4.5c-0.1,1.5,0.1,3.1,0.7,4.5c0.4,0.8,1.3,1.3,2.3,1.3c0.9,0.1,1.8-0.4,2.3-1.3
			C-2068.8,2442.2-2068.6,2440.7-2068.7,2439.1z M-2051.3,2447.7h-11.1v-3l3.7-3.7c1-1,1.9-2,2.7-3.1c0.5-0.7,0.8-1.5,0.8-2.3
			c0.1-0.6-0.2-1.3-0.6-1.7c-0.5-0.4-1.2-0.5-1.8-0.5c-1.3,0-2.5,0.1-3.8,0.3l-0.6,0.1l-0.2-2.8c1.7-0.5,3.5-0.8,5.3-0.8
			c3.6,0,5.5,1.6,5.5,4.9c0,1.2-0.3,2.3-0.8,3.3c-0.8,1.3-1.9,2.4-3,3.4l-3,2.7h7.1L-2051.3,2447.7z M-2036.5,2447.7h-11.1v-3
			l3.7-3.7c1-1,1.9-2,2.7-3.1c0.5-0.7,0.8-1.5,0.8-2.3c0.1-0.6-0.2-1.3-0.6-1.7c-0.5-0.4-1.2-0.5-1.8-0.5c-1.3,0-2.5,0.1-3.8,0.3
			l-0.6,0.1l-0.2-2.8c1.7-0.5,3.5-0.8,5.3-0.8c3.6,0,5.5,1.6,5.5,4.9c0,1.2-0.3,2.3-0.8,3.3c-0.8,1.3-1.9,2.4-3,3.4l-3,2.7h7.1
			L-2036.5,2447.7z"/>
	</g>
	<g transform="translate(-529.648 67.783)">
		<path class="st1" d="M-1874.6,2466.1v-2h6.8v2.5l-3.8,8.3l-2.1-0.6l3.6-7.7v-0.5L-1874.6,2466.1z M-1865.2,2465.2
			c0.8-0.9,1.9-1.4,3.1-1.3c1.2-0.1,2.3,0.4,3.1,1.3c0.8,1.3,1.2,2.7,1,4.2c0.1,1.5-0.2,2.9-1,4.2c-0.8,0.9-1.9,1.3-3.1,1.3
			c-1.2,0.1-2.3-0.4-3.1-1.3c-0.8-1.2-1.2-2.7-1-4.2C-1866.3,2468-1866,2466.5-1865.2,2465.2L-1865.2,2465.2z M-1860.3,2469.4
			c0.1-0.9-0.1-1.9-0.4-2.8c-0.3-0.5-0.8-0.8-1.4-0.8c-0.6,0-1.1,0.3-1.4,0.8c-0.3,0.9-0.5,1.8-0.4,2.8c-0.1,0.9,0.1,1.9,0.4,2.8
			c0.3,0.5,0.8,0.8,1.4,0.8c0.6,0,1.1-0.3,1.4-0.8C-1860.4,2471.3-1860.2,2470.4-1860.3,2469.4z M-1855.5,2474.8l3.8-11.3l1.2,0.4
			l-3.8,11.3L-1855.5,2474.8z M-1857.2,2466.3c0-1.6,0.6-2.3,1.9-2.3c1.3,0,1.9,0.8,1.9,2.3c0,1.6-0.6,2.3-1.9,2.3
			S-1857.2,2467.8-1857.2,2466.3z M-1855.6,2465.5c-0.1,0.3-0.1,0.5-0.1,0.8c0,0.3,0,0.5,0.1,0.8c0,0.1,0.1,0.2,0.3,0.2
			c0.1,0,0.3-0.1,0.3-0.2c0.1-0.3,0.1-0.5,0.1-0.8c0-0.3,0-0.5-0.1-0.8c0-0.1-0.1-0.2-0.3-0.2
			C-1855.5,2465.2-1855.6,2465.3-1855.6,2465.5z M-1852.6,2472.6c0-1.6,0.6-2.3,1.9-2.3c1.3,0,1.9,0.8,1.9,2.3s-0.6,2.3-1.9,2.3
			C-1851.9,2474.9-1852.6,2474.1-1852.6,2472.6L-1852.6,2472.6z M-1850.9,2471.7c-0.1,0.3-0.1,0.5-0.1,0.8c0,0.3,0,0.5,0.1,0.8
			c0,0.1,0.1,0.2,0.3,0.2c0.1,0,0.3-0.1,0.3-0.2c0.1-0.3,0.1-0.5,0.1-0.8c0-0.3,0-0.5-0.1-0.8c0-0.1-0.1-0.2-0.3-0.2
			C-1850.8,2471.5-1850.9,2471.6-1850.9,2471.7L-1850.9,2471.7z M-1873.4,2495.7h-1.2v-8h1.2v0.6c0.8-0.4,1.6-0.7,2.5-0.7
			c0.8-0.1,1.6,0.2,2.2,0.9c0.4,1,0.6,2,0.6,3.1v4.2h-1.2v-4.2c0.1-0.8-0.1-1.6-0.3-2.3c-0.3-0.5-0.9-0.7-1.4-0.6
			c-0.4,0-0.7,0.1-1.1,0.2c-0.3,0.1-0.6,0.2-0.9,0.3l-0.3,0.1L-1873.4,2495.7z M-1860.2,2490.1v4.1c0,0.4,0.3,0.6,0.9,0.7l0,0.9
			c-0.7,0.1-1.4-0.2-1.9-0.6c-0.9,0.4-1.9,0.6-2.9,0.6c-0.6,0-1.2-0.2-1.7-0.6c-0.4-0.5-0.6-1.1-0.6-1.8c-0.1-0.6,0.2-1.3,0.6-1.7
			c0.5-0.4,1.2-0.7,1.9-0.7l2.5-0.2v-0.7c0-0.4-0.1-0.8-0.4-1.2c-0.3-0.2-0.6-0.4-1-0.4c-0.9,0-1.8,0.1-2.7,0.2l-0.5,0l0-0.9
			c1-0.2,2.1-0.3,3.1-0.4c0.7-0.1,1.4,0.2,2,0.6C-1860.4,2488.7-1860.1,2489.4-1860.2,2490.1z M-1865.1,2493.4c0,1,0.4,1.5,1.2,1.5
			c0.7,0,1.5-0.1,2.1-0.4l0.4-0.1v-2.6l-2.4,0.2c-0.4,0-0.8,0.2-1,0.4C-1865,2492.6-1865.2,2493-1865.1,2493.4z M-1853.5,2488.7
			h-2.5v3.8c0,0.6,0,1.2,0.2,1.8c0.1,0.3,0.5,0.4,1,0.4l1.4-0.1l0.1,1c-0.5,0.1-1.1,0.2-1.6,0.2c-0.6,0.1-1.3-0.2-1.7-0.6
			c-0.4-0.7-0.6-1.5-0.5-2.3v-4.2h-1.1v-1h1.1v-2.4h1.2v2.4h2.5V2488.7z M-1851.9,2495.7v-8h1.2v8H-1851.9z M-1851.9,2485.9v-1.4
			h1.2v1.4H-1851.9z M-1848.6,2491.7c-0.1-1.1,0.2-2.2,0.8-3.2c0.7-0.7,1.7-1.1,2.6-1c1-0.1,2,0.3,2.6,1c0.6,0.9,0.9,2.1,0.8,3.2
			c0.1,1.1-0.2,2.2-0.7,3.2c-0.7,0.7-1.7,1.1-2.7,1c-1,0.1-2-0.2-2.7-1C-1848.4,2493.9-1848.7,2492.8-1848.6,2491.7z
			 M-1847.3,2491.7c-0.1,0.8,0.1,1.7,0.4,2.4c0.4,0.5,1.1,0.8,1.8,0.7c0.7,0.1,1.3-0.2,1.8-0.7c0.3-0.8,0.5-1.6,0.4-2.5
			c0.1-0.8-0.1-1.7-0.5-2.4c-0.4-0.5-1.1-0.7-1.7-0.7c-0.7-0.1-1.3,0.2-1.7,0.7C-1847.3,2490-1847.4,2490.8-1847.3,2491.7z
			 M-1838.4,2495.7h-1.2v-8h1.2v0.6c0.8-0.4,1.6-0.7,2.5-0.7c0.8-0.1,1.6,0.2,2.2,0.9c0.4,1,0.6,2,0.6,3.1v4.2h-1.2v-4.2
			c0.1-0.8-0.1-1.6-0.3-2.3c-0.3-0.5-0.9-0.7-1.4-0.6c-0.4,0-0.7,0.1-1.1,0.2c-0.3,0.1-0.6,0.2-0.9,0.3l-0.3,0.1L-1838.4,2495.7z
			 M-1831.6,2487.7h1.2l1.6,7h0.3l1.9-6.8h1.2l1.9,6.8h0.3l1.6-7h1.2l-1.9,8h-2l-1.7-6.3l-1.7,6.3h-2L-1831.6,2487.7z
			 M-1818.6,2495.7v-8h1.2v8H-1818.6z M-1818.6,2485.9v-1.4h1.2v1.4H-1818.6z M-1808.8,2484.2v11.5h-1.2v-0.5
			c-0.7,0.4-1.6,0.7-2.4,0.7c-0.4,0-0.8,0-1.1-0.2c-0.3-0.1-0.6-0.3-0.9-0.6c-0.7-0.9-1-2.1-0.9-3.2c-0.1-1.2,0.2-2.3,0.8-3.4
			c0.6-0.7,1.6-1.1,2.6-1c0.7,0,1.3,0.1,2,0.2v-3.5H-1808.8z M-1813.5,2494.2c0.1,0.2,0.3,0.3,0.5,0.4c0.2,0.1,0.5,0.1,0.7,0.1
			c0.3,0,0.7-0.1,1-0.2c0.3-0.1,0.6-0.2,0.9-0.3l0.3-0.1v-5.4c-0.6-0.1-1.3-0.2-1.9-0.2c-0.7-0.1-1.3,0.2-1.7,0.8
			c-0.4,0.7-0.5,1.6-0.5,2.4C-1814.1,2492.6-1814,2493.5-1813.5,2494.2L-1813.5,2494.2z M-1800.9,2494.7l0.5,0l0,0.9
			c-1,0.2-2.1,0.2-3.1,0.3c-0.9,0.1-1.8-0.3-2.4-1c-0.6-0.9-0.8-2-0.7-3.1c0-2.8,1.1-4.2,3.3-4.2c0.9-0.1,1.8,0.3,2.4,0.9
			c0.6,0.8,0.9,1.8,0.8,2.8l-0.1,0.9h-5.3c-0.1,0.7,0.1,1.4,0.5,2c0.4,0.5,1,0.7,1.7,0.6
			C-1802.5,2494.8-1801.7,2494.8-1800.9,2494.7L-1800.9,2494.7z M-1801.3,2491.2c0.1-0.7-0.1-1.5-0.5-2.1c-0.4-0.4-1-0.7-1.5-0.6
			c-0.6,0-1.2,0.2-1.6,0.6c-0.4,0.6-0.6,1.3-0.6,2H-1801.3z M-1791.4,2487.5c0.6,0,1.2,0.1,1.8,0.2l0.4,0l0,1
			c-0.6-0.1-1.3-0.1-1.9-0.1c-0.7-0.1-1.4,0.2-1.8,0.6c-0.4,0.7-0.6,1.6-0.5,2.4c-0.1,0.8,0.1,1.7,0.5,2.4c0.5,0.5,1.2,0.8,1.9,0.7
			l1.9-0.1l0,1c-0.7,0.1-1.5,0.2-2.2,0.2c-1,0.1-1.9-0.2-2.6-1c-0.6-1-0.8-2.1-0.7-3.2c-0.1-1.1,0.2-2.2,0.8-3.2
			C-1793.3,2487.8-1792.3,2487.4-1791.4,2487.5L-1791.4,2487.5z M-1787.7,2491.7c-0.1-1.1,0.2-2.2,0.8-3.2c1.5-1.3,3.8-1.3,5.3,0
			c0.6,0.9,0.9,2.1,0.8,3.2c0.1,1.1-0.2,2.2-0.7,3.2c-1.5,1.3-3.8,1.3-5.4,0C-1787.5,2493.9-1787.8,2492.8-1787.7,2491.7
			L-1787.7,2491.7z M-1786.5,2491.7c-0.1,0.8,0.1,1.7,0.4,2.4c1,0.9,2.5,0.9,3.5,0c0.3-0.8,0.5-1.6,0.4-2.5c0.1-0.8-0.1-1.7-0.5-2.4
			c-0.4-0.5-1.1-0.7-1.7-0.7c-0.7-0.1-1.3,0.2-1.7,0.7C-1786.4,2490-1786.5,2490.8-1786.5,2491.7L-1786.5,2491.7z M-1779.6,2487.7
			h1.3l1.9,7h0.6l1.9-7h1.2l-2.3,8h-2.4L-1779.6,2487.7z M-1765.7,2494.7l0.5,0l0,0.9c-1,0.2-2.1,0.2-3.1,0.3
			c-0.9,0.1-1.8-0.3-2.4-1c-0.6-0.9-0.8-2-0.7-3.1c0-2.8,1.1-4.2,3.3-4.2c0.9-0.1,1.8,0.3,2.4,0.9c0.6,0.8,0.9,1.8,0.8,2.8l-0.1,0.9
			h-5.3c-0.1,0.7,0.1,1.4,0.5,2c0.4,0.5,1,0.7,1.7,0.6C-1767.4,2494.8-1766.6,2494.8-1765.7,2494.7L-1765.7,2494.7z M-1766.2,2491.2
			c0.1-0.7-0.1-1.5-0.5-2.1c-0.4-0.4-1-0.7-1.5-0.6c-0.6,0-1.2,0.2-1.6,0.6c-0.4,0.6-0.6,1.3-0.6,2H-1766.2z M-1762.9,2495.7v-8h1.2
			v1.1c0.9-0.6,1.9-1,2.9-1.3v1.2c-0.5,0.1-0.9,0.2-1.4,0.4c-0.4,0.1-0.8,0.3-1.1,0.5l-0.4,0.2v5.9H-1762.9z M-1751.6,2490.1v4.1
			c0,0.4,0.3,0.6,0.9,0.7l0,0.9c-0.7,0.1-1.4-0.2-1.9-0.6c-0.9,0.4-1.9,0.6-2.9,0.6c-0.6,0-1.2-0.2-1.7-0.6
			c-0.4-0.5-0.6-1.1-0.6-1.8c-0.1-0.6,0.2-1.3,0.6-1.7c0.5-0.4,1.2-0.7,1.9-0.7l2.5-0.2v-0.7c0-0.4-0.1-0.8-0.4-1.2
			c-0.3-0.2-0.6-0.4-1-0.4c-0.9,0-1.8,0.1-2.7,0.2l-0.5,0l0-0.9c1-0.2,2.1-0.3,3.1-0.4c1.2-0.2,2.4,0.6,2.6,1.8
			C-1751.6,2489.6-1751.6,2489.8-1751.6,2490.1L-1751.6,2490.1z M-1756.5,2493.4c0,1,0.4,1.5,1.2,1.5c0.7,0,1.5-0.1,2.1-0.4l0.4-0.1
			v-2.6l-2.4,0.2c-0.4,0-0.8,0.2-1,0.4C-1756.4,2492.6-1756.5,2493-1756.5,2493.4z M-1746,2499.4c-0.9,0.1-1.9-0.1-2.7-0.5
			c-0.6-0.5-0.8-1.2-0.8-1.9c0-0.4,0.1-0.7,0.3-1.1c0.3-0.4,0.6-0.7,1-0.9c-0.3-0.3-0.5-0.7-0.4-1.1c0.1-0.4,0.2-0.7,0.4-1l0.1-0.3
			c-0.9-0.5-1.4-1.4-1.3-2.4c0-1.8,1-2.7,3-2.7c0.5,0,1,0,1.4,0.2l0.2,0l2.4-0.1v1l-1.5,0c0.4,0.4,0.6,1,0.5,1.6
			c0.1,0.8-0.2,1.5-0.7,2.1c-0.7,0.5-1.5,0.7-2.3,0.6c-0.3,0-0.5,0-0.8-0.1c-0.1,0.3-0.2,0.6-0.3,0.9c0,0.3,0.1,0.5,0.3,0.6
			c0.6,0.1,1.2,0.2,1.8,0.1c0.8-0.1,1.5,0.1,2.2,0.5c0.5,0.5,0.8,1.2,0.7,1.9C-1742.4,2498.6-1743.6,2499.4-1746,2499.4z
			 M-1748.2,2496.9c-0.1,0.4,0.1,0.9,0.5,1.2c0.5,0.3,1.1,0.4,1.7,0.3c0.6,0,1.3-0.1,1.8-0.4c0.4-0.3,0.6-0.7,0.6-1.2
			c0-0.5-0.1-0.9-0.4-1.1c-0.5-0.2-1-0.3-1.6-0.2l-1.7-0.1c-0.3,0.2-0.5,0.4-0.7,0.7C-1748.2,2496.4-1748.2,2496.7-1748.2,2496.9z
			 M-1748.1,2490.3c0,0.5,0.1,1,0.4,1.3c0.4,0.3,0.9,0.4,1.4,0.4c0.5,0,1-0.1,1.4-0.4c0.3-0.4,0.5-0.9,0.4-1.4c0-0.5-0.1-1-0.4-1.4
			c-0.9-0.5-1.9-0.5-2.8,0C-1748,2489.3-1748.2,2489.8-1748.1,2490.3z M-1735.2,2494.7l0.5,0l0,0.9c-1,0.2-2.1,0.2-3.1,0.3
			c-0.9,0.1-1.8-0.3-2.4-1c-0.6-0.9-0.8-2-0.7-3.1c0-2.8,1.1-4.2,3.3-4.2c0.9-0.1,1.8,0.3,2.4,0.9c0.6,0.8,0.9,1.8,0.8,2.8l-0.1,0.9
			h-5.3c-0.1,0.7,0.1,1.4,0.5,2c0.4,0.5,1,0.7,1.7,0.6C-1736.9,2494.8-1736.1,2494.8-1735.2,2494.7L-1735.2,2494.7z M-1735.7,2491.2
			c0.1-0.7-0.1-1.5-0.5-2.1c-0.4-0.4-1-0.7-1.5-0.6c-0.6,0-1.2,0.2-1.6,0.6c-0.4,0.6-0.6,1.3-0.6,2H-1735.7z"/>
		<path class="st2" d="M-1862.9,2447.7h-11.1v-3l3.7-3.7c1-1,1.9-2,2.7-3.1c0.5-0.7,0.8-1.5,0.8-2.3c0.1-0.6-0.2-1.3-0.6-1.7
			c-0.5-0.4-1.2-0.5-1.8-0.5c-1.3,0-2.5,0.1-3.8,0.3l-0.6,0.1l-0.2-2.8c1.7-0.5,3.5-0.8,5.3-0.8c3.6,0,5.5,1.6,5.5,4.9
			c0,1.2-0.3,2.3-0.8,3.3c-0.8,1.3-1.9,2.4-3,3.4l-3,2.7h7.1V2447.7z M-1858.6,2432.3c1.2-1.5,3.1-2.3,5-2.1c1.9-0.1,3.8,0.7,5,2.1
			c1.1,1.4,1.7,3.7,1.7,6.9s-0.6,5.4-1.7,6.8c-1.3,1.4-3.1,2.2-5,2c-1.9,0.1-3.7-0.6-5-2c-1.1-1.4-1.7-3.6-1.7-6.8
			S-1859.8,2433.8-1858.6,2432.3z M-1850.7,2439.1c0.1-1.5-0.1-3.1-0.7-4.5c-0.4-0.8-1.3-1.4-2.3-1.3c-1-0.1-1.9,0.4-2.3,1.3
			c-0.6,1.4-0.8,3-0.7,4.5c-0.1,1.5,0.1,3.1,0.7,4.5c0.4,0.8,1.3,1.3,2.3,1.3c0.9,0.1,1.8-0.4,2.3-1.3
			C-1850.8,2442.2-1850.6,2440.7-1850.7,2439.1z M-1833.3,2447.7h-11.1v-3l3.7-3.7c1-1,1.9-2,2.7-3.1c0.5-0.7,0.8-1.5,0.8-2.3
			c0.1-0.6-0.2-1.3-0.6-1.7c-0.5-0.4-1.2-0.5-1.8-0.5c-1.3,0-2.5,0.1-3.8,0.3l-0.6,0.1l-0.2-2.8c1.7-0.5,3.5-0.8,5.3-0.8
			c3.6,0,5.5,1.6,5.5,4.9c0,1.2-0.3,2.3-0.8,3.3c-0.8,1.3-1.9,2.4-3,3.4l-3,2.7h7.1L-1833.3,2447.7z M-1829.7,2431.2
			c1.7-0.6,3.5-1,5.3-0.9c1.5-0.1,3,0.3,4.3,1.1c1,0.9,1.5,2.3,1.4,3.6c0.1,1.5-0.7,3-2,3.8c0.7,0.3,1.3,0.8,1.8,1.4
			c0.4,0.7,0.6,1.5,0.5,2.3c0.1,1.5-0.4,3-1.4,4.1c-1.3,1-2.9,1.5-4.5,1.4c-1.6,0-3.2-0.2-4.8-0.7l-0.8-0.2l0.2-2.7
			c1.6,0.3,3.2,0.5,4.9,0.5c1.8,0,2.7-0.8,2.7-2.3c0-0.6-0.2-1.2-0.7-1.5c-0.5-0.4-1.2-0.6-1.8-0.6h-3.5v-3h3.5
			c0.6,0,1.1-0.3,1.5-0.7c0.4-0.4,0.7-1,0.7-1.6c0-1.2-0.9-1.8-2.6-1.8c-1.3,0-2.6,0.1-3.8,0.4l-0.7,0.1L-1829.7,2431.2z"/>
	</g>
	<g transform="translate(-747.648 202.782)">
		<path class="st1" d="M-1656.1,2464.7c0.8-0.5,1.8-0.8,2.8-0.8c1,0,2,0.2,2.8,0.8c0.7,0.5,1.1,1.3,1.1,2.1c0,0.5-0.1,0.9-0.2,1.4
			c-0.2,0.4-0.5,0.8-0.9,1c0.4,0.3,0.7,0.7,1,1.1c0.2,0.5,0.3,1,0.3,1.5c0.1,0.9-0.4,1.8-1.1,2.3c-0.9,0.5-1.9,0.8-2.9,0.7
			c-2.7,0-4-1-4-2.9c0-0.5,0.1-1.1,0.3-1.6c0.3-0.4,0.6-0.8,1-1.2c-0.4-0.3-0.7-0.6-0.9-1.1c-0.2-0.4-0.3-0.9-0.2-1.4
			C-1657.2,2466-1656.8,2465.2-1656.1,2464.7z M-1654.9,2471.5c0,0.9,0.6,1.4,1.7,1.4s1.7-0.5,1.7-1.4c0-0.6-0.4-1.1-0.9-1.2h-1.4
			C-1654.5,2470.4-1654.9,2470.9-1654.9,2471.5z M-1653.3,2465.9c-0.4,0-0.8,0.1-1.1,0.3c-0.3,0.2-0.4,0.6-0.4,1
			c0,0.5,0.3,1,0.8,1.2h1.4c0.5-0.3,0.8-0.7,0.8-1.2C-1651.8,2466.3-1652.3,2465.9-1653.3,2465.9z M-1647.2,2465.2
			c0.8-0.9,1.9-1.4,3.1-1.3c1.2-0.1,2.3,0.4,3.1,1.3c0.8,1.3,1.2,2.7,1,4.2c0.1,1.5-0.2,2.9-1,4.2c-0.8,0.9-1.9,1.3-3.1,1.3
			c-1.2,0.1-2.3-0.4-3.1-1.3c-0.8-1.2-1.2-2.7-1-4.2C-1648.4,2468-1648,2466.5-1647.2,2465.2z M-1642.3,2469.4
			c0.1-0.9-0.1-1.9-0.4-2.8c-0.3-0.5-0.8-0.8-1.4-0.8c-0.6,0-1.1,0.3-1.4,0.8c-0.3,0.9-0.5,1.8-0.4,2.8c-0.1,0.9,0.1,1.9,0.4,2.8
			c0.3,0.5,0.8,0.8,1.4,0.8c0.6,0,1.1-0.3,1.4-0.8C-1642.4,2471.3-1642.3,2470.4-1642.3,2469.4L-1642.3,2469.4z M-1637.5,2474.8
			l3.8-11.3l1.2,0.4l-3.8,11.3L-1637.5,2474.8z M-1639.3,2466.3c0-1.6,0.6-2.3,1.9-2.3c1.3,0,1.9,0.8,1.9,2.3c0,1.6-0.6,2.3-1.9,2.3
			S-1639.3,2467.8-1639.3,2466.3z M-1637.7,2465.5c-0.1,0.3-0.1,0.5-0.1,0.8c0,0.3,0,0.5,0.1,0.8c0,0.2,0.2,0.3,0.3,0.2
			c0.1,0,0.2-0.1,0.2-0.2c0.1-0.3,0.1-0.5,0.1-0.8c0-0.3,0-0.5-0.1-0.8c0-0.1-0.1-0.2-0.3-0.2
			C-1637.5,2465.2-1637.6,2465.3-1637.7,2465.5z M-1634.6,2472.6c0-1.6,0.6-2.3,1.9-2.3c1.3,0,1.9,0.8,1.9,2.3s-0.6,2.3-1.9,2.3
			C-1634,2474.9-1634.6,2474.1-1634.6,2472.6L-1634.6,2472.6z M-1633,2471.7c-0.1,0.3-0.1,0.5-0.1,0.8c0,0.3,0,0.5,0.1,0.8
			c0,0.2,0.2,0.3,0.3,0.2c0.1,0,0.2-0.1,0.2-0.2c0.1-0.3,0.1-0.5,0.1-0.8c0-0.3,0-0.5-0.1-0.8c0-0.1-0.1-0.2-0.3-0.2
			C-1632.8,2471.5-1633,2471.6-1633,2471.7L-1633,2471.7z M-1655.4,2495.7h-1.2v-8h1.2v0.6c0.8-0.4,1.6-0.7,2.5-0.7
			c0.8-0.1,1.6,0.2,2.2,0.9c0.4,1,0.6,2,0.6,3.1v4.2h-1.2v-4.2c0.1-0.8-0.1-1.6-0.3-2.3c-0.3-0.5-0.9-0.7-1.4-0.6
			c-0.4,0-0.7,0.1-1.1,0.2c-0.3,0.1-0.6,0.2-0.9,0.3l-0.3,0.1L-1655.4,2495.7z M-1642.2,2490.1v4.1c0,0.4,0.3,0.6,0.9,0.7l0,0.9
			c-0.7,0.1-1.4-0.2-1.9-0.6c-0.9,0.4-1.9,0.6-2.9,0.6c-0.6,0-1.2-0.2-1.7-0.6c-0.4-0.5-0.6-1.1-0.6-1.8c-0.1-0.6,0.2-1.3,0.6-1.7
			c0.5-0.4,1.2-0.7,1.9-0.7l2.5-0.2v-0.7c0-0.4-0.1-0.8-0.4-1.2c-0.3-0.2-0.6-0.4-1-0.4c-0.9,0-1.8,0.1-2.7,0.2l-0.5,0l0-0.9
			c1-0.2,2.1-0.3,3.1-0.4c0.7-0.1,1.4,0.2,2,0.6C-1642.4,2488.7-1642.1,2489.4-1642.2,2490.1z M-1647.1,2493.4c0,1,0.4,1.5,1.2,1.5
			c0.7,0,1.5-0.1,2.1-0.4l0.4-0.1v-2.6l-2.4,0.2c-0.4,0-0.8,0.2-1,0.4C-1647,2492.6-1647.2,2493-1647.1,2493.4z M-1635.5,2488.7
			h-2.5v3.8c0,0.6,0,1.2,0.2,1.8c0.1,0.3,0.5,0.4,1,0.4l1.4-0.1l0.1,1c-0.5,0.1-1.1,0.2-1.6,0.2c-0.6,0.1-1.3-0.2-1.7-0.6
			c-0.4-0.7-0.6-1.5-0.5-2.3v-4.2h-1.1v-1h1.1v-2.4h1.2v2.4h2.5V2488.7z M-1633.9,2495.7v-8h1.2v8H-1633.9z M-1633.9,2485.9v-1.4
			h1.2v1.4H-1633.9z M-1630.6,2491.7c-0.1-1.1,0.2-2.2,0.8-3.2c0.7-0.7,1.7-1.1,2.6-1c1-0.1,2,0.3,2.6,1c0.6,0.9,0.9,2.1,0.8,3.2
			c0.1,1.1-0.2,2.2-0.7,3.2c-0.7,0.7-1.7,1.1-2.7,1c-1,0.1-2-0.2-2.7-1C-1630.4,2493.9-1630.7,2492.8-1630.6,2491.7z
			 M-1629.3,2491.7c-0.1,0.8,0.1,1.7,0.4,2.4c0.4,0.5,1.1,0.8,1.8,0.7c0.7,0.1,1.3-0.2,1.8-0.7c0.3-0.8,0.5-1.6,0.4-2.5
			c0.1-0.8-0.1-1.7-0.5-2.4c-0.4-0.5-1.1-0.7-1.7-0.7c-0.7-0.1-1.3,0.2-1.7,0.7C-1629.3,2490-1629.4,2490.8-1629.3,2491.7z
			 M-1620.4,2495.7h-1.2v-8h1.2v0.6c0.8-0.4,1.6-0.7,2.5-0.7c0.8-0.1,1.6,0.2,2.2,0.9c0.4,1,0.6,2,0.6,3.1v4.2h-1.2v-4.2
			c0.1-0.8-0.1-1.6-0.3-2.3c-0.3-0.5-0.9-0.7-1.4-0.6c-0.4,0-0.7,0.1-1.1,0.2c-0.3,0.1-0.6,0.2-0.9,0.3l-0.3,0.1L-1620.4,2495.7z
			 M-1613.6,2487.7h1.2l1.6,7h0.3l1.9-6.8h1.2l1.9,6.8h0.3l1.6-7h1.2l-1.9,8h-2l-1.7-6.3l-1.7,6.3h-2L-1613.6,2487.7z
			 M-1600.6,2495.7v-8h1.2v8H-1600.6z M-1600.6,2485.9v-1.4h1.2v1.4H-1600.6z M-1590.8,2484.2v11.5h-1.2v-0.5
			c-0.7,0.4-1.6,0.7-2.4,0.7c-0.4,0-0.8,0-1.1-0.2c-0.3-0.1-0.6-0.3-0.9-0.6c-0.7-0.9-1-2.1-0.9-3.2c-0.1-1.2,0.2-2.3,0.8-3.4
			c0.6-0.7,1.6-1.1,2.6-1c0.7,0,1.3,0.1,2,0.2v-3.5H-1590.8z M-1595.5,2494.2c0.1,0.2,0.3,0.3,0.5,0.4c0.2,0.1,0.5,0.1,0.7,0.1
			c0.3,0,0.7-0.1,1-0.2c0.3-0.1,0.6-0.2,0.9-0.3l0.3-0.1v-5.4c-0.6-0.1-1.3-0.2-1.9-0.2c-0.7-0.1-1.3,0.2-1.7,0.8
			c-0.4,0.7-0.5,1.6-0.5,2.4C-1596.1,2492.6-1596,2493.5-1595.5,2494.2L-1595.5,2494.2z M-1582.9,2494.7l0.5,0l0,0.9
			c-1,0.2-2.1,0.2-3.1,0.3c-0.9,0.1-1.8-0.3-2.4-1c-0.6-0.9-0.8-2-0.7-3.1c0-2.8,1.1-4.2,3.3-4.2c0.9-0.1,1.8,0.3,2.4,0.9
			c0.6,0.8,0.9,1.8,0.8,2.8l-0.1,0.9h-5.3c-0.1,0.7,0.1,1.4,0.5,2c0.4,0.5,1,0.7,1.7,0.6
			C-1584.5,2494.8-1583.7,2494.8-1582.9,2494.7L-1582.9,2494.7z M-1583.3,2491.2c0.1-0.7-0.1-1.5-0.5-2.1c-0.4-0.4-1-0.7-1.5-0.6
			c-0.6,0-1.2,0.2-1.6,0.6c-0.4,0.6-0.6,1.3-0.6,2H-1583.3z M-1573.4,2487.5c0.6,0,1.2,0.1,1.8,0.2l0.4,0l0,1
			c-0.6-0.1-1.3-0.1-1.9-0.1c-0.7-0.1-1.4,0.2-1.8,0.6c-0.4,0.7-0.6,1.6-0.5,2.4c-0.1,0.8,0.1,1.7,0.5,2.4c0.5,0.5,1.2,0.8,1.9,0.7
			l1.9-0.1l0,1c-0.7,0.1-1.5,0.2-2.2,0.2c-1,0.1-1.9-0.2-2.6-1c-0.6-1-0.8-2.1-0.7-3.2c-0.1-1.1,0.2-2.2,0.8-3.2
			C-1575.3,2487.8-1574.3,2487.4-1573.4,2487.5L-1573.4,2487.5z M-1569.7,2491.7c-0.1-1.1,0.2-2.2,0.8-3.2c1.5-1.3,3.8-1.3,5.3,0
			c0.6,0.9,0.9,2.1,0.8,3.2c0.1,1.1-0.2,2.2-0.7,3.2c-1.5,1.3-3.8,1.3-5.4,0C-1569.5,2493.9-1569.8,2492.8-1569.7,2491.7
			L-1569.7,2491.7z M-1568.5,2491.7c-0.1,0.8,0.1,1.7,0.4,2.4c1,0.9,2.5,0.9,3.5,0c0.3-0.8,0.5-1.6,0.4-2.5c0.1-0.8-0.1-1.7-0.5-2.4
			c-0.4-0.5-1.1-0.7-1.7-0.7c-0.7-0.1-1.3,0.2-1.7,0.7C-1568.4,2490-1568.5,2490.8-1568.5,2491.7L-1568.5,2491.7z M-1561.6,2487.7
			h1.3l1.9,7h0.6l1.9-7h1.2l-2.3,8h-2.4L-1561.6,2487.7z M-1547.7,2494.7l0.5,0l0,0.9c-1,0.2-2.1,0.2-3.1,0.3
			c-0.9,0.1-1.8-0.3-2.4-1c-0.6-0.9-0.8-2-0.7-3.1c0-2.8,1.1-4.2,3.3-4.2c0.9-0.1,1.8,0.3,2.4,0.9c0.6,0.8,0.9,1.8,0.8,2.8l-0.1,0.9
			h-5.3c-0.1,0.7,0.1,1.4,0.5,2c0.4,0.5,1,0.7,1.7,0.6C-1549.4,2494.8-1548.6,2494.8-1547.7,2494.7L-1547.7,2494.7z M-1548.2,2491.2
			c0.1-0.7-0.1-1.5-0.5-2.1c-0.4-0.4-1-0.7-1.5-0.6c-0.6,0-1.2,0.2-1.6,0.6c-0.4,0.6-0.6,1.3-0.6,2H-1548.2z M-1544.9,2495.7v-8h1.2
			v1.1c0.9-0.6,1.9-1,2.9-1.3v1.2c-0.5,0.1-0.9,0.2-1.4,0.4c-0.4,0.1-0.8,0.3-1.1,0.5l-0.4,0.2v5.9H-1544.9z M-1533.6,2490.1v4.1
			c0,0.4,0.3,0.6,0.9,0.7l0,0.9c-0.7,0.1-1.4-0.2-1.9-0.6c-0.9,0.4-1.9,0.6-2.9,0.6c-0.6,0-1.2-0.2-1.7-0.6
			c-0.4-0.5-0.6-1.1-0.6-1.8c-0.1-0.6,0.2-1.3,0.6-1.7c0.5-0.4,1.2-0.7,1.9-0.7l2.5-0.2v-0.7c0-0.4-0.1-0.8-0.4-1.2
			c-0.3-0.2-0.6-0.4-1-0.4c-0.9,0-1.8,0.1-2.7,0.2l-0.5,0l0-0.9c1-0.2,2.1-0.3,3.1-0.4c1.2-0.2,2.4,0.6,2.6,1.8
			C-1533.6,2489.6-1533.6,2489.8-1533.6,2490.1L-1533.6,2490.1z M-1538.5,2493.4c0,1,0.4,1.5,1.2,1.5c0.7,0,1.5-0.1,2.1-0.4l0.4-0.1
			v-2.6l-2.4,0.2c-0.4,0-0.8,0.2-1,0.4C-1538.4,2492.6-1538.5,2493-1538.5,2493.4z M-1528,2499.4c-0.9,0.1-1.9-0.1-2.7-0.5
			c-0.6-0.5-0.8-1.2-0.8-1.9c0-0.4,0.1-0.7,0.3-1.1c0.3-0.4,0.6-0.7,1-0.9c-0.3-0.3-0.5-0.7-0.4-1.1c0.1-0.4,0.2-0.7,0.4-1l0.1-0.3
			c-0.9-0.5-1.4-1.4-1.3-2.4c0-1.8,1-2.7,3-2.7c0.5,0,1,0,1.4,0.2l0.2,0l2.4-0.1v1l-1.5,0c0.4,0.4,0.6,1,0.5,1.6
			c0.1,0.8-0.2,1.5-0.7,2.1c-0.7,0.5-1.5,0.7-2.3,0.6c-0.3,0-0.5,0-0.8-0.1c-0.1,0.3-0.2,0.6-0.3,0.9c0,0.3,0.1,0.5,0.3,0.6
			c0.6,0.1,1.2,0.2,1.8,0.1c0.8-0.1,1.5,0.1,2.2,0.5c0.5,0.5,0.8,1.2,0.7,1.9C-1524.4,2498.6-1525.6,2499.4-1528,2499.4z
			 M-1530.2,2496.9c-0.1,0.4,0.1,0.9,0.5,1.2c0.5,0.3,1.1,0.4,1.7,0.3c0.6,0,1.3-0.1,1.8-0.4c0.4-0.3,0.6-0.7,0.6-1.2
			c0-0.5-0.1-0.9-0.4-1.1c-0.5-0.2-1-0.3-1.6-0.2l-1.7-0.1c-0.3,0.2-0.5,0.4-0.7,0.7C-1530.2,2496.4-1530.2,2496.7-1530.2,2496.9z
			 M-1530.1,2490.3c0,0.5,0.1,1,0.4,1.3c0.4,0.3,0.9,0.4,1.4,0.4c0.5,0,1-0.1,1.4-0.4c0.3-0.4,0.5-0.9,0.4-1.4c0-0.5-0.1-1-0.4-1.4
			c-0.9-0.5-1.9-0.5-2.8,0C-1530,2489.3-1530.2,2489.8-1530.1,2490.3z M-1517.2,2494.7l0.5,0l0,0.9c-1,0.2-2.1,0.2-3.1,0.3
			c-0.9,0.1-1.8-0.3-2.4-1c-0.6-0.9-0.8-2-0.7-3.1c0-2.8,1.1-4.2,3.3-4.2c0.9-0.1,1.8,0.3,2.4,0.9c0.6,0.8,0.9,1.8,0.8,2.8l-0.1,0.9
			h-5.3c-0.1,0.7,0.1,1.4,0.5,2c0.4,0.5,1,0.7,1.7,0.6C-1518.9,2494.8-1518.1,2494.8-1517.2,2494.7L-1517.2,2494.7z M-1517.7,2491.2
			c0.1-0.7-0.1-1.5-0.5-2.1c-0.4-0.4-1-0.7-1.5-0.6c-0.6,0-1.2,0.2-1.6,0.6c-0.4,0.6-0.6,1.3-0.6,2H-1517.7z"/>
		<path class="st2" d="M-1644.9,2447.7h-11.1v-3l3.7-3.7c1-1,1.9-2,2.7-3.1c0.5-0.7,0.8-1.5,0.8-2.3c0.1-0.6-0.2-1.3-0.6-1.7
			c-0.5-0.4-1.2-0.5-1.8-0.5c-1.3,0-2.5,0.1-3.8,0.3l-0.6,0.1l-0.2-2.8c1.7-0.5,3.5-0.8,5.3-0.8c3.6,0,5.5,1.6,5.5,4.9
			c0,1.2-0.3,2.3-0.8,3.3c-0.8,1.3-1.9,2.4-3,3.4l-3,2.7h7.1V2447.7z M-1640.6,2432.3c1.2-1.5,3.1-2.3,5-2.1c1.9-0.1,3.8,0.7,5,2.1
			c1.1,1.4,1.7,3.7,1.7,6.9s-0.6,5.4-1.7,6.8c-1.3,1.4-3.1,2.2-5,2c-1.9,0.1-3.7-0.6-5-2c-1.1-1.4-1.7-3.6-1.7-6.8
			S-1641.8,2433.8-1640.6,2432.3z M-1632.7,2439.1c0.1-1.5-0.1-3.1-0.7-4.5c-0.4-0.8-1.3-1.4-2.3-1.3c-1-0.1-1.9,0.4-2.3,1.3
			c-0.6,1.4-0.8,3-0.7,4.5c-0.1,1.5,0.1,3.1,0.7,4.5c0.4,0.8,1.3,1.3,2.3,1.3c0.9,0.1,1.8-0.4,2.3-1.3
			C-1632.8,2442.2-1632.6,2440.7-1632.7,2439.1z M-1615.3,2447.7h-11.1v-3l3.7-3.7c1-1,1.9-2,2.7-3.1c0.5-0.7,0.8-1.5,0.8-2.3
			c0.1-0.6-0.2-1.3-0.6-1.7c-0.5-0.4-1.2-0.5-1.8-0.5c-1.3,0-2.5,0.1-3.8,0.3l-0.6,0.1l-0.2-2.8c1.7-0.5,3.5-0.8,5.3-0.8
			c3.6,0,5.5,1.6,5.5,4.9c0,1.2-0.3,2.3-0.8,3.3c-0.8,1.3-1.9,2.4-3,3.4l-3,2.7h7.1L-1615.3,2447.7z M-1605,2447.7v-2.8h-7.3v-2.7
			l4.2-11.6h4l-4.6,11.2h3.7v-4.8h3.6v4.8h1.6v3.1h-1.6v2.8H-1605z"/>
	</g>
	<line class="st3" x1="-2212.5" y1="2325.2" x2="-2426.1" y2="2325.2"/>
	<line class="st3" x1="-2212.5" y1="2463.2" x2="-2426.1" y2="2463.2"/>
	<line class="st3" x1="-2212.5" y1="2599.2" x2="-2426.1" y2="2599.2"/>
</g>
</svg>
