<?xml version="1.0" encoding="utf-8"?>
<!-- Generator: Adobe Illustrator 26.0.1, SVG Export Plug-In . SVG Version: 6.00 Build 0)  -->
<svg version="1.1" id="Layer_1" xmlns="http://www.w3.org/2000/svg" xmlns:xlink="http://www.w3.org/1999/xlink" x="0px" y="0px"
	 viewBox="0 0 219.9 530" style="enable-background:new 0 0 219.9 530;" xml:space="preserve">
<style type="text/css">
	.st0{fill:url(#SVGID_1_);}
	.st1{fill:#D60031;}
	.st2{fill:none;stroke:#1D1D1D;stroke-width:0.5;}
	.st3{fill:#1D1D1D;}
</style>
<g transform="translate(2126.898 -2223.067)">
	
		<linearGradient id="SVGID_1_" gradientUnits="userSpaceOnUse" x1="-2313.5757" y1="2939.6233" x2="-2312.6035" y2="2939.6233" gradientTransform="matrix(3.245314e-14 530 6 -3.673941e-16 -19761.6387 1228433)">
		<stop  offset="0" style="stop-color:#0F369B"/>
		<stop  offset="1" style="stop-color:#C42938"/>
	</linearGradient>
	<path class="st0" d="M-2120.9,2226.1v524c0,1.7-1.3,3-3,3l0,0c-1.7,0-3-1.3-3-3v-524c0-1.7,1.3-3,3-3l0,0
		C-2122.2,2223.1-2120.9,2224.4-2120.9,2226.1z"/>
	<path class="st1" d="M-2087.9,2255.4h-11.1v-3l3.7-3.7c1-1,1.9-2,2.7-3.1c0.5-0.7,0.8-1.5,0.8-2.3c0.1-0.6-0.2-1.3-0.6-1.7
		c-0.5-0.4-1.2-0.5-1.8-0.5c-1.3,0-2.5,0.1-3.8,0.3l-0.6,0.1l-0.2-2.8c1.7-0.5,3.5-0.8,5.3-0.8c3.6,0,5.5,1.6,5.5,4.9
		c0,1.2-0.3,2.3-0.8,3.3c-0.8,1.3-1.9,2.4-3,3.4l-3,2.7h7.1V2255.4z M-2083.6,2240c1.2-1.5,3.1-2.3,5-2.1c1.9-0.1,3.8,0.7,5,2.1
		c1.1,1.4,1.7,3.7,1.7,6.9s-0.6,5.4-1.7,6.8c-1.3,1.4-3.1,2.2-5,2c-1.9,0.1-3.7-0.6-5-2c-1.1-1.4-1.7-3.6-1.7-6.8
		S-2084.7,2241.4-2083.6,2240z M-2075.6,2246.8c0.1-1.5-0.1-3.1-0.7-4.5c-0.4-0.8-1.3-1.4-2.3-1.3c-1-0.1-1.9,0.4-2.3,1.3
		c-0.6,1.4-0.8,3-0.7,4.5c-0.1,1.5,0.1,3.1,0.7,4.5c0.4,0.8,1.3,1.3,2.3,1.3c0.9,0.1,1.8-0.4,2.3-1.3
		C-2075.8,2249.8-2075.5,2248.3-2075.6,2246.8z M-2058.2,2255.4h-11.1v-3l3.7-3.7c1-1,1.9-2,2.7-3.1c0.5-0.7,0.8-1.5,0.8-2.3
		c0.1-0.6-0.2-1.3-0.6-1.7c-0.5-0.4-1.2-0.5-1.8-0.5c-1.3,0-2.5,0.1-3.8,0.3l-0.6,0.1l-0.2-2.8c1.7-0.5,3.5-0.8,5.3-0.8
		c3.6,0,5.5,1.6,5.5,4.9c0,1.2-0.3,2.3-0.8,3.3c-0.8,1.3-1.9,2.4-3,3.4l-3,2.7h7.1L-2058.2,2255.4z M-2045.4,2238.2v17.2h-3.6v-13.1
		l-3.7,2.4l-1.6-2.7l5.7-3.8H-2045.4z"/>
	<path class="st1" d="M-2087.3,2411.4h-11.1v-3l3.7-3.7c1-1,1.9-2,2.7-3.1c0.5-0.7,0.8-1.5,0.8-2.3c0.1-0.6-0.2-1.3-0.6-1.7
		c-0.5-0.4-1.2-0.5-1.8-0.5c-1.3,0-2.5,0.1-3.8,0.3l-0.6,0.1l-0.2-2.8c1.7-0.5,3.5-0.8,5.3-0.8c3.6,0,5.5,1.6,5.5,4.9
		c0,1.2-0.3,2.3-0.8,3.3c-0.8,1.3-1.9,2.4-3,3.4l-3,2.7h7.1V2411.4z M-2083,2396c1.2-1.5,3.1-2.3,5-2.1c1.9-0.1,3.8,0.7,5,2.1
		c1.1,1.4,1.7,3.7,1.7,6.9s-0.6,5.4-1.7,6.8c-1.3,1.4-3.1,2.2-5,2c-1.9,0.1-3.7-0.6-5-2c-1.1-1.4-1.7-3.6-1.7-6.8
		S-2084.1,2397.4-2083,2396z M-2075,2402.8c0.1-1.5-0.1-3.1-0.7-4.5c-0.4-0.8-1.3-1.4-2.3-1.3c-1-0.1-1.9,0.4-2.3,1.3
		c-0.6,1.4-0.8,3-0.7,4.5c-0.1,1.5,0.1,3.1,0.7,4.5c0.4,0.8,1.3,1.3,2.3,1.3c0.9,0.1,1.8-0.4,2.3-1.3
		C-2075.2,2405.8-2074.9,2404.3-2075,2402.8z M-2057.6,2411.4h-11.1v-3l3.7-3.7c1-1,1.9-2,2.7-3.1c0.5-0.7,0.8-1.5,0.8-2.3
		c0.1-0.6-0.2-1.3-0.6-1.7c-0.5-0.4-1.2-0.5-1.8-0.5c-1.3,0-2.5,0.1-3.8,0.3l-0.6,0.1l-0.2-2.8c1.7-0.5,3.5-0.8,5.3-0.8
		c3.6,0,5.5,1.6,5.5,4.9c0,1.2-0.3,2.3-0.8,3.3c-0.8,1.3-1.9,2.4-3,3.4l-3,2.7h7.1L-2057.6,2411.4z M-2042.8,2411.4h-11.1v-3
		l3.7-3.7c1-1,1.9-2,2.7-3.1c0.5-0.7,0.8-1.5,0.8-2.3c0.1-0.6-0.2-1.3-0.6-1.7c-0.5-0.4-1.2-0.5-1.8-0.5c-1.3,0-2.5,0.1-3.8,0.3
		l-0.6,0.1l-0.2-2.8c1.7-0.5,3.5-0.8,5.3-0.8c3.6,0,5.5,1.6,5.5,4.9c0,1.2-0.3,2.3-0.8,3.3c-0.8,1.3-1.9,2.4-3,3.4l-3,2.7h7.1
		L-2042.8,2411.4z"/>
	<path class="st1" d="M-2087.1,2546.4h-11.1v-3l3.7-3.7c1-1,1.9-2,2.7-3.1c0.5-0.7,0.8-1.5,0.8-2.3c0.1-0.6-0.2-1.3-0.6-1.7
		c-0.5-0.4-1.2-0.5-1.8-0.5c-1.3,0-2.5,0.1-3.8,0.3l-0.6,0.1l-0.2-2.8c1.7-0.5,3.5-0.8,5.3-0.8c3.6,0,5.5,1.6,5.5,4.9
		c0,1.2-0.3,2.3-0.8,3.3c-0.8,1.3-1.9,2.4-3,3.4l-3,2.7h7.1V2546.4z M-2082.8,2531c1.2-1.5,3.1-2.3,5-2.1c1.9-0.1,3.8,0.7,5,2.1
		c1.1,1.4,1.7,3.7,1.7,6.9s-0.6,5.4-1.7,6.8c-1.3,1.4-3.1,2.2-5,2c-1.9,0.1-3.7-0.6-5-2c-1.1-1.4-1.7-3.6-1.7-6.8
		S-2083.9,2532.4-2082.8,2531z M-2074.8,2537.8c0.1-1.5-0.1-3.1-0.7-4.5c-0.4-0.8-1.3-1.4-2.3-1.3c-1-0.1-1.9,0.4-2.3,1.3
		c-0.6,1.4-0.8,3-0.7,4.5c-0.1,1.5,0.1,3.1,0.7,4.5c0.4,0.8,1.3,1.3,2.3,1.3c0.9,0.1,1.8-0.4,2.3-1.3
		C-2075,2540.8-2074.7,2539.3-2074.8,2537.8z M-2057.4,2546.4h-11.1v-3l3.7-3.7c1-1,1.9-2,2.7-3.1c0.5-0.7,0.8-1.5,0.8-2.3
		c0.1-0.6-0.2-1.3-0.6-1.7c-0.5-0.4-1.2-0.5-1.8-0.5c-1.3,0-2.5,0.1-3.8,0.3l-0.6,0.1l-0.2-2.8c1.7-0.5,3.5-0.8,5.3-0.8
		c3.6,0,5.5,1.6,5.5,4.9c0,1.2-0.3,2.3-0.8,3.3c-0.8,1.3-1.9,2.4-3,3.4l-3,2.7h7.1L-2057.4,2546.4z M-2053.8,2529.8
		c1.7-0.6,3.5-1,5.3-0.9c1.5-0.1,3,0.3,4.3,1.1c1,0.9,1.5,2.3,1.4,3.6c0.1,1.5-0.7,3-2,3.8c0.7,0.3,1.3,0.8,1.8,1.4
		c0.4,0.7,0.6,1.5,0.5,2.3c0.1,1.5-0.4,3-1.4,4.1c-1.3,1-2.9,1.5-4.5,1.4c-1.6,0-3.2-0.2-4.8-0.7l-0.8-0.2l0.2-2.7
		c1.6,0.3,3.2,0.5,4.9,0.5c1.8,0,2.7-0.8,2.7-2.3c0-0.6-0.2-1.2-0.7-1.5c-0.5-0.4-1.2-0.6-1.8-0.6h-3.5v-3h3.5
		c0.6,0,1.1-0.3,1.5-0.7c0.4-0.4,0.7-1,0.7-1.6c0-1.2-0.9-1.8-2.6-1.8c-1.3,0-2.6,0.1-3.8,0.4l-0.7,0.1L-2053.8,2529.8z"/>
	<path class="st1" d="M-2087.1,2681.4h-11.1v-3l3.7-3.7c1-1,1.9-2,2.7-3.1c0.5-0.7,0.8-1.5,0.8-2.3c0.1-0.6-0.2-1.3-0.6-1.7
		c-0.5-0.4-1.2-0.5-1.8-0.5c-1.3,0-2.5,0.1-3.8,0.3l-0.6,0.1l-0.2-2.8c1.7-0.5,3.5-0.8,5.3-0.8c3.6,0,5.5,1.6,5.5,4.9
		c0,1.2-0.3,2.3-0.8,3.3c-0.8,1.3-1.9,2.4-3,3.4l-3,2.7h7.1V2681.4z M-2082.8,2666c1.2-1.5,3.1-2.3,5-2.1c1.9-0.1,3.8,0.7,5,2.1
		c1.1,1.4,1.7,3.7,1.7,6.9s-0.6,5.4-1.7,6.8c-1.3,1.4-3.1,2.2-5,2c-1.9,0.1-3.7-0.6-5-2c-1.1-1.4-1.7-3.6-1.7-6.8
		S-2083.9,2667.4-2082.8,2666z M-2074.8,2672.8c0.1-1.5-0.1-3.1-0.7-4.5c-0.4-0.8-1.3-1.4-2.3-1.3c-1-0.1-1.9,0.4-2.3,1.3
		c-0.6,1.4-0.8,3-0.7,4.5c-0.1,1.5,0.1,3.1,0.7,4.5c0.4,0.8,1.3,1.3,2.3,1.3c0.9,0.1,1.8-0.4,2.3-1.3
		C-2075,2675.8-2074.7,2674.3-2074.8,2672.8z M-2057.4,2681.4h-11.1v-3l3.7-3.7c1-1,1.9-2,2.7-3.1c0.5-0.7,0.8-1.5,0.8-2.3
		c0.1-0.6-0.2-1.3-0.6-1.7c-0.5-0.4-1.2-0.5-1.8-0.5c-1.3,0-2.5,0.1-3.8,0.3l-0.6,0.1l-0.2-2.8c1.7-0.5,3.5-0.8,5.3-0.8
		c3.6,0,5.5,1.6,5.5,4.9c0,1.2-0.3,2.3-0.8,3.3c-0.8,1.3-1.9,2.4-3,3.4l-3,2.7h7.1L-2057.4,2681.4z M-2047.1,2681.4v-2.8h-7.3v-2.7
		l4.2-11.6h4l-4.6,11.2h3.7v-4.8h3.6v4.8h1.6v3.1h-1.6v2.8H-2047.1z"/>
	<line class="st2" x1="-1907" y1="2356.1" x2="-2120.6" y2="2356.1"/>
	<line class="st2" x1="-1907" y1="2494.1" x2="-2120.6" y2="2494.1"/>
	<line class="st2" x1="-1907" y1="2630.1" x2="-2120.6" y2="2630.1"/>
	<path class="st3" d="M-2093.9,2439.1v-1.7h-4.5v-1.7l2.6-7.1h2.4l-2.8,6.9h2.3v-3h2.2v3h1v1.9h-1v1.7H-2093.9z M-2088.5,2429.7
		c0.8-0.9,1.9-1.4,3.1-1.3c1.2-0.1,2.3,0.4,3.1,1.3c0.8,1.3,1.2,2.7,1,4.2c0.1,1.5-0.2,2.9-1,4.2c-0.8,0.9-1.9,1.3-3.1,1.3
		c-1.2,0.1-2.3-0.4-3.1-1.3c-0.8-1.2-1.2-2.7-1-4.2C-2089.6,2432.4-2089.3,2430.9-2088.5,2429.7z M-2083.6,2433.9
		c0.1-0.9-0.1-1.9-0.4-2.8c-0.3-0.5-0.8-0.8-1.4-0.8c-0.6,0-1.1,0.3-1.4,0.8c-0.3,0.9-0.5,1.8-0.4,2.8c-0.1,0.9,0.1,1.9,0.4,2.8
		c0.3,0.5,0.8,0.8,1.4,0.8c0.6,0,1.1-0.3,1.4-0.8C-2083.7,2435.7-2083.5,2434.8-2083.6,2433.9L-2083.6,2433.9z M-2078.8,2439.2
		l3.8-11.3l1.2,0.4l-3.8,11.3L-2078.8,2439.2z M-2080.5,2430.7c0-1.6,0.6-2.3,1.9-2.3s1.9,0.8,1.9,2.3c0,1.6-0.6,2.3-1.9,2.3
		C-2079.9,2433-2080.5,2432.2-2080.5,2430.7z M-2078.9,2429.9c-0.1,0.3-0.1,0.5-0.1,0.8c0,0.3,0,0.5,0.1,0.8c0,0.1,0.1,0.2,0.3,0.2
		c0.1,0,0.3-0.1,0.3-0.2c0.1-0.3,0.1-0.5,0.1-0.8c0-0.3,0-0.5-0.1-0.8c0-0.1-0.1-0.2-0.3-0.2
		C-2078.8,2429.6-2078.9,2429.7-2078.9,2429.9z M-2075.9,2437c0-1.6,0.6-2.3,1.9-2.3s1.9,0.8,1.9,2.3s-0.6,2.3-1.9,2.3
		S-2075.9,2438.5-2075.9,2437L-2075.9,2437z M-2074.2,2436.2c-0.1,0.3-0.1,0.5-0.1,0.8c0,0.3,0,0.5,0.1,0.8c0,0.1,0.1,0.2,0.3,0.2
		c0.1,0,0.3-0.1,0.3-0.2c0.1-0.3,0.1-0.5,0.1-0.8c0-0.3,0-0.5-0.1-0.8c0-0.1-0.1-0.2-0.3-0.2
		C-2074.1,2435.9-2074.2,2436-2074.2,2436.2L-2074.2,2436.2z M-2097.8,2460.1v-11.5h1.2v11.5H-2097.8z M-2094,2460.1v-8h1.2v8H-2094
		z M-2094,2450.3v-1.4h1.2v1.4H-2094z M-2090.3,2463.7v-11.6h1.2v0.6c0.7-0.5,1.5-0.7,2.4-0.7c0.9-0.1,1.7,0.3,2.2,1
		c0.5,1,0.8,2.1,0.7,3.2c0.1,1.1-0.2,2.2-0.8,3.2c-0.7,0.7-1.7,1.1-2.7,1c-0.6,0-1.2-0.1-1.8-0.2v3.6H-2090.3z M-2086.9,2453
		c-0.3,0-0.7,0.1-1,0.2c-0.3,0.1-0.6,0.2-0.9,0.3l-0.3,0.2v5.4c0.6,0.1,1.1,0.2,1.7,0.2c0.7,0.1,1.4-0.2,1.8-0.7
		c0.4-0.7,0.6-1.6,0.5-2.4c0.1-0.8-0.1-1.6-0.5-2.4C-2085.8,2453.3-2086.4,2453-2086.9,2453z M-2076.7,2452.1h1.2v8h-1.2v-0.6
		c-0.7,0.5-1.5,0.7-2.4,0.7c-0.8,0.1-1.6-0.2-2.2-0.8c-0.4-1-0.6-2.1-0.5-3.1v-4.2h1.2v4.2c-0.1,0.8,0,1.6,0.3,2.3
		c0.2,0.4,0.7,0.6,1.4,0.6c0.4,0,0.7-0.1,1.1-0.2c0.3-0.1,0.6-0.2,0.8-0.3l0.3-0.1L-2076.7,2452.1z M-2068.9,2453.2h-2.5v3.8
		c0,0.6,0,1.2,0.2,1.8c0.1,0.3,0.5,0.4,1,0.4l1.4-0.1l0.1,1c-0.5,0.1-1.1,0.2-1.6,0.2c-0.6,0.1-1.3-0.2-1.7-0.6
		c-0.4-0.7-0.6-1.5-0.5-2.3v-4.2h-1.1v-1h1.1v-2.4h1.2v2.4h2.5V2453.2z M-2061.7,2454.5v4.1c0,0.4,0.3,0.6,0.9,0.7l0,0.9
		c-0.7,0.1-1.4-0.2-1.9-0.6c-0.9,0.4-1.9,0.6-2.9,0.6c-0.6,0-1.2-0.2-1.7-0.6c-0.4-0.5-0.6-1.1-0.6-1.8c-0.1-0.6,0.2-1.3,0.6-1.7
		c0.5-0.4,1.2-0.7,1.9-0.7l2.5-0.2v-0.7c0-0.4-0.1-0.8-0.4-1.2c-0.3-0.2-0.6-0.4-1-0.4c-0.9,0-1.8,0.1-2.7,0.2l-0.5,0l0-0.9
		c1-0.2,2.1-0.3,3.1-0.4c0.7-0.1,1.4,0.2,2,0.6C-2061.8,2453.1-2061.6,2453.8-2061.7,2454.5z M-2066.6,2457.8c0,1,0.4,1.5,1.2,1.5
		c0.7,0,1.5-0.1,2.1-0.4l0.4-0.1v-2.6l-2.4,0.2c-0.4,0-0.8,0.2-1,0.4C-2066.5,2457.1-2066.6,2457.4-2066.6,2457.8z M-2057.9,2460.1
		h-1.2v-8h1.2v0.6c0.8-0.4,1.6-0.7,2.5-0.7c0.8-0.1,1.6,0.2,2.2,0.9c0.4,1,0.6,2,0.6,3.1v4.2h-1.2v-4.2c0.1-0.8-0.1-1.6-0.3-2.3
		c-0.3-0.5-0.9-0.7-1.4-0.6c-0.4,0-0.7,0.1-1.1,0.2c-0.3,0.1-0.6,0.2-0.9,0.3l-0.3,0.1L-2057.9,2460.1z M-2044.2,2453
		c-1.2,0-1.7,0.4-1.7,1.2c0,0.3,0.1,0.6,0.4,0.8c0.6,0.2,1.2,0.4,1.8,0.5c0.7,0.1,1.4,0.3,2,0.7c0.4,0.4,0.7,1.1,0.6,1.7
		c0.1,0.7-0.2,1.4-0.8,1.8c-0.7,0.4-1.5,0.6-2.3,0.6c-0.8,0-1.6-0.1-2.3-0.2l-0.5-0.1l0.1-1c0.9,0.2,1.8,0.2,2.8,0.3
		c0.5,0,1-0.1,1.4-0.3c0.3-0.2,0.5-0.6,0.5-1c0-0.4-0.1-0.7-0.4-0.9c-0.6-0.2-1.2-0.4-1.8-0.5c-0.7-0.1-1.4-0.3-2-0.7
		c-0.4-0.4-0.7-1-0.6-1.6c0-0.7,0.3-1.3,0.8-1.7c0.6-0.4,1.3-0.6,2.1-0.6c0.8,0,1.6,0.1,2.4,0.2l0.4,0.1l0,1
		C-2042.3,2453.1-2043.2,2453-2044.2,2453z M-2033.7,2459.1l0.5,0l0,0.9c-1,0.2-2.1,0.2-3.1,0.3c-0.9,0.1-1.8-0.3-2.4-1
		c-0.6-0.9-0.8-2-0.7-3.1c0-2.8,1.1-4.2,3.3-4.2c0.9-0.1,1.8,0.3,2.4,0.9c0.6,0.8,0.9,1.8,0.8,2.8l-0.1,0.9h-5.3
		c-0.1,0.7,0.1,1.4,0.5,2c0.4,0.5,1,0.7,1.7,0.6C-2035.3,2459.2-2034.5,2459.2-2033.7,2459.1L-2033.7,2459.1z M-2034.1,2455.7
		c0.1-0.7-0.1-1.5-0.5-2.1c-0.4-0.4-1-0.7-1.5-0.6c-0.6,0-1.2,0.2-1.6,0.6c-0.4,0.6-0.6,1.3-0.6,2H-2034.1z M-2030.8,2460.1v-11.5
		h1.2v11.5H-2030.8z M-2022,2452.1h1.2v8h-1.2v-0.6c-0.7,0.5-1.5,0.7-2.4,0.7c-0.8,0.1-1.6-0.2-2.2-0.8c-0.4-1-0.6-2.1-0.5-3.1v-4.2
		h1.2v4.2c-0.1,0.8,0,1.6,0.3,2.3c0.2,0.4,0.7,0.6,1.4,0.6c0.4,0,0.7-0.1,1.1-0.2c0.3-0.1,0.6-0.2,0.8-0.3l0.3-0.1L-2022,2452.1z
		 M-2018.3,2460.1v-8h1.2v1.1c0.9-0.6,1.9-1,2.9-1.3v1.2c-0.5,0.1-0.9,0.2-1.4,0.4c-0.4,0.1-0.8,0.3-1.1,0.5l-0.4,0.2v5.9H-2018.3z
		 M-2007.7,2452.1h1.2v8h-1.2v-0.6c-0.7,0.5-1.5,0.7-2.4,0.7c-0.8,0.1-1.6-0.2-2.2-0.8c-0.4-1-0.6-2.1-0.5-3.1v-4.2h1.2v4.2
		c-0.1,0.8,0,1.6,0.3,2.3c0.2,0.4,0.7,0.6,1.4,0.6c0.4,0,0.7-0.1,1.1-0.2c0.3-0.1,0.6-0.2,0.8-0.3l0.3-0.1L-2007.7,2452.1z
		 M-2002.8,2460.1h-1.2v-11.5h1.2v3.9c0.8-0.4,1.6-0.6,2.5-0.6c0.8-0.1,1.6,0.2,2.2,0.9c0.4,1,0.6,2,0.6,3.1v4.2h-1.2v-4.2
		c0.1-0.8-0.1-1.6-0.3-2.3c-0.3-0.5-0.8-0.7-1.4-0.6c-0.7,0-1.3,0.1-2,0.4l-0.3,0.1L-2002.8,2460.1z M-1990.4,2460.1h-1.2v-8h1.2
		v0.6c0.8-0.4,1.6-0.7,2.5-0.7c0.8-0.1,1.6,0.2,2.2,0.9c0.4,1,0.6,2,0.6,3.1v4.2h-1.2v-4.2c0.1-0.8-0.1-1.6-0.3-2.3
		c-0.3-0.5-0.9-0.7-1.4-0.6c-0.4,0-0.7,0.1-1.1,0.2c-0.3,0.1-0.6,0.2-0.9,0.3l-0.3,0.1L-1990.4,2460.1z M-1977.4,2459.1l0.5,0l0,0.9
		c-1,0.2-2.1,0.2-3.1,0.3c-0.9,0.1-1.8-0.3-2.4-1c-0.6-0.9-0.8-2-0.7-3.1c0-2.8,1.1-4.2,3.3-4.2c0.9-0.1,1.8,0.3,2.4,0.9
		c0.6,0.8,0.9,1.8,0.8,2.8l-0.1,0.9h-5.3c-0.1,0.7,0.1,1.4,0.5,2c0.4,0.5,1,0.7,1.7,0.6C-1979,2459.2-1978.2,2459.2-1977.4,2459.1
		L-1977.4,2459.1z M-1977.8,2455.6c0.1-0.7-0.1-1.5-0.5-2.1c-0.4-0.4-1-0.7-1.5-0.6c-0.6,0-1.2,0.2-1.6,0.6c-0.4,0.6-0.6,1.3-0.6,2
		H-1977.8z M-1971.5,2463.9c-0.9,0.1-1.9-0.1-2.7-0.5c-0.6-0.5-0.8-1.2-0.8-1.9c0-0.4,0.1-0.7,0.3-1.1c0.3-0.4,0.6-0.7,1-0.9
		c-0.3-0.3-0.5-0.7-0.4-1.1c0.1-0.4,0.2-0.7,0.4-1l0.1-0.3c-0.9-0.5-1.4-1.4-1.3-2.4c0-1.8,1-2.7,3-2.7c0.5,0,1,0,1.4,0.2l0.2,0
		l2.4-0.1v1l-1.5,0c0.4,0.4,0.6,1,0.5,1.6c0.1,0.8-0.2,1.5-0.7,2.1c-0.7,0.5-1.5,0.7-2.3,0.6c-0.3,0-0.5,0-0.8-0.1
		c-0.1,0.3-0.2,0.6-0.3,0.9c0,0.3,0.1,0.5,0.3,0.6c0.6,0.1,1.2,0.2,1.8,0.1c0.8-0.1,1.5,0.1,2.2,0.5c0.5,0.5,0.8,1.2,0.7,1.9
		C-1967.9,2463-1969.1,2463.9-1971.5,2463.9z M-1973.7,2461.4c-0.1,0.4,0.1,0.9,0.5,1.2c0.5,0.3,1.1,0.4,1.7,0.3
		c0.6,0,1.3-0.1,1.8-0.4c0.4-0.3,0.6-0.7,0.6-1.2c0-0.5-0.1-0.9-0.4-1.1c-0.5-0.2-1-0.3-1.6-0.2l-1.7-0.1c-0.3,0.2-0.5,0.4-0.7,0.7
		C-1973.7,2460.8-1973.7,2461.1-1973.7,2461.4z M-1973.6,2454.7c0,0.5,0.1,1,0.4,1.3c0.4,0.3,0.9,0.4,1.4,0.4c0.5,0,1-0.1,1.4-0.4
		c0.3-0.4,0.5-0.9,0.4-1.4c0-0.5-0.1-1-0.4-1.4c-0.9-0.5-1.9-0.5-2.8,0C-1973.5,2453.7-1973.7,2454.2-1973.6,2454.7z
		 M-1960.5,2454.5v4.1c0,0.4,0.3,0.6,0.9,0.7l0,0.9c-0.7,0.1-1.4-0.2-1.9-0.6c-0.9,0.4-1.9,0.6-2.9,0.6c-0.6,0-1.2-0.2-1.7-0.6
		c-0.4-0.5-0.6-1.1-0.6-1.8c-0.1-0.6,0.2-1.3,0.6-1.7c0.5-0.4,1.2-0.7,1.9-0.7l2.5-0.2v-0.7c0-0.4-0.1-0.8-0.4-1.2
		c-0.3-0.2-0.6-0.4-1-0.4c-0.9,0-1.8,0.1-2.7,0.2l-0.5,0l0-0.9c1-0.2,2.1-0.3,3.1-0.4c0.7-0.1,1.4,0.2,2,0.6
		C-1960.7,2453.1-1960.5,2453.8-1960.5,2454.5L-1960.5,2454.5z M-1965.5,2457.8c0,1,0.4,1.5,1.2,1.5c0.7,0,1.5-0.1,2.1-0.4l0.4-0.1
		v-2.6l-2.4,0.2c-0.4,0-0.8,0.2-1,0.4C-1965.4,2457.1-1965.5,2457.4-1965.5,2457.8z M-1958,2460.1v-8h1.2v1.1c0.9-0.6,1.9-1,2.9-1.3
		v1.2c-0.5,0.1-0.9,0.2-1.4,0.4c-0.4,0.1-0.8,0.3-1.1,0.5l-0.4,0.2v5.9H-1958z M-1946.7,2454.5v4.1c0,0.4,0.3,0.6,0.9,0.7l0,0.9
		c-0.7,0.1-1.4-0.2-1.9-0.6c-0.9,0.4-1.9,0.6-2.9,0.6c-0.6,0-1.2-0.2-1.7-0.6c-0.4-0.5-0.6-1.1-0.6-1.8c-0.1-0.6,0.2-1.3,0.6-1.7
		c0.5-0.4,1.2-0.7,1.9-0.7l2.5-0.2v-0.7c0-0.4-0.1-0.8-0.4-1.2c-0.3-0.2-0.6-0.4-1-0.4c-0.9,0-1.8,0.1-2.7,0.2l-0.5,0l0-0.9
		c1-0.2,2.1-0.3,3.1-0.4c0.7-0.1,1.4,0.2,2,0.6C-1946.8,2453.1-1946.6,2453.8-1946.7,2454.5z M-1951.6,2457.8c0,1,0.4,1.5,1.2,1.5
		c0.7,0,1.5-0.1,2.1-0.4l0.4-0.1v-2.6l-2.4,0.2c-0.4,0-0.8,0.2-1,0.4C-1951.5,2457.1-1951.6,2457.4-1951.6,2457.8z"/>
	<path class="st3" d="M-2091.6,2283.6h-6.2v-10.9h2.2v8.9h4V2283.6z M-2090.3,2283.6v-8h2.1v8H-2090.3z M-2090.3,2274.6v-2.2h2.1
		v2.2H-2090.3z M-2086,2287v-11.4h2.1v0.4c0.5-0.4,1.2-0.6,1.8-0.6c0.9-0.1,1.8,0.3,2.4,1c0.6,1,0.9,2.1,0.8,3.3
		c0.1,1.1-0.2,2.3-0.8,3.2c-0.8,0.7-1.8,1-2.8,0.9c-0.4,0-0.8,0-1.1-0.1l-0.2,0v3.3L-2086,2287z M-2082.5,2277.4
		c-0.4,0-0.8,0.1-1.2,0.2l-0.2,0.1v4.2c0.4,0.1,0.8,0.1,1.2,0.1c0.5,0.1,1-0.1,1.3-0.5c0.3-0.6,0.4-1.2,0.3-1.9
		C-2081.1,2278.1-2081.5,2277.4-2082.5,2277.4z M-2072.4,2275.6h2.1v8h-2.1v-0.4c-0.6,0.4-1.3,0.6-2,0.6c-0.9,0.1-1.7-0.2-2.2-0.9
		c-0.5-1-0.7-2-0.6-3.1v-4.2h2.1v4.2c0,0.5,0,1.1,0.2,1.6c0.1,0.3,0.4,0.4,0.9,0.4c0.5,0,0.9-0.1,1.3-0.2l0.2-0.1V2275.6z
		 M-2063.7,2277.5h-2v3.3c0,0.2,0,0.5,0,0.7c0,0.1,0.1,0.3,0.2,0.3c0.1,0.1,0.3,0.2,0.5,0.1l1.2,0l0.1,1.7c-0.5,0.1-1.1,0.2-1.6,0.2
		c-0.7,0.1-1.4-0.2-2-0.6c-0.4-0.7-0.6-1.6-0.5-2.4v-3.3h-0.9v-1.8h0.9v-2.2h2.1v2.2h2V2277.5z M-2056,2278.1v3.3
		c0,0.2,0,0.4,0.1,0.5c0.1,0.1,0.2,0.2,0.4,0.2l-0.1,1.6c-0.4,0-0.9,0-1.3-0.1c-0.4-0.1-0.7-0.2-1-0.4c-0.7,0.4-1.5,0.6-2.4,0.6
		c-1.7,0-2.5-0.9-2.5-2.6c-0.1-0.7,0.2-1.4,0.7-1.8c0.6-0.4,1.4-0.6,2.1-0.6l1.7-0.1v-0.5c0-0.2-0.1-0.5-0.2-0.7
		c-0.2-0.1-0.5-0.2-0.7-0.2l-3,0.1l-0.1-1.5c1.1-0.3,2.2-0.5,3.3-0.5c0.8-0.1,1.6,0.2,2.2,0.6
		C-2056.2,2276.6-2056,2277.4-2056,2278.1L-2056,2278.1z M-2059.6,2280.2c-0.5,0-0.9,0.4-0.9,0.8c0,0,0,0.1,0,0.1
		c0,0.6,0.3,0.9,0.8,0.9c0.4,0,0.9-0.1,1.3-0.2l0.2-0.1v-1.7L-2059.6,2280.2z M-2051.7,2283.6h-2.1v-8h2.1v0.4
		c0.6-0.4,1.3-0.6,2-0.6c0.9-0.1,1.7,0.3,2.2,0.9c0.5,0.9,0.7,1.9,0.6,2.9v4.3h-2.1v-4.3c0-0.5-0.1-1-0.2-1.5
		c-0.2-0.3-0.6-0.5-1-0.5c-0.4,0-0.9,0.1-1.3,0.2l-0.2,0.1V2283.6z M-2034.3,2273.1v1.9h-4.7l-0.3,2.3c0.6-0.2,1.2-0.4,1.9-0.4
		c2.3,0,3.4,1.1,3.4,3.2c0.1,1-0.3,2-0.9,2.8c-0.7,0.7-1.7,1-2.7,1c-0.6,0-1.1-0.1-1.7-0.1c-0.5-0.1-1-0.2-1.5-0.3l-0.6-0.1l0.2-1.6
		c1.1,0.2,2.1,0.3,3.2,0.3c0.4,0,0.9-0.1,1.2-0.4c0.3-0.3,0.4-0.8,0.4-1.2c0-0.4-0.1-0.8-0.4-1.1c-0.3-0.2-0.6-0.4-1-0.4
		c-0.6,0-1.3,0.1-1.9,0.2l-0.2,0.1l-1.3-0.3l0.3-5.7H-2034.3z M-2027.3,2279.7v-1.9h3.2v5.6c-1.2,0.2-2.5,0.3-3.7,0.4
		c-1.7,0-2.9-0.5-3.5-1.4c-0.7-1.3-1.1-2.8-1-4.3c-0.1-1.5,0.2-3,1-4.3c0.8-1,2.1-1.4,3.4-1.3c1.1,0,2.2,0.1,3.2,0.3l0.6,0.1
		l-0.1,1.7c-1-0.1-2.1-0.2-3.1-0.2c-0.6,0-1.2,0.1-1.7,0.3c-0.4,0.2-0.6,0.6-0.7,1.1c-0.2,0.9-0.3,1.8-0.2,2.7
		c-0.1,0.9,0.1,1.8,0.5,2.6c0.5,0.6,1.2,0.9,1.9,0.8l1.3-0.1v-2.1H-2027.3z M-2012.1,2272.2v11.5h-1.2v-0.5
		c-0.7,0.4-1.6,0.7-2.4,0.7c-0.4,0-0.8,0-1.1-0.2c-0.3-0.1-0.6-0.3-0.9-0.6c-0.7-0.9-1-2.1-0.9-3.2c-0.1-1.2,0.2-2.3,0.8-3.4
		c0.6-0.7,1.6-1.1,2.6-1c0.7,0,1.3,0.1,2,0.2v-3.5L-2012.1,2272.2z M-2016.8,2282.2c0.1,0.2,0.3,0.3,0.5,0.4
		c0.2,0.1,0.5,0.1,0.7,0.1c0.3,0,0.7-0.1,1-0.2c0.3-0.1,0.6-0.2,0.9-0.3l0.3-0.1v-5.4c-0.6-0.1-1.3-0.2-1.9-0.2
		c-0.7-0.1-1.3,0.2-1.7,0.8c-0.4,0.7-0.5,1.6-0.5,2.4C-2017.4,2280.6-2017.2,2281.5-2016.8,2282.2z M-2009.6,2283.6v-8h1.2v8
		H-2009.6z M-2009.6,2273.8v-1.4h1.2v1.4H-2009.6z M-1998,2279.9h-2.8v3.7h-1.2v-11.1h4c1-0.1,1.9,0.2,2.7,0.9
		c0.6,0.7,0.9,1.7,0.9,2.7C-1994.5,2278.7-1995.7,2279.9-1998,2279.9z M-2000.8,2278.8h2.8c1.5,0,2.3-0.9,2.3-2.7
		c0.1-0.7-0.1-1.3-0.5-1.9c-0.5-0.4-1.1-0.7-1.7-0.6h-2.8V2278.8z M-1987.6,2275.6h1.2v8h-1.2v-0.6c-0.7,0.5-1.5,0.7-2.4,0.7
		c-0.8,0.1-1.6-0.2-2.2-0.8c-0.4-1-0.6-2.1-0.5-3.1v-4.2h1.2v4.2c-0.1,0.8,0,1.6,0.3,2.3c0.2,0.4,0.7,0.6,1.4,0.6
		c0.4,0,0.7-0.1,1.1-0.2c0.3-0.1,0.6-0.2,0.8-0.3l0.3-0.1L-1987.6,2275.6z M-1979.8,2276.7h-2.5v3.8c0,0.6,0,1.2,0.2,1.8
		c0.1,0.3,0.5,0.4,1,0.4l1.4-0.1l0.1,1c-0.5,0.1-1.1,0.2-1.6,0.2c-0.6,0.1-1.3-0.2-1.7-0.6c-0.4-0.7-0.6-1.5-0.5-2.3v-4.2h-1.1v-1
		h1.1v-2.4h1.2v2.4h2.5V2276.7z M-1978.2,2283.6v-8h1.2v1.1c0.9-0.6,1.9-1,2.9-1.3v1.2c-0.5,0.1-0.9,0.2-1.4,0.4
		c-0.4,0.1-0.8,0.3-1.1,0.5l-0.4,0.2v5.9H-1978.2z M-1966.8,2278.1v4.1c0,0.4,0.3,0.6,0.9,0.7l0,0.9c-0.7,0.1-1.4-0.2-1.9-0.6
		c-0.9,0.4-1.9,0.6-2.9,0.6c-0.6,0-1.2-0.2-1.7-0.6c-0.4-0.5-0.6-1.1-0.6-1.8c-0.1-0.6,0.2-1.3,0.6-1.7c0.5-0.4,1.2-0.7,1.9-0.7
		l2.5-0.2v-0.7c0-0.4-0.1-0.8-0.4-1.2c-0.3-0.2-0.6-0.4-1-0.4c-0.9,0-1.8,0.1-2.7,0.2l-0.5,0l0-0.9c1-0.2,2.1-0.3,3.1-0.4
		c0.7-0.1,1.4,0.2,2,0.6C-1967,2276.6-1966.8,2277.3-1966.8,2278.1z M-1971.8,2281.3c0,1,0.4,1.5,1.2,1.5c0.7,0,1.5-0.1,2.1-0.4
		l0.4-0.1v-2.6l-2.4,0.2c-0.4,0-0.8,0.2-1,0.4C-1971.7,2280.6-1971.8,2280.9-1971.8,2281.3z M-1964.3,2283.4v-7.8h1.2v7.8
		c0.1,0.8-0.1,1.5-0.5,2.2c-0.6,0.7-1.3,1.2-2.1,1.6l-0.5-0.9c0.6-0.3,1.2-0.7,1.6-1.2C-1964.4,2284.6-1964.3,2284-1964.3,2283.4z
		 M-1964.3,2273.8v-1.4h1.2v1.4H-1964.3z M-1955,2278.1v4.1c0,0.4,0.3,0.6,0.9,0.7l0,0.9c-0.7,0.1-1.4-0.2-1.9-0.6
		c-0.9,0.4-1.9,0.6-2.9,0.6c-0.6,0-1.2-0.2-1.7-0.6c-0.4-0.5-0.6-1.1-0.6-1.8c-0.1-0.6,0.2-1.3,0.6-1.7c0.5-0.4,1.2-0.7,1.9-0.7
		l2.5-0.2v-0.7c0-0.4-0.1-0.8-0.4-1.2c-0.3-0.2-0.6-0.4-1-0.4c-0.9,0-1.8,0.1-2.7,0.2l-0.5,0l0-0.9c1-0.2,2.1-0.3,3.1-0.4
		c0.7-0.1,1.4,0.2,2,0.6C-1955.2,2276.6-1954.9,2277.3-1955,2278.1z M-1959.9,2281.3c0,1,0.4,1.5,1.2,1.5c0.7,0,1.5-0.1,2.1-0.4
		l0.4-0.1v-2.6l-2.4,0.2c-0.4,0-0.8,0.2-1,0.4C-1959.8,2280.6-1960,2280.9-1959.9,2281.3z M-1953.3,2275.6h1.2l2,7h0.5l2-7h1.2
		l-3.3,11.6h-1.2l1-3.6h-1.2L-1953.3,2275.6z M-1939.2,2278.1v4.1c0,0.4,0.3,0.6,0.9,0.7l0,0.9c-0.7,0.1-1.4-0.2-1.9-0.6
		c-0.9,0.4-1.9,0.6-2.9,0.6c-0.6,0-1.2-0.2-1.7-0.6c-0.4-0.5-0.6-1.1-0.6-1.8c-0.1-0.6,0.2-1.3,0.6-1.7c0.5-0.4,1.2-0.7,1.9-0.7
		l2.5-0.2v-0.7c0-0.4-0.1-0.8-0.4-1.2c-0.3-0.2-0.6-0.4-1-0.4c-0.9,0-1.8,0.1-2.7,0.2l-0.5,0l0-0.9c1-0.2,2.1-0.3,3.1-0.4
		c0.7-0.1,1.4,0.2,2,0.6C-1939.3,2276.6-1939.1,2277.3-1939.2,2278.1z M-1944.1,2281.3c0,1,0.4,1.5,1.2,1.5c0.7,0,1.5-0.1,2.1-0.4
		l0.4-0.1v-2.6l-2.4,0.2c-0.4,0-0.8,0.2-1,0.4C-1944,2280.6-1944.1,2280.9-1944.1,2281.3z M-1937.2,2285.6l0.7-3.7h1.3l-1.1,3.7
		H-1937.2z M-2091,2304.5c-1,0.2-2,0.3-3,0.3c-0.7,0-1.4-0.1-2.1-0.4c-0.5-0.2-1-0.6-1.2-1.1c-0.3-0.5-0.5-1.1-0.6-1.7
		c-0.1-0.8-0.2-1.6-0.2-2.5c0-0.8,0-1.7,0.2-2.5c0.1-0.6,0.3-1.2,0.6-1.8c0.3-0.5,0.7-0.9,1.2-1.1c0.7-0.3,1.4-0.4,2.1-0.4
		c1,0,2,0.1,3,0.4l0,1c-0.9-0.2-1.9-0.3-2.9-0.3c-0.9-0.1-1.8,0.3-2.3,1c-0.5,1.1-0.7,2.4-0.6,3.6c0,0.7,0,1.4,0.1,2
		c0.1,0.5,0.2,0.9,0.4,1.4c0.2,0.4,0.5,0.7,0.9,0.9c0.5,0.2,1.1,0.3,1.7,0.3c0.9,0,1.8-0.1,2.7-0.3L-2091,2304.5z M-2090,2296.6h1.2
		l2,7h0.5l2-7h1.2l-3.3,11.6h-1.2l1-3.6h-1.2L-2090,2296.6z M-2077.8,2296.5c0.9-0.1,1.7,0.3,2.3,0.9c0.5,1,0.7,2.1,0.6,3.2
		c0.1,1.1-0.2,2.3-0.8,3.2c-0.8,0.7-1.9,1.1-3,0.9c-0.4,0-1.2,0-2.2-0.1l-0.4,0v-11.5h1.2v3.9
		C-2079.4,2296.7-2078.6,2296.5-2077.8,2296.5z M-2078.7,2303.7c0.8,0.1,1.5-0.2,2.1-0.7c0.4-0.7,0.6-1.6,0.5-2.4
		c0.1-0.8-0.1-1.6-0.4-2.4c-0.3-0.5-0.9-0.7-1.4-0.7c-0.6,0-1.3,0.1-1.9,0.4l-0.3,0.1v5.6C-2079.5,2303.7-2079,2303.7-2078.7,2303.7
		z M-2067.3,2303.6l0.5,0l0,0.9c-1,0.2-2.1,0.2-3.1,0.3c-0.9,0.1-1.8-0.3-2.4-1c-0.6-0.9-0.8-2-0.7-3.1c0-2.8,1.1-4.2,3.3-4.2
		c0.9-0.1,1.8,0.3,2.4,0.9c0.6,0.8,0.9,1.8,0.8,2.8l-0.1,0.9h-5.3c-0.1,0.7,0.1,1.4,0.5,2c0.4,0.5,1,0.7,1.7,0.6
		C-2069,2303.7-2068.1,2303.7-2067.3,2303.6z M-2067.8,2300.2c0.1-0.7-0.1-1.5-0.5-2.1c-0.4-0.4-1-0.7-1.5-0.6
		c-0.6,0-1.2,0.2-1.6,0.6c-0.4,0.6-0.6,1.3-0.6,2H-2067.8z M-2064.5,2304.6v-8h1.2v1.1c0.9-0.6,1.9-1,2.9-1.3v1.2
		c-0.5,0.1-0.9,0.2-1.4,0.4c-0.4,0.1-0.8,0.3-1.1,0.5l-0.4,0.2v5.9H-2064.5z M-2058.8,2304.4v-7.8h1.2v7.8c0.1,0.8-0.1,1.5-0.5,2.2
		c-0.6,0.7-1.3,1.2-2.1,1.6l-0.5-0.9c0.6-0.3,1.2-0.7,1.6-1.2C-2058.9,2305.6-2058.8,2305-2058.8,2304.4z M-2058.8,2294.8v-1.4h1.2
		v1.4H-2058.8z M-2049.5,2299.1v4.1c0,0.4,0.3,0.6,0.9,0.7l0,0.9c-0.7,0.1-1.4-0.2-1.9-0.6c-0.9,0.4-1.9,0.6-2.9,0.6
		c-0.6,0-1.2-0.2-1.7-0.6c-0.4-0.5-0.6-1.1-0.6-1.8c-0.1-0.6,0.2-1.3,0.6-1.7c0.5-0.4,1.2-0.7,1.9-0.7l2.5-0.2v-0.7
		c0-0.4-0.1-0.8-0.4-1.2c-0.3-0.2-0.6-0.4-1-0.4c-0.9,0-1.8,0.1-2.7,0.2l-0.5,0l0-0.9c1-0.2,2.1-0.3,3.1-0.4c0.7-0.1,1.4,0.2,2,0.6
		C-2049.7,2297.6-2049.5,2298.3-2049.5,2299.1L-2049.5,2299.1z M-2054.4,2302.3c0,1,0.4,1.5,1.2,1.5c0.7,0,1.5-0.1,2.1-0.4l0.4-0.1
		v-2.6l-2.4,0.2c-0.4,0-0.8,0.2-1,0.4C-2054.4,2301.6-2054.5,2301.9-2054.4,2302.3z M-2047.8,2296.6h1.2l2,7h0.5l2-7h1.2l-3.3,11.6
		h-1.2l1-3.6h-1.2L-2047.8,2296.6z M-2033.7,2299.1v4.1c0,0.4,0.3,0.6,0.9,0.7l0,0.9c-0.7,0.1-1.4-0.2-1.9-0.6
		c-0.9,0.4-1.9,0.6-2.9,0.6c-0.6,0-1.2-0.2-1.7-0.6c-0.4-0.5-0.6-1.1-0.6-1.8c-0.1-0.6,0.2-1.3,0.6-1.7c0.5-0.4,1.2-0.7,1.9-0.7
		l2.5-0.2v-0.7c0-0.4-0.1-0.8-0.4-1.2c-0.3-0.2-0.6-0.4-1-0.4c-0.9,0-1.8,0.1-2.7,0.2l-0.5,0l0-0.9c1-0.2,2.1-0.3,3.1-0.4
		c0.7-0.1,1.4,0.2,2,0.6C-2033.8,2297.6-2033.6,2298.3-2033.7,2299.1z M-2038.6,2302.3c0,1,0.4,1.5,1.2,1.5c0.7,0,1.5-0.1,2.1-0.4
		l0.4-0.1v-2.6l-2.4,0.2c-0.4,0-0.8,0.2-1,0.4C-2038.5,2301.6-2038.6,2301.9-2038.6,2302.3z M-2031.8,2306.6l0.7-3.7h1.3l-1.1,3.7
		H-2031.8z M-2017.6,2293.1v11.5h-1.2v-0.5c-0.7,0.4-1.6,0.7-2.4,0.7c-0.4,0-0.8,0-1.1-0.2c-0.3-0.1-0.6-0.3-0.9-0.6
		c-0.7-0.9-1-2.1-0.9-3.2c-0.1-1.2,0.2-2.3,0.8-3.4c0.6-0.7,1.6-1.1,2.6-1c0.7,0,1.3,0.1,2,0.2v-3.5H-2017.6z M-2022.3,2303.2
		c0.1,0.2,0.3,0.3,0.5,0.4c0.2,0.1,0.5,0.1,0.7,0.1c0.3,0,0.7-0.1,1-0.2c0.3-0.1,0.6-0.2,0.9-0.3l0.3-0.1v-5.4
		c-0.6-0.1-1.3-0.2-1.9-0.2c-0.7-0.1-1.3,0.2-1.7,0.8c-0.4,0.7-0.5,1.6-0.5,2.4C-2023,2301.6-2022.8,2302.5-2022.3,2303.2z
		 M-2009.5,2299.1v4.1c0,0.4,0.3,0.6,0.9,0.7l0,0.9c-0.7,0.1-1.4-0.2-1.9-0.6c-0.9,0.4-1.9,0.6-2.9,0.6c-0.6,0-1.2-0.2-1.7-0.6
		c-0.4-0.5-0.6-1.1-0.6-1.8c-0.1-0.6,0.2-1.3,0.6-1.7c0.5-0.4,1.2-0.7,1.9-0.7l2.5-0.2v-0.7c0-0.4-0.1-0.8-0.4-1.2
		c-0.3-0.2-0.6-0.4-1-0.4c-0.9,0-1.8,0.1-2.7,0.2l-0.5,0l0-0.9c1-0.2,2.1-0.3,3.1-0.4c0.7-0.1,1.4,0.2,2,0.6
		C-2009.6,2297.6-2009.4,2298.3-2009.5,2299.1L-2009.5,2299.1z M-2014.4,2302.3c0,1,0.4,1.5,1.2,1.5c0.7,0,1.5-0.1,2.1-0.4l0.4-0.1
		v-2.6l-2.4,0.2c-0.4,0-0.8,0.2-1,0.4C-2014.3,2301.6-2014.4,2301.9-2014.4,2302.3z M-2005.7,2304.6h-1.2v-8h1.2v0.6
		c0.8-0.4,1.6-0.7,2.5-0.7c0.8-0.1,1.6,0.2,2.2,0.9c0.4,1,0.6,2,0.6,3.1v4.2h-1.2v-4.2c0.1-0.8-0.1-1.6-0.3-2.3
		c-0.3-0.5-0.9-0.7-1.4-0.6c-0.4,0-0.7,0.1-1.1,0.2c-0.3,0.1-0.6,0.2-0.9,0.3l-0.3,0.1L-2005.7,2304.6z M-1993.1,2304.6h-1.2v-11.1
		h1.2v5.2l1.8-0.1l2.8-5.1h1.4l-3.2,5.6l3.3,5.5h-1.5l-2.9-4.9l-1.8,0.1V2304.6z M-1980.5,2296.6h1.2v8h-1.2v-0.6
		c-0.7,0.5-1.5,0.7-2.4,0.7c-0.8,0.1-1.6-0.2-2.2-0.8c-0.4-1-0.6-2.1-0.5-3.1v-4.2h1.2v4.2c-0.1,0.8,0,1.6,0.3,2.3
		c0.2,0.4,0.7,0.6,1.4,0.6c0.4,0,0.7-0.1,1.1-0.2c0.3-0.1,0.6-0.2,0.8-0.3l0.3-0.1L-1980.5,2296.6z M-1971.1,2299.1v4.1
		c0,0.4,0.3,0.6,0.9,0.7l0,0.9c-0.7,0.1-1.4-0.2-1.9-0.6c-0.9,0.4-1.9,0.6-2.9,0.6c-0.6,0-1.2-0.2-1.7-0.6c-0.4-0.5-0.6-1.1-0.6-1.8
		c-0.1-0.6,0.2-1.3,0.6-1.7c0.5-0.4,1.2-0.7,1.9-0.7l2.5-0.2v-0.7c0-0.4-0.1-0.8-0.4-1.2c-0.3-0.2-0.6-0.4-1-0.4
		c-0.9,0-1.8,0.1-2.7,0.2l-0.5,0l0-0.9c1-0.2,2.1-0.3,3.1-0.4c0.7-0.1,1.4,0.2,2,0.6C-1971.3,2297.6-1971.1,2298.3-1971.1,2299.1z
		 M-1976.1,2302.3c0,1,0.4,1.5,1.2,1.5c0.7,0,1.5-0.1,2.1-0.4l0.4-0.1v-2.6l-2.4,0.2c-0.4,0-0.8,0.2-1,0.4
		C-1976,2301.6-1976.1,2301.9-1976.1,2302.3z M-1968.5,2304.6v-11.5h1.2v11.5H-1968.5z M-1959.1,2299.1v4.1c0,0.4,0.3,0.6,0.9,0.7
		l0,0.9c-0.7,0.1-1.4-0.2-1.9-0.6c-0.9,0.4-1.9,0.6-2.9,0.6c-0.6,0-1.2-0.2-1.7-0.6c-0.4-0.5-0.6-1.1-0.6-1.8
		c-0.1-0.6,0.2-1.3,0.6-1.7c0.5-0.4,1.2-0.7,1.9-0.7l2.5-0.2v-0.7c0-0.4-0.1-0.8-0.4-1.2c-0.3-0.2-0.6-0.4-1-0.4
		c-0.9,0-1.8,0.1-2.7,0.2l-0.5,0l0-0.9c1-0.2,2.1-0.3,3.1-0.4c0.7-0.1,1.4,0.2,2,0.6C-1959.3,2297.6-1959.1,2298.3-1959.1,2299.1z
		 M-1964,2302.3c0,1,0.4,1.5,1.2,1.5c0.7,0,1.5-0.1,2.1-0.4l0.4-0.1v-2.6l-2.4,0.2c-0.4,0-0.8,0.2-1,0.4
		C-1964,2301.6-1964.1,2301.9-1964,2302.3z M-2091.5,2325.6h-6.1v-11.1h1.2v10h4.9V2325.6z M-2085.1,2317.6h1.2v8h-1.2v-0.6
		c-0.7,0.5-1.5,0.7-2.4,0.7c-0.8,0.1-1.6-0.2-2.2-0.8c-0.4-1-0.6-2.1-0.5-3.1v-4.2h1.2v4.2c-0.1,0.8,0,1.6,0.3,2.3
		c0.2,0.4,0.7,0.6,1.4,0.6c0.4,0,0.7-0.1,1.1-0.2c0.3-0.1,0.6-0.2,0.8-0.3l0.3-0.1L-2085.1,2317.6z M-2080.2,2325.6h-1.2v-8h1.2v0.6
		c0.7-0.4,1.5-0.7,2.3-0.7c0.8-0.1,1.6,0.2,2.1,0.8c0.4-0.2,0.9-0.4,1.4-0.6c0.5-0.2,1-0.2,1.5-0.2c0.8-0.1,1.6,0.2,2.2,0.9
		c0.4,1,0.6,2,0.6,3.1v4.2h-1.2v-4.2c0.1-0.8-0.1-1.6-0.3-2.3c-0.3-0.5-0.8-0.7-1.4-0.6c-0.4,0-0.7,0.1-1.1,0.2
		c-0.3,0.1-0.6,0.2-0.9,0.3l-0.3,0.1c0.2,0.8,0.3,1.6,0.2,2.3v4.2h-1.2v-4.1c0.1-0.8-0.1-1.6-0.3-2.3c-0.3-0.5-0.8-0.7-1.4-0.6
		c-0.4,0-0.7,0.1-1,0.2c-0.3,0.1-0.6,0.2-0.8,0.3l-0.3,0.1V2325.6z M-2067.9,2329.2v-11.6h1.2v0.6c0.7-0.5,1.5-0.7,2.4-0.7
		c0.9-0.1,1.7,0.3,2.2,1c0.5,1,0.8,2.1,0.7,3.2c0.1,1.1-0.2,2.2-0.8,3.2c-0.7,0.7-1.7,1.1-2.7,1c-0.6,0-1.2-0.1-1.8-0.2v3.6H-2067.9
		z M-2064.5,2318.6c-0.3,0-0.7,0.1-1,0.2c-0.3,0.1-0.6,0.2-0.9,0.3l-0.3,0.2v5.4c0.6,0.1,1.1,0.2,1.7,0.2c0.7,0.1,1.4-0.2,1.8-0.7
		c0.4-0.7,0.6-1.6,0.5-2.4c0.1-0.8-0.1-1.6-0.5-2.4C-2063.4,2318.8-2063.9,2318.5-2064.5,2318.6z M-2054.3,2317.6h1.2v8h-1.2v-0.6
		c-0.7,0.5-1.5,0.7-2.4,0.7c-0.8,0.1-1.6-0.2-2.2-0.8c-0.4-1-0.6-2.1-0.5-3.1v-4.2h1.2v4.2c-0.1,0.8,0,1.6,0.3,2.3
		c0.2,0.4,0.7,0.6,1.4,0.6c0.4,0,0.7-0.1,1.1-0.2c0.3-0.1,0.6-0.2,0.8-0.3l0.3-0.1L-2054.3,2317.6z M-2050.7,2325.6v-8h1.2v1.1
		c0.9-0.6,1.9-1,2.9-1.3v1.2c-0.5,0.1-0.9,0.2-1.4,0.4c-0.4,0.1-0.8,0.3-1.1,0.5l-0.4,0.2v5.9H-2050.7z"/>
	<path class="st3" d="M-2098.7,2564.8v-2h6.8v2.5l-3.8,8.3l-2.1-0.6l3.6-7.7v-0.5L-2098.7,2564.8z M-2089.3,2563.9
		c0.8-0.9,1.9-1.4,3.1-1.3c1.2-0.1,2.3,0.4,3.1,1.3c0.8,1.3,1.2,2.7,1,4.2c0.1,1.5-0.2,2.9-1,4.2c-0.8,0.9-1.9,1.3-3.1,1.3
		c-1.2,0.1-2.3-0.4-3.1-1.3c-0.8-1.2-1.2-2.7-1-4.2C-2090.5,2566.6-2090.1,2565.2-2089.3,2563.9L-2089.3,2563.9z M-2084.4,2568.1
		c0.1-0.9-0.1-1.9-0.4-2.8c-0.3-0.5-0.8-0.8-1.4-0.8c-0.6,0-1.1,0.3-1.4,0.8c-0.3,0.9-0.5,1.8-0.4,2.8c-0.1,0.9,0.1,1.9,0.4,2.8
		c0.3,0.5,0.8,0.8,1.4,0.8c0.6,0,1.1-0.3,1.4-0.8C-2084.5,2570-2084.4,2569-2084.4,2568.1z M-2079.6,2573.5l3.8-11.3l1.2,0.4
		l-3.8,11.3L-2079.6,2573.5z M-2081.4,2564.9c0-1.6,0.6-2.3,1.9-2.3c1.3,0,1.9,0.8,1.9,2.3c0,1.6-0.6,2.3-1.9,2.3
		S-2081.4,2566.5-2081.4,2564.9z M-2079.7,2564.1c-0.1,0.3-0.1,0.5-0.1,0.8c0,0.3,0,0.5,0.1,0.8c0,0.1,0.1,0.2,0.3,0.2
		c0.1,0,0.3-0.1,0.3-0.2c0.1-0.3,0.1-0.5,0.1-0.8c0-0.3,0-0.5-0.1-0.8c0-0.1-0.1-0.2-0.3-0.2
		C-2079.6,2563.9-2079.7,2564-2079.7,2564.1z M-2076.7,2571.2c0-1.6,0.6-2.3,1.9-2.3c1.3,0,1.9,0.8,1.9,2.3s-0.6,2.3-1.9,2.3
		C-2076.1,2573.5-2076.7,2572.8-2076.7,2571.2L-2076.7,2571.2z M-2075.1,2570.4c-0.1,0.3-0.1,0.5-0.1,0.8c0,0.3,0,0.5,0.1,0.8
		c0,0.1,0.1,0.2,0.3,0.2c0.1,0,0.3-0.1,0.3-0.2c0.1-0.3,0.1-0.5,0.1-0.8c0-0.3,0-0.5-0.1-0.8c0-0.1-0.1-0.2-0.3-0.2
		C-2074.9,2570.2-2075.1,2570.3-2075.1,2570.4L-2075.1,2570.4z M-2097.8,2595.1v-11.5h1.2v11.5H-2097.8z M-2094,2595.1v-8h1.2v8
		H-2094z M-2094,2585.3v-1.4h1.2v1.4H-2094z M-2090.3,2598.7v-11.6h1.2v0.6c0.7-0.5,1.5-0.7,2.4-0.7c0.9-0.1,1.7,0.3,2.2,1
		c0.5,1,0.8,2.1,0.7,3.2c0.1,1.1-0.2,2.2-0.8,3.2c-0.7,0.7-1.7,1.1-2.7,1c-0.6,0-1.2-0.1-1.8-0.2v3.6H-2090.3z M-2086.9,2588
		c-0.3,0-0.7,0.1-1,0.2c-0.3,0.1-0.6,0.2-0.9,0.3l-0.3,0.2v5.4c0.6,0.1,1.1,0.2,1.7,0.2c0.7,0.1,1.4-0.2,1.8-0.7
		c0.4-0.7,0.6-1.6,0.5-2.4c0.1-0.8-0.1-1.6-0.5-2.4C-2085.8,2588.3-2086.4,2588-2086.9,2588z M-2076.7,2587.1h1.2v8h-1.2v-0.6
		c-0.7,0.5-1.5,0.7-2.4,0.7c-0.8,0.1-1.6-0.2-2.2-0.8c-0.4-1-0.6-2.1-0.5-3.1v-4.2h1.2v4.2c-0.1,0.8,0,1.6,0.3,2.3
		c0.2,0.4,0.7,0.6,1.4,0.6c0.4,0,0.7-0.1,1.1-0.2c0.3-0.1,0.6-0.2,0.8-0.3l0.3-0.1L-2076.7,2587.1z M-2068.9,2588.2h-2.5v3.8
		c0,0.6,0,1.2,0.2,1.8c0.1,0.3,0.5,0.4,1,0.4l1.4-0.1l0.1,1c-0.5,0.1-1.1,0.2-1.6,0.2c-0.6,0.1-1.3-0.2-1.7-0.6
		c-0.4-0.7-0.6-1.5-0.5-2.3v-4.2h-1.1v-1h1.1v-2.4h1.2v2.4h2.5V2588.2z M-2061.7,2589.6v4.1c0,0.4,0.3,0.6,0.9,0.7l0,0.9
		c-0.7,0.1-1.4-0.2-1.9-0.6c-0.9,0.4-1.9,0.6-2.9,0.6c-0.6,0-1.2-0.2-1.7-0.6c-0.4-0.5-0.6-1.1-0.6-1.8c-0.1-0.6,0.2-1.3,0.6-1.7
		c0.5-0.4,1.2-0.7,1.9-0.7l2.5-0.2v-0.7c0-0.4-0.1-0.8-0.4-1.2c-0.3-0.2-0.6-0.4-1-0.4c-0.9,0-1.8,0.1-2.7,0.2l-0.5,0l0-0.9
		c1-0.2,2.1-0.3,3.1-0.4c0.7-0.1,1.4,0.2,2,0.6C-2061.8,2588.1-2061.6,2588.8-2061.7,2589.6z M-2066.6,2592.8c0,1,0.4,1.5,1.2,1.5
		c0.7,0,1.5-0.1,2.1-0.4l0.4-0.1v-2.6l-2.4,0.2c-0.4,0-0.8,0.2-1,0.4C-2066.5,2592.1-2066.6,2592.4-2066.6,2592.8z M-2057.9,2595.1
		h-1.2v-8h1.2v0.6c0.8-0.4,1.6-0.7,2.5-0.7c0.8-0.1,1.6,0.2,2.2,0.9c0.4,1,0.6,2,0.6,3.1v4.2h-1.2v-4.2c0.1-0.8-0.1-1.6-0.3-2.3
		c-0.3-0.5-0.9-0.7-1.4-0.6c-0.4,0-0.7,0.1-1.1,0.2c-0.3,0.1-0.6,0.2-0.9,0.3l-0.3,0.1L-2057.9,2595.1z M-2044.2,2588
		c-1.2,0-1.7,0.4-1.7,1.2c0,0.3,0.1,0.6,0.4,0.8c0.6,0.2,1.2,0.4,1.8,0.5c0.7,0.1,1.4,0.3,2,0.7c0.4,0.4,0.7,1.1,0.6,1.7
		c0.1,0.7-0.2,1.4-0.8,1.8c-0.7,0.4-1.5,0.6-2.3,0.6c-0.8,0-1.6-0.1-2.3-0.2l-0.5-0.1l0.1-1c0.9,0.2,1.8,0.2,2.8,0.3
		c0.5,0,1-0.1,1.4-0.3c0.3-0.2,0.5-0.6,0.5-1c0-0.4-0.1-0.7-0.4-0.9c-0.6-0.2-1.2-0.4-1.8-0.5c-0.7-0.1-1.4-0.3-2-0.7
		c-0.4-0.4-0.7-1-0.6-1.6c0-0.7,0.3-1.3,0.8-1.7c0.6-0.4,1.3-0.6,2.1-0.6c0.8,0,1.6,0.1,2.4,0.2l0.4,0.1l0,1
		C-2042.3,2588.2-2043.2,2588.1-2044.2,2588z M-2033.7,2594.1l0.5,0l0,0.9c-1,0.2-2.1,0.2-3.1,0.3c-0.9,0.1-1.8-0.3-2.4-1
		c-0.6-0.9-0.8-2-0.7-3.1c0-2.8,1.1-4.2,3.3-4.2c0.9-0.1,1.8,0.3,2.4,0.9c0.6,0.8,0.9,1.8,0.8,2.8l-0.1,0.9h-5.3
		c-0.1,0.7,0.1,1.4,0.5,2c0.4,0.5,1,0.7,1.7,0.6C-2035.3,2594.2-2034.5,2594.2-2033.7,2594.1L-2033.7,2594.1z M-2034.1,2590.7
		c0.1-0.7-0.1-1.5-0.5-2.1c-0.4-0.4-1-0.7-1.5-0.6c-0.6,0-1.2,0.2-1.6,0.6c-0.4,0.6-0.6,1.3-0.6,2H-2034.1z M-2030.8,2595.1v-11.5
		h1.2v11.5H-2030.8z M-2022,2587.1h1.2v8h-1.2v-0.6c-0.7,0.5-1.5,0.7-2.4,0.7c-0.8,0.1-1.6-0.2-2.2-0.8c-0.4-1-0.6-2.1-0.5-3.1v-4.2
		h1.2v4.2c-0.1,0.8,0,1.6,0.3,2.3c0.2,0.4,0.7,0.6,1.4,0.6c0.4,0,0.7-0.1,1.1-0.2c0.3-0.1,0.6-0.2,0.8-0.3l0.3-0.1L-2022,2587.1z
		 M-2018.3,2595.1v-8h1.2v1.1c0.9-0.6,1.9-1,2.9-1.3v1.2c-0.5,0.1-0.9,0.2-1.4,0.4c-0.4,0.1-0.8,0.3-1.1,0.5l-0.4,0.2v5.9H-2018.3z
		 M-2007.7,2587.1h1.2v8h-1.2v-0.6c-0.7,0.5-1.5,0.7-2.4,0.7c-0.8,0.1-1.6-0.2-2.2-0.8c-0.4-1-0.6-2.1-0.5-3.1v-4.2h1.2v4.2
		c-0.1,0.8,0,1.6,0.3,2.3c0.2,0.4,0.7,0.6,1.4,0.6c0.4,0,0.7-0.1,1.1-0.2c0.3-0.1,0.6-0.2,0.8-0.3l0.3-0.1L-2007.7,2587.1z
		 M-2002.8,2595.1h-1.2v-11.5h1.2v3.9c0.8-0.4,1.6-0.6,2.5-0.6c0.8-0.1,1.6,0.2,2.2,0.9c0.4,1,0.6,2,0.6,3.1v4.2h-1.2v-4.2
		c0.1-0.8-0.1-1.6-0.3-2.3c-0.3-0.5-0.8-0.7-1.4-0.6c-0.7,0-1.3,0.1-2,0.4l-0.3,0.1L-2002.8,2595.1z M-1990.4,2595.1h-1.2v-8h1.2
		v0.6c0.8-0.4,1.6-0.7,2.5-0.7c0.8-0.1,1.6,0.2,2.2,0.9c0.4,1,0.6,2,0.6,3.1v4.2h-1.2v-4.2c0.1-0.8-0.1-1.6-0.3-2.3
		c-0.3-0.5-0.9-0.7-1.4-0.6c-0.4,0-0.7,0.1-1.1,0.2c-0.3,0.1-0.6,0.2-0.9,0.3l-0.3,0.1L-1990.4,2595.1z M-1977.4,2594.1l0.5,0l0,0.9
		c-1,0.2-2.1,0.2-3.1,0.3c-0.9,0.1-1.8-0.3-2.4-1c-0.6-0.9-0.8-2-0.7-3.1c0-2.8,1.1-4.2,3.3-4.2c0.9-0.1,1.8,0.3,2.4,0.9
		c0.6,0.8,0.9,1.8,0.8,2.8l-0.1,0.9h-5.3c-0.1,0.7,0.1,1.4,0.5,2c0.4,0.5,1,0.7,1.7,0.6C-1979,2594.2-1978.2,2594.2-1977.4,2594.1
		L-1977.4,2594.1z M-1977.8,2590.7c0.1-0.7-0.1-1.5-0.5-2.1c-0.4-0.4-1-0.7-1.5-0.6c-0.6,0-1.2,0.2-1.6,0.6c-0.4,0.6-0.6,1.3-0.6,2
		H-1977.8z M-1971.5,2598.9c-0.9,0.1-1.9-0.1-2.7-0.5c-0.6-0.5-0.8-1.2-0.8-1.9c0-0.4,0.1-0.7,0.3-1.1c0.3-0.4,0.6-0.7,1-0.9
		c-0.3-0.3-0.5-0.7-0.4-1.1c0.1-0.4,0.2-0.7,0.4-1l0.1-0.3c-0.9-0.5-1.4-1.4-1.3-2.4c0-1.8,1-2.7,3-2.7c0.5,0,1,0,1.4,0.2l0.2,0
		l2.4-0.1v1l-1.5,0c0.4,0.4,0.6,1,0.5,1.6c0.1,0.8-0.2,1.5-0.7,2.1c-0.7,0.5-1.5,0.7-2.3,0.6c-0.3,0-0.5,0-0.8-0.1
		c-0.1,0.3-0.2,0.6-0.3,0.9c0,0.3,0.1,0.5,0.3,0.6c0.6,0.1,1.2,0.2,1.8,0.1c0.8-0.1,1.5,0.1,2.2,0.5c0.5,0.5,0.8,1.2,0.7,1.9
		C-1967.9,2598-1969.1,2598.9-1971.5,2598.9z M-1973.7,2596.4c-0.1,0.4,0.1,0.9,0.5,1.2c0.5,0.3,1.1,0.4,1.7,0.3
		c0.6,0,1.3-0.1,1.8-0.4c0.4-0.3,0.6-0.7,0.6-1.2c0-0.5-0.1-0.9-0.4-1.1c-0.5-0.2-1-0.3-1.6-0.2l-1.7-0.1c-0.3,0.2-0.5,0.4-0.7,0.7
		C-1973.7,2595.9-1973.7,2596.1-1973.7,2596.4z M-1973.6,2589.7c0,0.5,0.1,1,0.4,1.3c0.4,0.3,0.9,0.4,1.4,0.4c0.5,0,1-0.1,1.4-0.4
		c0.3-0.4,0.5-0.9,0.4-1.4c0-0.5-0.1-1-0.4-1.4c-0.9-0.5-1.9-0.5-2.8,0C-1973.5,2588.7-1973.7,2589.2-1973.6,2589.7z
		 M-1960.5,2589.6v4.1c0,0.4,0.3,0.6,0.9,0.7l0,0.9c-0.7,0.1-1.4-0.2-1.9-0.6c-0.9,0.4-1.9,0.6-2.9,0.6c-0.6,0-1.2-0.2-1.7-0.6
		c-0.4-0.5-0.6-1.1-0.6-1.8c-0.1-0.6,0.2-1.3,0.6-1.7c0.5-0.4,1.2-0.7,1.9-0.7l2.5-0.2v-0.7c0-0.4-0.1-0.8-0.4-1.2
		c-0.3-0.2-0.6-0.4-1-0.4c-0.9,0-1.8,0.1-2.7,0.2l-0.5,0l0-0.9c1-0.2,2.1-0.3,3.1-0.4c0.7-0.1,1.4,0.2,2,0.6
		C-1960.7,2588.1-1960.5,2588.8-1960.5,2589.6L-1960.5,2589.6z M-1965.5,2592.8c0,1,0.4,1.5,1.2,1.5c0.7,0,1.5-0.1,2.1-0.4l0.4-0.1
		v-2.6l-2.4,0.2c-0.4,0-0.8,0.2-1,0.4C-1965.4,2592.1-1965.5,2592.4-1965.5,2592.8z M-1958,2595.1v-8h1.2v1.1c0.9-0.6,1.9-1,2.9-1.3
		v1.2c-0.5,0.1-0.9,0.2-1.4,0.4c-0.4,0.1-0.8,0.3-1.1,0.5l-0.4,0.2v5.9H-1958z M-1946.7,2589.6v4.1c0,0.4,0.3,0.6,0.9,0.7l0,0.9
		c-0.7,0.1-1.4-0.2-1.9-0.6c-0.9,0.4-1.9,0.6-2.9,0.6c-0.6,0-1.2-0.2-1.7-0.6c-0.4-0.5-0.6-1.1-0.6-1.8c-0.1-0.6,0.2-1.3,0.6-1.7
		c0.5-0.4,1.2-0.7,1.9-0.7l2.5-0.2v-0.7c0-0.4-0.1-0.8-0.4-1.2c-0.3-0.2-0.6-0.4-1-0.4c-0.9,0-1.8,0.1-2.7,0.2l-0.5,0l0-0.9
		c1-0.2,2.1-0.3,3.1-0.4c0.7-0.1,1.4,0.2,2,0.6C-1946.8,2588.1-1946.6,2588.8-1946.7,2589.6z M-1951.6,2592.8c0,1,0.4,1.5,1.2,1.5
		c0.7,0,1.5-0.1,2.1-0.4l0.4-0.1v-2.6l-2.4,0.2c-0.4,0-0.8,0.2-1,0.4C-1951.5,2592.1-1951.6,2592.4-1951.6,2592.8z"/>
	<path class="st3" d="M-2097.3,2698.7c0.8-0.5,1.8-0.8,2.8-0.8c1,0,2,0.2,2.8,0.8c0.7,0.5,1.1,1.3,1.1,2.1c0,0.5-0.1,0.9-0.2,1.4
		c-0.2,0.4-0.5,0.8-0.9,1c0.4,0.3,0.7,0.7,1,1.1c0.2,0.5,0.3,1,0.3,1.5c0.1,0.9-0.4,1.8-1.1,2.3c-0.9,0.5-1.9,0.8-2.9,0.7
		c-2.7,0-4-1-4-2.9c0-0.5,0.1-1.1,0.3-1.6c0.3-0.4,0.6-0.8,1-1.2c-0.4-0.3-0.7-0.6-0.9-1.1c-0.2-0.4-0.3-0.9-0.2-1.4
		C-2098.4,2699.9-2098,2699.1-2097.3,2698.7z M-2096.2,2705.4c0,0.9,0.6,1.4,1.7,1.4s1.7-0.5,1.7-1.4c0-0.6-0.4-1.1-0.9-1.2h-1.4
		C-2095.8,2704.4-2096.2,2704.9-2096.2,2705.4z M-2094.5,2699.9c-0.4,0-0.8,0.1-1.1,0.3c-0.3,0.2-0.4,0.6-0.4,1c0,0.5,0.3,1,0.8,1.2
		h1.4c0.5-0.3,0.8-0.7,0.8-1.2C-2093,2700.3-2093.5,2699.9-2094.5,2699.9z M-2088.5,2699.2c0.8-0.9,1.9-1.4,3.1-1.3
		c1.2-0.1,2.3,0.4,3.1,1.3c0.8,1.3,1.2,2.7,1,4.2c0.1,1.5-0.2,2.9-1,4.2c-0.8,0.9-1.9,1.3-3.1,1.3c-1.2,0.1-2.3-0.4-3.1-1.3
		c-0.8-1.2-1.2-2.7-1-4.2C-2089.6,2701.9-2089.3,2700.5-2088.5,2699.2z M-2083.6,2703.4c0.1-0.9-0.1-1.9-0.4-2.8
		c-0.3-0.5-0.8-0.8-1.4-0.8c-0.6,0-1.1,0.3-1.4,0.8c-0.3,0.9-0.5,1.8-0.4,2.8c-0.1,0.9,0.1,1.9,0.4,2.8c0.3,0.5,0.8,0.8,1.4,0.8
		c0.6,0,1.1-0.3,1.4-0.8C-2083.7,2705.2-2083.5,2704.3-2083.6,2703.4L-2083.6,2703.4z M-2078.8,2708.8l3.8-11.3l1.2,0.4l-3.8,11.3
		L-2078.8,2708.8z M-2080.5,2700.2c0-1.6,0.6-2.3,1.9-2.3s1.9,0.8,1.9,2.3c0,1.6-0.6,2.3-1.9,2.3
		C-2079.9,2702.5-2080.5,2701.8-2080.5,2700.2z M-2078.9,2699.4c-0.1,0.3-0.1,0.5-0.1,0.8c0,0.3,0,0.5,0.1,0.8
		c0,0.1,0.1,0.2,0.3,0.2c0.1,0,0.3-0.1,0.3-0.2c0.1-0.3,0.1-0.5,0.1-0.8c0-0.3,0-0.5-0.1-0.8c0-0.1-0.1-0.2-0.3-0.2
		C-2078.8,2699.2-2078.9,2699.3-2078.9,2699.4z M-2075.9,2706.5c0-1.6,0.6-2.3,1.9-2.3s1.9,0.8,1.9,2.3s-0.6,2.3-1.9,2.3
		S-2075.9,2708.1-2075.9,2706.5L-2075.9,2706.5z M-2074.2,2705.7c-0.1,0.3-0.1,0.5-0.1,0.8c0,0.3,0,0.5,0.1,0.8
		c0,0.1,0.1,0.2,0.3,0.2c0.1,0,0.3-0.1,0.3-0.2c0.1-0.3,0.1-0.5,0.1-0.8c0-0.3,0-0.5-0.1-0.8c0-0.1-0.1-0.2-0.3-0.2
		C-2074.1,2705.5-2074.2,2705.6-2074.2,2705.7L-2074.2,2705.7z M-2097.8,2729.6v-11.5h1.2v11.5H-2097.8z M-2094,2729.6v-8h1.2v8
		H-2094z M-2094,2719.8v-1.4h1.2v1.4H-2094z M-2090.3,2733.2v-11.6h1.2v0.6c0.7-0.5,1.5-0.7,2.4-0.7c0.9-0.1,1.7,0.3,2.2,1
		c0.5,1,0.8,2.1,0.7,3.2c0.1,1.1-0.2,2.2-0.8,3.2c-0.7,0.7-1.7,1.1-2.7,1c-0.6,0-1.2-0.1-1.8-0.2v3.6H-2090.3z M-2086.9,2722.6
		c-0.3,0-0.7,0.1-1,0.2c-0.3,0.1-0.6,0.2-0.9,0.3l-0.3,0.2v5.4c0.6,0.1,1.1,0.2,1.7,0.2c0.7,0.1,1.4-0.2,1.8-0.7
		c0.4-0.7,0.6-1.6,0.5-2.4c0.1-0.8-0.1-1.6-0.5-2.4C-2085.8,2722.8-2086.4,2722.5-2086.9,2722.6z M-2076.7,2721.6h1.2v8h-1.2v-0.6
		c-0.7,0.5-1.5,0.7-2.4,0.7c-0.8,0.1-1.6-0.2-2.2-0.8c-0.4-1-0.6-2.1-0.5-3.1v-4.2h1.2v4.2c-0.1,0.8,0,1.6,0.3,2.3
		c0.2,0.4,0.7,0.6,1.4,0.6c0.4,0,0.7-0.1,1.1-0.2c0.3-0.1,0.6-0.2,0.8-0.3l0.3-0.1L-2076.7,2721.6z M-2068.9,2722.7h-2.5v3.8
		c0,0.6,0,1.2,0.2,1.8c0.1,0.3,0.5,0.4,1,0.4l1.4-0.1l0.1,1c-0.5,0.1-1.1,0.2-1.6,0.2c-0.6,0.1-1.3-0.2-1.7-0.6
		c-0.4-0.7-0.6-1.5-0.5-2.3v-4.2h-1.1v-1h1.1v-2.4h1.2v2.4h2.5V2722.7z M-2061.7,2724.1v4.1c0,0.4,0.3,0.6,0.9,0.7l0,0.9
		c-0.7,0.1-1.4-0.2-1.9-0.6c-0.9,0.4-1.9,0.6-2.9,0.6c-0.6,0-1.2-0.2-1.7-0.6c-0.4-0.5-0.6-1.1-0.6-1.8c-0.1-0.6,0.2-1.3,0.6-1.7
		c0.5-0.4,1.2-0.7,1.9-0.7l2.5-0.2v-0.7c0-0.4-0.1-0.8-0.4-1.2c-0.3-0.2-0.6-0.4-1-0.4c-0.9,0-1.8,0.1-2.7,0.2l-0.5,0l0-0.9
		c1-0.2,2.1-0.3,3.1-0.4c0.7-0.1,1.4,0.2,2,0.6C-2061.8,2722.6-2061.6,2723.3-2061.7,2724.1z M-2066.6,2727.3c0,1,0.4,1.5,1.2,1.5
		c0.7,0,1.5-0.1,2.1-0.4l0.4-0.1v-2.6l-2.4,0.2c-0.4,0-0.8,0.2-1,0.4C-2066.5,2726.6-2066.6,2726.9-2066.6,2727.3z M-2057.9,2729.6
		h-1.2v-8h1.2v0.6c0.8-0.4,1.6-0.7,2.5-0.7c0.8-0.1,1.6,0.2,2.2,0.9c0.4,1,0.6,2,0.6,3.1v4.2h-1.2v-4.2c0.1-0.8-0.1-1.6-0.3-2.3
		c-0.3-0.5-0.9-0.7-1.4-0.6c-0.4,0-0.7,0.1-1.1,0.2c-0.3,0.1-0.6,0.2-0.9,0.3l-0.3,0.1L-2057.9,2729.6z M-2044.2,2722.6
		c-1.2,0-1.7,0.4-1.7,1.2c0,0.3,0.1,0.6,0.4,0.8c0.6,0.2,1.2,0.4,1.8,0.5c0.7,0.1,1.4,0.3,2,0.7c0.4,0.4,0.7,1.1,0.6,1.7
		c0.1,0.7-0.2,1.4-0.8,1.8c-0.7,0.4-1.5,0.6-2.3,0.6c-0.8,0-1.6-0.1-2.3-0.2l-0.5-0.1l0.1-1c0.9,0.2,1.8,0.2,2.8,0.3
		c0.5,0,1-0.1,1.4-0.3c0.3-0.2,0.5-0.6,0.5-1c0-0.4-0.1-0.7-0.4-0.9c-0.6-0.2-1.2-0.4-1.8-0.5c-0.7-0.1-1.4-0.3-2-0.7
		c-0.4-0.4-0.7-1-0.6-1.6c0-0.7,0.3-1.3,0.8-1.7c0.6-0.4,1.3-0.6,2.1-0.6c0.8,0,1.6,0.1,2.4,0.2l0.4,0.1l0,1
		C-2042.3,2722.7-2043.2,2722.6-2044.2,2722.6z M-2033.7,2728.6l0.5,0l0,0.9c-1,0.2-2.1,0.2-3.1,0.3c-0.9,0.1-1.8-0.3-2.4-1
		c-0.6-0.9-0.8-2-0.7-3.1c0-2.8,1.1-4.2,3.3-4.2c0.9-0.1,1.8,0.3,2.4,0.9c0.6,0.8,0.9,1.8,0.8,2.8l-0.1,0.9h-5.3
		c-0.1,0.7,0.1,1.4,0.5,2c0.4,0.5,1,0.7,1.7,0.6C-2035.3,2728.7-2034.5,2728.7-2033.7,2728.6L-2033.7,2728.6z M-2034.1,2725.2
		c0.1-0.7-0.1-1.5-0.5-2.1c-0.4-0.4-1-0.7-1.5-0.6c-0.6,0-1.2,0.2-1.6,0.6c-0.4,0.6-0.6,1.3-0.6,2H-2034.1z M-2030.8,2729.6v-11.5
		h1.2v11.5H-2030.8z M-2022,2721.6h1.2v8h-1.2v-0.6c-0.7,0.5-1.5,0.7-2.4,0.7c-0.8,0.1-1.6-0.2-2.2-0.8c-0.4-1-0.6-2.1-0.5-3.1v-4.2
		h1.2v4.2c-0.1,0.8,0,1.6,0.3,2.3c0.2,0.4,0.7,0.6,1.4,0.6c0.4,0,0.7-0.1,1.1-0.2c0.3-0.1,0.6-0.2,0.8-0.3l0.3-0.1L-2022,2721.6z
		 M-2018.3,2729.6v-8h1.2v1.1c0.9-0.6,1.9-1,2.9-1.3v1.2c-0.5,0.1-0.9,0.2-1.4,0.4c-0.4,0.1-0.8,0.3-1.1,0.5l-0.4,0.2v5.9H-2018.3z
		 M-2007.7,2721.6h1.2v8h-1.2v-0.6c-0.7,0.5-1.5,0.7-2.4,0.7c-0.8,0.1-1.6-0.2-2.2-0.8c-0.4-1-0.6-2.1-0.5-3.1v-4.2h1.2v4.2
		c-0.1,0.8,0,1.6,0.3,2.3c0.2,0.4,0.7,0.6,1.4,0.6c0.4,0,0.7-0.1,1.1-0.2c0.3-0.1,0.6-0.2,0.8-0.3l0.3-0.1L-2007.7,2721.6z
		 M-2002.8,2729.6h-1.2v-11.5h1.2v3.9c0.8-0.4,1.6-0.6,2.5-0.6c0.8-0.1,1.6,0.2,2.2,0.9c0.4,1,0.6,2,0.6,3.1v4.2h-1.2v-4.2
		c0.1-0.8-0.1-1.6-0.3-2.3c-0.3-0.5-0.8-0.7-1.4-0.6c-0.7,0-1.3,0.1-2,0.4l-0.3,0.1L-2002.8,2729.6z M-1990.4,2729.6h-1.2v-8h1.2
		v0.6c0.8-0.4,1.6-0.7,2.5-0.7c0.8-0.1,1.6,0.2,2.2,0.9c0.4,1,0.6,2,0.6,3.1v4.2h-1.2v-4.2c0.1-0.8-0.1-1.6-0.3-2.3
		c-0.3-0.5-0.9-0.7-1.4-0.6c-0.4,0-0.7,0.1-1.1,0.2c-0.3,0.1-0.6,0.2-0.9,0.3l-0.3,0.1L-1990.4,2729.6z M-1977.4,2728.6l0.5,0l0,0.9
		c-1,0.2-2.1,0.2-3.1,0.3c-0.9,0.1-1.8-0.3-2.4-1c-0.6-0.9-0.8-2-0.7-3.1c0-2.8,1.1-4.2,3.3-4.2c0.9-0.1,1.8,0.3,2.4,0.9
		c0.6,0.8,0.9,1.8,0.8,2.8l-0.1,0.9h-5.3c-0.1,0.7,0.1,1.4,0.5,2c0.4,0.5,1,0.7,1.7,0.6C-1979,2728.7-1978.2,2728.7-1977.4,2728.6
		L-1977.4,2728.6z M-1977.8,2725.2c0.1-0.7-0.1-1.5-0.5-2.1c-0.4-0.4-1-0.7-1.5-0.6c-0.6,0-1.2,0.2-1.6,0.6c-0.4,0.6-0.6,1.3-0.6,2
		H-1977.8z M-1971.5,2733.4c-0.9,0.1-1.9-0.1-2.7-0.5c-0.6-0.5-0.8-1.2-0.8-1.9c0-0.4,0.1-0.7,0.3-1.1c0.3-0.4,0.6-0.7,1-0.9
		c-0.3-0.3-0.5-0.7-0.4-1.1c0.1-0.4,0.2-0.7,0.4-1l0.1-0.3c-0.9-0.5-1.4-1.4-1.3-2.4c0-1.8,1-2.7,3-2.7c0.5,0,1,0,1.4,0.2l0.2,0
		l2.4-0.1v1l-1.5,0c0.4,0.4,0.6,1,0.5,1.6c0.1,0.8-0.2,1.5-0.7,2.1c-0.7,0.5-1.5,0.7-2.3,0.6c-0.3,0-0.5,0-0.8-0.1
		c-0.1,0.3-0.2,0.6-0.3,0.9c0,0.3,0.1,0.5,0.3,0.6c0.6,0.1,1.2,0.2,1.8,0.1c0.8-0.1,1.5,0.1,2.2,0.5c0.5,0.5,0.8,1.2,0.7,1.9
		C-1967.9,2732.5-1969.1,2733.4-1971.5,2733.4z M-1973.7,2730.9c-0.1,0.4,0.1,0.9,0.5,1.2c0.5,0.3,1.1,0.4,1.7,0.3
		c0.6,0,1.3-0.1,1.8-0.4c0.4-0.3,0.6-0.7,0.6-1.2c0-0.5-0.1-0.9-0.4-1.1c-0.5-0.2-1-0.3-1.6-0.2l-1.7-0.1c-0.3,0.2-0.5,0.4-0.7,0.7
		C-1973.7,2730.4-1973.7,2730.6-1973.7,2730.9z M-1973.6,2724.2c0,0.5,0.1,1,0.4,1.3c0.4,0.3,0.9,0.4,1.4,0.4c0.5,0,1-0.1,1.4-0.4
		c0.3-0.4,0.5-0.9,0.4-1.4c0-0.5-0.1-1-0.4-1.4c-0.9-0.5-1.9-0.5-2.8,0C-1973.5,2723.2-1973.7,2723.7-1973.6,2724.2z
		 M-1960.5,2724.1v4.1c0,0.4,0.3,0.6,0.9,0.7l0,0.9c-0.7,0.1-1.4-0.2-1.9-0.6c-0.9,0.4-1.9,0.6-2.9,0.6c-0.6,0-1.2-0.2-1.7-0.6
		c-0.4-0.5-0.6-1.1-0.6-1.8c-0.1-0.6,0.2-1.3,0.6-1.7c0.5-0.4,1.2-0.7,1.9-0.7l2.5-0.2v-0.7c0-0.4-0.1-0.8-0.4-1.2
		c-0.3-0.2-0.6-0.4-1-0.4c-0.9,0-1.8,0.1-2.7,0.2l-0.5,0l0-0.9c1-0.2,2.1-0.3,3.1-0.4c0.7-0.1,1.4,0.2,2,0.6
		C-1960.7,2722.6-1960.5,2723.3-1960.5,2724.1L-1960.5,2724.1z M-1965.5,2727.3c0,1,0.4,1.5,1.2,1.5c0.7,0,1.5-0.1,2.1-0.4l0.4-0.1
		v-2.6l-2.4,0.2c-0.4,0-0.8,0.2-1,0.4C-1965.4,2726.6-1965.5,2726.9-1965.5,2727.3z M-1958,2729.6v-8h1.2v1.1c0.9-0.6,1.9-1,2.9-1.3
		v1.2c-0.5,0.1-0.9,0.2-1.4,0.4c-0.4,0.1-0.8,0.3-1.1,0.5l-0.4,0.2v5.9H-1958z M-1946.7,2724.1v4.1c0,0.4,0.3,0.6,0.9,0.7l0,0.9
		c-0.7,0.1-1.4-0.2-1.9-0.6c-0.9,0.4-1.9,0.6-2.9,0.6c-0.6,0-1.2-0.2-1.7-0.6c-0.4-0.5-0.6-1.1-0.6-1.8c-0.1-0.6,0.2-1.3,0.6-1.7
		c0.5-0.4,1.2-0.7,1.9-0.7l2.5-0.2v-0.7c0-0.4-0.1-0.8-0.4-1.2c-0.3-0.2-0.6-0.4-1-0.4c-0.9,0-1.8,0.1-2.7,0.2l-0.5,0l0-0.9
		c1-0.2,2.1-0.3,3.1-0.4c0.7-0.1,1.4,0.2,2,0.6C-1946.8,2722.6-1946.6,2723.3-1946.7,2724.1z M-1951.6,2727.3c0,1,0.4,1.5,1.2,1.5
		c0.7,0,1.5-0.1,2.1-0.4l0.4-0.1v-2.6l-2.4,0.2c-0.4,0-0.8,0.2-1,0.4C-1951.5,2726.6-1951.6,2726.9-1951.6,2727.3z"/>
</g>
</svg>
