<?xml version="1.0" encoding="utf-8"?>
<!-- Generator: Adobe Illustrator 26.0.1, SVG Export Plug-In . SVG Version: 6.00 Build 0)  -->
<svg version="1.1" id="Layer_1" xmlns="http://www.w3.org/2000/svg" xmlns:xlink="http://www.w3.org/1999/xlink" x="0px" y="0px"
	 viewBox="0 0 775.6 130.8" style="enable-background:new 0 0 775.6 130.8;" xml:space="preserve">
<style type="text/css">
	.st0{fill:#1D1D1D;}
	.st1{fill:#D60031;}
	.st2{fill:none;stroke:#1D1D1D;stroke-width:0.5;}
	.st3{fill:url(#SVGID_1_);}
</style>
<g transform="translate(1858.25 -2157.689)">
	<path class="st0" d="M-1615.6,2229.7v-1.7h-4.5v-1.7l2.6-7.1h2.4l-2.8,6.9h2.3v-3h2.2v3h1v1.9h-1v1.7H-1615.6z M-1610.2,2220.2
		c0.8-0.9,1.9-1.4,3.1-1.3c1.2-0.1,2.3,0.4,3.1,1.3c0.8,1.3,1.2,2.7,1,4.2c0.1,1.5-0.2,2.9-1,4.2c-0.8,0.9-1.9,1.3-3.1,1.3
		c-1.2,0.1-2.3-0.4-3.1-1.3c-0.8-1.2-1.2-2.7-1-4.2C-1611.4,2223-1611,2221.5-1610.2,2220.2z M-1605.3,2224.4
		c0.1-0.9-0.1-1.9-0.4-2.8c-0.3-0.5-0.8-0.8-1.4-0.8c-0.6,0-1.1,0.3-1.4,0.8c-0.3,0.9-0.5,1.8-0.4,2.8c-0.1,0.9,0.1,1.9,0.4,2.8
		c0.3,0.5,0.8,0.8,1.4,0.8c0.6,0,1.1-0.3,1.4-0.8C-1605.4,2226.3-1605.3,2225.4-1605.3,2224.4L-1605.3,2224.4z M-1600.5,2229.8
		l3.8-11.3l1.2,0.4l-3.8,11.3L-1600.5,2229.8z M-1602.3,2221.3c0-1.6,0.6-2.3,1.9-2.3s1.9,0.8,1.9,2.3c0,1.6-0.6,2.3-1.9,2.3
		S-1602.3,2222.8-1602.3,2221.3z M-1600.7,2220.5c-0.1,0.3-0.1,0.5-0.1,0.8c0,0.3,0,0.5,0.1,0.8c0,0.1,0.1,0.2,0.3,0.2
		c0.1,0,0.3-0.1,0.3-0.2c0.1-0.3,0.1-0.5,0.1-0.8c0-0.3,0-0.5-0.1-0.8c0-0.1-0.1-0.2-0.3-0.2
		C-1600.5,2220.2-1600.6,2220.3-1600.7,2220.5z M-1597.6,2227.6c0-1.6,0.6-2.3,1.9-2.3c1.3,0,1.9,0.8,1.9,2.3s-0.6,2.3-1.9,2.3
		C-1597,2229.9-1597.6,2229.1-1597.6,2227.6L-1597.6,2227.6z M-1596,2226.7c-0.1,0.3-0.1,0.5-0.1,0.8c0,0.3,0,0.5,0.1,0.8
		c0,0.1,0.1,0.2,0.3,0.2c0.1,0,0.3-0.1,0.3-0.2c0.1-0.3,0.1-0.5,0.1-0.8c0-0.3,0-0.5-0.1-0.8c0-0.1-0.1-0.2-0.3-0.2
		C-1595.8,2226.5-1596,2226.6-1596,2226.7L-1596,2226.7z M-1619.5,2250.7v-11.5h1.2v11.5H-1619.5z M-1615.7,2250.7v-8h1.2v8H-1615.7
		z M-1615.7,2240.9v-1.4h1.2v1.4H-1615.7z M-1612.1,2254.2v-11.6h1.2v0.6c0.7-0.5,1.5-0.7,2.4-0.7c0.9-0.1,1.7,0.3,2.2,1
		c0.5,1,0.8,2.1,0.7,3.2c0.1,1.1-0.2,2.2-0.8,3.2c-0.7,0.7-1.7,1.1-2.7,1c-0.6,0-1.2-0.1-1.8-0.2v3.6H-1612.1z M-1608.7,2243.6
		c-0.3,0-0.7,0.1-1,0.2c-0.3,0.1-0.6,0.2-0.9,0.3l-0.3,0.2v5.4c0.6,0.1,1.1,0.2,1.7,0.2c0.7,0.1,1.4-0.2,1.8-0.7
		c0.4-0.7,0.6-1.6,0.5-2.4c0.1-0.8-0.1-1.6-0.5-2.4C-1607.6,2243.8-1608.1,2243.6-1608.7,2243.6z M-1598.5,2242.7h1.2v8h-1.2v-0.6
		c-0.7,0.5-1.5,0.7-2.4,0.7c-0.8,0.1-1.6-0.2-2.2-0.8c-0.4-1-0.6-2.1-0.5-3.1v-4.2h1.2v4.2c-0.1,0.8,0,1.6,0.3,2.3
		c0.2,0.4,0.7,0.6,1.4,0.6c0.4,0,0.7-0.1,1.1-0.2c0.3-0.1,0.6-0.2,0.8-0.3l0.3-0.1L-1598.5,2242.7z M-1590.7,2243.7h-2.5v3.8
		c0,0.6,0,1.2,0.2,1.8c0.1,0.3,0.5,0.4,1,0.4l1.4-0.1l0.1,1c-0.5,0.1-1.1,0.2-1.6,0.2c-0.6,0.1-1.3-0.2-1.7-0.6
		c-0.4-0.7-0.6-1.5-0.5-2.3v-4.2h-1.1v-1h1.1v-2.4h1.2v2.4h2.5V2243.7z M-1583.4,2245.1v4.1c0,0.4,0.3,0.6,0.9,0.7l0,0.9
		c-0.7,0.1-1.4-0.2-1.9-0.6c-0.9,0.4-1.9,0.6-2.9,0.6c-0.6,0-1.2-0.2-1.7-0.6c-0.4-0.5-0.6-1.1-0.6-1.8c-0.1-0.6,0.2-1.3,0.6-1.7
		c0.5-0.4,1.2-0.7,1.9-0.7l2.5-0.2v-0.7c0-0.4-0.1-0.8-0.4-1.2c-0.3-0.2-0.6-0.4-1-0.4c-0.9,0-1.8,0.1-2.7,0.2l-0.5,0l0-0.9
		c1-0.2,2.1-0.3,3.1-0.4c0.7-0.1,1.4,0.2,2,0.6C-1583.6,2243.7-1583.3,2244.4-1583.4,2245.1z M-1588.3,2248.4c0,1,0.4,1.5,1.2,1.5
		c0.7,0,1.5-0.1,2.1-0.4l0.4-0.1v-2.6l-2.4,0.2c-0.4,0-0.8,0.2-1,0.4C-1588.2,2247.6-1588.4,2248-1588.3,2248.4z M-1579.7,2250.7
		h-1.2v-8h1.2v0.6c0.8-0.4,1.6-0.7,2.5-0.7c0.8-0.1,1.6,0.2,2.2,0.9c0.4,1,0.6,2,0.6,3.1v4.2h-1.2v-4.2c0.1-0.8-0.1-1.6-0.3-2.3
		c-0.3-0.5-0.9-0.7-1.4-0.6c-0.4,0-0.7,0.1-1.1,0.2c-0.3,0.1-0.6,0.2-0.9,0.3l-0.3,0.1L-1579.7,2250.7z M-1617.1,2264.6
		c-1.2,0-1.7,0.4-1.7,1.2c0,0.3,0.1,0.6,0.4,0.8c0.6,0.2,1.2,0.4,1.8,0.5c0.7,0.1,1.4,0.3,2,0.7c0.4,0.4,0.7,1.1,0.6,1.7
		c0.1,0.7-0.2,1.4-0.8,1.8c-0.7,0.4-1.5,0.6-2.3,0.6c-0.8,0-1.6-0.1-2.3-0.2l-0.5-0.1l0.1-1c0.9,0.2,1.8,0.2,2.8,0.3
		c0.5,0,1-0.1,1.4-0.3c0.3-0.2,0.5-0.6,0.5-1c0-0.4-0.1-0.7-0.4-0.9c-0.6-0.2-1.2-0.4-1.8-0.5c-0.7-0.1-1.4-0.3-2-0.7
		c-0.4-0.4-0.7-1-0.6-1.6c0-0.7,0.3-1.3,0.8-1.7c0.6-0.4,1.3-0.6,2.1-0.6c0.8,0,1.6,0.1,2.4,0.2l0.4,0.1l0,1
		C-1615.2,2264.7-1616.1,2264.6-1617.1,2264.6z M-1606.6,2270.7l0.5,0l0,0.9c-1,0.2-2.1,0.2-3.1,0.3c-0.9,0.1-1.8-0.3-2.4-1
		c-0.6-0.9-0.8-2-0.7-3.1c0-2.8,1.1-4.2,3.3-4.2c0.9-0.1,1.8,0.3,2.4,0.9c0.6,0.8,0.9,1.8,0.8,2.8l-0.1,0.9h-5.3
		c-0.1,0.7,0.1,1.4,0.5,2c0.4,0.5,1,0.7,1.7,0.6C-1608.2,2270.8-1607.4,2270.8-1606.6,2270.7L-1606.6,2270.7z M-1607,2267.2
		c0.1-0.7-0.1-1.5-0.5-2.1c-0.4-0.4-1-0.7-1.5-0.6c-0.6,0-1.2,0.2-1.6,0.6c-0.4,0.6-0.6,1.3-0.6,2L-1607,2267.2z M-1603.7,2271.7
		v-11.5h1.2v11.5H-1603.7z M-1594.9,2263.7h1.2v8h-1.2v-0.6c-0.7,0.5-1.5,0.7-2.4,0.7c-0.8,0.1-1.6-0.2-2.2-0.8
		c-0.4-1-0.6-2.1-0.5-3.1v-4.2h1.2v4.2c-0.1,0.8,0,1.6,0.3,2.3c0.2,0.4,0.7,0.6,1.4,0.6c0.4,0,0.7-0.1,1.1-0.2
		c0.3-0.1,0.6-0.2,0.8-0.3l0.3-0.1L-1594.9,2263.7z M-1591.2,2271.7v-8h1.2v1.1c0.9-0.6,1.9-1,2.9-1.3v1.2c-0.5,0.1-0.9,0.2-1.4,0.4
		c-0.4,0.1-0.8,0.3-1.1,0.5l-0.4,0.2v5.9H-1591.2z M-1580.6,2263.7h1.2v8h-1.2v-0.6c-0.7,0.5-1.5,0.7-2.4,0.7
		c-0.8,0.1-1.6-0.2-2.2-0.8c-0.4-1-0.6-2.1-0.5-3.1v-4.2h1.2v4.2c-0.1,0.8,0,1.6,0.3,2.3c0.2,0.4,0.7,0.6,1.4,0.6
		c0.4,0,0.7-0.1,1.1-0.2c0.3-0.1,0.6-0.2,0.8-0.3l0.3-0.1L-1580.6,2263.7z M-1575.7,2271.7h-1.2v-11.5h1.2v3.9
		c0.8-0.4,1.6-0.6,2.5-0.6c0.8-0.1,1.6,0.2,2.2,0.9c0.4,1,0.6,2,0.6,3.1v4.2h-1.2v-4.2c0.1-0.8-0.1-1.6-0.3-2.3
		c-0.3-0.5-0.8-0.7-1.4-0.6c-0.7,0-1.3,0.1-2,0.4l-0.3,0.1L-1575.7,2271.7z M-1563.3,2271.7h-1.2v-8h1.2v0.6
		c0.8-0.4,1.6-0.7,2.5-0.7c0.8-0.1,1.6,0.2,2.2,0.9c0.4,1,0.6,2,0.6,3.1v4.2h-1.2v-4.2c0.1-0.8-0.1-1.6-0.3-2.3
		c-0.3-0.5-0.9-0.7-1.4-0.6c-0.4,0-0.7,0.1-1.1,0.2c-0.3,0.1-0.6,0.2-0.9,0.3l-0.3,0.1L-1563.3,2271.7z M-1550.3,2270.7l0.5,0l0,0.9
		c-1,0.2-2.1,0.2-3.1,0.3c-0.9,0.1-1.8-0.3-2.4-1c-0.6-0.9-0.8-2-0.7-3.1c0-2.8,1.1-4.2,3.3-4.2c0.9-0.1,1.8,0.3,2.4,0.9
		c0.6,0.8,0.9,1.8,0.8,2.8l-0.1,0.9h-5.3c-0.1,0.7,0.1,1.4,0.5,2c0.4,0.5,1,0.7,1.7,0.6C-1551.9,2270.8-1551.1,2270.8-1550.3,2270.7
		L-1550.3,2270.7z M-1550.7,2267.2c0.1-0.7-0.1-1.5-0.5-2.1c-0.4-0.4-1-0.7-1.5-0.6c-0.6,0-1.2,0.2-1.6,0.6c-0.4,0.6-0.6,1.3-0.6,2
		H-1550.7z M-1544.4,2275.4c-0.9,0.1-1.9-0.1-2.7-0.5c-0.6-0.5-0.8-1.2-0.8-1.9c0-0.4,0.1-0.7,0.3-1.1c0.3-0.4,0.6-0.7,1-0.9
		c-0.3-0.3-0.5-0.7-0.4-1.1c0.1-0.4,0.2-0.7,0.4-1l0.1-0.3c-0.9-0.5-1.4-1.4-1.3-2.4c0-1.8,1-2.7,3-2.7c0.5,0,1,0,1.4,0.2l0.2,0
		l2.4-0.1v1l-1.5,0c0.4,0.4,0.6,1,0.5,1.6c0.1,0.8-0.2,1.5-0.7,2.1c-0.7,0.5-1.5,0.7-2.3,0.6c-0.3,0-0.5,0-0.8-0.1
		c-0.1,0.3-0.2,0.6-0.3,0.9c0,0.3,0.1,0.5,0.3,0.6c0.6,0.1,1.2,0.2,1.8,0.1c0.8-0.1,1.5,0.1,2.2,0.5c0.5,0.5,0.8,1.2,0.7,1.9
		C-1540.8,2274.6-1542,2275.4-1544.4,2275.4L-1544.4,2275.4z M-1546.6,2272.9c-0.1,0.4,0.1,0.9,0.5,1.2c0.5,0.3,1.1,0.4,1.7,0.3
		c0.6,0,1.3-0.1,1.8-0.4c0.4-0.3,0.6-0.7,0.6-1.2c0-0.5-0.1-0.9-0.4-1.1c-0.5-0.2-1-0.3-1.6-0.2l-1.7-0.1c-0.3,0.2-0.5,0.4-0.7,0.7
		C-1546.6,2272.4-1546.6,2272.7-1546.6,2272.9L-1546.6,2272.9z M-1546.5,2266.3c0,0.5,0.1,1,0.4,1.3c0.4,0.3,0.9,0.4,1.4,0.4
		c0.5,0,1-0.1,1.4-0.4c0.6-0.8,0.6-1.9,0-2.7c-0.9-0.5-1.9-0.5-2.8,0C-1546.4,2265.3-1546.6,2265.8-1546.5,2266.3L-1546.5,2266.3z
		 M-1533.4,2266.1v4.1c0,0.4,0.3,0.6,0.9,0.7l0,0.9c-0.7,0.1-1.4-0.2-1.9-0.6c-0.9,0.4-1.9,0.6-2.9,0.6c-0.6,0-1.2-0.2-1.7-0.6
		c-0.4-0.5-0.6-1.1-0.6-1.8c-0.1-0.6,0.2-1.3,0.6-1.7c0.5-0.4,1.2-0.7,1.9-0.7l2.5-0.2v-0.7c0-0.4-0.1-0.8-0.4-1.2
		c-0.3-0.2-0.6-0.4-1-0.4c-0.9,0-1.8,0.1-2.7,0.2l-0.5,0l0-0.9c1-0.2,2.1-0.3,3.1-0.4c1.2-0.2,2.4,0.6,2.6,1.8
		C-1533.4,2265.6-1533.4,2265.8-1533.4,2266.1L-1533.4,2266.1z M-1538.4,2269.4c0,1,0.4,1.5,1.2,1.5c0.7,0,1.5-0.1,2.1-0.4l0.4-0.1
		v-2.6l-2.4,0.2c-0.4,0-0.8,0.2-1,0.4C-1538.3,2268.6-1538.4,2269-1538.4,2269.4z M-1530.9,2271.7v-8h1.2v1.1c0.9-0.6,1.9-1,2.9-1.3
		v1.2c-0.5,0.1-0.9,0.2-1.4,0.4c-0.4,0.1-0.8,0.3-1.1,0.5l-0.4,0.2v5.9H-1530.9z M-1519.6,2266.1v4.1c0,0.4,0.3,0.6,0.9,0.7l0,0.9
		c-0.7,0.1-1.4-0.2-1.9-0.6c-0.9,0.4-1.9,0.6-2.9,0.6c-0.6,0-1.2-0.2-1.7-0.6c-0.4-0.5-0.6-1.1-0.6-1.8c-0.1-0.6,0.2-1.3,0.6-1.7
		c0.5-0.4,1.2-0.7,1.9-0.7l2.5-0.2v-0.7c0-0.4-0.1-0.8-0.4-1.2c-0.3-0.2-0.6-0.4-1-0.4c-0.9,0-1.8,0.1-2.7,0.2l-0.5,0l0-0.9
		c1-0.2,2.1-0.3,3.1-0.4c1.2-0.2,2.4,0.6,2.6,1.8C-1519.5,2265.6-1519.5,2265.8-1519.6,2266.1L-1519.6,2266.1z M-1524.5,2269.4
		c0,1,0.4,1.5,1.2,1.5c0.7,0,1.5-0.1,2.1-0.4l0.4-0.1v-2.6l-2.4,0.2c-0.4,0-0.8,0.2-1,0.4C-1524.4,2268.6-1524.5,2269-1524.5,2269.4
		z"/>
	<path class="st0" d="M-1830.4,2229.7h-6.2v-10.9h2.2v8.9h4V2229.7z M-1829.1,2229.7v-8h2.1v8H-1829.1z M-1829.1,2220.7v-2.2h2.1
		v2.2H-1829.1z M-1824.8,2233v-11.4h2.1v0.4c0.5-0.4,1.2-0.6,1.8-0.6c0.9-0.1,1.8,0.3,2.4,1c0.6,1,0.9,2.1,0.8,3.3
		c0.1,1.1-0.2,2.3-0.8,3.2c-0.8,0.7-1.8,1-2.8,0.9c-0.4,0-0.8,0-1.1-0.1l-0.2,0v3.3L-1824.8,2233z M-1821.2,2223.4
		c-0.4,0-0.8,0.1-1.2,0.2l-0.2,0.1v4.2c0.4,0.1,0.8,0.1,1.2,0.1c0.5,0.1,1-0.1,1.3-0.5c0.3-0.6,0.4-1.2,0.3-1.9
		C-1819.8,2224.2-1820.3,2223.4-1821.2,2223.4z M-1811.2,2221.7h2.1v8h-2.1v-0.4c-0.6,0.4-1.3,0.6-2,0.6c-0.9,0.1-1.7-0.2-2.2-0.9
		c-0.5-1-0.7-2-0.6-3.1v-4.2h2.1v4.2c0,0.5,0,1.1,0.2,1.6c0.1,0.3,0.4,0.4,0.9,0.4c0.5,0,0.9-0.1,1.3-0.2l0.2-0.1V2221.7z
		 M-1802.4,2223.5h-2v3.3c0,0.2,0,0.5,0,0.7c0,0.1,0.1,0.3,0.2,0.3c0.1,0.1,0.3,0.2,0.5,0.1l1.2,0l0.1,1.7c-0.5,0.1-1.1,0.2-1.6,0.2
		c-0.7,0.1-1.4-0.2-2-0.6c-0.4-0.7-0.6-1.6-0.5-2.4v-3.3h-0.9v-1.8h0.9v-2.2h2.1v2.2h2V2223.5z M-1794.8,2224.2v3.3
		c0,0.2,0,0.4,0.1,0.5c0.1,0.1,0.2,0.2,0.4,0.2l-0.1,1.6c-0.4,0-0.9,0-1.3-0.1c-0.4-0.1-0.7-0.2-1-0.4c-0.7,0.4-1.5,0.6-2.4,0.6
		c-1.7,0-2.5-0.9-2.5-2.6c-0.1-0.7,0.2-1.4,0.7-1.8c0.6-0.4,1.4-0.6,2.1-0.6l1.7-0.1v-0.5c0-0.2-0.1-0.5-0.2-0.7
		c-0.2-0.1-0.5-0.2-0.7-0.2l-3,0.1l-0.1-1.5c1.1-0.3,2.2-0.5,3.3-0.5c0.8-0.1,1.6,0.2,2.2,0.6
		C-1795,2222.7-1794.7,2223.4-1794.8,2224.2L-1794.8,2224.2z M-1798.4,2226.3c-0.5,0-0.9,0.4-0.9,0.8c0,0,0,0.1,0,0.1
		c0,0.6,0.3,0.9,0.8,0.9c0.4,0,0.9-0.1,1.3-0.2l0.2-0.1v-1.7L-1798.4,2226.3z M-1790.4,2229.7h-2.1v-8h2.1v0.4
		c0.6-0.4,1.3-0.6,2-0.6c0.9-0.1,1.7,0.3,2.2,0.9c0.5,0.9,0.7,1.9,0.6,2.9v4.3h-2.1v-4.3c0-0.5-0.1-1-0.2-1.5
		c-0.2-0.3-0.6-0.5-1-0.5c-0.4,0-0.9,0.1-1.3,0.2l-0.2,0.1V2229.7z M-1773,2219.1v1.9h-4.7l-0.3,2.3c0.6-0.2,1.2-0.4,1.9-0.4
		c2.3,0,3.4,1.1,3.4,3.2c0.1,1-0.3,2-0.9,2.8c-0.7,0.7-1.7,1-2.7,1c-0.6,0-1.1-0.1-1.7-0.1c-0.5-0.1-1-0.2-1.5-0.3l-0.6-0.1l0.2-1.6
		c1.1,0.2,2.1,0.3,3.2,0.3c0.4,0,0.9-0.1,1.2-0.4c0.3-0.3,0.4-0.8,0.4-1.2c0-0.4-0.1-0.8-0.4-1.1c-0.3-0.2-0.6-0.4-1-0.4
		c-0.6,0-1.3,0.1-1.9,0.2l-0.2,0.1l-1.3-0.3l0.3-5.7H-1773z M-1766,2225.8v-1.9h3.2v5.6c-1.2,0.2-2.5,0.3-3.7,0.4
		c-1.7,0-2.9-0.5-3.5-1.4c-0.7-1.3-1.1-2.8-1-4.3c-0.1-1.5,0.2-3,1-4.3c0.8-1,2.1-1.4,3.4-1.3c1.1,0,2.2,0.1,3.2,0.3l0.6,0.1
		l-0.1,1.7c-1-0.1-2.1-0.2-3.1-0.2c-0.6,0-1.2,0.1-1.7,0.3c-0.4,0.2-0.6,0.6-0.7,1.1c-0.2,0.9-0.3,1.8-0.2,2.7
		c-0.1,0.9,0.1,1.8,0.5,2.6c0.5,0.6,1.2,0.9,1.9,0.8l1.3-0.1v-2.1H-1766z M-1750.8,2218.2v11.5h-1.2v-0.5c-0.7,0.4-1.6,0.7-2.4,0.7
		c-0.4,0-0.8,0-1.1-0.2c-0.3-0.1-0.6-0.3-0.9-0.6c-0.7-0.9-1-2.1-0.9-3.2c-0.1-1.2,0.2-2.3,0.8-3.4c0.6-0.7,1.6-1.1,2.6-1
		c0.7,0,1.3,0.1,2,0.2v-3.5L-1750.8,2218.2z M-1755.5,2228.2c0.1,0.2,0.3,0.3,0.5,0.4c0.2,0.1,0.5,0.1,0.7,0.1c0.3,0,0.7-0.1,1-0.2
		c0.3-0.1,0.6-0.2,0.9-0.3l0.3-0.1v-5.4c-0.6-0.1-1.3-0.2-1.9-0.2c-0.7-0.1-1.3,0.2-1.7,0.8c-0.4,0.7-0.5,1.6-0.5,2.4
		C-1756.2,2226.6-1756,2227.5-1755.5,2228.2z M-1748.4,2229.7v-8h1.2v8H-1748.4z M-1748.4,2219.9v-1.4h1.2v1.4H-1748.4z
		 M-1736.8,2226h-2.8v3.7h-1.2v-11.1h4c1-0.1,1.9,0.2,2.7,0.9c0.6,0.7,0.9,1.7,0.9,2.7C-1733.2,2224.7-1734.4,2226-1736.8,2226z
		 M-1739.6,2224.9h2.8c1.5,0,2.3-0.9,2.3-2.7c0.1-0.7-0.1-1.3-0.5-1.9c-0.5-0.4-1.1-0.7-1.7-0.6h-2.8V2224.9z M-1726.4,2221.7h1.2v8
		h-1.2v-0.6c-0.7,0.5-1.5,0.7-2.4,0.7c-0.8,0.1-1.6-0.2-2.2-0.8c-0.4-1-0.6-2.1-0.5-3.1v-4.2h1.2v4.2c-0.1,0.8,0,1.6,0.3,2.3
		c0.2,0.4,0.7,0.6,1.4,0.6c0.4,0,0.7-0.1,1.1-0.2c0.3-0.1,0.6-0.2,0.8-0.3l0.3-0.1L-1726.4,2221.7z M-1718.6,2222.7h-2.5v3.8
		c0,0.6,0,1.2,0.2,1.8c0.1,0.3,0.5,0.4,1,0.4l1.4-0.1l0.1,1c-0.5,0.1-1.1,0.2-1.6,0.2c-0.6,0.1-1.3-0.2-1.7-0.6
		c-0.4-0.7-0.6-1.5-0.5-2.3v-4.2h-1.1v-1h1.1v-2.4h1.2v2.4h2.5V2222.7z M-1716.9,2229.7v-8h1.2v1.1c0.9-0.6,1.9-1,2.9-1.3v1.2
		c-0.5,0.1-0.9,0.2-1.4,0.4c-0.4,0.1-0.8,0.3-1.1,0.5l-0.4,0.2v5.9H-1716.9z M-1705.6,2224.1v4.1c0,0.4,0.3,0.6,0.9,0.7l0,0.9
		c-0.7,0.1-1.4-0.2-1.9-0.6c-0.9,0.4-1.9,0.6-2.9,0.6c-0.6,0-1.2-0.2-1.7-0.6c-0.4-0.5-0.6-1.1-0.6-1.8c-0.1-0.6,0.2-1.3,0.6-1.7
		c0.5-0.4,1.2-0.7,1.9-0.7l2.5-0.2v-0.7c0-0.4-0.1-0.8-0.4-1.2c-0.3-0.2-0.6-0.4-1-0.4c-0.9,0-1.8,0.1-2.7,0.2l-0.5,0l0-0.9
		c1-0.2,2.1-0.3,3.1-0.4c0.7-0.1,1.4,0.2,2,0.6C-1705.8,2222.7-1705.5,2223.4-1705.6,2224.1z M-1710.5,2227.4c0,1,0.4,1.5,1.2,1.5
		c0.7,0,1.5-0.1,2.1-0.4l0.4-0.1v-2.6l-2.4,0.2c-0.4,0-0.8,0.2-1,0.4C-1710.4,2226.6-1710.5,2227-1710.5,2227.4z M-1703.1,2229.5
		v-7.8h1.2v7.8c0.1,0.8-0.1,1.5-0.5,2.2c-0.6,0.7-1.3,1.2-2.1,1.6l-0.5-0.9c0.6-0.3,1.2-0.7,1.6-1.2
		C-1703.1,2230.6-1703,2230-1703.1,2229.5z M-1703.1,2219.9v-1.4h1.2v1.4H-1703.1z M-1693.8,2224.1v4.1c0,0.4,0.3,0.6,0.9,0.7l0,0.9
		c-0.7,0.1-1.4-0.2-1.9-0.6c-0.9,0.4-1.9,0.6-2.9,0.6c-0.6,0-1.2-0.2-1.7-0.6c-0.4-0.5-0.6-1.1-0.6-1.8c-0.1-0.6,0.2-1.3,0.6-1.7
		c0.5-0.4,1.2-0.7,1.9-0.7l2.5-0.2v-0.7c0-0.4-0.1-0.8-0.4-1.2c-0.3-0.2-0.6-0.4-1-0.4c-0.9,0-1.8,0.1-2.7,0.2l-0.5,0l0-0.9
		c1-0.2,2.1-0.3,3.1-0.4c0.7-0.1,1.4,0.2,2,0.6C-1693.9,2222.7-1693.7,2223.4-1693.8,2224.1z M-1698.7,2227.4c0,1,0.4,1.5,1.2,1.5
		c0.7,0,1.5-0.1,2.1-0.4l0.4-0.1v-2.6l-2.4,0.2c-0.4,0-0.8,0.2-1,0.4C-1698.6,2226.6-1698.7,2227-1698.7,2227.4z M-1692.1,2221.7
		h1.2l2,7h0.5l2-7h1.2l-3.3,11.6h-1.2l1-3.6h-1.2L-1692.1,2221.7z M-1677.9,2224.1v4.1c0,0.4,0.3,0.6,0.9,0.7l0,0.9
		c-0.7,0.1-1.4-0.2-1.9-0.6c-0.9,0.4-1.9,0.6-2.9,0.6c-0.6,0-1.2-0.2-1.7-0.6c-0.4-0.5-0.6-1.1-0.6-1.8c-0.1-0.6,0.2-1.3,0.6-1.7
		c0.5-0.4,1.2-0.7,1.9-0.7l2.5-0.2v-0.7c0-0.4-0.1-0.8-0.4-1.2c-0.3-0.2-0.6-0.4-1-0.4c-0.9,0-1.8,0.1-2.7,0.2l-0.5,0l0-0.9
		c1-0.2,2.1-0.3,3.1-0.4c0.7-0.1,1.4,0.2,2,0.6C-1678.1,2222.7-1677.8,2223.4-1677.9,2224.1z M-1682.8,2227.4c0,1,0.4,1.5,1.2,1.5
		c0.7,0,1.5-0.1,2.1-0.4l0.4-0.1v-2.6l-2.4,0.2c-0.4,0-0.8,0.2-1,0.4C-1682.7,2226.6-1682.9,2227-1682.8,2227.4z M-1676,2231.7
		l0.7-3.7h1.3l-1.1,3.7H-1676z M-1829.7,2250.5c-1,0.2-2,0.3-3,0.3c-0.7,0-1.4-0.1-2.1-0.4c-0.5-0.2-1-0.6-1.2-1.1
		c-0.3-0.5-0.5-1.1-0.6-1.7c-0.1-0.8-0.2-1.6-0.2-2.5c0-0.8,0-1.7,0.2-2.5c0.1-0.6,0.3-1.2,0.6-1.8c0.3-0.5,0.7-0.9,1.2-1.1
		c0.7-0.3,1.4-0.4,2.1-0.4c1,0,2,0.1,3,0.4l0,1c-0.9-0.2-1.9-0.3-2.9-0.3c-0.9-0.1-1.8,0.3-2.3,1c-0.5,1.1-0.7,2.4-0.6,3.6
		c0,0.7,0,1.4,0.1,2c0.1,0.5,0.2,0.9,0.4,1.4c0.2,0.4,0.5,0.7,0.9,0.9c0.5,0.2,1.1,0.3,1.7,0.3c0.9,0,1.8-0.1,2.7-0.3
		L-1829.7,2250.5z M-1828.7,2242.7h1.2l2,7h0.5l2-7h1.2l-3.3,11.6h-1.2l1-3.6h-1.2L-1828.7,2242.7z M-1816.6,2242.5
		c0.9-0.1,1.7,0.3,2.3,0.9c0.5,1,0.7,2.1,0.6,3.2c0.1,1.1-0.2,2.3-0.8,3.2c-0.8,0.7-1.9,1.1-3,0.9c-0.4,0-1.2,0-2.2-0.1l-0.4,0
		v-11.5h1.2v3.9C-1818.2,2242.7-1817.4,2242.5-1816.6,2242.5z M-1817.4,2249.8c0.8,0.1,1.5-0.2,2.1-0.7c0.4-0.7,0.6-1.6,0.5-2.4
		c0.1-0.8-0.1-1.6-0.4-2.4c-0.3-0.5-0.9-0.7-1.4-0.7c-0.6,0-1.3,0.1-1.9,0.4l-0.3,0.1v5.6
		C-1818.2,2249.8-1817.7,2249.8-1817.4,2249.8z M-1806.1,2249.7l0.5,0l0,0.9c-1,0.2-2.1,0.2-3.1,0.3c-0.9,0.1-1.8-0.3-2.4-1
		c-0.6-0.9-0.8-2-0.7-3.1c0-2.8,1.1-4.2,3.3-4.2c0.9-0.1,1.8,0.3,2.4,0.9c0.6,0.8,0.9,1.8,0.8,2.8l-0.1,0.9h-5.3
		c-0.1,0.7,0.1,1.4,0.5,2c0.4,0.5,1,0.7,1.7,0.6C-1807.7,2249.8-1806.9,2249.8-1806.1,2249.7z M-1806.5,2246.2
		c0.1-0.7-0.1-1.5-0.5-2.1c-0.4-0.4-1-0.7-1.5-0.6c-0.6,0-1.2,0.2-1.6,0.6c-0.4,0.6-0.6,1.3-0.6,2H-1806.5z M-1803.3,2250.7v-8h1.2
		v1.1c0.9-0.6,1.9-1,2.9-1.3v1.2c-0.5,0.1-0.9,0.2-1.4,0.4c-0.4,0.1-0.8,0.3-1.1,0.5l-0.4,0.2v5.9H-1803.3z M-1797.6,2250.5v-7.8
		h1.2v7.8c0.1,0.8-0.1,1.5-0.5,2.2c-0.6,0.7-1.3,1.2-2.1,1.6l-0.5-0.9c0.6-0.3,1.2-0.7,1.6-1.2
		C-1797.6,2251.6-1797.5,2251-1797.6,2250.5z M-1797.6,2240.9v-1.4h1.2v1.4H-1797.6z M-1788.3,2245.1v4.1c0,0.4,0.3,0.6,0.9,0.7
		l0,0.9c-0.7,0.1-1.4-0.2-1.9-0.6c-0.9,0.4-1.9,0.6-2.9,0.6c-0.6,0-1.2-0.2-1.7-0.6c-0.4-0.5-0.6-1.1-0.6-1.8
		c-0.1-0.6,0.2-1.3,0.6-1.7c0.5-0.4,1.2-0.7,1.9-0.7l2.5-0.2v-0.7c0-0.4-0.1-0.8-0.4-1.2c-0.3-0.2-0.6-0.4-1-0.4
		c-0.9,0-1.8,0.1-2.7,0.2l-0.5,0l0-0.9c1-0.2,2.1-0.3,3.1-0.4c0.7-0.1,1.4,0.2,2,0.6C-1788.4,2243.7-1788.2,2244.4-1788.3,2245.1
		L-1788.3,2245.1z M-1793.2,2248.4c0,1,0.4,1.5,1.2,1.5c0.7,0,1.5-0.1,2.1-0.4l0.4-0.1v-2.6l-2.4,0.2c-0.4,0-0.8,0.2-1,0.4
		C-1793.1,2247.6-1793.2,2248-1793.2,2248.4z M-1786.6,2242.7h1.2l2,7h0.5l2-7h1.2l-3.3,11.6h-1.2l1-3.6h-1.2L-1786.6,2242.7z
		 M-1772.4,2245.1v4.1c0,0.4,0.3,0.6,0.9,0.7l0,0.9c-0.7,0.1-1.4-0.2-1.9-0.6c-0.9,0.4-1.9,0.6-2.9,0.6c-0.6,0-1.2-0.2-1.7-0.6
		c-0.4-0.5-0.6-1.1-0.6-1.8c-0.1-0.6,0.2-1.3,0.6-1.7c0.5-0.4,1.2-0.7,1.9-0.7l2.5-0.2v-0.7c0-0.4-0.1-0.8-0.4-1.2
		c-0.3-0.2-0.6-0.4-1-0.4c-0.9,0-1.8,0.1-2.7,0.2l-0.5,0l0-0.9c1-0.2,2.1-0.3,3.1-0.4c0.7-0.1,1.4,0.2,2,0.6
		C-1772.6,2243.7-1772.4,2244.4-1772.4,2245.1z M-1777.3,2248.4c0,1,0.4,1.5,1.2,1.5c0.7,0,1.5-0.1,2.1-0.4l0.4-0.1v-2.6l-2.4,0.2
		c-0.4,0-0.8,0.2-1,0.4C-1777.3,2247.6-1777.4,2248-1777.3,2248.4z M-1770.5,2252.7l0.7-3.7h1.3l-1.1,3.7H-1770.5z M-1756.3,2239.2
		v11.5h-1.2v-0.5c-0.7,0.4-1.6,0.7-2.4,0.7c-0.4,0-0.8,0-1.1-0.2c-0.3-0.1-0.6-0.3-0.9-0.6c-0.7-0.9-1-2.1-0.9-3.2
		c-0.1-1.2,0.2-2.3,0.8-3.4c0.6-0.7,1.6-1.1,2.6-1c0.7,0,1.3,0.1,2,0.2v-3.5H-1756.3z M-1761.1,2249.2c0.1,0.2,0.3,0.3,0.5,0.4
		c0.2,0.1,0.5,0.1,0.7,0.1c0.3,0,0.7-0.1,1-0.2c0.3-0.1,0.6-0.2,0.9-0.3l0.3-0.1v-5.4c-0.6-0.1-1.3-0.2-1.9-0.2
		c-0.7-0.1-1.3,0.2-1.7,0.8c-0.4,0.7-0.5,1.6-0.5,2.4C-1761.7,2247.6-1761.5,2248.5-1761.1,2249.2z M-1748.2,2245.1v4.1
		c0,0.4,0.3,0.6,0.9,0.7l0,0.9c-0.7,0.1-1.4-0.2-1.9-0.6c-0.9,0.4-1.9,0.6-2.9,0.6c-0.6,0-1.2-0.2-1.7-0.6c-0.4-0.5-0.6-1.1-0.6-1.8
		c-0.1-0.6,0.2-1.3,0.6-1.7c0.5-0.4,1.2-0.7,1.9-0.7l2.5-0.2v-0.7c0-0.4-0.1-0.8-0.4-1.2c-0.3-0.2-0.6-0.4-1-0.4
		c-0.9,0-1.8,0.1-2.7,0.2l-0.5,0l0-0.9c1-0.2,2.1-0.3,3.1-0.4c0.7-0.1,1.4,0.2,2,0.6C-1748.4,2243.7-1748.2,2244.4-1748.2,2245.1
		L-1748.2,2245.1z M-1753.1,2248.4c0,1,0.4,1.5,1.2,1.5c0.7,0,1.5-0.1,2.1-0.4l0.4-0.1v-2.6l-2.4,0.2c-0.4,0-0.8,0.2-1,0.4
		C-1753.1,2247.6-1753.2,2248-1753.1,2248.4z M-1744.5,2250.7h-1.2v-8h1.2v0.6c0.8-0.4,1.6-0.7,2.5-0.7c0.8-0.1,1.6,0.2,2.2,0.9
		c0.4,1,0.6,2,0.6,3.1v4.2h-1.2v-4.2c0.1-0.8-0.1-1.6-0.3-2.3c-0.3-0.5-0.9-0.7-1.4-0.6c-0.4,0-0.7,0.1-1.1,0.2
		c-0.3,0.1-0.6,0.2-0.9,0.3l-0.3,0.1L-1744.5,2250.7z M-1731.8,2250.7h-1.2v-11.1h1.2v5.2l1.8-0.1l2.8-5.1h1.4l-3.2,5.6l3.3,5.5
		h-1.5l-2.9-4.9l-1.8,0.1V2250.7z M-1719.2,2242.7h1.2v8h-1.2v-0.6c-0.7,0.5-1.5,0.7-2.4,0.7c-0.8,0.1-1.6-0.2-2.2-0.8
		c-0.4-1-0.6-2.1-0.5-3.1v-4.2h1.2v4.2c-0.1,0.8,0,1.6,0.3,2.3c0.2,0.4,0.7,0.6,1.4,0.6c0.4,0,0.7-0.1,1.1-0.2
		c0.3-0.1,0.6-0.2,0.8-0.3l0.3-0.1L-1719.2,2242.7z M-1709.9,2245.1v4.1c0,0.4,0.3,0.6,0.9,0.7l0,0.9c-0.7,0.1-1.4-0.2-1.9-0.6
		c-0.9,0.4-1.9,0.6-2.9,0.6c-0.6,0-1.2-0.2-1.7-0.6c-0.4-0.5-0.6-1.1-0.6-1.8c-0.1-0.6,0.2-1.3,0.6-1.7c0.5-0.4,1.2-0.7,1.9-0.7
		l2.5-0.2v-0.7c0-0.4-0.1-0.8-0.4-1.2c-0.3-0.2-0.6-0.4-1-0.4c-0.9,0-1.8,0.1-2.7,0.2l-0.5,0l0-0.9c1-0.2,2.1-0.3,3.1-0.4
		c0.7-0.1,1.4,0.2,2,0.6C-1710.1,2243.7-1709.8,2244.4-1709.9,2245.1z M-1714.8,2248.4c0,1,0.4,1.5,1.2,1.5c0.7,0,1.5-0.1,2.1-0.4
		l0.4-0.1v-2.6l-2.4,0.2c-0.4,0-0.8,0.2-1,0.4C-1714.7,2247.6-1714.8,2248-1714.8,2248.4z M-1707.3,2250.7v-11.5h1.2v11.5H-1707.3z
		 M-1697.9,2245.1v4.1c0,0.4,0.3,0.6,0.9,0.7l0,0.9c-0.7,0.1-1.4-0.2-1.9-0.6c-0.9,0.4-1.9,0.6-2.9,0.6c-0.6,0-1.2-0.2-1.7-0.6
		c-0.4-0.5-0.6-1.1-0.6-1.8c-0.1-0.6,0.2-1.3,0.6-1.7c0.5-0.4,1.2-0.7,1.9-0.7l2.5-0.2v-0.7c0-0.4-0.1-0.8-0.4-1.2
		c-0.3-0.2-0.6-0.4-1-0.4c-0.9,0-1.8,0.1-2.7,0.2l-0.5,0l0-0.9c1-0.2,2.1-0.3,3.1-0.4c0.7-0.1,1.4,0.2,2,0.6
		C-1698,2243.7-1697.8,2244.4-1697.9,2245.1z M-1702.8,2248.4c0,1,0.4,1.5,1.2,1.5c0.7,0,1.5-0.1,2.1-0.4l0.4-0.1v-2.6l-2.4,0.2
		c-0.4,0-0.8,0.2-1,0.4C-1702.7,2247.6-1702.8,2248-1702.8,2248.4z M-1830.3,2271.7h-6.1v-11.1h1.2v10h4.9V2271.7z M-1823.9,2263.7
		h1.2v8h-1.2v-0.6c-0.7,0.5-1.5,0.7-2.4,0.7c-0.8,0.1-1.6-0.2-2.2-0.8c-0.4-1-0.6-2.1-0.5-3.1v-4.2h1.2v4.2c-0.1,0.8,0,1.6,0.3,2.3
		c0.2,0.4,0.7,0.6,1.4,0.6c0.4,0,0.7-0.1,1.1-0.2c0.3-0.1,0.6-0.2,0.8-0.3l0.3-0.1L-1823.9,2263.7z M-1819,2271.7h-1.2v-8h1.2v0.6
		c0.7-0.4,1.5-0.7,2.3-0.7c0.8-0.1,1.6,0.2,2.1,0.8c0.4-0.2,0.9-0.4,1.4-0.6c0.5-0.2,1-0.2,1.5-0.2c0.8-0.1,1.6,0.2,2.2,0.9
		c0.4,1,0.6,2,0.6,3.1v4.2h-1.2v-4.2c0.1-0.8-0.1-1.6-0.3-2.3c-0.3-0.5-0.8-0.7-1.4-0.6c-0.4,0-0.7,0.1-1.1,0.2
		c-0.3,0.1-0.6,0.2-0.9,0.3l-0.3,0.1c0.2,0.8,0.3,1.6,0.2,2.3v4.2h-1.2v-4.1c0.1-0.8-0.1-1.6-0.3-2.3c-0.3-0.5-0.8-0.7-1.4-0.6
		c-0.4,0-0.7,0.1-1,0.2c-0.3,0.1-0.6,0.2-0.8,0.3l-0.3,0.1V2271.7z M-1806.7,2275.2v-11.6h1.2v0.6c0.7-0.5,1.5-0.7,2.4-0.7
		c0.9-0.1,1.7,0.3,2.2,1c0.5,1,0.8,2.1,0.7,3.2c0.1,1.1-0.2,2.2-0.8,3.2c-0.7,0.7-1.7,1.1-2.7,1c-0.6,0-1.2-0.1-1.8-0.2v3.6H-1806.7
		z M-1803.2,2264.6c-0.3,0-0.7,0.1-1,0.2c-0.3,0.1-0.6,0.2-0.9,0.3l-0.3,0.2v5.4c0.6,0.1,1.1,0.2,1.7,0.2c0.7,0.1,1.4-0.2,1.8-0.7
		c0.4-0.7,0.6-1.6,0.5-2.4c0.1-0.8-0.1-1.6-0.5-2.4C-1802.2,2264.8-1802.7,2264.6-1803.2,2264.6z M-1793.1,2263.7h1.2v8h-1.2v-0.6
		c-0.7,0.5-1.5,0.7-2.4,0.7c-0.8,0.1-1.6-0.2-2.2-0.8c-0.4-1-0.6-2.1-0.5-3.1v-4.2h1.2v4.2c-0.1,0.8,0,1.6,0.3,2.3
		c0.2,0.4,0.7,0.6,1.4,0.6c0.4,0,0.7-0.1,1.1-0.2c0.3-0.1,0.6-0.2,0.8-0.3l0.3-0.1L-1793.1,2263.7z M-1789.4,2271.7v-8h1.2v1.1
		c0.9-0.6,1.9-1,2.9-1.3v1.2c-0.5,0.1-0.9,0.2-1.4,0.4c-0.4,0.1-0.8,0.3-1.1,0.5l-0.4,0.2v5.9H-1789.4z"/>
	<path class="st0" d="M-1401.6,2221v-2h6.8v2.5l-3.8,8.3l-2.1-0.6l3.6-7.7v-0.5L-1401.6,2221z M-1392.2,2220.2
		c0.8-0.9,1.9-1.4,3.1-1.3c1.2-0.1,2.3,0.4,3.1,1.3c0.8,1.3,1.2,2.7,1,4.2c0.1,1.5-0.2,2.9-1,4.2c-0.8,0.9-1.9,1.3-3.1,1.3
		c-1.2,0.1-2.3-0.4-3.1-1.3c-0.8-1.2-1.2-2.7-1-4.2C-1393.3,2222.9-1393,2221.4-1392.2,2220.2L-1392.2,2220.2z M-1387.3,2224.3
		c0.1-0.9-0.1-1.9-0.4-2.8c-0.3-0.5-0.8-0.8-1.4-0.8c-0.6,0-1.1,0.3-1.4,0.8c-0.3,0.9-0.5,1.8-0.4,2.8c-0.1,0.9,0.1,1.9,0.4,2.8
		c0.3,0.5,0.8,0.8,1.4,0.8c0.6,0,1.1-0.3,1.4-0.8C-1387.4,2226.2-1387.2,2225.3-1387.3,2224.3z M-1382.5,2229.7l3.8-11.3l1.2,0.4
		l-3.8,11.3L-1382.5,2229.7z M-1384.2,2221.2c0-1.6,0.6-2.3,1.9-2.3c1.3,0,1.9,0.8,1.9,2.3c0,1.6-0.6,2.3-1.9,2.3
		S-1384.2,2222.7-1384.2,2221.2z M-1382.6,2220.4c-0.1,0.3-0.1,0.5-0.1,0.8c0,0.3,0,0.5,0.1,0.8c0,0.1,0.1,0.2,0.3,0.2
		c0.1,0,0.3-0.1,0.3-0.2c0.1-0.3,0.1-0.5,0.1-0.8c0-0.3,0-0.5-0.1-0.8c0-0.1-0.1-0.2-0.3-0.2
		C-1382.5,2220.1-1382.6,2220.2-1382.6,2220.4z M-1379.6,2227.5c0-1.6,0.6-2.3,1.9-2.3c1.3,0,1.9,0.8,1.9,2.3s-0.6,2.3-1.9,2.3
		C-1378.9,2229.8-1379.6,2229-1379.6,2227.5L-1379.6,2227.5z M-1377.9,2226.7c-0.1,0.3-0.1,0.5-0.1,0.8c0,0.3,0,0.5,0.1,0.8
		c0,0.1,0.1,0.2,0.3,0.2c0.1,0,0.3-0.1,0.3-0.2c0.1-0.3,0.1-0.5,0.1-0.8c0-0.3,0-0.5-0.1-0.8c0-0.1-0.1-0.2-0.3-0.2
		C-1377.8,2226.4-1377.9,2226.5-1377.9,2226.7L-1377.9,2226.7z M-1401.5,2250.7v-11.5h1.2v11.5H-1401.5z M-1397.7,2250.7v-8h1.2v8
		H-1397.7z M-1397.7,2240.9v-1.4h1.2v1.4H-1397.7z M-1394.1,2254.2v-11.6h1.2v0.6c0.7-0.5,1.5-0.7,2.4-0.7c0.9-0.1,1.7,0.3,2.2,1
		c0.5,1,0.8,2.1,0.7,3.2c0.1,1.1-0.2,2.2-0.8,3.2c-0.7,0.7-1.7,1.1-2.7,1c-0.6,0-1.2-0.1-1.8-0.2v3.6H-1394.1z M-1390.7,2243.6
		c-0.3,0-0.7,0.1-1,0.2c-0.3,0.1-0.6,0.2-0.9,0.3l-0.3,0.2v5.4c0.6,0.1,1.1,0.2,1.7,0.2c0.7,0.1,1.4-0.2,1.8-0.7
		c0.4-0.7,0.6-1.6,0.5-2.4c0.1-0.8-0.1-1.6-0.5-2.4C-1389.6,2243.8-1390.1,2243.6-1390.7,2243.6z M-1380.5,2242.7h1.2v8h-1.2v-0.6
		c-0.7,0.5-1.5,0.7-2.4,0.7c-0.8,0.1-1.6-0.2-2.2-0.8c-0.4-1-0.6-2.1-0.5-3.1v-4.2h1.2v4.2c-0.1,0.8,0,1.6,0.3,2.3
		c0.2,0.4,0.7,0.6,1.4,0.6c0.4,0,0.7-0.1,1.1-0.2c0.3-0.1,0.6-0.2,0.8-0.3l0.3-0.1L-1380.5,2242.7z M-1372.7,2243.7h-2.5v3.8
		c0,0.6,0,1.2,0.2,1.8c0.1,0.3,0.5,0.4,1,0.4l1.4-0.1l0.1,1c-0.5,0.1-1.1,0.2-1.6,0.2c-0.6,0.1-1.3-0.2-1.7-0.6
		c-0.4-0.7-0.6-1.5-0.5-2.3v-4.2h-1.1v-1h1.1v-2.4h1.2v2.4h2.5V2243.7z M-1365.4,2245.1v4.1c0,0.4,0.3,0.6,0.9,0.7l0,0.9
		c-0.7,0.1-1.4-0.2-1.9-0.6c-0.9,0.4-1.9,0.6-2.9,0.6c-0.6,0-1.2-0.2-1.7-0.6c-0.4-0.5-0.6-1.1-0.6-1.8c-0.1-0.6,0.2-1.3,0.6-1.7
		c0.5-0.4,1.2-0.7,1.9-0.7l2.5-0.2v-0.7c0-0.4-0.1-0.8-0.4-1.2c-0.3-0.2-0.6-0.4-1-0.4c-0.9,0-1.8,0.1-2.7,0.2l-0.5,0l0-0.9
		c1-0.2,2.1-0.3,3.1-0.4c0.7-0.1,1.4,0.2,2,0.6C-1365.6,2243.7-1365.3,2244.4-1365.4,2245.1z M-1370.3,2248.4c0,1,0.4,1.5,1.2,1.5
		c0.7,0,1.5-0.1,2.1-0.4l0.4-0.1v-2.6l-2.4,0.2c-0.4,0-0.8,0.2-1,0.4C-1370.2,2247.6-1370.4,2248-1370.3,2248.4z M-1361.7,2250.7
		h-1.2v-8h1.2v0.6c0.8-0.4,1.6-0.7,2.5-0.7c0.8-0.1,1.6,0.2,2.2,0.9c0.4,1,0.6,2,0.6,3.1v4.2h-1.2v-4.2c0.1-0.8-0.1-1.6-0.3-2.3
		c-0.3-0.5-0.9-0.7-1.4-0.6c-0.4,0-0.7,0.1-1.1,0.2c-0.3,0.1-0.6,0.2-0.9,0.3l-0.3,0.1L-1361.7,2250.7z M-1399.1,2264.6
		c-1.2,0-1.7,0.4-1.7,1.2c0,0.3,0.1,0.6,0.4,0.8c0.6,0.2,1.2,0.4,1.8,0.5c0.7,0.1,1.4,0.3,2,0.7c0.4,0.4,0.7,1.1,0.6,1.7
		c0.1,0.7-0.2,1.4-0.8,1.8c-0.7,0.4-1.5,0.6-2.3,0.6c-0.8,0-1.6-0.1-2.3-0.2l-0.5-0.1l0.1-1c0.9,0.2,1.8,0.2,2.8,0.3
		c0.5,0,1-0.1,1.4-0.3c0.3-0.2,0.5-0.6,0.5-1c0-0.4-0.1-0.7-0.4-0.9c-0.6-0.2-1.2-0.4-1.8-0.5c-0.7-0.1-1.4-0.3-2-0.7
		c-0.4-0.4-0.7-1-0.6-1.6c0-0.7,0.3-1.3,0.8-1.7c0.6-0.4,1.3-0.6,2.1-0.6c0.8,0,1.6,0.1,2.4,0.2l0.4,0.1l0,1
		C-1397.2,2264.7-1398.1,2264.6-1399.1,2264.6z M-1388.6,2270.7l0.5,0l0,0.9c-1,0.2-2.1,0.2-3.1,0.3c-0.9,0.1-1.8-0.3-2.4-1
		c-0.6-0.9-0.8-2-0.7-3.1c0-2.8,1.1-4.2,3.3-4.2c0.9-0.1,1.8,0.3,2.4,0.9c0.6,0.8,0.9,1.8,0.8,2.8l-0.1,0.9h-5.3
		c-0.1,0.7,0.1,1.4,0.5,2c0.4,0.5,1,0.7,1.7,0.6C-1390.2,2270.8-1389.4,2270.8-1388.6,2270.7L-1388.6,2270.7z M-1389,2267.2
		c0.1-0.7-0.1-1.5-0.5-2.1c-0.4-0.4-1-0.7-1.5-0.6c-0.6,0-1.2,0.2-1.6,0.6c-0.4,0.6-0.6,1.3-0.6,2L-1389,2267.2z M-1385.7,2271.7
		v-11.5h1.2v11.5H-1385.7z M-1376.9,2263.7h1.2v8h-1.2v-0.6c-0.7,0.5-1.5,0.7-2.4,0.7c-0.8,0.1-1.6-0.2-2.2-0.8
		c-0.4-1-0.6-2.1-0.5-3.1v-4.2h1.2v4.2c-0.1,0.8,0,1.6,0.3,2.3c0.2,0.4,0.7,0.6,1.4,0.6c0.4,0,0.7-0.1,1.1-0.2
		c0.3-0.1,0.6-0.2,0.8-0.3l0.3-0.1L-1376.9,2263.7z M-1373.2,2271.7v-8h1.2v1.1c0.9-0.6,1.9-1,2.9-1.3v1.2c-0.5,0.1-0.9,0.2-1.4,0.4
		c-0.4,0.1-0.8,0.3-1.1,0.5l-0.4,0.2v5.9H-1373.2z M-1362.6,2263.7h1.2v8h-1.2v-0.6c-0.7,0.5-1.5,0.7-2.4,0.7
		c-0.8,0.1-1.6-0.2-2.2-0.8c-0.4-1-0.6-2.1-0.5-3.1v-4.2h1.2v4.2c-0.1,0.8,0,1.6,0.3,2.3c0.2,0.4,0.7,0.6,1.4,0.6
		c0.4,0,0.7-0.1,1.1-0.2c0.3-0.1,0.6-0.2,0.8-0.3l0.3-0.1L-1362.6,2263.7z M-1357.7,2271.7h-1.2v-11.5h1.2v3.9
		c0.8-0.4,1.6-0.6,2.5-0.6c0.8-0.1,1.6,0.2,2.2,0.9c0.4,1,0.6,2,0.6,3.1v4.2h-1.2v-4.2c0.1-0.8-0.1-1.6-0.3-2.3
		c-0.3-0.5-0.8-0.7-1.4-0.6c-0.7,0-1.3,0.1-2,0.4l-0.3,0.1L-1357.7,2271.7z M-1345.3,2271.7h-1.2v-8h1.2v0.6
		c0.8-0.4,1.6-0.7,2.5-0.7c0.8-0.1,1.6,0.2,2.2,0.9c0.4,1,0.6,2,0.6,3.1v4.2h-1.2v-4.2c0.1-0.8-0.1-1.6-0.3-2.3
		c-0.3-0.5-0.9-0.7-1.4-0.6c-0.4,0-0.7,0.1-1.1,0.2c-0.3,0.1-0.6,0.2-0.9,0.3l-0.3,0.1L-1345.3,2271.7z M-1332.3,2270.7l0.5,0l0,0.9
		c-1,0.2-2.1,0.2-3.1,0.3c-0.9,0.1-1.8-0.3-2.4-1c-0.6-0.9-0.8-2-0.7-3.1c0-2.8,1.1-4.2,3.3-4.2c0.9-0.1,1.8,0.3,2.4,0.9
		c0.6,0.8,0.9,1.8,0.8,2.8l-0.1,0.9h-5.3c-0.1,0.7,0.1,1.4,0.5,2c0.4,0.5,1,0.7,1.7,0.6C-1333.9,2270.8-1333.1,2270.8-1332.3,2270.7
		L-1332.3,2270.7z M-1332.7,2267.2c0.1-0.7-0.1-1.5-0.5-2.1c-0.4-0.4-1-0.7-1.5-0.6c-0.6,0-1.2,0.2-1.6,0.6c-0.4,0.6-0.6,1.3-0.6,2
		H-1332.7z M-1326.4,2275.4c-0.9,0.1-1.9-0.1-2.7-0.5c-0.6-0.5-0.8-1.2-0.8-1.9c0-0.4,0.1-0.7,0.3-1.1c0.3-0.4,0.6-0.7,1-0.9
		c-0.3-0.3-0.5-0.7-0.4-1.1c0.1-0.4,0.2-0.7,0.4-1l0.1-0.3c-0.9-0.5-1.4-1.4-1.3-2.4c0-1.8,1-2.7,3-2.7c0.5,0,1,0,1.4,0.2l0.2,0
		l2.4-0.1v1l-1.5,0c0.4,0.4,0.6,1,0.5,1.6c0.1,0.8-0.2,1.5-0.7,2.1c-0.7,0.5-1.5,0.7-2.3,0.6c-0.3,0-0.5,0-0.8-0.1
		c-0.1,0.3-0.2,0.6-0.3,0.9c0,0.3,0.1,0.5,0.3,0.6c0.6,0.1,1.2,0.2,1.8,0.1c0.8-0.1,1.5,0.1,2.2,0.5c0.5,0.5,0.8,1.2,0.7,1.9
		C-1322.8,2274.6-1324,2275.4-1326.4,2275.4L-1326.4,2275.4z M-1328.6,2272.9c-0.1,0.4,0.1,0.9,0.5,1.2c0.5,0.3,1.1,0.4,1.7,0.3
		c0.6,0,1.3-0.1,1.8-0.4c0.4-0.3,0.6-0.7,0.6-1.2c0-0.5-0.1-0.9-0.4-1.1c-0.5-0.2-1-0.3-1.6-0.2l-1.7-0.1c-0.3,0.2-0.5,0.4-0.7,0.7
		C-1328.6,2272.4-1328.6,2272.7-1328.6,2272.9L-1328.6,2272.9z M-1328.5,2266.3c0,0.5,0.1,1,0.4,1.3c0.4,0.3,0.9,0.4,1.4,0.4
		c0.5,0,1-0.1,1.4-0.4c0.6-0.8,0.6-1.9,0-2.7c-0.9-0.5-1.9-0.5-2.8,0C-1328.4,2265.3-1328.6,2265.8-1328.5,2266.3L-1328.5,2266.3z
		 M-1315.4,2266.1v4.1c0,0.4,0.3,0.6,0.9,0.7l0,0.9c-0.7,0.1-1.4-0.2-1.9-0.6c-0.9,0.4-1.9,0.6-2.9,0.6c-0.6,0-1.2-0.2-1.7-0.6
		c-0.4-0.5-0.6-1.1-0.6-1.8c-0.1-0.6,0.2-1.3,0.6-1.7c0.5-0.4,1.2-0.7,1.9-0.7l2.5-0.2v-0.7c0-0.4-0.1-0.8-0.4-1.2
		c-0.3-0.2-0.6-0.4-1-0.4c-0.9,0-1.8,0.1-2.7,0.2l-0.5,0l0-0.9c1-0.2,2.1-0.3,3.1-0.4c1.2-0.2,2.4,0.6,2.6,1.8
		C-1315.4,2265.6-1315.4,2265.8-1315.4,2266.1L-1315.4,2266.1z M-1320.4,2269.4c0,1,0.4,1.5,1.2,1.5c0.7,0,1.5-0.1,2.1-0.4l0.4-0.1
		v-2.6l-2.4,0.2c-0.4,0-0.8,0.2-1,0.4C-1320.3,2268.6-1320.4,2269-1320.4,2269.4z M-1312.9,2271.7v-8h1.2v1.1c0.9-0.6,1.9-1,2.9-1.3
		v1.2c-0.5,0.1-0.9,0.2-1.4,0.4c-0.4,0.1-0.8,0.3-1.1,0.5l-0.4,0.2v5.9H-1312.9z M-1301.6,2266.1v4.1c0,0.4,0.3,0.6,0.9,0.7l0,0.9
		c-0.7,0.1-1.4-0.2-1.9-0.6c-0.9,0.4-1.9,0.6-2.9,0.6c-0.6,0-1.2-0.2-1.7-0.6c-0.4-0.5-0.6-1.1-0.6-1.8c-0.1-0.6,0.2-1.3,0.6-1.7
		c0.5-0.4,1.2-0.7,1.9-0.7l2.5-0.2v-0.7c0-0.4-0.1-0.8-0.4-1.2c-0.3-0.2-0.6-0.4-1-0.4c-0.9,0-1.8,0.1-2.7,0.2l-0.5,0l0-0.9
		c1-0.2,2.1-0.3,3.1-0.4c1.2-0.2,2.4,0.6,2.6,1.8C-1301.5,2265.6-1301.5,2265.8-1301.6,2266.1L-1301.6,2266.1z M-1306.5,2269.4
		c0,1,0.4,1.5,1.2,1.5c0.7,0,1.5-0.1,2.1-0.4l0.4-0.1v-2.6l-2.4,0.2c-0.4,0-0.8,0.2-1,0.4C-1306.4,2268.6-1306.5,2269-1306.5,2269.4
		z"/>
	<path class="st0" d="M-1183.1,2219.7c0.8-0.5,1.8-0.8,2.8-0.8c1,0,2,0.2,2.8,0.8c0.7,0.5,1.1,1.3,1.1,2.1c0,0.5-0.1,0.9-0.2,1.4
		c-0.2,0.4-0.5,0.8-0.9,1c0.4,0.3,0.7,0.7,1,1.1c0.2,0.5,0.3,1,0.3,1.5c0.1,0.9-0.4,1.8-1.1,2.3c-0.9,0.5-1.9,0.8-2.9,0.7
		c-2.7,0-4-1-4-2.9c0-0.5,0.1-1.1,0.3-1.6c0.3-0.4,0.6-0.8,1-1.2c-0.4-0.3-0.7-0.6-0.9-1.1c-0.2-0.4-0.3-0.9-0.2-1.4
		C-1184.2,2221-1183.8,2220.2-1183.1,2219.7z M-1181.9,2226.5c0,0.9,0.6,1.4,1.7,1.4s1.7-0.5,1.7-1.4c0-0.6-0.4-1.1-0.9-1.2h-1.4
		C-1181.5,2225.4-1181.9,2225.9-1181.9,2226.5z M-1180.3,2220.9c-0.4,0-0.8,0.1-1.1,0.3c-0.3,0.2-0.4,0.6-0.4,1c0,0.5,0.3,1,0.8,1.2
		h1.4c0.5-0.3,0.8-0.7,0.8-1.2C-1178.8,2221.3-1179.3,2220.9-1180.3,2220.9z M-1174.2,2220.2c0.8-0.9,1.9-1.4,3.1-1.3
		c1.2-0.1,2.3,0.4,3.1,1.3c0.8,1.3,1.2,2.7,1,4.2c0.1,1.5-0.2,2.9-1,4.2c-0.8,0.9-1.9,1.3-3.1,1.3c-1.2,0.1-2.3-0.4-3.1-1.3
		c-0.8-1.2-1.2-2.7-1-4.2C-1175.4,2223-1175,2221.5-1174.2,2220.2z M-1169.3,2224.4c0.1-0.9-0.1-1.9-0.4-2.8
		c-0.3-0.5-0.8-0.8-1.4-0.8c-0.6,0-1.1,0.3-1.4,0.8c-0.3,0.9-0.5,1.8-0.4,2.8c-0.1,0.9,0.1,1.9,0.4,2.8c0.3,0.5,0.8,0.8,1.4,0.8
		c0.6,0,1.1-0.3,1.4-0.8C-1169.4,2226.3-1169.3,2225.4-1169.3,2224.4L-1169.3,2224.4z M-1164.5,2229.8l3.8-11.3l1.2,0.4l-3.8,11.3
		L-1164.5,2229.8z M-1166.3,2221.3c0-1.6,0.6-2.3,1.9-2.3s1.9,0.8,1.9,2.3c0,1.6-0.6,2.3-1.9,2.3S-1166.3,2222.8-1166.3,2221.3z
		 M-1164.7,2220.5c-0.1,0.3-0.1,0.5-0.1,0.8c0,0.3,0,0.5,0.1,0.8c0,0.1,0.1,0.2,0.3,0.2c0.1,0,0.3-0.1,0.3-0.2
		c0.1-0.3,0.1-0.5,0.1-0.8c0-0.3,0-0.5-0.1-0.8c0-0.1-0.1-0.2-0.3-0.2C-1164.5,2220.2-1164.6,2220.3-1164.7,2220.5z M-1161.6,2227.6
		c0-1.6,0.6-2.3,1.9-2.3c1.3,0,1.9,0.8,1.9,2.3s-0.6,2.3-1.9,2.3C-1161,2229.9-1161.6,2229.1-1161.6,2227.6L-1161.6,2227.6z
		 M-1160,2226.7c-0.1,0.3-0.1,0.5-0.1,0.8c0,0.3,0,0.5,0.1,0.8c0,0.1,0.1,0.2,0.3,0.2c0.1,0,0.3-0.1,0.3-0.2
		c0.1-0.3,0.1-0.5,0.1-0.8c0-0.3,0-0.5-0.1-0.8c0-0.1-0.1-0.2-0.3-0.2C-1159.8,2226.5-1160,2226.6-1160,2226.7L-1160,2226.7z
		 M-1183.5,2250.7v-11.5h1.2v11.5H-1183.5z M-1179.7,2250.7v-8h1.2v8H-1179.7z M-1179.7,2240.9v-1.4h1.2v1.4H-1179.7z
		 M-1176.1,2254.2v-11.6h1.2v0.6c0.7-0.5,1.5-0.7,2.4-0.7c0.9-0.1,1.7,0.3,2.2,1c0.5,1,0.8,2.1,0.7,3.2c0.1,1.1-0.2,2.2-0.8,3.2
		c-0.7,0.7-1.7,1.1-2.7,1c-0.6,0-1.2-0.1-1.8-0.2v3.6H-1176.1z M-1172.7,2243.6c-0.3,0-0.7,0.1-1,0.2c-0.3,0.1-0.6,0.2-0.9,0.3
		l-0.3,0.2v5.4c0.6,0.1,1.1,0.2,1.7,0.2c0.7,0.1,1.4-0.2,1.8-0.7c0.4-0.7,0.6-1.6,0.5-2.4c0.1-0.8-0.1-1.6-0.5-2.4
		C-1171.6,2243.8-1172.1,2243.6-1172.7,2243.6z M-1162.5,2242.7h1.2v8h-1.2v-0.6c-0.7,0.5-1.5,0.7-2.4,0.7c-0.8,0.1-1.6-0.2-2.2-0.8
		c-0.4-1-0.6-2.1-0.5-3.1v-4.2h1.2v4.2c-0.1,0.8,0,1.6,0.3,2.3c0.2,0.4,0.7,0.6,1.4,0.6c0.4,0,0.7-0.1,1.1-0.2
		c0.3-0.1,0.6-0.2,0.8-0.3l0.3-0.1L-1162.5,2242.7z M-1154.7,2243.7h-2.5v3.8c0,0.6,0,1.2,0.2,1.8c0.1,0.3,0.5,0.4,1,0.4l1.4-0.1
		l0.1,1c-0.5,0.1-1.1,0.2-1.6,0.2c-0.6,0.1-1.3-0.2-1.7-0.6c-0.4-0.7-0.6-1.5-0.5-2.3v-4.2h-1.1v-1h1.1v-2.4h1.2v2.4h2.5V2243.7z
		 M-1147.4,2245.1v4.1c0,0.4,0.3,0.6,0.9,0.7l0,0.9c-0.7,0.1-1.4-0.2-1.9-0.6c-0.9,0.4-1.9,0.6-2.9,0.6c-0.6,0-1.2-0.2-1.7-0.6
		c-0.4-0.5-0.6-1.1-0.6-1.8c-0.1-0.6,0.2-1.3,0.6-1.7c0.5-0.4,1.2-0.7,1.9-0.7l2.5-0.2v-0.7c0-0.4-0.1-0.8-0.4-1.2
		c-0.3-0.2-0.6-0.4-1-0.4c-0.9,0-1.8,0.1-2.7,0.2l-0.5,0l0-0.9c1-0.2,2.1-0.3,3.1-0.4c0.7-0.1,1.4,0.2,2,0.6
		C-1147.6,2243.7-1147.3,2244.4-1147.4,2245.1z M-1152.3,2248.4c0,1,0.4,1.5,1.2,1.5c0.7,0,1.5-0.1,2.1-0.4l0.4-0.1v-2.6l-2.4,0.2
		c-0.4,0-0.8,0.2-1,0.4C-1152.2,2247.6-1152.4,2248-1152.3,2248.4z M-1143.7,2250.7h-1.2v-8h1.2v0.6c0.8-0.4,1.6-0.7,2.5-0.7
		c0.8-0.1,1.6,0.2,2.2,0.9c0.4,1,0.6,2,0.6,3.1v4.2h-1.2v-4.2c0.1-0.8-0.1-1.6-0.3-2.3c-0.3-0.5-0.9-0.7-1.4-0.6
		c-0.4,0-0.7,0.1-1.1,0.2c-0.3,0.1-0.6,0.2-0.9,0.3l-0.3,0.1L-1143.7,2250.7z M-1181.1,2264.6c-1.2,0-1.7,0.4-1.7,1.2
		c0,0.3,0.1,0.6,0.4,0.8c0.6,0.2,1.2,0.4,1.8,0.5c0.7,0.1,1.4,0.3,2,0.7c0.4,0.4,0.7,1.1,0.6,1.7c0.1,0.7-0.2,1.4-0.8,1.8
		c-0.7,0.4-1.5,0.6-2.3,0.6c-0.8,0-1.6-0.1-2.3-0.2l-0.5-0.1l0.1-1c0.9,0.2,1.8,0.2,2.8,0.3c0.5,0,1-0.1,1.4-0.3
		c0.3-0.2,0.5-0.6,0.5-1c0-0.4-0.1-0.7-0.4-0.9c-0.6-0.2-1.2-0.4-1.8-0.5c-0.7-0.1-1.4-0.3-2-0.7c-0.4-0.4-0.7-1-0.6-1.6
		c0-0.7,0.3-1.3,0.8-1.7c0.6-0.4,1.3-0.6,2.1-0.6c0.8,0,1.6,0.1,2.4,0.2l0.4,0.1l0,1C-1179.2,2264.7-1180.1,2264.6-1181.1,2264.6z
		 M-1170.6,2270.7l0.5,0l0,0.9c-1,0.2-2.1,0.2-3.1,0.3c-0.9,0.1-1.8-0.3-2.4-1c-0.6-0.9-0.8-2-0.7-3.1c0-2.8,1.1-4.2,3.3-4.2
		c0.9-0.1,1.8,0.3,2.4,0.9c0.6,0.8,0.9,1.8,0.8,2.8l-0.1,0.9h-5.3c-0.1,0.7,0.1,1.4,0.5,2c0.4,0.5,1,0.7,1.7,0.6
		C-1172.2,2270.8-1171.4,2270.8-1170.6,2270.7L-1170.6,2270.7z M-1171,2267.2c0.1-0.7-0.1-1.5-0.5-2.1c-0.4-0.4-1-0.7-1.5-0.6
		c-0.6,0-1.2,0.2-1.6,0.6c-0.4,0.6-0.6,1.3-0.6,2L-1171,2267.2z M-1167.7,2271.7v-11.5h1.2v11.5H-1167.7z M-1158.9,2263.7h1.2v8
		h-1.2v-0.6c-0.7,0.5-1.5,0.7-2.4,0.7c-0.8,0.1-1.6-0.2-2.2-0.8c-0.4-1-0.6-2.1-0.5-3.1v-4.2h1.2v4.2c-0.1,0.8,0,1.6,0.3,2.3
		c0.2,0.4,0.7,0.6,1.4,0.6c0.4,0,0.7-0.1,1.1-0.2c0.3-0.1,0.6-0.2,0.8-0.3l0.3-0.1L-1158.9,2263.7z M-1155.2,2271.7v-8h1.2v1.1
		c0.9-0.6,1.9-1,2.9-1.3v1.2c-0.5,0.1-0.9,0.2-1.4,0.4c-0.4,0.1-0.8,0.3-1.1,0.5l-0.4,0.2v5.9H-1155.2z M-1144.6,2263.7h1.2v8h-1.2
		v-0.6c-0.7,0.5-1.5,0.7-2.4,0.7c-0.8,0.1-1.6-0.2-2.2-0.8c-0.4-1-0.6-2.1-0.5-3.1v-4.2h1.2v4.2c-0.1,0.8,0,1.6,0.3,2.3
		c0.2,0.4,0.7,0.6,1.4,0.6c0.4,0,0.7-0.1,1.1-0.2c0.3-0.1,0.6-0.2,0.8-0.3l0.3-0.1L-1144.6,2263.7z M-1139.7,2271.7h-1.2v-11.5h1.2
		v3.9c0.8-0.4,1.6-0.6,2.5-0.6c0.8-0.1,1.6,0.2,2.2,0.9c0.4,1,0.6,2,0.6,3.1v4.2h-1.2v-4.2c0.1-0.8-0.1-1.6-0.3-2.3
		c-0.3-0.5-0.8-0.7-1.4-0.6c-0.7,0-1.3,0.1-2,0.4l-0.3,0.1L-1139.7,2271.7z M-1127.3,2271.7h-1.2v-8h1.2v0.6
		c0.8-0.4,1.6-0.7,2.5-0.7c0.8-0.1,1.6,0.2,2.2,0.9c0.4,1,0.6,2,0.6,3.1v4.2h-1.2v-4.2c0.1-0.8-0.1-1.6-0.3-2.3
		c-0.3-0.5-0.9-0.7-1.4-0.6c-0.4,0-0.7,0.1-1.1,0.2c-0.3,0.1-0.6,0.2-0.9,0.3l-0.3,0.1L-1127.3,2271.7z M-1114.3,2270.7l0.5,0l0,0.9
		c-1,0.2-2.1,0.2-3.1,0.3c-0.9,0.1-1.8-0.3-2.4-1c-0.6-0.9-0.8-2-0.7-3.1c0-2.8,1.1-4.2,3.3-4.2c0.9-0.1,1.8,0.3,2.4,0.9
		c0.6,0.8,0.9,1.8,0.8,2.8l-0.1,0.9h-5.3c-0.1,0.7,0.1,1.4,0.5,2c0.4,0.5,1,0.7,1.7,0.6C-1115.9,2270.8-1115.1,2270.8-1114.3,2270.7
		L-1114.3,2270.7z M-1114.7,2267.2c0.1-0.7-0.1-1.5-0.5-2.1c-0.4-0.4-1-0.7-1.5-0.6c-0.6,0-1.2,0.2-1.6,0.6c-0.4,0.6-0.6,1.3-0.6,2
		H-1114.7z M-1108.4,2275.4c-0.9,0.1-1.9-0.1-2.7-0.5c-0.6-0.5-0.8-1.2-0.8-1.9c0-0.4,0.1-0.7,0.3-1.1c0.3-0.4,0.6-0.7,1-0.9
		c-0.3-0.3-0.5-0.7-0.4-1.1c0.1-0.4,0.2-0.7,0.4-1l0.1-0.3c-0.9-0.5-1.4-1.4-1.3-2.4c0-1.8,1-2.7,3-2.7c0.5,0,1,0,1.4,0.2l0.2,0
		l2.4-0.1v1l-1.5,0c0.4,0.4,0.6,1,0.5,1.6c0.1,0.8-0.2,1.5-0.7,2.1c-0.7,0.5-1.5,0.7-2.3,0.6c-0.3,0-0.5,0-0.8-0.1
		c-0.1,0.3-0.2,0.6-0.3,0.9c0,0.3,0.1,0.5,0.3,0.6c0.6,0.1,1.2,0.2,1.8,0.1c0.8-0.1,1.5,0.1,2.2,0.5c0.5,0.5,0.8,1.2,0.7,1.9
		C-1104.8,2274.6-1106,2275.4-1108.4,2275.4L-1108.4,2275.4z M-1110.6,2272.9c-0.1,0.4,0.1,0.9,0.5,1.2c0.5,0.3,1.1,0.4,1.7,0.3
		c0.6,0,1.3-0.1,1.8-0.4c0.4-0.3,0.6-0.7,0.6-1.2c0-0.5-0.1-0.9-0.4-1.1c-0.5-0.2-1-0.3-1.6-0.2l-1.7-0.1c-0.3,0.2-0.5,0.4-0.7,0.7
		C-1110.6,2272.4-1110.6,2272.7-1110.6,2272.9L-1110.6,2272.9z M-1110.5,2266.3c0,0.5,0.1,1,0.4,1.3c0.4,0.3,0.9,0.4,1.4,0.4
		c0.5,0,1-0.1,1.4-0.4c0.6-0.8,0.6-1.9,0-2.7c-0.9-0.5-1.9-0.5-2.8,0C-1110.4,2265.3-1110.6,2265.8-1110.5,2266.3L-1110.5,2266.3z
		 M-1097.4,2266.1v4.1c0,0.4,0.3,0.6,0.9,0.7l0,0.9c-0.7,0.1-1.4-0.2-1.9-0.6c-0.9,0.4-1.9,0.6-2.9,0.6c-0.6,0-1.2-0.2-1.7-0.6
		c-0.4-0.5-0.6-1.1-0.6-1.8c-0.1-0.6,0.2-1.3,0.6-1.7c0.5-0.4,1.2-0.7,1.9-0.7l2.5-0.2v-0.7c0-0.4-0.1-0.8-0.4-1.2
		c-0.3-0.2-0.6-0.4-1-0.4c-0.9,0-1.8,0.1-2.7,0.2l-0.5,0l0-0.9c1-0.2,2.1-0.3,3.1-0.4c1.2-0.2,2.4,0.6,2.6,1.8
		C-1097.4,2265.6-1097.4,2265.8-1097.4,2266.1L-1097.4,2266.1z M-1102.4,2269.4c0,1,0.4,1.5,1.2,1.5c0.7,0,1.5-0.1,2.1-0.4l0.4-0.1
		v-2.6l-2.4,0.2c-0.4,0-0.8,0.2-1,0.4C-1102.3,2268.6-1102.4,2269-1102.4,2269.4z M-1094.9,2271.7v-8h1.2v1.1c0.9-0.6,1.9-1,2.9-1.3
		v1.2c-0.5,0.1-0.9,0.2-1.4,0.4c-0.4,0.1-0.8,0.3-1.1,0.5l-0.4,0.2v5.9H-1094.9z M-1083.6,2266.1v4.1c0,0.4,0.3,0.6,0.9,0.7l0,0.9
		c-0.7,0.1-1.4-0.2-1.9-0.6c-0.9,0.4-1.9,0.6-2.9,0.6c-0.6,0-1.2-0.2-1.7-0.6c-0.4-0.5-0.6-1.1-0.6-1.8c-0.1-0.6,0.2-1.3,0.6-1.7
		c0.5-0.4,1.2-0.7,1.9-0.7l2.5-0.2v-0.7c0-0.4-0.1-0.8-0.4-1.2c-0.3-0.2-0.6-0.4-1-0.4c-0.9,0-1.8,0.1-2.7,0.2l-0.5,0l0-0.9
		c1-0.2,2.1-0.3,3.1-0.4c1.2-0.2,2.4,0.6,2.6,1.8C-1083.5,2265.6-1083.5,2265.8-1083.6,2266.1L-1083.6,2266.1z M-1088.5,2269.4
		c0,1,0.4,1.5,1.2,1.5c0.7,0,1.5-0.1,2.1-0.4l0.4-0.1v-2.6l-2.4,0.2c-0.4,0-0.8,0.2-1,0.4C-1088.4,2268.6-1088.5,2269-1088.5,2269.4
		z"/>
	<path class="st1" d="M-1824.9,2176.7h-11.1v-3l3.7-3.7c1-1,1.9-2,2.7-3.1c0.5-0.7,0.8-1.5,0.8-2.3c0.1-0.6-0.2-1.3-0.6-1.7
		c-0.5-0.4-1.2-0.5-1.8-0.5c-1.3,0-2.5,0.1-3.8,0.3l-0.6,0.1l-0.2-2.8c1.7-0.5,3.5-0.8,5.3-0.8c3.6,0,5.5,1.6,5.5,4.9
		c0,1.2-0.3,2.3-0.8,3.3c-0.8,1.3-1.9,2.4-3,3.4l-3,2.7h7.1V2176.7z M-1820.6,2161.3c1.2-1.5,3.1-2.3,5-2.1c1.9-0.1,3.8,0.7,5,2.1
		c1.1,1.4,1.7,3.7,1.7,6.9s-0.6,5.4-1.7,6.8c-1.3,1.4-3.1,2.2-5,2c-1.9,0.1-3.7-0.6-5-2c-1.1-1.4-1.7-3.6-1.7-6.8
		S-1821.8,2162.8-1820.6,2161.3z M-1812.7,2168.1c0.1-1.5-0.1-3.1-0.7-4.5c-0.4-0.8-1.3-1.4-2.3-1.3c-1-0.1-1.9,0.4-2.3,1.3
		c-0.6,1.4-0.8,3-0.7,4.5c-0.1,1.5,0.1,3.1,0.7,4.5c0.4,0.8,1.3,1.3,2.3,1.3c0.9,0.1,1.8-0.4,2.3-1.3
		C-1812.8,2171.2-1812.6,2169.7-1812.7,2168.1z M-1795.3,2176.7h-11.1v-3l3.7-3.7c1-1,1.9-2,2.7-3.1c0.5-0.7,0.8-1.5,0.8-2.3
		c0.1-0.6-0.2-1.3-0.6-1.7c-0.5-0.4-1.2-0.5-1.8-0.5c-1.3,0-2.5,0.1-3.8,0.3l-0.6,0.1l-0.2-2.8c1.7-0.5,3.5-0.8,5.3-0.8
		c3.6,0,5.5,1.6,5.5,4.9c0,1.2-0.3,2.3-0.8,3.3c-0.8,1.3-1.9,2.4-3,3.4l-3,2.7h7.1V2176.7z M-1782.4,2159.5v17.2h-3.6v-13.1
		l-3.7,2.4l-1.6-2.7l5.7-3.8H-1782.4z"/>
	<path class="st1" d="M-1607.9,2176.7h-11.1v-3l3.7-3.7c1-1,1.9-2,2.7-3.1c0.5-0.7,0.8-1.5,0.8-2.3c0.1-0.6-0.2-1.3-0.6-1.7
		c-0.5-0.4-1.2-0.5-1.8-0.5c-1.3,0-2.5,0.1-3.8,0.3l-0.6,0.1l-0.2-2.8c1.7-0.5,3.5-0.8,5.3-0.8c3.6,0,5.5,1.6,5.5,4.9
		c0,1.2-0.3,2.3-0.8,3.3c-0.8,1.3-1.9,2.4-3,3.4l-3,2.7h7.1V2176.7z M-1603.6,2161.3c1.2-1.5,3.1-2.3,5-2.1c1.9-0.1,3.8,0.7,5,2.1
		c1.1,1.4,1.7,3.7,1.7,6.9s-0.6,5.4-1.7,6.8c-1.3,1.4-3.1,2.2-5,2c-1.9,0.1-3.7-0.6-5-2c-1.1-1.4-1.7-3.6-1.7-6.8
		S-1604.8,2162.8-1603.6,2161.3z M-1595.7,2168.1c0.1-1.5-0.1-3.1-0.7-4.5c-0.4-0.8-1.3-1.4-2.3-1.3c-1-0.1-1.9,0.4-2.3,1.3
		c-0.6,1.4-0.8,3-0.7,4.5c-0.1,1.5,0.1,3.1,0.7,4.5c0.4,0.8,1.3,1.3,2.3,1.3c0.9,0.1,1.8-0.4,2.3-1.3
		C-1595.8,2171.2-1595.6,2169.7-1595.7,2168.1z M-1578.3,2176.7h-11.1v-3l3.7-3.7c1-1,1.9-2,2.7-3.1c0.5-0.7,0.8-1.5,0.8-2.3
		c0.1-0.6-0.2-1.3-0.6-1.7c-0.5-0.4-1.2-0.5-1.8-0.5c-1.3,0-2.5,0.1-3.8,0.3l-0.6,0.1l-0.2-2.8c1.7-0.5,3.5-0.8,5.3-0.8
		c3.6,0,5.5,1.6,5.5,4.9c0,1.2-0.3,2.3-0.8,3.3c-0.8,1.3-1.9,2.4-3,3.4l-3,2.7h7.1V2176.7z M-1563.5,2176.7h-11.1v-3l3.7-3.7
		c1-1,1.9-2,2.7-3.1c0.5-0.7,0.8-1.5,0.8-2.3c0.1-0.6-0.2-1.3-0.6-1.7c-0.5-0.4-1.2-0.5-1.8-0.5c-1.3,0-2.5,0.1-3.8,0.3l-0.6,0.1
		l-0.2-2.8c1.7-0.5,3.5-0.8,5.3-0.8c3.6,0,5.5,1.6,5.5,4.9c0,1.2-0.3,2.3-0.8,3.3c-0.8,1.3-1.9,2.4-3,3.4l-3,2.7h7.1V2176.7z"/>
	<path class="st1" d="M-1389.9,2176.7h-11.1v-3l3.7-3.7c1-1,1.9-2,2.7-3.1c0.5-0.7,0.8-1.5,0.8-2.3c0.1-0.6-0.2-1.3-0.6-1.7
		c-0.5-0.4-1.2-0.5-1.8-0.5c-1.3,0-2.5,0.1-3.8,0.3l-0.6,0.1l-0.2-2.8c1.7-0.5,3.5-0.8,5.3-0.8c3.6,0,5.5,1.6,5.5,4.9
		c0,1.2-0.3,2.3-0.8,3.3c-0.8,1.3-1.9,2.4-3,3.4l-3,2.7h7.1V2176.7z M-1385.6,2161.3c1.2-1.5,3.1-2.3,5-2.1c1.9-0.1,3.8,0.7,5,2.1
		c1.1,1.4,1.7,3.7,1.7,6.9s-0.6,5.4-1.7,6.8c-1.3,1.4-3.1,2.2-5,2c-1.9,0.1-3.7-0.6-5-2c-1.1-1.4-1.7-3.6-1.7-6.8
		S-1386.8,2162.8-1385.6,2161.3z M-1377.7,2168.1c0.1-1.5-0.1-3.1-0.7-4.5c-0.4-0.8-1.3-1.4-2.3-1.3c-1-0.1-1.9,0.4-2.3,1.3
		c-0.6,1.4-0.8,3-0.7,4.5c-0.1,1.5,0.1,3.1,0.7,4.5c0.4,0.8,1.3,1.3,2.3,1.3c0.9,0.1,1.8-0.4,2.3-1.3
		C-1377.8,2171.2-1377.6,2169.7-1377.7,2168.1z M-1360.3,2176.7h-11.1v-3l3.7-3.7c1-1,1.9-2,2.7-3.1c0.5-0.7,0.8-1.5,0.8-2.3
		c0.1-0.6-0.2-1.3-0.6-1.7c-0.5-0.4-1.2-0.5-1.8-0.5c-1.3,0-2.5,0.1-3.8,0.3l-0.6,0.1l-0.2-2.8c1.7-0.5,3.5-0.8,5.3-0.8
		c3.6,0,5.5,1.6,5.5,4.9c0,1.2-0.3,2.3-0.8,3.3c-0.8,1.3-1.9,2.4-3,3.4l-3,2.7h7.1V2176.7z M-1356.7,2160.2c1.7-0.6,3.5-1,5.3-0.9
		c1.5-0.1,3,0.3,4.3,1.1c1,0.9,1.5,2.3,1.4,3.6c0.1,1.5-0.7,3-2,3.8c0.7,0.3,1.3,0.8,1.8,1.4c0.4,0.7,0.6,1.5,0.5,2.3
		c0.1,1.5-0.4,3-1.4,4.1c-1.3,1-2.9,1.5-4.5,1.4c-1.6,0-3.2-0.2-4.8-0.7l-0.8-0.2l0.2-2.7c1.6,0.3,3.2,0.5,4.9,0.5
		c1.8,0,2.7-0.8,2.7-2.3c0-0.6-0.2-1.2-0.7-1.5c-0.5-0.4-1.2-0.6-1.8-0.6h-3.5v-3h3.5c0.6,0,1.1-0.3,1.5-0.7c0.4-0.4,0.7-1,0.7-1.6
		c0-1.2-0.9-1.8-2.6-1.8c-1.3,0-2.6,0.1-3.8,0.4l-0.7,0.1L-1356.7,2160.2z"/>
	<path class="st1" d="M-1171.9,2176.7h-11.1v-3l3.7-3.7c1-1,1.9-2,2.7-3.1c0.5-0.7,0.8-1.5,0.8-2.3c0.1-0.6-0.2-1.3-0.6-1.7
		c-0.5-0.4-1.2-0.5-1.8-0.5c-1.3,0-2.5,0.1-3.8,0.3l-0.6,0.1l-0.2-2.8c1.7-0.5,3.5-0.8,5.3-0.8c3.6,0,5.5,1.6,5.5,4.9
		c0,1.2-0.3,2.3-0.8,3.3c-0.8,1.3-1.9,2.4-3,3.4l-3,2.7h7.1V2176.7z M-1167.6,2161.3c1.2-1.5,3.1-2.3,5-2.1c1.9-0.1,3.8,0.7,5,2.1
		c1.1,1.4,1.7,3.7,1.7,6.9s-0.6,5.4-1.7,6.8c-1.3,1.4-3.1,2.2-5,2c-1.9,0.1-3.7-0.6-5-2c-1.1-1.4-1.7-3.6-1.7-6.8
		S-1168.8,2162.8-1167.6,2161.3z M-1159.7,2168.1c0.1-1.5-0.1-3.1-0.7-4.5c-0.4-0.8-1.3-1.4-2.3-1.3c-1-0.1-1.9,0.4-2.3,1.3
		c-0.6,1.4-0.8,3-0.7,4.5c-0.1,1.5,0.1,3.1,0.7,4.5c0.4,0.8,1.3,1.3,2.3,1.3c0.9,0.1,1.8-0.4,2.3-1.3
		C-1159.8,2171.2-1159.6,2169.7-1159.7,2168.1z M-1142.3,2176.7h-11.1v-3l3.7-3.7c1-1,1.9-2,2.7-3.1c0.5-0.7,0.8-1.5,0.8-2.3
		c0.1-0.6-0.2-1.3-0.6-1.7c-0.5-0.4-1.2-0.5-1.8-0.5c-1.3,0-2.5,0.1-3.8,0.3l-0.6,0.1l-0.2-2.8c1.7-0.5,3.5-0.8,5.3-0.8
		c3.6,0,5.5,1.6,5.5,4.9c0,1.2-0.3,2.3-0.8,3.3c-0.8,1.3-1.9,2.4-3,3.4l-3,2.7h7.1V2176.7z M-1132,2176.7v-2.8h-7.3v-2.7l4.2-11.6h4
		l-4.6,11.2h3.7v-4.8h3.6v4.8h1.6v3.1h-1.6v2.8H-1132z"/>
	<line class="st2" x1="-1640.8" y1="2157.7" x2="-1640.8" y2="2288.4"/>
	<line class="st2" x1="-1422.8" y1="2157.7" x2="-1422.8" y2="2288.4"/>
	<line class="st2" x1="-1204.8" y1="2157.7" x2="-1204.8" y2="2288.4"/>
	
		<linearGradient id="SVGID_1_" gradientUnits="userSpaceOnUse" x1="-1768.339" y1="2583.7454" x2="-1767.3671" y2="2583.7454" gradientTransform="matrix(769 0 0 -6 1358016.5 17698.1621)">
		<stop  offset="0" style="stop-color:#0F369B"/>
		<stop  offset="1" style="stop-color:#C42938"/>
	</linearGradient>
	<path class="st3" d="M-1854.8,2192.7h763c1.7,0,3,1.3,3,3l0,0c0,1.7-1.3,3-3,3h-763c-1.7,0-3-1.3-3-3l0,0
		C-1857.8,2194-1856.4,2192.7-1854.8,2192.7z"/>
	<line class="st2" x1="-1858" y1="2157.7" x2="-1858" y2="2288.4"/>
</g>
</svg>
