<svg xmlns="http://www.w3.org/2000/svg" xmlns:xlink="http://www.w3.org/1999/xlink" width="255" height="39" viewBox="0 0 255 39">
  <defs>
    <clipPath id="clip-logo-5g">
      <rect width="255" height="39"/>
    </clipPath>
  </defs>
  <g id="logo-5g" clip-path="url(#clip-logo-5g)">
    <g id="Group_1175" data-name="Group 1175" transform="translate(-1002 -834.792)">
      <g id="Group_994" data-name="Group 994" transform="translate(1004 835.792)">
        <rect id="Rectangle_26" data-name="Rectangle 26" width="22.954" height="36.449" rx="2.221" transform="translate(0.411 0.289)" fill="#e6f3ff"/>
        <rect id="Rectangle_27" data-name="Rectangle 27" width="16.346" height="29.834" rx="2.221" transform="translate(4.636 4.515)" fill="#b0ddff"/>
        <g id="Group_74" data-name="Group 74" transform="translate(0 0)">
          <g id="Group_67" data-name="Group 67">
            <path id="Path_51" data-name="Path 51" d="M322.919,3888.722h-21.26a1.185,1.185,0,0,1-1.183-1.183v-34.814a1.184,1.184,0,0,1,1.183-1.183h21.26a1.184,1.184,0,0,1,1.183,1.183v34.814A1.185,1.185,0,0,1,322.919,3888.722Zm-21.26-36.354a.358.358,0,0,0-.357.357v34.814a.358.358,0,0,0,.357.357h21.26a.358.358,0,0,0,.357-.357v-34.814a.358.358,0,0,0-.357-.357Z" transform="translate(-300.476 -3851.542)" fill="#2553ff"/>
          </g>
          <g id="Group_68" data-name="Group 68" transform="translate(2.258 2.182)">
            <path id="Path_52" data-name="Path 52" d="M323.774,3889.261h-16.66a1.232,1.232,0,0,1-1.23-1.23V3858a1.232,1.232,0,0,1,1.23-1.23h16.66A1.232,1.232,0,0,1,325,3858v30.033A1.232,1.232,0,0,1,323.774,3889.261Zm-16.66-31.668a.405.405,0,0,0-.4.4v30.033a.405.405,0,0,0,.4.4h16.66a.405.405,0,0,0,.4-.4V3858a.405.405,0,0,0-.4-.4Z" transform="translate(-305.883 -3856.767)" fill="#2553ff"/>
          </g>
          <g id="Group_69" data-name="Group 69" transform="translate(8.685 35.102)">
            <path id="Path_53" data-name="Path 53" d="M324.4,3936.41h-2.716a.413.413,0,0,1,0-.826H324.4a.413.413,0,0,1,0,.826Z" transform="translate(-321.269 -3935.584)" fill="#2553ff"/>
          </g>
          <g id="Group_70" data-name="Group 70" transform="translate(11.4 35.102)">
            <path id="Path_54" data-name="Path 54" d="M330.9,3936.41h-2.716a.413.413,0,0,1,0-.826H330.9a.413.413,0,0,1,0,.826Z" transform="translate(-327.771 -3935.584)" fill="#2553ff"/>
          </g>
          <g id="Group_71" data-name="Group 71" transform="translate(5.381 5.956)">
            <path id="Path_55" data-name="Path 55" d="M325.1,3877.956a.412.412,0,0,1-.292-.121l-11.327-11.328a.413.413,0,1,1,.584-.584l11.327,11.327a.413.413,0,0,1-.292.7Z" transform="translate(-313.36 -3865.802)" fill="#2553ff"/>
          </g>
          <g id="Group_72" data-name="Group 72" transform="translate(11.045 15.199)">
            <path id="Path_56" data-name="Path 56" d="M334.42,3895.844a.412.412,0,0,1-.292-.121l-7.087-7.087a.413.413,0,0,1,.584-.584l7.087,7.087a.413.413,0,0,1-.292.705Z" transform="translate(-326.92 -3887.931)" fill="#2553ff"/>
          </g>
          <g id="Group_73" data-name="Group 73" transform="translate(5.381 22.285)">
            <path id="Path_57" data-name="Path 57" d="M319.3,3911.252a.412.412,0,0,1-.292-.121l-5.528-5.528a.413.413,0,1,1,.584-.584l5.528,5.528a.413.413,0,0,1-.292.7Z" transform="translate(-313.36 -3904.897)" fill="#2553ff"/>
          </g>
        </g>
      </g>
      <g id="Group_996" data-name="Group 996" transform="translate(1162 837.409)">
        <g id="Group_77" data-name="Group 77" transform="translate(0)">
          <path id="Path_61" data-name="Path 61" d="M651.589,3886.9h-4.91l-1.364-4.039a5.388,5.388,0,0,0-2.17-7.566L631.1,3869.14l6.346-4.537c1.059.355,1.571.534,1.836.625l0,0,4.352,1.478a1.125,1.125,0,0,0,.763,1.034l.949.323a1.121,1.121,0,0,0,1.032-.159l1.33,1.53a.953.953,0,0,0,.72.329c.431,0,.6-.24,1.482-.738a.519.519,0,0,0-.538-.887l-.926.562-1.5-1.722.984-2.21,2.312.013.178,1.068a.519.519,0,0,0,1.024-.17l-.189-1.137a.953.953,0,0,0-.936-.8l-2.032-.011a1.12,1.12,0,0,0-.574-.982l-.874-.492a1.126,1.126,0,0,0-1.324.161l-6.508-3.665a3.047,3.047,0,0,0-3.866.741l-10.586,4.576a4.719,4.719,0,1,0,.941,9.3l10.488,9.706-1.29,3.818h-4.25a2.871,2.871,0,0,0-2.868,2.867v1.177a1.239,1.239,0,0,0,1.238,1.238h24.4a1.24,1.24,0,0,0,1.238-1.238v-1.177A2.871,2.871,0,0,0,651.589,3886.9Z" transform="translate(-619.672 -3858.363)" fill="#e6f3ff"/>
        </g>
        <g id="Group_80" data-name="Group 80" transform="translate(0)">
          <ellipse id="Ellipse_5" data-name="Ellipse 5" cx="1.612" cy="1.612" rx="1.612" ry="1.612" transform="translate(2.552 8.813)" fill="#b0ddff"/>
          <ellipse id="Ellipse_6" data-name="Ellipse 6" cx="2.042" cy="2.042" rx="2.042" ry="2.042" transform="translate(18.977 19.697)" fill="#b0ddff"/>
          <g id="Group_78" data-name="Group 78">
            <path id="Path_62" data-name="Path 62" d="M627.526,3876.768a2.168,2.168,0,1,0,2.168,2.167A2.17,2.17,0,0,0,627.526,3876.768Zm0,3.3a1.13,1.13,0,1,1,1.13-1.13A1.131,1.131,0,0,1,627.526,3880.065Z" transform="translate(-622.807 -3868.51)" fill="#2553ff"/>
            <path id="Path_63" data-name="Path 63" d="M663.341,3906.217a2.611,2.611,0,1,0-2.611-2.611A2.613,2.613,0,0,0,663.341,3906.217Zm0-4.183a1.573,1.573,0,1,1-1.573,1.573A1.575,1.575,0,0,1,663.341,3902.034Z" transform="translate(-642.308 -3881.868)" fill="#2553ff"/>
            <path id="Path_64" data-name="Path 64" d="M651.589,3886.9h-4.91l-1.364-4.039a5.388,5.388,0,0,0-2.17-7.566L631.1,3869.14l6.346-4.537c1.059.355,1.571.534,1.836.625l0,0,4.352,1.478a1.125,1.125,0,0,0,.763,1.034l.949.323a1.121,1.121,0,0,0,1.032-.159l1.33,1.53a.953.953,0,0,0,.72.329c.431,0,.6-.24,1.482-.738a.519.519,0,0,0-.538-.887l-.926.562-1.5-1.722.984-2.21,2.312.013.178,1.068a.519.519,0,0,0,1.024-.17l-.189-1.137a.953.953,0,0,0-.936-.8l-2.032-.011a1.12,1.12,0,0,0-.574-.982l-.874-.492a1.126,1.126,0,0,0-1.324.161l-6.508-3.665a3.047,3.047,0,0,0-3.866.741l-10.586,4.576a4.719,4.719,0,1,0,.941,9.3l10.488,9.706-1.29,3.818h-4.25a2.871,2.871,0,0,0-2.868,2.867v1.177a1.239,1.239,0,0,0,1.238,1.238h24.4a1.24,1.24,0,0,0,1.238-1.238v-1.177A2.871,2.871,0,0,0,651.589,3886.9Zm-5.376-23.7h0c.013-.03.042-.083.123-.041l.874.492a.088.088,0,0,1,.037.113l-1.454,3.266a.087.087,0,0,1-.109.048l-.949-.323a.09.09,0,0,1-.052-.119Zm-7.708-3.544,6.516,3.67-1.064,2.39-4.117-1.4-.027-.011c-2.34-.943-3.571-.809-4.134-2.1A2.011,2.011,0,0,1,638.505,3859.66Zm-3.99,1.241a3.047,3.047,0,0,0,1.738,3.28l-6.193,4.428-1-.511a4.733,4.733,0,0,0-2.784-3.635Zm-10.125,11.569a3.681,3.681,0,1,1,3.682-3.681A3.685,3.685,0,0,1,624.391,3872.47Zm2.2.495a4.729,4.729,0,0,0,2.5-3.689l13.587,6.943a4.349,4.349,0,1,1-4.933,7.065Zm10.239,10.889a5.564,5.564,0,0,0,4.443,1.594,5.386,5.386,0,0,0,3.283-1.6l1.03,3.05H635.8Zm16.592,7.09a.2.2,0,0,1-.2.2h-24.4a.2.2,0,0,1-.2-.2v-1.177a1.832,1.832,0,0,1,1.83-1.83h21.137a1.832,1.832,0,0,1,1.83,1.83Z" transform="translate(-619.672 -3858.363)" fill="#2553ff"/>
          </g>
          <path id="Path_65" data-name="Path 65" d="M666.006,3928.369a.148.148,0,0,1-.147.148H642.65a.148.148,0,0,1-.148-.148v-.868a1.352,1.352,0,0,1,1.35-1.35h20.8a1.352,1.352,0,0,1,1.35,1.35Z" transform="translate(-632.259 -3895.736)" fill="#b0ddff"/>
          <g id="Group_79" data-name="Group 79" transform="translate(19.595 3.249)">
            <path id="Path_66" data-name="Path 66" d="M669.185,3868.647a.415.415,0,0,1-.319-.007l-5.27-2.237a.417.417,0,0,1,.336-.764l5.27,2.237a.417.417,0,0,1-.016.771Z" transform="translate(-663.346 -3865.604)" fill="#2553ff"/>
          </g>
        </g>
      </g>
      <g id="Group_998" data-name="Group 998" transform="translate(1046 838.218)">
        <g id="Group_96" data-name="Group 96" transform="translate(0 14.972)">
          <path id="Path_133" data-name="Path 133" d="M397.979,3907.673l.091-.259h21.082l.091.259a4.207,4.207,0,0,0,7.94,0l.091-.259h.55a.376.376,0,0,0,.143-.027l2.488-1a2.5,2.5,0,0,0,1.593-2.351v-6.227a.383.383,0,0,0-.327-.377l-5.3-.757-.069-.042a26.139,26.139,0,0,0-2.915-1.544,25.32,25.32,0,0,0-10.517-2.271h-.936a25.821,25.821,0,0,0-12.288,3.134l-2.719,1.483h-.1a17.817,17.817,0,0,0-8.6,2.332,3.128,3.128,0,0,0-1.567,2.7v4.563a.381.381,0,0,0,.381.381h2.856l.091.259a4.207,4.207,0,0,0,7.94,0Z" transform="translate(-386.712 -3892.819)" fill="#e6f3ff"/>
        </g>
        <ellipse id="Ellipse_8" data-name="Ellipse 8" cx="2.153" cy="2.153" rx="2.153" ry="2.153" transform="translate(5.143 26.336)" fill="#b0ddff"/>
        <ellipse id="Ellipse_9" data-name="Ellipse 9" cx="2.153" cy="2.153" rx="2.153" ry="2.153" transform="translate(34.347 26.336)" fill="#b0ddff"/>
        <g id="Group_98" data-name="Group 98" transform="translate(15.201 0)">
          <path id="Path_135" data-name="Path 135" d="M441.154,3862.217a.73.73,0,0,1-.537-.234,11.074,11.074,0,0,0-16.241,0,.734.734,0,1,1-1.073-1,12.541,12.541,0,0,1,18.387,0,.734.734,0,0,1-.537,1.234Z" transform="translate(-423.107 -3856.972)" fill="#2553ff"/>
          <path id="Path_136" data-name="Path 136" d="M442.209,3871.2a.731.731,0,0,1-.52-.217,7.512,7.512,0,0,0-10.917,0,.734.734,0,0,1-1.042-1.033,8.979,8.979,0,0,1,13,0,.734.734,0,0,1-.521,1.251Z" transform="translate(-426.84 -3862.906)" fill="#2553ff"/>
          <path id="Path_137" data-name="Path 137" d="M437.108,3880.222a.733.733,0,0,1-.516-1.255,5.3,5.3,0,0,1,3.571-1.533h.054a5.294,5.294,0,0,1,3.57,1.533.734.734,0,1,1-1.033,1.042,3.833,3.833,0,0,0-2.538-1.108h-.054a3.831,3.831,0,0,0-2.538,1.108A.731.731,0,0,1,437.108,3880.222Z" transform="translate(-430.833 -3868.887)" fill="#2553ff"/>
        </g>
        <path id="Path_138" data-name="Path 138" d="M422.493,3898.937a20.007,20.007,0,0,1,8.639-2.4l.322-.014v3.054H421.316Z" transform="translate(-406.863 -3880.006)" fill="#b0ddff"/>
        <path id="Path_139" data-name="Path 139" d="M447.412,3896.527h.677a19.568,19.568,0,0,1,7.287,1.4l.435.173-1.489,1.489h-6.91Z" transform="translate(-422.059 -3880.006)" fill="#b0ddff"/>
        <g id="Group_97" data-name="Group 97" transform="translate(0 14.972)">
          <rect id="Rectangle_30" data-name="Rectangle 30" width="2.299" height="0.762" transform="translate(19.212 6.916)" fill="#2553ff" stroke="#2f58f5" stroke-width="0.4"/>
          <path id="Path_134" data-name="Path 134" d="M397.979,3907.673l.091-.259h21.082l.091.259a4.207,4.207,0,0,0,7.94,0l.091-.259h.55a.376.376,0,0,0,.143-.027l2.488-1a2.5,2.5,0,0,0,1.593-2.351v-6.227a.383.383,0,0,0-.327-.377l-5.3-.757-.069-.042a26.139,26.139,0,0,0-2.915-1.544,25.32,25.32,0,0,0-10.517-2.271h-.936a25.821,25.821,0,0,0-12.288,3.134l-2.719,1.483h-.1a17.817,17.817,0,0,0-8.6,2.332,3.128,3.128,0,0,0-1.567,2.7v4.563a.381.381,0,0,0,.381.381h2.856l.091.259a4.207,4.207,0,0,0,7.94,0Zm28.625-.716h0a3.463,3.463,0,0,1-3.384,2.769,3.462,3.462,0,1,1,3.454-3.461A3.443,3.443,0,0,1,426.6,3906.957Zm-2.994-10.945a25.207,25.207,0,0,1,2.474,1.354.385.385,0,0,0,.147.054l5.054.722v1.595h-2.306v.762h2.306v3.539a1.752,1.752,0,0,1-1.116,1.645l-2.734,1.1v-.574c0-.038,0-.077-.007-.114l-.01-.16c0-.042,0-.087-.008-.129s-.012-.084-.019-.127l-.025-.159c-.006-.042-.012-.084-.021-.124-.012-.055-.03-.119-.047-.179l-.028-.106c-.01-.04-.019-.079-.031-.117s-.03-.083-.045-.124l-.1-.275a1.027,1.027,0,0,0-.049-.1l-.066-.133c-.019-.04-.038-.081-.059-.12s-.031-.053-.048-.078-.041-.065-.06-.1c-.031-.055-.066-.113-.1-.165-.024-.033-.046-.063-.069-.093l-.083-.111c-.029-.04-.061-.083-.093-.123s-.069-.077-.1-.112-.073-.078-.1-.112-.043-.049-.065-.071-.063-.059-.094-.085l-.122-.11c-.028-.027-.058-.055-.088-.081s-.06-.045-.09-.068l-.118-.087c-.036-.028-.073-.056-.111-.081-.023-.015-.05-.031-.077-.047s-.076-.045-.114-.07c-.055-.036-.1-.064-.152-.092s-.093-.046-.141-.069l-.126-.061c-.036-.017-.069-.034-.1-.049s-.092-.035-.142-.052l-.155-.057c-.032-.012-.06-.022-.093-.033-.054-.017-.114-.031-.174-.045l-.152-.039c-.025-.007-.049-.014-.074-.019-.056-.011-.114-.019-.173-.027l-.171-.026c-.023,0-.046-.008-.07-.01a4.221,4.221,0,0,0-4.656,4.2v.387h-6.925v-8.46h8.841a.375.375,0,0,0,.269-.111l2.187-2.187Zm-11.545-2.43h.851a24.6,24.6,0,0,1,9.159,1.759l.546.218-1.872,1.872h-8.684Zm-12.006,3.041a25.094,25.094,0,0,1,10.84-3.006l.4-.018v3.833H398.581Zm-10.273,9.643v.388h-2.313v-4.183a2.361,2.361,0,0,1,1.185-2.04,17.03,17.03,0,0,1,8.425-2.237H411.3v8.46H398.232v-.388a4.223,4.223,0,1,0-8.446,0Zm4.224,3.46a3.462,3.462,0,1,1,3.46-3.46,3.413,3.413,0,0,1-.071.692A3.467,3.467,0,0,1,394.01,3909.725Z" transform="translate(-386.712 -3892.819)" fill="#2553ff" stroke="#2f58f5" stroke-width="0.4"/>
        </g>
      </g>
      <g id="Group_997" data-name="Group 997" transform="translate(1214 835.792)">
        <g id="Group_82" data-name="Group 82" transform="translate(0 0.032)">
          <path id="Path_67" data-name="Path 67" d="M737.71,3886.2a.4.4,0,1,0-.809,0v1.618a.4.4,0,1,0,.809,0Z" transform="translate(-727.325 -3871.838)" fill="#e6f3ff"/>
          <path id="Path_68" data-name="Path 68" d="M737.305,3893.435a.4.4,0,0,0-.4.4v1.618a.4.4,0,1,0,.809,0v-1.618A.4.4,0,0,0,737.305,3893.435Z" transform="translate(-727.325 -3876.242)" fill="#e6f3ff"/>
          <path id="Path_69" data-name="Path 69" d="M737.71,3878.562a.4.4,0,1,0-.809,0v1.618a.4.4,0,1,0,.809,0Z" transform="translate(-727.325 -3867.436)" fill="#e6f3ff"/>
          <path id="Path_70" data-name="Path 70" d="M759.735,3873.615a.4.4,0,0,0-.809,0v1.618a.4.4,0,0,0,.809,0Z" transform="translate(-740.02 -3864.584)" fill="#e6f3ff"/>
          <path id="Path_71" data-name="Path 71" d="M759.735,3865.977a.4.4,0,1,0-.809,0v1.618a.4.4,0,1,0,.809,0Z" transform="translate(-740.02 -3860.181)" fill="#e6f3ff"/>
          <path id="Path_72" data-name="Path 72" d="M759.331,3880.849a.4.4,0,0,0-.4.4v1.617a.4.4,0,1,0,.809,0v-1.617A.4.4,0,0,0,759.331,3880.849Z" transform="translate(-740.02 -3868.987)" fill="#e6f3ff"/>
          <path id="Path_73" data-name="Path 73" d="M787.55,3872.436a.4.4,0,0,0-.4.4v1.05a.4.4,0,1,0,.809,0v-1.05A.4.4,0,0,0,787.55,3872.436Z" transform="translate(-756.286 -3864.138)" fill="#e6f3ff"/>
          <path id="Path_74" data-name="Path 74" d="M754.937,3860.023a.4.4,0,0,0,.572-.572,1.415,1.415,0,0,1,0-2,.4.4,0,0,0-.572-.572,2.223,2.223,0,0,0,0,3.145Z" transform="translate(-737.345 -3855.102)" fill="#e6f3ff"/>
          <path id="Path_75" data-name="Path 75" d="M762.427,3859.451a.4.4,0,0,0,.572.572,2.227,2.227,0,0,0,0-3.145.4.4,0,0,0-.572.572A1.417,1.417,0,0,1,762.427,3859.451Z" transform="translate(-741.97 -3855.102)" fill="#e6f3ff"/>
          <path id="Path_76" data-name="Path 76" d="M752.429,3859.714a.4.4,0,1,0,.572-.572,2.629,2.629,0,0,1,0-3.717.4.4,0,0,0-.572-.572,3.437,3.437,0,0,0,0,4.861Z" transform="translate(-735.695 -3853.934)" fill="#e6f3ff"/>
          <path id="Path_77" data-name="Path 77" d="M764.452,3859.142a.4.4,0,1,0,.572.572,3.441,3.441,0,0,0,0-4.861.4.4,0,0,0-.572.572A2.632,2.632,0,0,1,764.452,3859.142Z" transform="translate(-743.137 -3853.934)" fill="#e6f3ff"/>
          <path id="Path_78" data-name="Path 78" d="M750.247,3859.543a.4.4,0,0,0,.286-.69,3.764,3.764,0,0,1,0-5.317.4.4,0,0,0-.572-.572,4.568,4.568,0,0,0,0,6.461A.4.4,0,0,0,750.247,3859.543Z" transform="translate(-734.081 -3852.846)" fill="#e6f3ff"/>
          <path id="Path_79" data-name="Path 79" d="M766.468,3858.853a.4.4,0,0,0,.572.572,4.568,4.568,0,0,0,0-6.461.4.4,0,0,0-.572.572A3.764,3.764,0,0,1,766.468,3858.853Z" transform="translate(-744.299 -3852.846)" fill="#e6f3ff"/>
          <path id="Path_80" data-name="Path 80" d="M758.14,3860.333a1.279,1.279,0,1,0-1.279-1.279A1.281,1.281,0,0,0,758.14,3860.333Z" transform="translate(-738.83 -3855.687)" fill="#e6f3ff"/>
          <path id="Path_81" data-name="Path 81" d="M784.773,3862.35a.4.4,0,0,0,.321-.158c.217-.284,2.124-2.808,2.124-4.036a2.445,2.445,0,1,0-4.89,0c0,1.228,1.907,3.752,2.124,4.036A.4.4,0,0,0,784.773,3862.35Z" transform="translate(-753.509 -3854.497)" fill="#e6f3ff"/>
          <path id="Path_82" data-name="Path 82" d="M730.4,3871.01h4.238a1.55,1.55,0,1,0-.037-3.1,1.146,1.146,0,0,0-1.458-.475,2,2,0,0,0-2.946.487,1.55,1.55,0,0,0,.2,3.087Z" transform="translate(-722.684 -3861.001)" fill="#e6f3ff"/>
          <path id="Path_83" data-name="Path 83" d="M756.009,3901.432h-2.465v-14.382a.4.4,0,0,0-.4-.4h-4.552v-6.593a.4.4,0,0,0-.228-.364l-2.4-1.162v-1.55a.4.4,0,0,0-.809,0v1.158l-6.416-3.111a.4.4,0,0,0-.581.364v5.718h-4.147v-.324a.4.4,0,0,0-.809,0v.324h-2.8a.4.4,0,0,0-.4.4v7.759h-2.4v-3.386a.4.4,0,0,0-.581-.364l-2.334,1.132v-.331a.4.4,0,1,0-.809,0v.723l-6.478,3.141a.4.4,0,0,0-.228.364v10.883H714.7a.4.4,0,1,0,0,.809h41.31a.4.4,0,1,0,0-.809Z" transform="translate(-714.294 -3865.605)" fill="#e6f3ff"/>
        </g>
        <path id="Rectangle_28" data-name="Rectangle 28" d="M1.74,0H6.474a0,0,0,0,1,0,0V10.817a0,0,0,0,1,0,0H0a0,0,0,0,1,0,0V1.74A1.74,1.74,0,0,1,1.74,0Z" transform="translate(12.25 25.413)" fill="#b0ddff"/>
        <path id="Rectangle_29" data-name="Rectangle 29" d="M1.74,0h6.1a0,0,0,0,1,0,0V13.15a0,0,0,0,1,0,0H0a0,0,0,0,1,0,0V1.74A1.74,1.74,0,0,1,1.74,0Z" transform="translate(30.619 23.08)" fill="#b0ddff"/>
        <path id="Path_84" data-name="Path 84" d="M756.128,3938.154h-41.31a.4.4,0,0,1,0-.809h41.31a.4.4,0,1,1,0,.809Z" transform="translate(-714.363 -3901.519)" fill="#2553ff"/>
        <ellipse id="Ellipse_7" data-name="Ellipse 7" cx="1.051" cy="1.051" rx="1.051" ry="1.051" transform="translate(30.264 2.578)" fill="#b0ddff"/>
        <g id="Group_94" data-name="Group 94" transform="translate(2.921 0)">
          <g id="Group_87" data-name="Group 87" transform="translate(0 9.377)">
            <path id="Path_85" data-name="Path 85" d="M721.593,3916.238a.4.4,0,0,1-.4-.4v-11.079a.4.4,0,0,1,.228-.364l9.621-4.665a.4.4,0,0,1,.581.364v3.791a.4.4,0,0,1-.809,0v-3.145L722,3905.008v10.825A.4.4,0,0,1,721.593,3916.238Z" transform="translate(-721.189 -3889.188)" fill="#2553ff"/>
            <g id="Group_83" data-name="Group 83" transform="translate(0 16.619)">
              <path id="Path_86" data-name="Path 86" d="M725.967,3914.948h-4.374a.4.4,0,0,1,0-.809h4.374a.4.4,0,1,1,0,.809Z" transform="translate(-721.189 -3914.139)" fill="#2553ff"/>
              <path id="Path_87" data-name="Path 87" d="M724.509,3919.766h-2.916a.4.4,0,0,1,0-.809h2.916a.4.4,0,1,1,0,.809Z" transform="translate(-721.189 -3916.916)" fill="#2553ff"/>
              <path id="Path_88" data-name="Path 88" d="M725.967,3924.584h-4.374a.4.4,0,0,1,0-.809h4.374a.4.4,0,0,1,0,.809Z" transform="translate(-721.189 -3919.693)" fill="#2553ff"/>
              <path id="Path_89" data-name="Path 89" d="M724.509,3929.4h-2.916a.4.4,0,0,1,0-.809h2.916a.4.4,0,1,1,0,.809Z" transform="translate(-721.189 -3922.47)" fill="#2553ff"/>
              <path id="Path_90" data-name="Path 90" d="M725.967,3934.22h-4.374a.4.4,0,0,1,0-.81h4.374a.4.4,0,0,1,0,.81Z" transform="translate(-721.189 -3925.247)" fill="#2553ff"/>
            </g>
            <path id="Path_91" data-name="Path 91" d="M751.878,3898.333a.4.4,0,0,1-.4-.4v-8.164a.4.4,0,0,1,.4-.4h8.164a.4.4,0,1,1,0,.809h-7.759v7.76A.4.4,0,0,1,751.878,3898.333Z" transform="translate(-738.645 -3883.238)" fill="#2553ff"/>
            <g id="Group_84" data-name="Group 84" transform="translate(17.493 8.164)">
              <path id="Path_92" data-name="Path 92" d="M766.389,3894.987h-3.5a.4.4,0,1,1,0-.809h3.5a.4.4,0,1,1,0,.809Z" transform="translate(-762.486 -3894.179)" fill="#2553ff"/>
              <path id="Path_93" data-name="Path 93" d="M768.373,3899.805h-2.041a.4.4,0,0,1,0-.809h2.041a.4.4,0,1,1,0,.809Z" transform="translate(-764.47 -3896.956)" fill="#2553ff"/>
              <path id="Path_94" data-name="Path 94" d="M766.389,3904.623h-3.5a.4.4,0,0,1,0-.809h3.5a.4.4,0,1,1,0,.809Z" transform="translate(-762.486 -3899.733)" fill="#2553ff"/>
              <path id="Path_95" data-name="Path 95" d="M768.373,3909.442h-2.041a.4.4,0,0,1,0-.809h2.041a.4.4,0,0,1,0,.809Z" transform="translate(-764.47 -3902.51)" fill="#2553ff"/>
              <path id="Path_96" data-name="Path 96" d="M766.389,3914.259h-3.5a.4.4,0,1,1,0-.809h3.5a.4.4,0,1,1,0,.809Z" transform="translate(-762.486 -3905.287)" fill="#2553ff"/>
              <path id="Path_97" data-name="Path 97" d="M768.373,3919.078h-2.041a.4.4,0,0,1,0-.809h2.041a.4.4,0,1,1,0,.809Z" transform="translate(-764.47 -3908.065)" fill="#2553ff"/>
              <path id="Path_98" data-name="Path 98" d="M766.389,3923.9h-3.5a.4.4,0,0,1,0-.809h3.5a.4.4,0,1,1,0,.809Z" transform="translate(-762.486 -3910.842)" fill="#2553ff"/>
              <path id="Path_99" data-name="Path 99" d="M768.373,3928.714h-2.041a.4.4,0,0,1,0-.809h2.041a.4.4,0,1,1,0,.809Z" transform="translate(-764.47 -3913.619)" fill="#2553ff"/>
              <path id="Path_100" data-name="Path 100" d="M766.389,3933.532h-3.5a.4.4,0,0,1,0-.809h3.5a.4.4,0,1,1,0,.809Z" transform="translate(-762.486 -3916.396)" fill="#2553ff"/>
            </g>
            <g id="Group_85" data-name="Group 85" transform="translate(7.58 14.287)">
              <path id="Path_101" data-name="Path 101" d="M747.652,3921.4a.4.4,0,0,1-.4-.4v-11.549h-7.354v11.549a.4.4,0,0,1-.809,0v-11.954a.4.4,0,0,1,.4-.4h8.164a.4.4,0,0,1,.4.4v11.954A.4.4,0,0,1,747.652,3921.4Z" transform="translate(-739.084 -3908.633)" fill="#2553ff"/>
              <path id="Path_102" data-name="Path 102" d="M745.368,3915.321h-1.749a.4.4,0,0,1-.4-.4v-1.75a.4.4,0,0,1,.4-.4h1.749a.4.4,0,0,1,.4.4v1.75A.4.4,0,0,1,745.368,3915.321Zm-1.344-.809h.94v-.94h-.94Z" transform="translate(-741.465 -3911.013)" fill="#2553ff"/>
              <path id="Path_103" data-name="Path 103" d="M752.251,3915.321H750.5a.4.4,0,0,1-.4-.4v-1.75a.4.4,0,0,1,.4-.4h1.749a.4.4,0,0,1,.4.4v1.75A.4.4,0,0,1,752.251,3915.321Zm-1.345-.809h.94v-.94h-.94Z" transform="translate(-745.432 -3911.013)" fill="#2553ff"/>
              <path id="Path_104" data-name="Path 104" d="M745.368,3922.2h-1.749a.4.4,0,0,1-.4-.4v-1.749a.4.4,0,0,1,.4-.4h1.749a.4.4,0,0,1,.4.4v1.749A.4.4,0,0,1,745.368,3922.2Zm-1.344-.809h.94v-.94h-.94Z" transform="translate(-741.465 -3914.981)" fill="#2553ff"/>
              <path id="Path_105" data-name="Path 105" d="M752.251,3922.2H750.5a.4.4,0,0,1-.4-.4v-1.749a.4.4,0,0,1,.4-.4h1.749a.4.4,0,0,1,.4.4v1.749A.4.4,0,0,1,752.251,3922.2Zm-1.345-.809h.94v-.94h-.94Z" transform="translate(-745.432 -3914.981)" fill="#2553ff"/>
              <path id="Path_106" data-name="Path 106" d="M745.368,3929.087h-1.749a.4.4,0,0,1-.4-.4v-1.749a.4.4,0,0,1,.4-.4h1.749a.4.4,0,0,1,.4.4v1.749A.4.4,0,0,1,745.368,3929.087Zm-1.344-.809h.94v-.94h-.94Z" transform="translate(-741.465 -3918.948)" fill="#2553ff"/>
              <path id="Path_107" data-name="Path 107" d="M752.251,3929.087H750.5a.4.4,0,0,1-.4-.4v-1.749a.4.4,0,0,1,.4-.4h1.749a.4.4,0,0,1,.4.4v1.749A.4.4,0,0,1,752.251,3929.087Zm-1.345-.809h.94v-.94h-.94Z" transform="translate(-745.432 -3918.948)" fill="#2553ff"/>
            </g>
            <g id="Group_86" data-name="Group 86" transform="translate(25.657 11.662)">
              <path id="Path_108" data-name="Path 108" d="M792.077,3917.825a.4.4,0,0,1-.4-.4v-14.173h-9.1v14.173a.4.4,0,1,1-.809,0v-14.578a.4.4,0,0,1,.4-.4h9.913a.4.4,0,0,1,.4.4v14.578A.4.4,0,0,1,792.077,3917.825Z" transform="translate(-781.759 -3902.438)" fill="#2553ff"/>
              <path id="Path_109" data-name="Path 109" d="M789.022,3910.106h-2.04a.4.4,0,0,1-.4-.4v-2.041a.4.4,0,0,1,.4-.4h2.04a.4.4,0,0,1,.4.4v2.041A.4.4,0,0,1,789.022,3910.106Zm-1.636-.809h1.232v-1.233h-1.232Z" transform="translate(-784.536 -3905.215)" fill="#2553ff"/>
              <path id="Path_110" data-name="Path 110" d="M797.97,3910.106h-2.041a.4.4,0,0,1-.4-.4v-2.041a.4.4,0,0,1,.4-.4h2.041a.4.4,0,0,1,.4.4v2.041A.4.4,0,0,1,797.97,3910.106Zm-1.637-.809h1.232v-1.233h-1.232Z" transform="translate(-789.693 -3905.215)" fill="#2553ff"/>
              <path id="Path_111" data-name="Path 111" d="M789.022,3919.054h-2.04a.4.4,0,0,1-.4-.4v-2.041a.4.4,0,0,1,.4-.4h2.04a.4.4,0,0,1,.4.4v2.041A.4.4,0,0,1,789.022,3919.054Zm-1.636-.809h1.232v-1.232h-1.232Z" transform="translate(-784.536 -3910.373)" fill="#2553ff"/>
              <path id="Path_112" data-name="Path 112" d="M797.97,3919.054h-2.041a.4.4,0,0,1-.4-.4v-2.041a.4.4,0,0,1,.4-.4h2.041a.4.4,0,0,1,.4.4v2.041A.4.4,0,0,1,797.97,3919.054Zm-1.637-.809h1.232v-1.232h-1.232Z" transform="translate(-789.693 -3910.373)" fill="#2553ff"/>
              <path id="Path_113" data-name="Path 113" d="M789.022,3928h-2.04a.4.4,0,0,1-.4-.4v-2.041a.4.4,0,0,1,.4-.4h2.04a.4.4,0,0,1,.4.4v2.041A.4.4,0,0,1,789.022,3928Zm-1.636-.809h1.232v-1.232h-1.232Z" transform="translate(-784.536 -3915.531)" fill="#2553ff"/>
              <path id="Path_114" data-name="Path 114" d="M797.97,3928h-2.041a.4.4,0,0,1-.4-.4v-2.041a.4.4,0,0,1,.4-.4h2.041a.4.4,0,0,1,.4.4v2.041A.4.4,0,0,1,797.97,3928Zm-1.637-.809h1.232v-1.232h-1.232Z" transform="translate(-789.693 -3915.531)" fill="#2553ff"/>
            </g>
            <path id="Path_115" data-name="Path 115" d="M771.151,3901.955a.4.4,0,0,1-.4-.4v-26.24a.4.4,0,0,1,.581-.363l9.621,4.665a.4.4,0,0,1,.228.364v7a.4.4,0,0,1-.809,0v-6.744l-8.813-4.273v25.594A.4.4,0,0,1,771.151,3901.955Z" transform="translate(-749.754 -3874.906)" fill="#2553ff"/>
            <path id="Path_116" data-name="Path 116" d="M789.1,3890.169h-3.5a.4.4,0,0,1,0-.809h3.5a.4.4,0,0,1,0,.809Z" transform="translate(-758.086 -3883.238)" fill="#2553ff"/>
            <path id="Path_117" data-name="Path 117" d="M789.1,3899.805h-3.5a.4.4,0,0,1,0-.809h3.5a.4.4,0,0,1,0,.809Z" transform="translate(-758.086 -3888.792)" fill="#2553ff"/>
            <path id="Path_118" data-name="Path 118" d="M791.087,3894.987h-2.041a.4.4,0,1,1,0-.809h2.041a.4.4,0,0,1,0,.809Z" transform="translate(-760.069 -3886.015)" fill="#2553ff"/>
          </g>
          <g id="Group_89" data-name="Group 89" transform="translate(6.706 10.722)">
            <g id="Group_88" data-name="Group 88">
              <path id="Path_119" data-name="Path 119" d="M737.425,3902.256a.4.4,0,0,1-.4-.4v-.729a.4.4,0,0,1,.809,0v.729A.4.4,0,0,1,737.425,3902.256Z" transform="translate(-737.02 -3891.13)" fill="#2553ff"/>
              <path id="Path_120" data-name="Path 120" d="M737.425,3886.979a.4.4,0,0,1-.4-.4v-1.618a.4.4,0,1,1,.809,0v1.618A.4.4,0,0,1,737.425,3886.979Zm0-3.235a.4.4,0,0,1-.4-.4v-1.618a.4.4,0,1,1,.809,0v1.618A.4.4,0,0,1,737.425,3883.744Zm0-3.236a.4.4,0,0,1-.4-.4v-1.617a.4.4,0,0,1,.809,0v1.617A.4.4,0,0,1,737.425,3880.508Z" transform="translate(-737.02 -3878.082)" fill="#2553ff"/>
            </g>
          </g>
          <g id="Group_91" data-name="Group 91" transform="translate(16.036 5.391)">
            <g id="Group_90" data-name="Group 90">
              <path id="Path_121" data-name="Path 121" d="M759.45,3889.177a.4.4,0,0,1-.4-.4v-.729a.4.4,0,0,1,.809,0v.729A.4.4,0,0,1,759.45,3889.177Z" transform="translate(-759.045 -3878.26)" fill="#2553ff"/>
              <path id="Path_122" data-name="Path 122" d="M759.45,3874.394a.4.4,0,0,1-.4-.4v-1.618a.4.4,0,0,1,.809,0v1.618A.4.4,0,0,1,759.45,3874.394Zm0-3.235a.4.4,0,0,1-.4-.4v-1.618a.4.4,0,0,1,.809,0v1.618A.4.4,0,0,1,759.45,3871.158Zm0-3.236a.4.4,0,0,1-.4-.4V3865.9a.4.4,0,0,1,.809,0v1.618A.4.4,0,0,1,759.45,3867.923Z" transform="translate(-759.045 -3865.496)" fill="#2553ff"/>
            </g>
          </g>
          <path id="Path_123" data-name="Path 123" d="M787.67,3877.454a.4.4,0,0,1-.4-.4v-1.618a.4.4,0,0,1,.809,0v1.618A.4.4,0,0,1,787.67,3877.454Zm0-3.236a.4.4,0,0,1-.4-.4v-1.051a.4.4,0,0,1,.809,0v1.051A.4.4,0,0,1,787.67,3874.219Z" transform="translate(-759.275 -3864.061)" fill="#2553ff"/>
          <g id="Group_92" data-name="Group 92" transform="translate(11.671)">
            <path id="Path_124" data-name="Path 124" d="M755.342,3860.065a.4.4,0,0,1-.286-.119,2.224,2.224,0,0,1,0-3.145.4.4,0,1,1,.572.572,1.415,1.415,0,0,0,0,2,.4.4,0,0,1-.286.69Z" transform="translate(-752.006 -3855.025)" fill="#2553ff"/>
            <path id="Path_125" data-name="Path 125" d="M762.832,3860.065a.4.4,0,0,1-.286-.69,1.417,1.417,0,0,0,0-2,.4.4,0,0,1,.572-.572,2.226,2.226,0,0,1,0,3.145A.4.4,0,0,1,762.832,3860.065Z" transform="translate(-756.63 -3855.025)" fill="#2553ff"/>
            <path id="Path_126" data-name="Path 126" d="M752.834,3859.755a.4.4,0,0,1-.286-.118,3.437,3.437,0,0,1,0-4.861.4.4,0,0,1,.572.572,2.628,2.628,0,0,0,0,3.717.4.4,0,0,1-.286.69Z" transform="translate(-750.355 -3853.857)" fill="#2553ff"/>
            <path id="Path_127" data-name="Path 127" d="M764.857,3859.755a.4.4,0,0,1-.286-.69,2.631,2.631,0,0,0,0-3.717.4.4,0,0,1,.572-.572,3.441,3.441,0,0,1,0,4.861A.4.4,0,0,1,764.857,3859.755Z" transform="translate(-757.797 -3853.857)" fill="#2553ff"/>
            <path id="Path_128" data-name="Path 128" d="M750.366,3859.467a.4.4,0,0,1-.286-.119,4.568,4.568,0,0,1,0-6.46.4.4,0,0,1,.572.572,3.764,3.764,0,0,0,0,5.317.4.4,0,0,1-.286.69Z" transform="translate(-748.742 -3852.769)" fill="#2553ff"/>
            <path id="Path_129" data-name="Path 129" d="M766.873,3859.467a.4.4,0,0,1-.286-.69,3.764,3.764,0,0,0,0-5.317.4.4,0,0,1,.572-.572,4.568,4.568,0,0,1,0,6.46A.4.4,0,0,1,766.873,3859.467Z" transform="translate(-758.96 -3852.769)" fill="#2553ff"/>
            <path id="Path_130" data-name="Path 130" d="M758.259,3860.257a1.279,1.279,0,1,1,1.279-1.279A1.281,1.281,0,0,1,758.259,3860.257Zm0-1.75a.47.47,0,1,0,.47.47A.471.471,0,0,0,758.259,3858.508Z" transform="translate(-753.49 -3855.611)" fill="#2553ff"/>
          </g>
          <path id="Path_131" data-name="Path 131" d="M784.892,3862.274a.4.4,0,0,1-.321-.158c-.217-.284-2.124-2.808-2.124-4.036a2.445,2.445,0,1,1,4.89,0c0,1.228-1.907,3.752-2.124,4.036A.4.4,0,0,1,784.892,3862.274Zm0-5.831a1.639,1.639,0,0,0-1.636,1.637,8.77,8.77,0,0,0,1.636,3.111,8.778,8.778,0,0,0,1.636-3.111A1.639,1.639,0,0,0,784.892,3856.443Z" transform="translate(-756.498 -3854.42)" fill="#2553ff"/>
          <g id="Group_93" data-name="Group 93" transform="translate(3.296 5.993)">
            <path id="Path_132" data-name="Path 132" d="M734.757,3870.934h-4.238a1.55,1.55,0,0,1-.2-3.087,2,2,0,0,1,2.946-.488,1.148,1.148,0,0,1,1.458.475,1.55,1.55,0,1,1,.037,3.1Zm-4.212-2.289a.74.74,0,1,0-.026,1.48h4.238a.741.741,0,1,0-.193-1.455.4.4,0,0,1-.5-.319.339.339,0,0,0-.568-.186.411.411,0,0,1-.3.11.4.4,0,0,1-.285-.138,1.2,1.2,0,0,0-1.984.277.433.433,0,0,1-.377.231Z" transform="translate(-728.969 -3866.918)" fill="#2553ff"/>
          </g>
        </g>
      </g>
      <g id="Group_999" data-name="Group 999" transform="translate(1109 836.601)">
        <path id="Path_674" data-name="Path 674" d="M800.013,376.442a11.129,11.129,0,0,1,2.015-6.384,12.871,12.871,0,0,0,2.383-7.5v-2.932a2.049,2.049,0,0,0-.813-1.639l-.031-.024-.014-.037a13.1,13.1,0,0,0-12.2-8.426,12.965,12.965,0,0,0-9.23,3.826c-.175.173-.343.35-.5.527l-.041.046h-8.553a3.532,3.532,0,0,0-3.528,3.528v7.331a3.532,3.532,0,0,0,3.528,3.528H775.6l-1.492,2.36a1.342,1.342,0,0,0-.206.709,1.315,1.315,0,0,0,1.329,1.329h3.07v4.536a2.8,2.8,0,0,0,2.795,2.795,2.493,2.493,0,0,0,.813-.126l3.723-1.132v5.06a.6.6,0,0,0,.6.6h13.2a.6.6,0,0,0,.6-.6Z" transform="translate(-769.5 -349.5)" fill="#e6f3ff"/>
        <path id="Path_676" data-name="Path 676" d="M785.183,421.035H784.5a1.965,1.965,0,0,1-1.831-2.072v-6.5a1.965,1.965,0,0,1,1.831-2.072h.682Z" transform="translate(-780.654 -403.452)" fill="#b0ddff"/>
        <path id="Path_677" data-name="Path 677" d="M914.9,450.451l.02.009a.606.606,0,0,0,.086.039l.02.009a.61.61,0,0,1,.343.519v2.144a.74.74,0,0,1-.809.636H895.479a.74.74,0,0,1-.809-.636v-2.144a.74.74,0,0,1,.809-.637h19.085A.984.984,0,0,1,914.9,450.451Z" transform="translate(-881.638 -439.89)" fill="#b0ddff"/>
        <path id="Path_675" data-name="Path 675" d="M800.013,376.442a11.129,11.129,0,0,1,2.015-6.384,12.871,12.871,0,0,0,2.383-7.5v-2.932a2.049,2.049,0,0,0-.813-1.639l-.031-.024-.014-.037a13.1,13.1,0,0,0-12.2-8.426,12.965,12.965,0,0,0-9.23,3.826c-.175.173-.343.35-.5.527l-.041.046h-8.553a3.532,3.532,0,0,0-3.528,3.528v7.331a3.532,3.532,0,0,0,3.528,3.528H775.6l-1.492,2.36a1.342,1.342,0,0,0-.206.709,1.315,1.315,0,0,0,1.329,1.329h3.07v4.536a2.8,2.8,0,0,0,2.795,2.795,2.493,2.493,0,0,0,.813-.126l3.723-1.132v5.06a.6.6,0,0,0,.6.6h13.2a.6.6,0,0,0,.6-.6Zm2.7-17.6.021.012a.594.594,0,0,0,.092.053l.021.012a.872.872,0,0,1,.369.71v2.932a.872.872,0,0,1-.871.87H781.824a.872.872,0,0,1-.87-.87v-2.932a.872.872,0,0,1,.87-.87H802.35A.858.858,0,0,1,802.717,358.837Zm-19.208-5.179a11.858,11.858,0,0,1,18.511,3.708l.1.2h-15.3v-1.6a2.064,2.064,0,0,0-2.062-2.062h-1.52Zm-9.61,13.435h-.87a2.339,2.339,0,0,1-2.337-2.337v-7.331a2.339,2.339,0,0,1,2.337-2.337h.87Zm1.191,0v-12h9.667a.872.872,0,0,1,.87.871v1.6h-3.8a2.064,2.064,0,0,0-2.062,2.062v2.932a2.064,2.064,0,0,0,2.062,2.062h3.8v1.6a.872.872,0,0,1-.87.87Zm23.733,9.348v6.779h-12v-5.269a.6.6,0,0,0-.241-.479.607.607,0,0,0-.53-.091l-4.515,1.375a1.335,1.335,0,0,1-.44.066,1.605,1.605,0,0,1-1.6-1.6v-5.131a.6.6,0,0,0-.6-.6l-3.912,0,2.025-3.2h7.751a2.064,2.064,0,0,0,2.062-2.062v-1.6H802.35a2.062,2.062,0,0,0,.5-.063l.208-.052-.039.211a11.622,11.622,0,0,1-1.969,4.657A12.312,12.312,0,0,0,798.822,376.442Z" transform="translate(-769.5 -349.5)" fill="#2553ff"/>
      </g>
    </g>
  </g>
</svg>
